<svg width="496" height="423" viewBox="0 0 496 423" fill="none" xmlns="http://www.w3.org/2000/svg">
<rect width="496" height="423" fill="white"/>
<rect width="496" height="423" rx="24" fill="white"/>
<rect x="4" y="4" width="366" height="135" rx="20" fill="#FAFAF4"/>
<path d="M198.289 45.623H164.57C162.05 45.623 160 47.6736 160 50.1934V74.5686C160 77.0894 162.05 79.1389 164.57 79.1389C167.769 79.1389 168.198 79.1389 168.198 79.1389H169.141V86.7562C169.141 88.1152 170.788 88.7865 171.741 87.8338C175.994 83.5794 173.007 86.5673 179.989 79.5858C180.275 79.2994 180.661 79.1389 181.066 79.1389H198.289C200.809 79.1389 202.86 77.0894 202.86 74.5686C202.86 60.3436 202.86 64.4529 202.86 50.1934C202.86 47.6736 200.809 45.623 198.289 45.623ZM167.617 54.7637H189.149C189.991 54.7637 190.672 55.4452 190.672 56.2871C190.672 57.1291 189.991 57.8106 189.149 57.8106H167.617C166.775 57.8106 166.094 57.1291 166.094 56.2871C166.094 55.4452 166.775 54.7637 167.617 54.7637ZM183.055 69.9983H167.617C166.775 69.9983 166.094 69.3168 166.094 68.4749C166.094 67.6329 166.775 66.9514 167.617 66.9514H183.055C183.897 66.9514 184.578 67.6329 184.578 68.4749C184.578 69.3168 183.897 69.9983 183.055 69.9983ZM195.243 63.9044H167.617C166.775 63.9044 166.094 63.2229 166.094 62.381C166.094 61.539 166.775 60.8576 167.617 60.8576H195.243C196.085 60.8576 196.766 61.539 196.766 62.381C196.766 63.2229 196.085 63.9044 195.243 63.9044Z" fill="#BFB38A"/>
<path d="M207.43 51.7168H205.927V74.5686C205.927 78.7685 202.489 82.1859 198.289 82.1859H181.9L178.65 85.2125H191.565L200.259 93.9272C201.214 94.8824 202.86 94.2119 202.86 92.8501V85.2125H207.43C209.95 85.2125 212 83.1826 212 80.6625V56.2872C212 53.7669 209.95 51.7168 207.43 51.7168Z" fill="#BFB38A"/>
<rect x="4" y="143" width="118" height="276" rx="20" fill="#F9F2F9"/>
<path d="M37.0003 277.606C36.9777 279.572 38.1895 281.341 40.0305 282.03V273.606C40.0305 273.485 40.0911 273.303 40.0911 273.182C38.2376 273.865 37.0048 275.63 37.0003 277.606Z" fill="#BF8ABA"/>
<path d="M53.5448 288.031H45.6055L48.5751 298.819C49.0149 300.465 50.5074 301.61 52.2115 301.607C53.424 301.621 54.5711 301.059 55.3024 300.092C56.0408 299.172 56.2685 297.943 55.9084 296.819L53.5448 288.031Z" fill="#BF8ABA"/>
<path d="M40.0918 273.121H40.1524V273.061C40.1524 273.121 40.1524 273.121 40.0918 273.121Z" fill="#BF8ABA"/>
<path d="M83.5454 272.273H83.0605V283.182H83.5454C86.5579 283.182 88.9999 280.74 88.9999 277.728C88.9999 274.716 86.5578 272.273 83.5454 272.273Z" fill="#BF8ABA"/>
<path d="M41.8496 273.607V282.213C41.9152 284.442 43.7413 286.214 45.9707 286.213H57.001V269.85H45.9707C43.7889 269.85 41.8496 271.425 41.8496 273.607Z" fill="#BF8ABA"/>
<path d="M58.8184 286.455L81.2425 295.425V260.395L58.8184 269.364V286.455Z" fill="#BF8ABA"/>
<rect x="374" y="4" width="118" height="277" rx="20" fill="#FAF4F4"/>
<path d="M457.501 136.521C457.344 136.558 457.209 136.656 457.124 136.793C457.04 136.93 457.013 137.095 457.05 137.252C457.494 139.137 457.719 141.067 457.72 143.004C457.712 149.558 455.105 155.841 450.471 160.476C445.837 165.11 439.553 167.717 433 167.725C427.617 167.744 422.378 165.984 418.098 162.72C418.673 161.863 418.903 160.82 418.741 159.801C418.58 158.782 418.039 157.862 417.228 157.225C416.416 156.588 415.394 156.28 414.366 156.365C413.338 156.45 412.379 156.92 411.683 157.681C410.987 158.443 410.604 159.439 410.611 160.471C410.619 161.503 411.016 162.493 411.723 163.245C412.43 163.996 413.395 164.452 414.424 164.522C415.454 164.592 416.472 164.27 417.274 163.622C421.78 167.091 427.312 168.963 433 168.943C436.918 168.939 440.784 168.048 444.309 166.338C447.833 164.627 450.926 162.141 453.353 159.066C455.781 155.991 457.481 152.406 458.327 148.581C459.172 144.755 459.141 140.788 458.236 136.976C458.218 136.897 458.184 136.823 458.137 136.758C458.091 136.693 458.031 136.637 457.963 136.595C457.895 136.553 457.819 136.524 457.739 136.512C457.66 136.499 457.579 136.502 457.501 136.521Z" fill="#BF8A8A"/>
<path d="M408.279 143.004C408.28 138.606 409.453 134.289 411.678 130.496C413.902 126.703 417.099 123.573 420.937 121.427C424.775 119.281 429.116 118.198 433.512 118.288C437.908 118.379 442.201 119.641 445.947 121.944C445.56 122.771 445.498 123.713 445.773 124.584C446.049 125.455 446.641 126.19 447.433 126.645C448.224 127.1 449.158 127.241 450.049 127.04C450.94 126.839 451.722 126.31 452.242 125.56C452.762 124.809 452.981 123.89 452.855 122.986C452.73 122.081 452.269 121.257 451.565 120.676C450.86 120.095 449.964 119.8 449.052 119.849C448.14 119.897 447.28 120.287 446.642 120.94C442.712 118.511 438.205 117.175 433.587 117.071C428.969 116.967 424.406 118.098 420.371 120.347C416.336 122.596 412.975 125.882 410.635 129.865C408.295 133.848 407.061 138.384 407.061 143.004C407.058 144.587 407.203 146.167 407.491 147.724C407.516 147.865 407.589 147.992 407.699 148.083C407.808 148.174 407.946 148.224 408.088 148.224C408.125 148.224 408.162 148.22 408.198 148.212C408.357 148.183 408.498 148.092 408.59 147.96C408.682 147.827 408.718 147.664 408.69 147.505C408.416 146.02 408.278 144.513 408.279 143.004Z" fill="#BF8A8A"/>
<path d="M429.344 138.978V139.344H436.656V138.978C436.599 134.038 429.401 134.038 429.344 138.978Z" fill="#BF8A8A"/>
<path d="M450.043 130.341C443.185 130.41 436.588 126.172 434.065 124.344C433.755 124.12 433.383 124 433 124C432.618 124 432.246 124.12 431.936 124.344C429.413 126.172 422.8 130.393 415.958 130.341C415.715 130.338 415.474 130.384 415.249 130.475C415.024 130.566 414.819 130.701 414.646 130.871C414.473 131.042 414.335 131.245 414.241 131.469C414.147 131.693 414.098 131.934 414.098 132.177C414.102 141.557 415.979 154.976 432.176 163.174C432.431 163.304 432.714 163.372 433 163.372C433.287 163.372 433.57 163.304 433.825 163.174C450.022 154.976 451.899 141.557 451.903 132.177C451.9 131.687 451.702 131.218 451.353 130.874C451.004 130.529 450.533 130.338 450.043 130.341ZM439.704 148.89C439.704 149.698 439.383 150.473 438.811 151.044C438.24 151.616 437.465 151.937 436.657 151.937H429.344C428.536 151.937 427.761 151.616 427.19 151.044C426.618 150.473 426.297 149.698 426.297 148.89V142.39C426.298 141.797 426.471 141.218 426.795 140.722C427.12 140.226 427.582 139.836 428.125 139.599V138.969C428.199 132.449 437.802 132.449 437.875 138.969V139.599C438.419 139.836 438.881 140.226 439.205 140.722C439.53 141.218 439.703 141.797 439.704 142.39V148.89Z" fill="#BF8A8A"/>
<path d="M433.998 144.94C433.989 144.885 433.991 144.83 434.005 144.776C434.019 144.723 434.044 144.673 434.079 144.63C434.215 144.433 434.295 144.202 434.309 143.964C434.324 143.725 434.273 143.487 434.162 143.275C434.051 143.063 433.884 142.885 433.679 142.762C433.474 142.638 433.24 142.572 433 142.572C432.761 142.572 432.526 142.638 432.322 142.762C432.117 142.885 431.95 143.063 431.839 143.275C431.728 143.487 431.677 143.725 431.691 143.964C431.706 144.202 431.786 144.433 431.922 144.63C431.956 144.672 431.981 144.722 431.995 144.775C432.009 144.828 432.012 144.883 432.003 144.937C431.908 145.413 431.637 146.773 431.447 147.717C431.424 147.835 431.427 147.956 431.456 148.073C431.486 148.189 431.54 148.297 431.617 148.39C431.693 148.483 431.789 148.557 431.897 148.609C432.006 148.66 432.124 148.686 432.244 148.686H433.756C433.876 148.686 433.995 148.66 434.103 148.608C434.212 148.557 434.308 148.482 434.384 148.389C434.46 148.296 434.515 148.187 434.544 148.071C434.573 147.954 434.576 147.832 434.553 147.715L433.998 144.94Z" fill="#BF8A8A"/>
<rect x="126" y="285" width="366" height="134" rx="20" fill="#F4FAF5"/>
<path d="M304.125 368.25C310.407 368.25 315.5 363.157 315.5 356.875C315.5 350.593 310.407 345.5 304.125 345.5C297.843 345.5 292.75 350.593 292.75 356.875C292.75 363.157 297.843 368.25 304.125 368.25ZM294.71 356.082C297.289 353.45 300.633 352 304.125 352C307.618 352 310.961 353.45 313.54 356.082C313.987 356.538 313.987 357.212 313.54 357.668C310.961 360.3 307.618 361.75 304.125 361.75C300.633 361.75 297.289 360.3 294.71 357.668C294.264 357.212 294.264 356.538 294.71 356.082Z" fill="#8ABF9E"/>
<path d="M293.279 364.025L287.015 370.29C285.995 371.31 285.995 372.964 287.015 373.985H287.015C288.036 375.005 289.69 375.005 290.711 373.985L296.975 367.721C295.508 366.75 294.25 365.492 293.279 364.025Z" fill="#8ABF9E"/>
<path d="M304.125 360.125C305.92 360.125 307.375 358.67 307.375 356.875C307.375 355.08 305.92 353.625 304.125 353.625C302.33 353.625 300.875 355.08 300.875 356.875C300.875 358.67 302.33 360.125 304.125 360.125Z" fill="#8ABF9E"/>
<path d="M326.875 329.25H304.125C301.437 329.25 299.25 331.437 299.25 334.125V339H331.75V334.125C331.75 331.437 329.563 329.25 326.875 329.25ZM317.125 334.938C317.125 335.387 316.762 335.75 316.312 335.75C315.863 335.75 315.5 335.387 315.5 334.938V333.312C315.5 332.863 315.863 332.5 316.312 332.5C316.762 332.5 317.125 332.863 317.125 333.312V334.938ZM320.375 334.938C320.375 335.387 320.012 335.75 319.562 335.75C319.113 335.75 318.75 335.387 318.75 334.938V333.312C318.75 332.863 319.113 332.5 319.562 332.5C320.012 332.5 320.375 332.863 320.375 333.312V334.938ZM323.625 334.938C323.625 335.387 323.262 335.75 322.812 335.75C322.363 335.75 322 335.387 322 334.938V333.312C322 332.863 322.363 332.5 322.812 332.5C323.262 332.5 323.625 332.863 323.625 333.312V334.938ZM326.875 334.938C326.875 335.387 326.512 335.75 326.062 335.75C325.613 335.75 325.25 335.387 325.25 334.938V333.312C325.25 332.863 325.613 332.5 326.062 332.5C326.512 332.5 326.875 332.863 326.875 333.312V334.938Z" fill="#8ABF9E"/>
<path d="M304.125 369.875C302.427 369.875 300.809 369.538 299.32 368.944C299.661 371.302 301.674 373.125 304.125 373.125H326.875C329.563 373.125 331.75 370.938 331.75 368.25V363.375H315.366C313.114 367.254 308.924 369.875 304.125 369.875ZM325.25 367.438C325.25 366.988 325.614 366.625 326.063 366.625C326.512 366.625 326.875 366.988 326.875 367.438V369.062C326.875 369.512 326.512 369.875 326.063 369.875C325.614 369.875 325.25 369.512 325.25 369.062V367.438ZM322 367.438C322 366.988 322.364 366.625 322.813 366.625C323.262 366.625 323.625 366.988 323.625 367.438V369.062C323.625 369.512 323.262 369.875 322.813 369.875C322.364 369.875 322 369.512 322 369.062V367.438ZM318.75 367.438C318.75 366.988 319.114 366.625 319.563 366.625C320.012 366.625 320.375 366.988 320.375 367.438V369.062C320.375 369.512 320.012 369.875 319.563 369.875C319.114 369.875 318.75 369.512 318.75 369.062V367.438ZM315.5 367.438C315.5 366.988 315.864 366.625 316.313 366.625C316.762 366.625 317.125 366.988 317.125 367.438V369.062C317.125 369.512 316.762 369.875 316.313 369.875C315.864 369.875 315.5 369.512 315.5 369.062V367.438Z" fill="#8ABF9E"/>
<path d="M317.07 355.79C317.101 355.876 317.125 355.966 317.125 356.062V357.688C317.125 357.784 317.101 357.874 317.07 357.96C316.959 359.29 316.65 360.563 316.168 361.75H331.75V352H316.168C316.65 353.187 316.959 354.46 317.07 355.79ZM325.25 356.062C325.25 355.613 325.613 355.25 326.063 355.25C326.512 355.25 326.875 355.613 326.875 356.062V357.688C326.875 358.137 326.512 358.5 326.063 358.5C325.613 358.5 325.25 358.137 325.25 357.688V356.062ZM322 356.062C322 355.613 322.363 355.25 322.813 355.25C323.262 355.25 323.625 355.613 323.625 356.062V357.688C323.625 358.137 323.262 358.5 322.813 358.5C322.363 358.5 322 358.137 322 357.688V356.062ZM318.75 356.062C318.75 355.613 319.113 355.25 319.563 355.25C320.012 355.25 320.375 355.613 320.375 356.062V357.688C320.375 358.137 320.012 358.5 319.563 358.5C319.113 358.5 318.75 358.137 318.75 357.688V356.062Z" fill="#8ABF9E"/>
<path d="M299.25 344.832C300.757 344.22 302.401 343.875 304.125 343.875C308.924 343.875 313.114 346.496 315.366 350.375H331.75V340.625H299.25V344.832ZM325.25 344.688C325.25 344.238 325.613 343.875 326.062 343.875C326.512 343.875 326.875 344.238 326.875 344.688V346.312C326.875 346.762 326.512 347.125 326.062 347.125C325.613 347.125 325.25 346.762 325.25 346.312V344.688ZM322 344.688C322 344.238 322.363 343.875 322.812 343.875C323.262 343.875 323.625 344.238 323.625 344.688V346.312C323.625 346.762 323.262 347.125 322.812 347.125C322.363 347.125 322 346.762 322 346.312V344.688ZM318.75 344.688C318.75 344.238 319.113 343.875 319.562 343.875C320.012 343.875 320.375 344.238 320.375 344.688V346.312C320.375 346.762 320.012 347.125 319.562 347.125C319.113 347.125 318.75 346.762 318.75 346.312V344.688ZM315.5 344.688C315.5 344.238 315.863 343.875 316.312 343.875C316.762 343.875 317.125 344.238 317.125 344.688V346.312C317.125 346.762 316.762 347.125 316.312 347.125C315.863 347.125 315.5 346.762 315.5 346.312V344.688Z" fill="#8ABF9E"/>
<rect x="126" y="143" width="244" height="138" rx="24" fill="#F2F2F2"/>
<g clip-path="url(#clip0_644_2158)">
<path d="M208.361 188V196.167L200.285 199.569V191.403L208.361 188Z" fill="#2BD8BF"/>
<path d="M208.361 188V196.167L200.285 199.569V191.403L208.361 188Z" fill="#8E3385"/>
<path d="M241.808 221.892L249.279 225.022C246.385 232.032 239.588 237 231.579 237C221.013 237 212.399 228.289 212.399 217.604C212.399 206.919 221.013 198.208 231.579 198.208C239.588 198.208 246.385 203.176 249.279 210.186L241.808 213.317C240.126 209.233 236.155 206.375 231.579 206.375C225.455 206.375 220.475 211.411 220.475 217.604C220.475 223.797 225.455 228.833 231.579 228.833C236.223 228.833 240.193 225.975 241.808 221.892ZM253.317 235.639H261.393V188L253.317 191.403V235.639ZM265.431 199.569L273.506 196.167V188L265.431 191.403V199.569ZM265.431 203.653V235.639H273.506V200.25L265.431 203.653ZM200.285 203.653V217.604C200.285 223.797 195.305 228.833 189.18 228.833C183.056 228.833 178.076 223.797 178.076 217.604V199.569L170 202.972V217.604C170 228.289 178.614 237 189.18 237C199.746 237 208.361 228.289 208.361 217.604V200.25L200.285 203.653ZM326 235.639H314.56L310.319 231.351C306.82 234.89 302.041 237 296.725 237C286.159 237 277.544 228.289 277.544 217.604C277.544 206.919 286.159 198.208 296.725 198.208C307.291 198.208 315.906 206.919 315.906 217.604C315.906 219.918 315.501 222.164 314.693 224.274L326 235.639ZM296.725 217.604H307.829C307.829 211.411 302.849 206.375 296.725 206.375C290.601 206.375 285.62 211.411 285.62 217.604C285.62 223.797 290.601 228.833 296.725 228.833C299.753 228.833 302.58 227.54 304.599 225.567L296.725 217.604Z" fill="#1C0B24"/>
<path fill-rule="evenodd" clip-rule="evenodd" d="M273.492 196.174L265.416 199.577V191.411L273.492 188.008V196.174Z" fill="#DF8943"/>
</g>
<defs>
<clipPath id="clip0_644_2158">
<rect width="156" height="49" fill="white" transform="translate(170 188)"/>
</clipPath>
</defs>
</svg>
