<svg width="227" height="49" viewBox="0 0 227 49" fill="none" xmlns="http://www.w3.org/2000/svg">
<path d="M46.2642 2.93089C44.8761 0.527813 41.5829 -0.448548 36.9949 0.193563C32.8871 0.767065 28.0581 2.56322 23.4085 5.24953C18.9014 7.84612 14.6864 11.2871 12.0546 14.7264C7.34696 13.8468 3.34652 14.4062 1.67527 17.2772C-1.38399 22.5812 6.31782 30.8354 15.1209 35.9248C19.7687 38.6111 24.5978 40.4073 28.7055 40.9808C28.899 41.0089 29.0925 41.0353 29.279 41.0547C30.8623 45.1818 33.2601 48.0071 36.3932 48.0071C42.51 48.0071 45.8103 37.2143 45.8103 27.0567C45.8103 22.0605 45.0151 16.9166 43.4723 12.9707C46.4841 9.39598 47.8949 5.74914 46.2642 2.93089ZM13.4901 18.2853C16.2556 19.0347 19.4873 20.3365 22.967 22.3473C23.0409 22.3877 23.1077 22.4335 23.1869 22.4739C17.6243 24.2507 13.6361 23.8813 12.7284 22.3138C12.2288 21.4624 12.4821 20.0357 13.4901 18.2853ZM16.7095 33.1734C7.16576 27.6636 3.12486 21.1246 4.43371 18.8676C4.92277 18.0196 6.31079 17.5182 8.35499 17.5182C8.98263 17.5234 9.60942 17.5657 10.2321 17.6449C9.13608 19.909 8.93025 22.0728 9.9717 23.8901C11.1609 25.9536 13.5517 26.828 16.5564 26.828C18.9138 26.828 21.6388 26.2879 24.4447 25.3661C25.1326 25.1391 25.8274 24.884 26.5223 24.6184C26.6895 24.731 26.8619 24.8577 27.029 24.9843C27.0026 25.6792 26.9885 26.3671 26.9885 27.0549C26.9741 30.6366 27.3935 34.2068 28.2376 37.6876C24.7191 37.0472 20.6712 35.4639 16.7095 33.1734ZM31.5836 37.9989C30.7567 35.2211 30.1956 31.6799 30.1551 27.5123C34.4687 31.4406 36.1452 35.0769 35.2374 36.6602C34.7501 37.5081 33.4343 37.969 31.5836 37.9989ZM36.4003 44.8317C35.2515 44.8317 33.8952 43.5158 32.7464 41.0969C35.2374 40.8365 37.0477 39.8655 37.9888 38.24C40.3532 34.1445 36.3 28.2881 30.2888 23.5048C30.3011 23.3043 30.3222 23.1055 30.3416 22.9102C31.1895 22.4892 32.0199 22.0441 32.8326 21.575C35.7922 19.8792 38.5485 17.8512 41.0481 15.5303C42.0034 18.4823 42.6507 22.3912 42.6507 27.0514C42.6507 38.0693 39.0109 44.8352 36.4003 44.8352V44.8317ZM30.8693 19.047C32.0586 12.8423 34.5021 9.26228 36.4003 9.26228C37.4558 9.26228 38.6714 10.3583 39.7533 12.3884C37.7091 14.4854 34.8768 16.7301 31.244 18.8236C31.1174 18.901 30.989 18.9678 30.8693 19.047ZM41.9365 9.81115C40.4746 7.52418 38.6239 6.09043 36.4003 6.09043C31.5308 6.09043 28.4522 12.9162 27.3896 20.8168C27.2225 20.8977 27.0554 20.9716 26.8882 21.0437C26.1212 20.537 25.3331 20.0568 24.545 19.5959C21.6661 17.9225 18.6104 16.5737 15.434 15.5743C17.5117 13.1642 20.6906 10.4726 24.9918 7.99389C29.2931 5.51517 33.721 3.84568 37.4347 3.33199C38.167 3.22329 38.9058 3.16451 39.646 3.15607C41.6234 3.15607 43.0184 3.62402 43.5268 4.50538C43.6947 4.81419 43.7773 5.16212 43.7661 5.51341C43.7661 6.60412 43.1592 8.10824 41.9365 9.81115Z" fill="#E71F80"/>
<path d="M145.729 32.7039L139.883 25.229H136.711V37.4414H139.883V29.9666L145.729 37.4414H148.902V25.229H145.729V32.7039Z" fill="#1C1C1C"/>
<path d="M160.884 27.9188H163.47V37.4414H166.642V27.9188H169.268V25.229H160.884V27.9188Z" fill="#1C1C1C"/>
<path d="M183.169 33.1155L180.758 25.229H178.235L175.647 33.1155L173.527 25.229H170.213L173.851 37.4414H177.079L179.421 30.3624L181.651 37.4414H184.886L188.787 25.229H185.479L183.169 33.1155Z" fill="#1C1C1C"/>
<path d="M197.088 24.8647C195.045 24.8647 193.381 25.545 192.095 26.9054C191.53 27.4805 191.083 28.1617 190.781 28.9097C190.479 29.6578 190.328 30.4581 190.336 31.2647C190.336 33.1623 190.971 34.7386 192.241 35.9935C193.512 37.2484 195.11 37.8764 197.035 37.8776C199.118 37.8776 200.806 37.1974 202.098 35.8369C203.227 34.6237 203.854 33.0282 203.854 31.3712C203.854 29.7142 203.227 28.1186 202.098 26.9054C200.804 25.5461 199.133 24.8659 197.088 24.8647ZM199.525 33.7945C198.877 34.438 198.001 34.7991 197.088 34.7991C196.175 34.7991 195.299 34.438 194.652 33.7945C194.327 33.4732 194.071 33.0892 193.899 32.6657C193.728 32.2423 193.644 31.7883 193.654 31.3316C193.649 30.8861 193.737 30.4444 193.911 30.0345C194.086 29.6245 194.343 29.2551 194.667 28.9496C195.315 28.3281 196.18 27.9849 197.078 27.9937C197.975 28.0024 198.834 28.3625 199.469 28.9966C200.104 29.6307 200.466 30.4884 200.476 31.3859C200.487 32.2835 200.145 33.1493 199.525 33.798V33.7945Z" fill="#1C1C1C"/>
<path d="M221.672 31.0115L226.52 25.229H222.597L218.722 30.2674V25.229H215.55V37.4414H218.722V32.1497L222.851 37.4414H226.972L221.672 31.0115Z" fill="#1C1C1C"/>
<path d="M211.555 31.2592C212.005 30.6728 212.231 29.9228 212.232 29.0091C212.245 28.1144 211.945 27.2433 211.384 26.5463C210.699 25.6725 209.637 25.2351 208.196 25.2339H206.425V27.6721H207.026C207.649 27.6721 208.128 27.8041 208.466 28.068C208.625 28.207 208.752 28.3785 208.839 28.5708C208.927 28.7632 208.972 28.972 208.972 29.1833C208.972 29.3946 208.927 29.6034 208.839 29.7958C208.752 29.9882 208.625 30.1596 208.466 30.2986C208.128 30.5625 207.649 30.6945 207.026 30.6945H206.425V32.751L209.454 37.441H213.411L209.574 32.4343C210.441 32.2338 211.101 31.8421 211.555 31.2592Z" fill="#1C1C1C"/>
<path d="M155.446 32.6405H159.014V29.9507H155.446H152.274V37.4414H159.227V34.7516H155.446V32.6405Z" fill="#1C1C1C"/>
<path d="M152.274 27.9188H155.446H159.227V25.229H152.274V27.9188Z" fill="#1C1C1C"/>
<path d="M72.8193 12.9831H63.8473V22.5901H72.5818V24.1734H63.8455V37.8724H62.0986V11.3945H72.8193V12.9831Z" fill="#E71F80"/>
<path d="M98.6361 16.7932C97.5386 15.4915 96.1708 14.4445 94.6279 13.7248C93.0849 13.0051 91.4037 12.63 89.7011 12.6256C82.9123 12.6256 77.83 18.0651 77.83 24.7747C77.83 32.6366 84.3813 36.725 89.7416 36.725C92.4015 36.725 95.9357 35.6537 98.6361 32.7158V35.0186C96.1973 37.1543 93.0625 38.326 89.8207 38.3136C81.8797 38.3136 76.0039 32.0789 76.0039 24.6955C76.0039 17.0711 82.1189 11.037 89.7416 11.037C93.0386 11.0102 96.221 12.2458 98.6361 14.4904V16.7932Z" fill="#E71F80"/>
<path d="M106.09 22.6306H122.13V11.3945H123.877V37.8777H122.13V24.2192H106.09V37.8777H104.343V11.3945H106.09V22.6306Z" fill="#E71F80"/>
<path d="M141.619 23.2706H136.727V11.0547H141.264C143.683 11.0547 144.893 12.1102 144.893 14.2213C144.893 15.4304 144.444 16.2619 143.547 16.7158V16.7475C145.211 16.9633 146.043 18.0006 146.043 19.8595C146.057 20.4167 145.929 20.9683 145.67 21.4622C145.434 21.8993 145.084 22.2642 144.657 22.5177C144.224 22.7739 143.754 22.962 143.264 23.0754C142.725 23.2045 142.173 23.2701 141.619 23.2706ZM139.902 13.4842V15.8503H140.254C140.683 15.8686 141.11 15.7854 141.501 15.6075C141.814 15.4445 141.971 15.1308 141.971 14.6663C141.981 14.4375 141.928 14.2102 141.816 14.0102C141.709 13.8417 141.546 13.717 141.355 13.6583C141.171 13.5935 140.981 13.547 140.789 13.5193C140.568 13.4959 140.346 13.4853 140.124 13.4877L139.902 13.4842ZM139.902 18.2147V20.8394H140.834C140.926 20.8394 141.102 20.8289 141.362 20.8077C141.559 20.7995 141.753 20.7609 141.937 20.6934C142.06 20.6406 142.206 20.5667 142.375 20.4753C142.531 20.3935 142.655 20.2623 142.727 20.1023C142.801 19.9259 142.837 19.7359 142.833 19.5446C142.835 19.3971 142.818 19.25 142.783 19.1066C142.755 18.985 142.694 18.8733 142.608 18.7829L142.388 18.5472C142.3 18.4648 142.191 18.4088 142.073 18.3853C141.927 18.3484 141.816 18.3149 141.74 18.2886C141.611 18.2535 141.477 18.2346 141.343 18.2323C141.154 18.2217 141.03 18.2147 140.97 18.2147H139.893H139.902Z" fill="#1C1C1C"/>
<path d="M155.115 11.0547H158.291V17.9244C158.306 18.7644 158.226 19.6035 158.055 20.426C157.89 21.1171 157.527 21.745 157.01 22.2327C156.093 23.1405 154.744 23.5943 152.964 23.5943C151.183 23.5943 149.835 23.1405 148.917 22.2327C148.4 21.7455 148.037 21.1174 147.872 20.426C147.7 19.6037 147.621 18.7645 147.637 17.9244V11.0635H150.803V17.4864C150.803 17.8751 150.812 18.19 150.828 18.4574C150.85 18.7545 150.899 19.0489 150.974 19.337C151.035 19.6161 151.15 19.8803 151.313 20.1146C151.484 20.3282 151.704 20.4977 151.954 20.609C152.272 20.7425 152.613 20.8113 152.958 20.8113C153.303 20.8113 153.645 20.7425 153.963 20.609C154.213 20.4977 154.432 20.3282 154.603 20.1146C154.767 19.8803 154.882 19.6161 154.943 19.337C155.018 19.0489 155.067 18.7545 155.089 18.4574C155.105 18.1988 155.113 17.8751 155.113 17.4864L155.115 11.0547Z" fill="#1C1C1C"/>
<path d="M168.271 11.7337L167.008 14.1966C166.425 13.6812 165.675 13.3938 164.897 13.3874C164.566 13.386 164.242 13.4814 163.964 13.6618C163.833 13.7365 163.724 13.8451 163.648 13.9762C163.573 14.1074 163.534 14.2564 163.535 14.4077C163.537 14.5182 163.562 14.6272 163.608 14.7277C163.654 14.8283 163.72 14.9182 163.803 14.9918C163.947 15.139 164.117 15.2582 164.304 15.3436C164.461 15.4087 164.675 15.4843 164.944 15.5705L165.755 15.8133C166.705 16.0948 167.445 16.4918 167.974 17.0043C168.503 17.5168 168.768 18.2328 168.769 19.1523C168.769 20.6312 168.347 21.7272 167.504 22.4402C166.599 23.2073 165.443 23.5908 164.037 23.5908C162.495 23.5881 160.993 23.1007 159.744 22.1975L161.106 19.6378C162.066 20.4799 163.005 20.9009 163.92 20.9009C164.303 20.9087 164.679 20.7988 164.997 20.586C165.147 20.4861 165.268 20.3492 165.349 20.1886C165.43 20.028 165.468 19.8492 165.46 19.6695C165.46 19.1194 164.947 18.6931 163.92 18.3906L163.532 18.2762C163.064 18.1531 162.604 18.0015 162.154 17.8223C161.799 17.6707 161.465 17.4751 161.159 17.24C160.835 16.9946 160.59 16.6594 160.455 16.276C160.302 15.8114 160.231 15.324 160.244 14.8352C160.244 13.6037 160.638 12.6121 161.426 11.8604C162.214 11.1086 163.222 10.7321 164.448 10.731C165.114 10.7384 165.775 10.8312 166.417 11.0072C167.063 11.1706 167.686 11.4147 168.271 11.7337Z" fill="#1C1C1C"/>
<path d="M173.456 11.0547V23.2706H170.289V11.0547H173.456Z" fill="#1C1C1C"/>
<path d="M175.529 23.2706V11.0547H178.696L184.514 18.5225H184.545V11.0547H187.712V23.2706H184.545L178.729 15.7852H178.696V23.2706H175.529Z" fill="#1C1C1C"/>
<path d="M192.979 18.4718H196.559V15.7855H189.804V23.2709H196.754V20.5829H192.979V18.4718ZM189.813 11.0532V13.7448H196.763V11.055L189.813 11.0532Z" fill="#1C1C1C"/>
<path d="M206.685 11.7341L205.422 14.197C204.839 13.6813 204.089 13.3939 203.311 13.3878C202.98 13.3864 202.656 13.4818 202.379 13.6622C202.247 13.7369 202.138 13.8455 202.062 13.9766C201.987 14.1078 201.948 14.2568 201.949 14.4081C201.951 14.5186 201.976 14.6276 202.022 14.7281C202.068 14.8286 202.134 14.9185 202.217 14.9922C202.361 15.1394 202.532 15.2587 202.72 15.344C202.876 15.4097 203.089 15.4853 203.358 15.5709L204.169 15.8137C205.119 16.0952 205.859 16.4922 206.39 17.0047C206.92 17.5172 207.184 18.2332 207.183 19.1527C207.183 20.6316 206.762 21.7276 205.92 22.4406C205.012 23.2077 203.856 23.5912 202.452 23.5912C200.91 23.5887 199.408 23.1013 198.158 22.1979L199.52 19.6382C200.48 20.4803 201.419 20.9013 202.335 20.9013C202.718 20.909 203.094 20.7991 203.413 20.5864C203.562 20.4863 203.683 20.3493 203.764 20.1887C203.845 20.0282 203.883 19.8494 203.874 19.6699C203.874 19.1198 203.361 18.6935 202.335 18.3909L201.946 18.2766C201.478 18.1529 201.018 18.0014 200.568 17.8227C200.21 17.6686 199.873 17.47 199.564 17.2316C199.24 16.9862 198.995 16.651 198.86 16.2676C198.708 15.803 198.636 15.3156 198.649 14.8268C198.649 13.5953 199.044 12.6037 199.833 11.852C200.622 11.1002 201.632 10.7249 202.862 10.7261C203.528 10.7335 204.189 10.8263 204.831 11.0023C205.477 11.1674 206.1 11.4133 206.685 11.7341Z" fill="#1C1C1C"/>
<path d="M216.666 11.7341L215.401 14.197C214.819 13.681 214.069 13.3936 213.29 13.3878C212.96 13.3867 212.636 13.4821 212.358 13.6622C212.227 13.7372 212.118 13.8458 212.042 13.9769C211.967 14.108 211.928 14.2568 211.929 14.4081C211.931 14.5186 211.955 14.6276 212.001 14.7281C212.047 14.8286 212.114 14.9185 212.196 14.9922C212.341 15.1391 212.512 15.2583 212.699 15.344C212.856 15.4091 213.069 15.4847 213.34 15.5709L214.149 15.8137C215.099 16.0952 215.839 16.4922 216.369 17.0047C216.899 17.5172 217.164 18.2332 217.162 19.1527C217.162 20.6316 216.741 21.7276 215.899 22.4406C214.992 23.2077 213.836 23.5912 212.432 23.5912C210.89 23.5887 209.387 23.1013 208.138 22.1979L209.499 19.6382C210.46 20.4803 211.398 20.9013 212.314 20.9013C212.697 20.9094 213.074 20.7994 213.392 20.5864C213.542 20.4863 213.663 20.3493 213.743 20.1887C213.824 20.0282 213.862 19.8494 213.853 19.6699C213.853 19.1198 213.34 18.6935 212.314 18.3909L211.925 18.2766C211.457 18.1529 210.998 18.0014 210.548 17.8227C210.19 17.669 209.853 17.4704 209.545 17.2316C209.217 16.988 208.968 16.6525 208.831 16.2676C208.679 15.8028 208.608 15.3155 208.621 14.8268C208.621 13.5953 209.016 12.6037 209.804 11.852C210.592 11.1002 211.602 10.7249 212.833 10.7261C213.498 10.7335 214.16 10.8263 214.802 11.0023C215.452 11.1667 216.078 11.4126 216.666 11.7341Z" fill="#1C1C1C"/>
</svg>
