<svg width="330" height="160" viewBox="0 0 330 160" fill="none" xmlns="http://www.w3.org/2000/svg">
<path d="M222.158 132.108C216.605 139.225 216.274 147.637 216.355 147.666C216.436 147.695 228.002 144.508 233.237 136.636C238.459 128.88 235.923 120.84 235.999 120.863C235.958 120.956 227.695 125.049 222.158 132.108Z" fill="#DF8943"/>
<path d="M230.331 156.766C220.088 155.024 216.27 147.28 216.27 147.35C216.391 147.39 227.365 144.221 236.819 145.335C246.365 146.496 251.977 152.429 251.977 152.493C252.11 152.499 240.678 158.548 230.331 156.766Z" fill="#DF8943"/>
<path d="M242.402 123.209C240.065 128.193 239.238 133.753 240.022 139.202C240.022 139.307 250.271 134.216 253.724 125.74C257.206 117.357 253.248 110.008 253.318 110.02C253.3 110.124 246.214 115.465 242.402 123.209Z" fill="#DF8943"/>
<path d="M254.902 145.662C252.06 145.698 249.245 145.113 246.653 143.948C244.061 142.783 241.754 141.066 239.895 138.916C240.005 138.916 249.621 134.045 258.801 133.529C264.39 133.231 269.924 134.759 274.569 137.883C274.696 137.894 264.964 145.65 254.902 145.662Z" fill="#DF8943"/>
<path d="M259.876 111.178C258.599 116.435 258.871 121.949 260.659 127.055C260.659 127.159 269.445 120.501 271.204 111.688C272.98 102.981 267.844 96.5195 267.913 96.5195C267.983 96.5195 262.052 103.033 259.876 111.178Z" fill="#DF8943"/>
<path d="M276.066 130.771C273.335 131.279 270.527 131.188 267.835 130.502C265.144 129.816 262.633 128.553 260.479 126.8C260.577 126.8 268.789 120.415 277.523 118.36C282.877 117.117 288.49 117.648 293.516 119.875C293.632 119.863 285.664 129.058 276.066 130.771Z" fill="#DF8943"/>
<path d="M274.458 96.5003C274.185 101.833 275.454 107.132 278.114 111.762C278.114 111.867 285.38 103.896 285.531 95.0258C285.682 86.1555 279.594 80.8554 279.658 80.8438C279.664 80.925 275.085 88.2163 274.458 96.5003Z" fill="#DF8943"/>
<path d="M293.697 112.708C291.141 113.673 288.406 114.068 285.682 113.868C282.958 113.667 280.311 112.875 277.924 111.547C278.017 111.547 284.766 103.954 292.89 100.413C301.015 96.8715 308.687 99.0368 308.704 99.0949C308.785 99.0891 302.64 109.387 293.697 112.708Z" fill="#DF8943"/>
<path d="M286.037 79.6906C286.694 84.9307 288.858 89.8673 292.264 93.9017C292.293 94.0062 297.951 84.985 296.588 76.3004C295.224 67.6159 288.376 63.529 288.434 63.5C288.475 63.5813 285.208 71.517 286.037 79.6906Z" fill="#DF8943"/>
<path d="M307.58 92.1317C305.259 93.517 302.665 94.3805 299.977 94.6622C297.29 94.9439 294.573 94.637 292.016 93.763C292.097 93.7281 297.337 85.1829 304.667 80.2891C309.177 77.3244 314.525 75.8989 319.912 76.2255C320.01 76.1326 315.751 87.3018 307.58 92.1317Z" fill="#DF8943"/>
<path d="M294.481 61.2246C296.003 66.2213 298.957 70.6617 302.977 73.996C303.017 74.0889 307.039 64.2839 304.242 55.9999C301.445 47.7159 294.063 44.9353 294.115 44.9062C294.15 45.0107 292.287 53.3818 294.481 61.2246Z" fill="#DF8943"/>
<path d="M317.652 69.5411C315.623 71.3057 313.234 72.6084 310.652 73.3591C308.07 74.1098 305.356 74.2907 302.697 73.8891C302.773 73.8427 306.446 64.566 312.812 58.4706C319.178 52.3752 327.024 51.7018 327.059 51.7482C327.152 51.6902 324.837 63.3992 317.652 69.5411Z" fill="#DF8943"/>
<path d="M299.662 41.6204C301.973 46.2525 305.609 50.092 310.108 52.6502C310.166 52.7373 312.458 42.4041 308.367 34.7703C304.276 27.1365 296.546 25.6794 296.598 25.6445C296.639 25.7142 296.215 34.3058 299.662 41.6204Z" fill="#DF8943"/>
<path d="M323.746 45.6358C322.06 47.7263 319.943 49.4283 317.539 50.6255C315.136 51.8227 312.502 52.487 309.818 52.573C309.882 52.5207 311.937 42.768 317.159 35.6161C322.382 28.4641 329.926 26.3974 329.99 26.4381C330.077 26.3684 329.764 38.3213 323.746 45.6358Z" fill="#DF8943"/>
<g clip-path="url(#clip0_471_2086)">
<path d="M164.438 150.322C163.94 150.283 163.587 149.844 163.632 149.347C163.677 148.85 164.103 148.483 164.6 148.522C179.977 149.732 213.923 148.029 227.901 143.507C242.007 138.955 255.12 131.765 266.544 122.318C290.616 102.528 306.139 74.2921 310.26 42.7874C313.626 17.0008 311.896 -5.97611 305.118 -25.4989C297.937 -46.1782 285.234 -62.422 267.342 -73.7796C266.919 -74.0478 266.788 -74.6069 267.052 -75.0317C267.316 -75.4565 267.876 -75.5861 268.299 -75.3179C286.545 -63.7283 299.504 -47.1596 306.824 -26.0853C313.701 -6.28379 315.459 16.966 312.047 43.0312C307.875 74.9597 292.119 103.62 267.693 123.723C256.09 133.303 242.774 140.592 228.452 145.202C214.247 149.808 180.046 151.547 164.438 150.322Z" fill="#DF8943"/>
</g>
<path d="M301.41 21.2598C304.441 25.4063 308.652 28.5421 313.492 30.2578C313.561 30.3333 314.072 19.7389 308.762 12.912C303.452 6.08508 295.641 6.03863 295.682 5.99219C295.746 6.05604 296.808 14.6593 301.41 21.2598Z" fill="#DF8943"/>
<path d="M324.135 21.1114C322.847 23.4722 321.067 25.5285 318.915 27.141C316.764 28.7536 314.291 29.8847 311.664 30.4578C311.716 30.3939 312.105 20.409 315.993 12.3921C319.881 4.37512 326.921 0.961677 326.973 0.996508C327.043 0.915235 328.801 12.8158 324.135 21.1114Z" fill="#DF8943"/>
<path d="M112.817 132.112C118.364 139.229 118.695 147.641 118.62 147.67C118.62 147.774 106.973 144.512 101.738 136.64C96.5153 128.884 99.0513 120.844 98.9759 120.867C99.0165 120.96 107.28 125.053 112.817 132.112Z" fill="#DF8943"/>
<path d="M104.653 156.77C114.89 155.028 118.708 147.284 118.708 147.354C118.586 147.394 107.613 144.225 98.1592 145.339C88.6129 146.5 83.0012 152.433 83.0012 152.497C82.8677 152.503 94.3 158.552 104.653 156.77Z" fill="#DF8943"/>
<path d="M92.5755 123.213C94.9125 128.197 95.7396 133.757 94.9548 139.206C94.9548 139.311 84.7064 134.219 81.2535 125.744C77.7715 117.361 81.7293 110.012 81.6597 110.023C81.6771 110.128 88.7628 115.469 92.5755 123.213Z" fill="#DF8943"/>
<path d="M80.0765 145.666C82.9181 145.702 85.7333 145.117 88.3254 143.952C90.9175 142.787 93.224 141.07 95.0836 138.92C94.9734 138.92 85.3574 134.049 76.1768 133.533C70.588 133.235 65.0539 134.763 60.4094 137.887C60.2818 137.898 70.0138 145.654 80.0765 145.666Z" fill="#DF8943"/>
<path d="M75.0963 111.178C76.3734 116.435 76.1013 121.949 74.3128 127.055C74.3128 127.159 65.5268 120.501 63.7742 111.688C61.9926 102.981 67.1285 96.5195 67.0588 96.5195C66.9892 96.5195 72.9259 103.033 75.0963 111.178Z" fill="#DF8943"/>
<path d="M58.9118 130.773C61.6451 131.284 64.4568 131.194 67.1516 130.508C69.8465 129.823 72.3597 128.558 74.5166 126.803C74.4179 126.803 66.2064 120.417 57.4726 118.362C52.1053 117.11 46.4763 117.642 41.4383 119.877C41.3455 119.865 49.3133 129.061 58.9118 130.773Z" fill="#DF8943"/>
<path d="M60.5186 96.5042C60.7958 101.838 59.5262 107.138 56.8626 111.766C56.8626 111.871 49.597 103.9 49.4461 95.0297C49.2952 86.1594 55.3828 80.8593 55.319 80.8477C55.3132 80.9289 59.8919 88.2202 60.5186 96.5042Z" fill="#DF8943"/>
<path d="M41.3093 112.71C43.8649 113.675 46.5999 114.071 49.3239 113.87C52.048 113.67 54.6956 112.878 57.0825 111.549C56.9896 111.549 50.2405 103.956 42.116 100.415C33.9915 96.874 26.3487 99.0335 26.3022 99.0915C26.192 99.0915 32.3376 109.39 41.3093 112.71Z" fill="#DF8943"/>
<path d="M48.9411 79.6946C48.2841 84.9346 46.121 89.8713 42.7143 93.9056C42.7143 94.0101 37.0271 84.9889 38.3909 76.3043C39.7546 67.6198 46.6024 63.5329 46.5444 63.5039C46.527 63.5852 49.771 71.5209 48.9411 79.6946Z" fill="#DF8943"/>
<path d="M27.3999 92.1356C29.7205 93.5209 32.3147 94.3844 35.0024 94.6661C37.6901 94.9478 40.4069 94.6409 42.9641 93.7669C42.8829 93.732 37.6426 85.1868 30.3131 80.293C25.8029 77.3284 20.455 75.9028 15.0681 76.2294C14.9694 76.1365 19.229 87.3057 27.3999 92.1356Z" fill="#DF8943"/>
<path d="M40.4998 61.2268C38.9775 66.2236 36.0236 70.664 32.0039 73.9982C31.9633 74.0911 27.9417 64.2862 30.7388 56.0022C33.536 47.7182 40.9176 44.9665 40.8596 44.9375C40.8596 45.013 42.6934 53.384 40.4998 61.2268Z" fill="#DF8943"/>
<path d="M17.3276 69.5411C19.3571 71.3057 21.7453 72.6084 24.3274 73.3591C26.9095 74.1098 29.6237 74.2907 32.2825 73.8891C32.2071 73.8427 28.5336 64.566 22.1675 58.4706C15.8014 52.3752 7.95546 51.7018 7.92064 51.7482C7.82778 51.6902 10.1433 63.3992 17.3276 69.5411Z" fill="#DF8943"/>
<path d="M35.3158 41.6263C33.0052 46.2584 29.369 50.098 24.87 52.6561C24.812 52.7432 22.5488 42.41 26.611 34.7762C30.6732 27.1424 38.4263 25.6911 38.3799 25.6562C38.3393 25.7201 38.7629 34.3118 35.3158 41.6263Z" fill="#DF8943"/>
<path d="M11.2627 45.6436C12.9487 47.7341 15.0658 49.4361 17.4694 50.6333C19.8731 51.8305 22.5066 52.4948 25.1904 52.5808C25.1265 52.5286 23.0722 42.7759 17.8493 35.6239C12.6264 28.4719 5.08225 26.4053 5.01842 26.4459C4.87914 26.3762 5.21573 38.3291 11.2627 45.6436Z" fill="#DF8943"/>
<g clip-path="url(#clip1_471_2086)">
<path d="M167.819 150.388L167.656 148.588C152.738 149.939 121.33 148.118 107.078 143.508C92.9716 138.956 79.8582 131.765 68.434 122.319C44.3391 102.581 28.8387 74.3157 24.7242 42.8343C21.3526 17.0477 23.0819 -5.92922 29.8601 -25.452C37.1431 -46.4261 50.1075 -62.8374 68.405 -74.2155L67.4475 -75.7539C48.7959 -64.1436 35.5762 -47.4072 28.1539 -26.0384C21.2771 -6.23691 19.5187 17.0128 22.931 43.0781C27.1035 75.0065 42.8592 103.667 67.285 123.77C78.89 133.347 92.2058 140.636 106.526 145.249C121.01 149.928 152.661 151.769 167.819 150.388Z" fill="#DF8943"/>
</g>
<path d="M33.1054 20.2637C30.0741 24.4102 25.8634 27.546 21.0231 29.2617C20.9535 29.3372 20.4428 18.7428 25.7528 11.9159C31.0627 5.08898 38.8738 5.04254 38.8332 4.99609C38.7694 5.05995 37.7074 13.6632 33.1054 20.2637Z" fill="#DF8943"/>
<path d="M11.2148 20.1153C12.5009 22.4742 14.2783 24.5293 16.4268 26.1417C18.5753 27.7542 21.0449 28.8863 23.6685 29.4617C23.6163 29.3978 23.2275 19.4129 19.3393 11.396C15.4512 3.37903 8.41188 -0.034417 8.35966 0.00041406C8.30743 -0.0808584 6.54905 11.8198 11.2148 20.1153Z" fill="#DF8943"/>
<path d="M167.661 139.898L154 149.953L167.661 160.002L181.327 149.953L167.661 139.898Z" fill="#DF8943"/>
<path d="M69.938 27.6932V34H66.9125V23.0909H69.796V25.0156H69.9238C70.1653 24.3812 70.5701 23.8793 71.1383 23.5099C71.7065 23.1359 72.3954 22.9489 73.2051 22.9489C73.9627 22.9489 74.6232 23.1146 75.1866 23.446C75.7501 23.7775 76.188 24.2509 76.5005 24.8665C76.813 25.4773 76.9693 26.2064 76.9693 27.054V34H73.9437V27.5938C73.9484 26.9261 73.778 26.4053 73.4324 26.0312C73.0867 25.6525 72.6109 25.4631 72.0048 25.4631C71.5976 25.4631 71.2377 25.5507 70.9252 25.7259C70.6175 25.901 70.376 26.1567 70.2008 26.4929C70.0304 26.8243 69.9428 27.2244 69.938 27.6932ZM84.2828 34.2131C83.1796 34.2131 82.2256 33.9787 81.4206 33.5099C80.6204 33.0365 80.0025 32.3783 79.5669 31.5355C79.1313 30.688 78.9135 29.7055 78.9135 28.5881C78.9135 27.4612 79.1313 26.4763 79.5669 25.6335C80.0025 24.786 80.6204 24.1278 81.4206 23.6591C82.2256 23.1856 83.1796 22.9489 84.2828 22.9489C85.3861 22.9489 86.3378 23.1856 87.138 23.6591C87.9429 24.1278 88.5632 24.786 88.9988 25.6335C89.4344 26.4763 89.6522 27.4612 89.6522 28.5881C89.6522 29.7055 89.4344 30.688 88.9988 31.5355C88.5632 32.3783 87.9429 33.0365 87.138 33.5099C86.3378 33.9787 85.3861 34.2131 84.2828 34.2131ZM84.2971 31.8693C84.7989 31.8693 85.218 31.7273 85.5542 31.4432C85.8903 31.1544 86.1436 30.7614 86.3141 30.2642C86.4893 29.767 86.5769 29.2012 86.5769 28.5668C86.5769 27.9323 86.4893 27.3665 86.3141 26.8693C86.1436 26.3722 85.8903 25.9792 85.5542 25.6903C85.218 25.4015 84.7989 25.2571 84.2971 25.2571C83.7904 25.2571 83.3643 25.4015 83.0186 25.6903C82.6777 25.9792 82.4197 26.3722 82.2445 26.8693C82.074 27.3665 81.9888 27.9323 81.9888 28.5668C81.9888 29.2012 82.074 29.767 82.2445 30.2642C82.4197 30.7614 82.6777 31.1544 83.0186 31.4432C83.3643 31.7273 83.7904 31.8693 84.2971 31.8693ZM98.4164 26.8267V29.2273H91.7828V26.8267H98.4164ZM108.203 38.0909V32.2528H108.111C107.969 32.5559 107.768 32.8565 107.507 33.1548C107.252 33.4484 106.918 33.6922 106.506 33.8864C106.099 34.0805 105.602 34.1776 105.014 34.1776C104.186 34.1776 103.435 33.9645 102.763 33.5384C102.095 33.1075 101.565 32.4754 101.172 31.642C100.784 30.804 100.59 29.7765 100.59 28.5597C100.59 27.3097 100.791 26.2704 101.193 25.4418C101.596 24.6084 102.131 23.9858 102.798 23.5739C103.471 23.1572 104.207 22.9489 105.007 22.9489C105.618 22.9489 106.127 23.053 106.534 23.2614C106.946 23.465 107.278 23.7206 107.529 24.0284C107.784 24.3314 107.978 24.6297 108.111 24.9233H108.239V23.0909H111.222V38.0909H108.203ZM105.973 31.7699C106.461 31.7699 106.873 31.6373 107.209 31.3722C107.55 31.1023 107.81 30.7259 107.99 30.2429C108.175 29.7599 108.267 29.1941 108.267 28.5455C108.267 27.8968 108.177 27.3333 107.997 26.8551C107.817 26.3769 107.557 26.0076 107.216 25.7472C106.875 25.4867 106.461 25.3565 105.973 25.3565C105.476 25.3565 105.057 25.4915 104.716 25.7614C104.375 26.0312 104.117 26.4053 103.942 26.8835C103.767 27.3617 103.679 27.9157 103.679 28.5455C103.679 29.1799 103.767 29.741 103.942 30.2287C104.122 30.7116 104.38 31.0904 104.716 31.3651C105.057 31.6349 105.476 31.7699 105.973 31.7699ZM120.646 29.3551V23.0909H123.672V34H120.767V32.0185H120.654C120.407 32.6577 119.998 33.1714 119.425 33.5597C118.857 33.9479 118.163 34.142 117.344 34.142C116.615 34.142 115.973 33.9763 115.419 33.6449C114.865 33.3134 114.432 32.8423 114.119 32.2315C113.812 31.6207 113.655 30.8892 113.651 30.0369V23.0909H116.676V29.4972C116.681 30.1411 116.854 30.6501 117.195 31.0241C117.536 31.3982 117.993 31.5852 118.566 31.5852C118.93 31.5852 119.271 31.5024 119.588 31.3366C119.905 31.1662 120.161 30.9152 120.355 30.5838C120.554 30.2524 120.651 29.8428 120.646 29.3551ZM131.064 34.2131C129.942 34.2131 128.976 33.9858 128.166 33.5312C127.361 33.072 126.741 32.4233 126.305 31.5852C125.87 30.7424 125.652 29.7457 125.652 28.5952C125.652 27.473 125.87 26.4882 126.305 25.6406C126.741 24.7931 127.354 24.1326 128.145 23.6591C128.94 23.1856 129.873 22.9489 130.943 22.9489C131.663 22.9489 132.333 23.0649 132.953 23.2969C133.578 23.5241 134.122 23.8674 134.586 24.3267C135.055 24.786 135.42 25.3636 135.68 26.0597C135.941 26.7509 136.071 27.5606 136.071 28.4886V29.3196H126.859V27.4446H133.223C133.223 27.009 133.128 26.6231 132.939 26.2869C132.749 25.9508 132.487 25.688 132.15 25.4986C131.819 25.3045 131.433 25.2074 130.993 25.2074C130.533 25.2074 130.126 25.3139 129.771 25.527C129.421 25.7353 129.146 26.017 128.947 26.3722C128.748 26.7225 128.647 27.1132 128.642 27.544V29.3267C128.642 29.8665 128.741 30.3329 128.94 30.7259C129.144 31.1188 129.43 31.4219 129.8 31.6349C130.169 31.848 130.607 31.9545 131.113 31.9545C131.45 31.9545 131.757 31.9072 132.037 31.8125C132.316 31.7178 132.555 31.5758 132.754 31.3864C132.953 31.197 133.104 30.965 133.209 30.6903L136.007 30.875C135.865 31.5473 135.574 32.1345 135.133 32.6364C134.698 33.1335 134.134 33.5218 133.443 33.8011C132.756 34.0758 131.963 34.2131 131.064 34.2131ZM147.122 26.2017L144.352 26.3722C144.305 26.1354 144.203 25.9223 144.047 25.733C143.89 25.5388 143.684 25.3849 143.429 25.2713C143.178 25.1529 142.877 25.0938 142.527 25.0938C142.058 25.0938 141.663 25.1932 141.341 25.392C141.019 25.5862 140.858 25.8466 140.858 26.1733C140.858 26.4337 140.962 26.6539 141.17 26.8338C141.379 27.0137 141.736 27.1581 142.243 27.267L144.217 27.6648C145.278 27.8826 146.068 28.233 146.589 28.7159C147.11 29.1989 147.371 29.8333 147.371 30.6193C147.371 31.3343 147.16 31.9616 146.738 32.5014C146.322 33.0412 145.749 33.4626 145.02 33.7656C144.295 34.0639 143.46 34.2131 142.513 34.2131C141.068 34.2131 139.918 33.9124 139.061 33.3111C138.209 32.705 137.709 31.8812 137.562 30.8395L140.538 30.6832C140.628 31.1236 140.846 31.4598 141.192 31.6918C141.537 31.919 141.98 32.0327 142.52 32.0327C143.05 32.0327 143.476 31.9309 143.798 31.7273C144.125 31.5189 144.291 31.2514 144.295 30.9247C144.291 30.6501 144.175 30.4252 143.947 30.25C143.72 30.0701 143.37 29.9328 142.896 29.8381L141.007 29.4616C139.942 29.2486 139.148 28.8793 138.628 28.3537C138.112 27.8281 137.854 27.1581 137.854 26.3438C137.854 25.643 138.043 25.0393 138.422 24.5327C138.805 24.026 139.343 23.6354 140.034 23.3608C140.73 23.0862 141.544 22.9489 142.477 22.9489C143.855 22.9489 144.939 23.2401 145.73 23.8224C146.525 24.4048 146.989 25.1979 147.122 26.2017ZM155.078 23.0909V25.3636H148.509V23.0909H155.078ZM150 20.4773H153.026V30.6477C153.026 30.9271 153.068 31.1449 153.154 31.3011C153.239 31.4527 153.357 31.5592 153.509 31.6207C153.665 31.6823 153.845 31.7131 154.048 31.7131C154.191 31.7131 154.333 31.7012 154.475 31.6776C154.617 31.6491 154.726 31.6278 154.801 31.6136L155.277 33.8651C155.126 33.9124 154.913 33.9669 154.638 34.0284C154.363 34.0947 154.03 34.1349 153.637 34.1491C152.907 34.1776 152.268 34.0805 151.719 33.858C151.174 33.6354 150.751 33.2898 150.448 32.821C150.145 32.3523 149.995 31.7604 150 31.0455V20.4773ZM157.049 34V23.0909H160.075V34H157.049ZM158.569 21.6847C158.119 21.6847 157.733 21.5355 157.411 21.2372C157.094 20.9342 156.936 20.572 156.936 20.1506C156.936 19.7339 157.094 19.3764 157.411 19.0781C157.733 18.7751 158.119 18.6236 158.569 18.6236C159.019 18.6236 159.402 18.7751 159.72 19.0781C160.042 19.3764 160.203 19.7339 160.203 20.1506C160.203 20.572 160.042 20.9342 159.72 21.2372C159.402 21.5355 159.019 21.6847 158.569 21.6847ZM167.427 34.2131C166.324 34.2131 165.37 33.9787 164.565 33.5099C163.765 33.0365 163.147 32.3783 162.711 31.5355C162.276 30.688 162.058 29.7055 162.058 28.5881C162.058 27.4612 162.276 26.4763 162.711 25.6335C163.147 24.786 163.765 24.1278 164.565 23.6591C165.37 23.1856 166.324 22.9489 167.427 22.9489C168.531 22.9489 169.482 23.1856 170.282 23.6591C171.087 24.1278 171.708 24.786 172.143 25.6335C172.579 26.4763 172.797 27.4612 172.797 28.5881C172.797 29.7055 172.579 30.688 172.143 31.5355C171.708 32.3783 171.087 33.0365 170.282 33.5099C169.482 33.9787 168.531 34.2131 167.427 34.2131ZM167.442 31.8693C167.943 31.8693 168.363 31.7273 168.699 31.4432C169.035 31.1544 169.288 30.7614 169.459 30.2642C169.634 29.767 169.721 29.2012 169.721 28.5668C169.721 27.9323 169.634 27.3665 169.459 26.8693C169.288 26.3722 169.035 25.9792 168.699 25.6903C168.363 25.4015 167.943 25.2571 167.442 25.2571C166.935 25.2571 166.509 25.4015 166.163 25.6903C165.822 25.9792 165.564 26.3722 165.389 26.8693C165.219 27.3665 165.133 27.9323 165.133 28.5668C165.133 29.2012 165.219 29.767 165.389 30.2642C165.564 30.7614 165.822 31.1544 166.163 31.4432C166.509 31.7273 166.935 31.8693 167.442 31.8693ZM177.79 27.6932V34H174.764V23.0909H177.648V25.0156H177.775C178.017 24.3812 178.422 23.8793 178.99 23.5099C179.558 23.1359 180.247 22.9489 181.057 22.9489C181.814 22.9489 182.475 23.1146 183.038 23.446C183.602 23.7775 184.04 24.2509 184.352 24.8665C184.665 25.4773 184.821 26.2064 184.821 27.054V34H181.795V27.5938C181.8 26.9261 181.63 26.4053 181.284 26.0312C180.938 25.6525 180.462 25.4631 179.856 25.4631C179.449 25.4631 179.089 25.5507 178.777 25.7259C178.469 25.901 178.228 26.1567 178.052 26.4929C177.882 26.8243 177.794 27.2244 177.79 27.6932ZM196.282 26.2017L193.512 26.3722C193.465 26.1354 193.363 25.9223 193.207 25.733C193.051 25.5388 192.845 25.3849 192.589 25.2713C192.338 25.1529 192.037 25.0938 191.687 25.0938C191.218 25.0938 190.823 25.1932 190.501 25.392C190.179 25.5862 190.018 25.8466 190.018 26.1733C190.018 26.4337 190.122 26.6539 190.33 26.8338C190.539 27.0137 190.896 27.1581 191.403 27.267L193.377 27.6648C194.438 27.8826 195.229 28.233 195.749 28.7159C196.27 29.1989 196.531 29.8333 196.531 30.6193C196.531 31.3343 196.32 31.9616 195.899 32.5014C195.482 33.0412 194.909 33.4626 194.18 33.7656C193.455 34.0639 192.62 34.2131 191.673 34.2131C190.229 34.2131 189.078 33.9124 188.221 33.3111C187.369 32.705 186.869 31.8812 186.722 30.8395L189.698 30.6832C189.788 31.1236 190.006 31.4598 190.352 31.6918C190.697 31.919 191.14 32.0327 191.68 32.0327C192.21 32.0327 192.636 31.9309 192.958 31.7273C193.285 31.5189 193.451 31.2514 193.455 30.9247C193.451 30.6501 193.335 30.4252 193.107 30.25C192.88 30.0701 192.53 29.9328 192.056 29.8381L190.167 29.4616C189.102 29.2486 188.309 28.8793 187.788 28.3537C187.272 27.8281 187.014 27.1581 187.014 26.3438C187.014 25.643 187.203 25.0393 187.582 24.5327C187.965 24.026 188.503 23.6354 189.194 23.3608C189.89 23.0862 190.704 22.9489 191.637 22.9489C193.015 22.9489 194.099 23.2401 194.89 23.8224C195.686 24.4048 196.15 25.1979 196.282 26.2017ZM205.233 26.8267V29.2273H198.599V26.8267H205.233ZM210.922 34.206C210.226 34.206 209.605 34.0852 209.061 33.8438C208.516 33.5975 208.086 33.2353 207.768 32.7571C207.456 32.2741 207.3 31.6728 207.3 30.9531C207.3 30.3471 207.411 29.8381 207.633 29.4261C207.856 29.0142 208.159 28.6828 208.542 28.4318C208.926 28.1809 209.362 27.9915 209.849 27.8636C210.342 27.7358 210.858 27.6458 211.398 27.5938C212.032 27.5275 212.543 27.4659 212.932 27.4091C213.32 27.3475 213.602 27.2576 213.777 27.1392C213.952 27.0208 214.04 26.8456 214.04 26.6136V26.571C214.04 26.1212 213.898 25.7732 213.613 25.527C213.334 25.2808 212.936 25.1577 212.42 25.1577C211.876 25.1577 211.443 25.2784 211.121 25.5199C210.799 25.7566 210.586 26.0549 210.481 26.4148L207.683 26.1875C207.825 25.5246 208.104 24.9517 208.521 24.4688C208.938 23.9811 209.475 23.607 210.133 23.3466C210.796 23.0814 211.563 22.9489 212.434 22.9489C213.041 22.9489 213.621 23.0199 214.175 23.1619C214.733 23.304 215.228 23.5241 215.659 23.8224C216.095 24.1207 216.438 24.5043 216.689 24.973C216.94 25.437 217.065 25.9934 217.065 26.642V34H214.196V32.4872H214.111C213.935 32.8281 213.701 33.1288 213.407 33.3892C213.114 33.6449 212.761 33.8461 212.349 33.9929C211.937 34.1349 211.461 34.206 210.922 34.206ZM211.788 32.1179C212.233 32.1179 212.626 32.0303 212.967 31.8551C213.308 31.6752 213.576 31.4337 213.77 31.1307C213.964 30.8277 214.061 30.4844 214.061 30.1009V28.9432C213.966 29.0047 213.836 29.0616 213.67 29.1136C213.509 29.161 213.327 29.206 213.123 29.2486C212.92 29.2865 212.716 29.322 212.513 29.3551C212.309 29.3835 212.124 29.4096 211.959 29.4332C211.604 29.4853 211.293 29.5682 211.028 29.6818C210.763 29.7955 210.557 29.9493 210.41 30.1435C210.264 30.3329 210.19 30.5696 210.19 30.8537C210.19 31.2656 210.339 31.5805 210.638 31.7983C210.941 32.0114 211.324 32.1179 211.788 32.1179ZM228.489 26.2017L225.719 26.3722C225.672 26.1354 225.57 25.9223 225.414 25.733C225.258 25.5388 225.052 25.3849 224.796 25.2713C224.545 25.1529 224.244 25.0938 223.894 25.0938C223.425 25.0938 223.03 25.1932 222.708 25.392C222.386 25.5862 222.225 25.8466 222.225 26.1733C222.225 26.4337 222.329 26.6539 222.537 26.8338C222.746 27.0137 223.103 27.1581 223.61 27.267L225.584 27.6648C226.645 27.8826 227.436 28.233 227.956 28.7159C228.477 29.1989 228.738 29.8333 228.738 30.6193C228.738 31.3343 228.527 31.9616 228.106 32.5014C227.689 33.0412 227.116 33.4626 226.387 33.7656C225.662 34.0639 224.827 34.2131 223.88 34.2131C222.436 34.2131 221.285 33.9124 220.428 33.3111C219.576 32.705 219.076 31.8812 218.93 30.8395L221.905 30.6832C221.995 31.1236 222.213 31.4598 222.559 31.6918C222.904 31.919 223.347 32.0327 223.887 32.0327C224.417 32.0327 224.843 31.9309 225.165 31.7273C225.492 31.5189 225.658 31.2514 225.662 30.9247C225.658 30.6501 225.542 30.4252 225.314 30.25C225.087 30.0701 224.737 29.9328 224.263 29.8381L222.374 29.4616C221.309 29.2486 220.516 28.8793 219.995 28.3537C219.479 27.8281 219.221 27.1581 219.221 26.3438C219.221 25.643 219.41 25.0393 219.789 24.5327C220.172 24.026 220.71 23.6354 221.401 23.3608C222.097 23.0862 222.912 22.9489 223.844 22.9489C225.222 22.9489 226.306 23.2401 227.097 23.8224C227.893 24.4048 228.357 25.1979 228.489 26.2017ZM233.384 30.8608L233.392 27.2315H233.832L237.326 23.0909H240.799L236.105 28.5739H235.387L233.384 30.8608ZM230.643 34V19.4545H233.669V34H230.643ZM237.461 34L234.251 29.2486L236.268 27.1108L241.005 34H237.461ZM246.806 34.2131C245.684 34.2131 244.718 33.9858 243.908 33.5312C243.103 33.072 242.483 32.4233 242.047 31.5852C241.612 30.7424 241.394 29.7457 241.394 28.5952C241.394 27.473 241.612 26.4882 242.047 25.6406C242.483 24.7931 243.096 24.1326 243.887 23.6591C244.682 23.1856 245.615 22.9489 246.685 22.9489C247.405 22.9489 248.075 23.0649 248.695 23.2969C249.32 23.5241 249.865 23.8674 250.329 24.3267C250.797 24.786 251.162 25.3636 251.422 26.0597C251.683 26.7509 251.813 27.5606 251.813 28.4886V29.3196H242.601V27.4446H248.965C248.965 27.009 248.87 26.6231 248.681 26.2869C248.492 25.9508 248.229 25.688 247.893 25.4986C247.561 25.3045 247.175 25.2074 246.735 25.2074C246.276 25.2074 245.868 25.3139 245.513 25.527C245.163 25.7353 244.888 26.017 244.689 26.3722C244.491 26.7225 244.389 27.1132 244.384 27.544V29.3267C244.384 29.8665 244.483 30.3329 244.682 30.7259C244.886 31.1188 245.172 31.4219 245.542 31.6349C245.911 31.848 246.349 31.9545 246.856 31.9545C247.192 31.9545 247.5 31.9072 247.779 31.8125C248.058 31.7178 248.297 31.5758 248.496 31.3864C248.695 31.197 248.847 30.965 248.951 30.6903L251.749 30.875C251.607 31.5473 251.316 32.1345 250.876 32.6364C250.44 33.1335 249.876 33.5218 249.185 33.8011C248.499 34.0758 247.706 34.2131 246.806 34.2131ZM257.807 34.1776C256.979 34.1776 256.228 33.9645 255.556 33.5384C254.888 33.1075 254.358 32.4754 253.965 31.642C253.577 30.804 253.383 29.7765 253.383 28.5597C253.383 27.3097 253.584 26.2704 253.986 25.4418C254.389 24.6084 254.924 23.9858 255.591 23.5739C256.264 23.1572 257 22.9489 257.8 22.9489C258.411 22.9489 258.92 23.053 259.327 23.2614C259.739 23.465 260.071 23.7206 260.322 24.0284C260.577 24.3314 260.771 24.6297 260.904 24.9233H260.996V19.4545H264.015V34H261.032V32.2528H260.904C260.762 32.5559 260.561 32.8565 260.3 33.1548C260.045 33.4484 259.711 33.6922 259.299 33.8864C258.892 34.0805 258.394 34.1776 257.807 34.1776ZM258.766 31.7699C259.254 31.7699 259.666 31.6373 260.002 31.3722C260.343 31.1023 260.603 30.7259 260.783 30.2429C260.968 29.7599 261.06 29.1941 261.06 28.5455C261.06 27.8968 260.97 27.3333 260.79 26.8551C260.61 26.3769 260.35 26.0076 260.009 25.7472C259.668 25.4867 259.254 25.3565 258.766 25.3565C258.269 25.3565 257.85 25.4915 257.509 25.7614C257.168 26.0312 256.91 26.4053 256.735 26.8835C256.56 27.3617 256.472 27.9157 256.472 28.5455C256.472 29.1799 256.56 29.741 256.735 30.2287C256.915 30.7116 257.173 31.0904 257.509 31.3651C257.85 31.6349 258.269 31.7699 258.766 31.7699ZM107.326 53.3551V47.0909H110.352V58H107.447V56.0185H107.333C107.087 56.6577 106.677 57.1714 106.105 57.5597C105.536 57.9479 104.843 58.142 104.024 58.142C103.294 58.142 102.653 57.9763 102.099 57.6449C101.545 57.3134 101.112 56.8423 100.799 56.2315C100.491 55.6207 100.335 54.8892 100.33 54.0369V47.0909H103.356V53.4972C103.361 54.1411 103.534 54.6501 103.874 55.0241C104.215 55.3982 104.672 55.5852 105.245 55.5852C105.61 55.5852 105.951 55.5024 106.268 55.3366C106.585 55.1662 106.841 54.9152 107.035 54.5838C107.234 54.2524 107.331 53.8428 107.326 53.3551ZM112.772 62.0909V47.0909H115.755V48.9233H115.89C116.022 48.6297 116.214 48.3314 116.465 48.0284C116.721 47.7206 117.052 47.465 117.459 47.2614C117.871 47.053 118.383 46.9489 118.993 46.9489C119.789 46.9489 120.523 47.1572 121.195 47.5739C121.867 47.9858 122.405 48.6084 122.807 49.4418C123.21 50.2704 123.411 51.3097 123.411 52.5597C123.411 53.7765 123.215 54.804 122.822 55.642C122.433 56.4754 121.903 57.1075 121.231 57.5384C120.563 57.9645 119.815 58.1776 118.986 58.1776C118.399 58.1776 117.9 58.0805 117.488 57.8864C117.081 57.6922 116.747 57.4484 116.486 57.1548C116.226 56.8565 116.027 56.5559 115.89 56.2528H115.797V62.0909H112.772ZM115.733 52.5455C115.733 53.1941 115.823 53.7599 116.003 54.2429C116.183 54.7259 116.444 55.1023 116.785 55.3722C117.126 55.6373 117.54 55.7699 118.028 55.7699C118.52 55.7699 118.937 55.6349 119.278 55.3651C119.618 55.0904 119.876 54.7116 120.052 54.2287C120.232 53.741 120.322 53.1799 120.322 52.5455C120.322 51.9157 120.234 51.3617 120.059 50.8835C119.884 50.4053 119.626 50.0312 119.285 49.7614C118.944 49.4915 118.525 49.3565 118.028 49.3565C117.535 49.3565 117.118 49.4867 116.778 49.7472C116.441 50.0076 116.183 50.3769 116.003 50.8551C115.823 51.3333 115.733 51.8968 115.733 52.5455ZM135.86 47.0909V49.3636H129.29V47.0909H135.86ZM130.781 44.4773H133.807V54.6477C133.807 54.9271 133.85 55.1449 133.935 55.3011C134.02 55.4527 134.138 55.5592 134.29 55.6207C134.446 55.6823 134.626 55.7131 134.83 55.7131C134.972 55.7131 135.114 55.7012 135.256 55.6776C135.398 55.6491 135.507 55.6278 135.583 55.6136L136.058 57.8651C135.907 57.9124 135.694 57.9669 135.419 58.0284C135.145 58.0947 134.811 58.1349 134.418 58.1491C133.689 58.1776 133.049 58.0805 132.5 57.858C131.956 57.6354 131.532 57.2898 131.229 56.821C130.926 56.3523 130.777 55.7604 130.781 55.0455V44.4773ZM142.642 58.2131C141.539 58.2131 140.585 57.9787 139.78 57.5099C138.98 57.0365 138.362 56.3783 137.926 55.5355C137.491 54.688 137.273 53.7055 137.273 52.5881C137.273 51.4612 137.491 50.4763 137.926 49.6335C138.362 48.786 138.98 48.1278 139.78 47.6591C140.585 47.1856 141.539 46.9489 142.642 46.9489C143.745 46.9489 144.697 47.1856 145.497 47.6591C146.302 48.1278 146.923 48.786 147.358 49.6335C147.794 50.4763 148.012 51.4612 148.012 52.5881C148.012 53.7055 147.794 54.688 147.358 55.5355C146.923 56.3783 146.302 57.0365 145.497 57.5099C144.697 57.9787 143.745 58.2131 142.642 58.2131ZM142.656 55.8693C143.158 55.8693 143.577 55.7273 143.914 55.4432C144.25 55.1544 144.503 54.7614 144.673 54.2642C144.849 53.767 144.936 53.2012 144.936 52.5668C144.936 51.9323 144.849 51.3665 144.673 50.8693C144.503 50.3722 144.25 49.9792 143.914 49.6903C143.577 49.4015 143.158 49.2571 142.656 49.2571C142.15 49.2571 141.724 49.4015 141.378 49.6903C141.037 49.9792 140.779 50.3722 140.604 50.8693C140.433 51.3665 140.348 51.9323 140.348 52.5668C140.348 53.2012 140.433 53.767 140.604 54.2642C140.779 54.7614 141.037 55.1544 141.378 55.4432C141.724 55.7273 142.15 55.8693 142.656 55.8693ZM160.162 58.1989C159.414 58.1941 158.692 58.0687 157.996 57.8224C157.304 57.5762 156.684 57.1761 156.135 56.6222C155.586 56.0682 155.15 55.3343 154.828 54.4205C154.511 53.5066 154.352 52.3845 154.352 51.054C154.357 49.8324 154.497 48.741 154.771 47.7798C155.05 46.8139 155.448 45.9948 155.964 45.3224C156.485 44.6501 157.108 44.1387 157.832 43.7884C158.557 43.4332 159.369 43.2557 160.268 43.2557C161.239 43.2557 162.096 43.4451 162.839 43.8239C163.583 44.1979 164.179 44.7069 164.629 45.3509C165.084 45.9948 165.358 46.7169 165.453 47.517H162.42C162.302 47.0104 162.053 46.6127 161.675 46.3239C161.296 46.035 160.827 45.8906 160.268 45.8906C159.321 45.8906 158.602 46.3026 158.109 47.1264C157.622 47.9503 157.373 49.0701 157.363 50.4858H157.463C157.681 50.0549 157.974 49.688 158.344 49.3849C158.718 49.0772 159.141 48.8428 159.615 48.6818C160.093 48.5161 160.597 48.4332 161.128 48.4332C161.989 48.4332 162.756 48.6368 163.429 49.044C164.101 49.4465 164.631 50.0005 165.02 50.706C165.408 51.4115 165.602 52.2187 165.602 53.1278C165.602 54.1127 165.372 54.9886 164.913 55.7557C164.459 56.5227 163.822 57.1241 163.003 57.5597C162.188 57.9905 161.241 58.2036 160.162 58.1989ZM160.148 55.7841C160.621 55.7841 161.045 55.6705 161.419 55.4432C161.793 55.2159 162.086 54.9081 162.3 54.5199C162.513 54.1316 162.619 53.696 162.619 53.2131C162.619 52.7301 162.513 52.2969 162.3 51.9134C162.091 51.5298 161.802 51.2244 161.433 50.9972C161.064 50.7699 160.642 50.6562 160.169 50.6562C159.814 50.6562 159.485 50.7225 159.182 50.8551C158.883 50.9877 158.621 51.1723 158.393 51.4091C158.171 51.6458 157.996 51.9205 157.868 52.233C157.74 52.5407 157.676 52.8698 157.676 53.2202C157.676 53.6889 157.782 54.1174 157.996 54.5057C158.213 54.8939 158.507 55.2041 158.876 55.4361C159.25 55.6681 159.674 55.7841 160.148 55.7841ZM173.486 58.3196C172.264 58.3149 171.213 58.0142 170.332 57.4176C169.456 56.821 168.782 55.9569 168.308 54.8253C167.839 53.6937 167.607 52.3324 167.612 50.7415C167.612 49.1553 167.846 47.8035 168.315 46.6861C168.789 45.5687 169.463 44.7187 170.339 44.1364C171.22 43.5492 172.269 43.2557 173.486 43.2557C174.702 43.2557 175.749 43.5492 176.625 44.1364C177.506 44.7235 178.183 45.5758 178.656 46.6932C179.13 47.8059 179.364 49.1553 179.359 50.7415C179.359 52.3371 179.122 53.7008 178.649 54.8324C178.18 55.964 177.508 56.8281 176.632 57.4247C175.756 58.0213 174.707 58.3196 173.486 58.3196ZM173.486 55.7699C174.319 55.7699 174.984 55.3509 175.481 54.5128C175.979 53.6747 176.225 52.4176 176.22 50.7415C176.22 49.6383 176.106 48.7197 175.879 47.9858C175.657 47.2519 175.339 46.7003 174.927 46.331C174.52 45.9616 174.04 45.777 173.486 45.777C172.657 45.777 171.994 46.1913 171.497 47.0199C171 47.8485 170.749 49.089 170.744 50.7415C170.744 51.8589 170.855 52.7917 171.078 53.5398C171.305 54.2831 171.625 54.8419 172.037 55.2159C172.449 55.5852 172.932 55.7699 173.486 55.7699ZM190.229 58.1776C189.401 58.1776 188.65 57.9645 187.978 57.5384C187.31 57.1075 186.78 56.4754 186.387 55.642C185.999 54.804 185.805 53.7765 185.805 52.5597C185.805 51.3097 186.006 50.2704 186.408 49.4418C186.811 48.6084 187.346 47.9858 188.013 47.5739C188.686 47.1572 189.422 46.9489 190.222 46.9489C190.833 46.9489 191.342 47.053 191.749 47.2614C192.161 47.465 192.492 47.7206 192.743 48.0284C192.999 48.3314 193.193 48.6297 193.326 48.9233H193.418V43.4545H196.437V58H193.454V56.2528H193.326C193.184 56.5559 192.983 56.8565 192.722 57.1548C192.466 57.4484 192.133 57.6922 191.721 57.8864C191.314 58.0805 190.816 58.1776 190.229 58.1776ZM191.188 55.7699C191.676 55.7699 192.088 55.6373 192.424 55.3722C192.765 55.1023 193.025 54.7259 193.205 54.2429C193.39 53.7599 193.482 53.1941 193.482 52.5455C193.482 51.8968 193.392 51.3333 193.212 50.8551C193.032 50.3769 192.772 50.0076 192.431 49.7472C192.09 49.4867 191.676 49.3565 191.188 49.3565C190.691 49.3565 190.272 49.4915 189.931 49.7614C189.59 50.0312 189.332 50.4053 189.157 50.8835C188.982 51.3617 188.894 51.9157 188.894 52.5455C188.894 53.1799 188.982 53.741 189.157 54.2287C189.337 54.7116 189.595 55.0904 189.931 55.3651C190.272 55.6349 190.691 55.7699 191.188 55.7699ZM202.035 58.206C201.339 58.206 200.719 58.0852 200.174 57.8438C199.63 57.5975 199.199 57.2353 198.882 56.7571C198.569 56.2741 198.413 55.6728 198.413 54.9531C198.413 54.3471 198.524 53.8381 198.747 53.4261C198.969 53.0142 199.272 52.6828 199.656 52.4318C200.039 52.1809 200.475 51.9915 200.963 51.8636C201.455 51.7358 201.971 51.6458 202.511 51.5938C203.145 51.5275 203.657 51.4659 204.045 51.4091C204.433 51.3475 204.715 51.2576 204.89 51.1392C205.065 51.0208 205.153 50.8456 205.153 50.6136V50.571C205.153 50.1212 205.011 49.7732 204.727 49.527C204.447 49.2808 204.05 49.1577 203.534 49.1577C202.989 49.1577 202.556 49.2784 202.234 49.5199C201.912 49.7566 201.699 50.0549 201.595 50.4148L198.796 50.1875C198.938 49.5246 199.218 48.9517 199.634 48.4688C200.051 47.9811 200.588 47.607 201.247 47.3466C201.91 47.0814 202.677 46.9489 203.548 46.9489C204.154 46.9489 204.734 47.0199 205.288 47.1619C205.847 47.304 206.341 47.5241 206.772 47.8224C207.208 48.1207 207.551 48.5043 207.802 48.973C208.053 49.437 208.178 49.9934 208.178 50.642V58H205.309V56.4872H205.224C205.049 56.8281 204.814 57.1288 204.521 57.3892C204.227 57.6449 203.874 57.8461 203.463 57.9929C203.051 58.1349 202.575 58.206 202.035 58.206ZM202.901 56.1179C203.347 56.1179 203.74 56.0303 204.08 55.8551C204.421 55.6752 204.689 55.4337 204.883 55.1307C205.077 54.8277 205.174 54.4844 205.174 54.1009V52.9432C205.079 53.0047 204.949 53.0616 204.784 53.1136C204.623 53.161 204.44 53.206 204.237 53.2486C204.033 53.2865 203.829 53.322 203.626 53.3551C203.422 53.3835 203.238 53.4096 203.072 53.4332C202.717 53.4853 202.407 53.5682 202.142 53.6818C201.876 53.7955 201.67 53.9493 201.524 54.1435C201.377 54.3329 201.303 54.5696 201.303 54.8537C201.303 55.2656 201.453 55.5805 201.751 55.7983C202.054 56.0114 202.437 56.1179 202.901 56.1179ZM212.003 62.0909C211.619 62.0909 211.26 62.0601 210.923 61.9986C210.592 61.9418 210.317 61.8684 210.1 61.7784L210.781 59.5199C211.137 59.6288 211.456 59.688 211.74 59.6974C212.029 59.7069 212.278 59.6406 212.486 59.4986C212.699 59.3565 212.872 59.1151 213.004 58.7741L213.182 58.3125L209.269 47.0909H212.45L214.709 55.1023H214.823L217.102 47.0909H220.306L216.066 59.179C215.862 59.7661 215.585 60.2775 215.235 60.7131C214.889 61.1534 214.451 61.492 213.921 61.7287C213.39 61.9702 212.751 62.0909 212.003 62.0909ZM230.931 50.2017L228.161 50.3722C228.113 50.1354 228.012 49.9223 227.855 49.733C227.699 49.5388 227.493 49.3849 227.237 49.2713C226.986 49.1529 226.686 49.0938 226.335 49.0938C225.867 49.0938 225.471 49.1932 225.149 49.392C224.827 49.5862 224.666 49.8466 224.666 50.1733C224.666 50.4337 224.771 50.6539 224.979 50.8338C225.187 51.0137 225.545 51.1581 226.051 51.267L228.026 51.6648C229.086 51.8826 229.877 52.233 230.398 52.7159C230.919 53.1989 231.179 53.8333 231.179 54.6193C231.179 55.3343 230.968 55.9616 230.547 56.5014C230.13 57.0412 229.557 57.4626 228.828 57.7656C228.104 58.0639 227.268 58.2131 226.321 58.2131C224.877 58.2131 223.727 57.9124 222.869 57.3111C222.017 56.705 221.518 55.8812 221.371 54.8395L224.347 54.6832C224.437 55.1236 224.655 55.4598 225 55.6918C225.346 55.919 225.789 56.0327 226.328 56.0327C226.859 56.0327 227.285 55.9309 227.607 55.7273C227.933 55.5189 228.099 55.2514 228.104 54.9247C228.099 54.6501 227.983 54.4252 227.756 54.25C227.529 54.0701 227.178 53.9328 226.705 53.8381L224.816 53.4616C223.75 53.2486 222.957 52.8793 222.436 52.3537C221.92 51.8281 221.662 51.1581 221.662 50.3438C221.662 49.643 221.852 49.0393 222.23 48.5327C222.614 48.026 223.151 47.6354 223.843 47.3608C224.539 47.0862 225.353 46.9489 226.286 46.9489C227.664 46.9489 228.748 47.2401 229.539 47.8224C230.334 48.4048 230.798 49.1979 230.931 50.2017Z" fill="#1C0B24"/>
<path d="M107.381 82V71.0909H110.265V73.0156H110.393C110.62 72.3764 110.999 71.8722 111.529 71.5028C112.059 71.1335 112.694 70.9489 113.432 70.9489C114.18 70.9489 114.817 71.1359 115.343 71.5099C115.868 71.8793 116.219 72.3812 116.394 73.0156H116.508C116.73 72.3906 117.133 71.8911 117.715 71.517C118.302 71.1383 118.996 70.9489 119.796 70.9489C120.814 70.9489 121.64 71.2732 122.275 71.9219C122.914 72.5658 123.233 73.4796 123.233 74.6634V82H120.215V75.2599C120.215 74.6539 120.054 74.1993 119.732 73.8963C119.41 73.5933 119.008 73.4418 118.525 73.4418C117.975 73.4418 117.547 73.617 117.239 73.9673C116.931 74.313 116.778 74.7699 116.778 75.3381V82H113.844V75.196C113.844 74.661 113.69 74.2348 113.383 73.9176C113.08 73.6004 112.68 73.4418 112.182 73.4418C111.846 73.4418 111.543 73.527 111.273 73.6974C111.008 73.8632 110.797 74.0975 110.641 74.4006C110.485 74.6989 110.407 75.0492 110.407 75.4517V82H107.381ZM130.552 82.2131C129.449 82.2131 128.495 81.9787 127.69 81.5099C126.89 81.0365 126.272 80.3783 125.836 79.5355C125.401 78.688 125.183 77.7055 125.183 76.5881C125.183 75.4612 125.401 74.4763 125.836 73.6335C126.272 72.786 126.89 72.1278 127.69 71.6591C128.495 71.1856 129.449 70.9489 130.552 70.9489C131.656 70.9489 132.607 71.1856 133.407 71.6591C134.212 72.1278 134.833 72.786 135.268 73.6335C135.704 74.4763 135.922 75.4612 135.922 76.5881C135.922 77.7055 135.704 78.688 135.268 79.5355C134.833 80.3783 134.212 81.0365 133.407 81.5099C132.607 81.9787 131.656 82.2131 130.552 82.2131ZM130.567 79.8693C131.068 79.8693 131.488 79.7273 131.824 79.4432C132.16 79.1544 132.413 78.7614 132.584 78.2642C132.759 77.767 132.846 77.2012 132.846 76.5668C132.846 75.9323 132.759 75.3665 132.584 74.8693C132.413 74.3722 132.16 73.9792 131.824 73.6903C131.488 73.4015 131.068 73.2571 130.567 73.2571C130.06 73.2571 129.634 73.4015 129.288 73.6903C128.947 73.9792 128.689 74.3722 128.514 74.8693C128.344 75.3665 128.258 75.9323 128.258 76.5668C128.258 77.2012 128.344 77.767 128.514 78.2642C128.689 78.7614 128.947 79.1544 129.288 79.4432C129.634 79.7273 130.06 79.8693 130.567 79.8693ZM140.915 75.6932V82H137.889V71.0909H140.773V73.0156H140.9C141.142 72.3812 141.547 71.8793 142.115 71.5099C142.683 71.1359 143.372 70.9489 144.182 70.9489C144.939 70.9489 145.6 71.1146 146.163 71.446C146.727 71.7775 147.165 72.2509 147.477 72.8665C147.79 73.4773 147.946 74.2064 147.946 75.054V82H144.92V75.5938C144.925 74.9261 144.755 74.4053 144.409 74.0312C144.063 73.6525 143.587 73.4631 142.981 73.4631C142.574 73.4631 142.214 73.5507 141.902 73.7259C141.594 73.901 141.353 74.1567 141.177 74.4929C141.007 74.8243 140.919 75.2244 140.915 75.6932ZM155.302 82.2131C154.18 82.2131 153.214 81.9858 152.404 81.5312C151.599 81.072 150.979 80.4233 150.544 79.5852C150.108 78.7424 149.89 77.7457 149.89 76.5952C149.89 75.473 150.108 74.4882 150.544 73.6406C150.979 72.7931 151.592 72.1326 152.383 71.6591C153.178 71.1856 154.111 70.9489 155.181 70.9489C155.901 70.9489 156.571 71.0649 157.191 71.2969C157.816 71.5241 158.361 71.8674 158.825 72.3267C159.294 72.786 159.658 73.3636 159.919 74.0597C160.179 74.7509 160.309 75.5606 160.309 76.4886V77.3196H151.097V75.4446H157.461C157.461 75.009 157.366 74.6231 157.177 74.2869C156.988 73.9508 156.725 73.688 156.389 73.4986C156.057 73.3045 155.671 73.2074 155.231 73.2074C154.772 73.2074 154.365 73.3139 154.009 73.527C153.659 73.7353 153.384 74.017 153.186 74.3722C152.987 74.7225 152.885 75.1132 152.88 75.544V77.3267C152.88 77.8665 152.98 78.3329 153.178 78.7259C153.382 79.1188 153.669 79.4219 154.038 79.6349C154.407 79.848 154.845 79.9545 155.352 79.9545C155.688 79.9545 155.996 79.9072 156.275 79.8125C156.554 79.7178 156.794 79.5758 156.992 79.3864C157.191 79.197 157.343 78.965 157.447 78.6903L160.245 78.875C160.103 79.5473 159.812 80.1345 159.372 80.6364C158.936 81.1335 158.373 81.5218 157.681 81.8011C156.995 82.0758 156.202 82.2131 155.302 82.2131ZM163.858 86.0909C163.475 86.0909 163.115 86.0601 162.779 85.9986C162.448 85.9418 162.173 85.8684 161.955 85.7784L162.637 83.5199C162.992 83.6288 163.312 83.688 163.596 83.6974C163.885 83.7069 164.133 83.6406 164.341 83.4986C164.555 83.3565 164.727 83.1151 164.86 82.7741L165.037 82.3125L161.124 71.0909H164.306L166.564 79.1023H166.678L168.958 71.0909H172.161L167.921 83.179C167.717 83.7661 167.44 84.2775 167.09 84.7131C166.744 85.1534 166.306 85.492 165.776 85.7287C165.246 85.9702 164.607 86.0909 163.858 86.0909ZM178.395 82V67.4545H181.421V72.9233H181.513C181.646 72.6297 181.837 72.3314 182.088 72.0284C182.344 71.7206 182.675 71.465 183.083 71.2614C183.494 71.053 184.006 70.9489 184.617 70.9489C185.412 70.9489 186.146 71.1572 186.818 71.5739C187.491 71.9858 188.028 72.6084 188.431 73.4418C188.833 74.2704 189.034 75.3097 189.034 76.5597C189.034 77.7765 188.838 78.804 188.445 79.642C188.057 80.4754 187.526 81.1075 186.854 81.5384C186.186 81.9645 185.438 82.1776 184.61 82.1776C184.022 82.1776 183.523 82.0805 183.111 81.8864C182.704 81.6922 182.37 81.4484 182.11 81.1548C181.849 80.8565 181.65 80.5559 181.513 80.2528H181.378V82H178.395ZM181.357 76.5455C181.357 77.1941 181.447 77.7599 181.627 78.2429C181.807 78.7259 182.067 79.1023 182.408 79.3722C182.749 79.6373 183.163 79.7699 183.651 79.7699C184.143 79.7699 184.56 79.6349 184.901 79.3651C185.242 79.0904 185.5 78.7116 185.675 78.2287C185.855 77.741 185.945 77.1799 185.945 76.5455C185.945 75.9157 185.857 75.3617 185.682 74.8835C185.507 74.4053 185.249 74.0312 184.908 73.7614C184.567 73.4915 184.148 73.3565 183.651 73.3565C183.158 73.3565 182.742 73.4867 182.401 73.7472C182.065 74.0076 181.807 74.3769 181.627 74.8551C181.447 75.3333 181.357 75.8968 181.357 76.5455ZM194.164 82.206C193.468 82.206 192.848 82.0852 192.303 81.8438C191.759 81.5975 191.328 81.2353 191.01 80.7571C190.698 80.2741 190.542 79.6728 190.542 78.9531C190.542 78.3471 190.653 77.8381 190.876 77.4261C191.098 77.0142 191.401 76.6828 191.785 76.4318C192.168 76.1809 192.604 75.9915 193.091 75.8636C193.584 75.7358 194.1 75.6458 194.64 75.5938C195.274 75.5275 195.786 75.4659 196.174 75.4091C196.562 75.3475 196.844 75.2576 197.019 75.1392C197.194 75.0208 197.282 74.8456 197.282 74.6136V74.571C197.282 74.1212 197.14 73.7732 196.856 73.527C196.576 73.2808 196.179 73.1577 195.662 73.1577C195.118 73.1577 194.685 73.2784 194.363 73.5199C194.041 73.7566 193.828 74.0549 193.724 74.4148L190.925 74.1875C191.067 73.5246 191.347 72.9517 191.763 72.4688C192.18 71.9811 192.717 71.607 193.376 71.3466C194.038 71.0814 194.805 70.9489 195.677 70.9489C196.283 70.9489 196.863 71.0199 197.417 71.1619C197.975 71.304 198.47 71.5241 198.901 71.8224C199.337 72.1207 199.68 72.5043 199.931 72.973C200.182 73.437 200.307 73.9934 200.307 74.642V82H197.438V80.4872H197.353C197.178 80.8281 196.943 81.1288 196.65 81.3892C196.356 81.6449 196.003 81.8461 195.591 81.9929C195.18 82.1349 194.704 82.206 194.164 82.206ZM195.03 80.1179C195.475 80.1179 195.868 80.0303 196.209 79.8551C196.55 79.6752 196.818 79.4337 197.012 79.1307C197.206 78.8277 197.303 78.4844 197.303 78.1009V76.9432C197.208 77.0047 197.078 77.0616 196.912 77.1136C196.751 77.161 196.569 77.206 196.366 77.2486C196.162 77.2865 195.958 77.322 195.755 77.3551C195.551 77.3835 195.367 77.4096 195.201 77.4332C194.846 77.4853 194.536 77.5682 194.27 77.6818C194.005 77.7955 193.799 77.9493 193.653 78.1435C193.506 78.3329 193.432 78.5696 193.432 78.8537C193.432 79.2656 193.581 79.5805 193.88 79.7983C194.183 80.0114 194.566 80.1179 195.03 80.1179ZM207.584 82.2131C206.466 82.2131 205.505 81.9763 204.7 81.5028C203.9 81.0246 203.284 80.3617 202.854 79.5142C202.427 78.6667 202.214 77.6913 202.214 76.5881C202.214 75.4706 202.43 74.4905 202.861 73.6477C203.296 72.8002 203.914 72.1397 204.714 71.6662C205.515 71.188 206.466 70.9489 207.569 70.9489C208.521 70.9489 209.354 71.1217 210.069 71.4673C210.784 71.813 211.35 72.2983 211.767 72.9233C212.184 73.5483 212.413 74.2822 212.456 75.125H209.601C209.52 74.5805 209.307 74.1425 208.961 73.8111C208.621 73.4749 208.173 73.3068 207.619 73.3068C207.15 73.3068 206.741 73.4347 206.39 73.6903C206.045 73.9413 205.775 74.3082 205.581 74.7912C205.387 75.2741 205.29 75.8589 205.29 76.5455C205.29 77.2415 205.384 77.8333 205.574 78.321C205.768 78.8087 206.04 79.1804 206.39 79.4361C206.741 79.6918 207.15 79.8196 207.619 79.8196C207.965 79.8196 208.275 79.7486 208.55 79.6065C208.829 79.4645 209.059 79.2585 209.238 78.9886C209.423 78.714 209.544 78.3849 209.601 78.0014H212.456C212.408 78.8348 212.181 79.5687 211.774 80.2031C211.372 80.8329 210.815 81.3253 210.105 81.6804C209.395 82.0355 208.554 82.2131 207.584 82.2131ZM217.134 78.8608L217.142 75.2315H217.582L221.076 71.0909H224.549L219.855 76.5739H219.137L217.134 78.8608ZM214.393 82V67.4545H217.419V82H214.393ZM221.211 82L218.001 77.2486L220.018 75.1108L224.755 82H221.211ZM121.534 110.318C120.554 110.318 119.714 110.183 119.013 109.913C118.317 109.648 117.763 109.286 117.351 108.827C116.939 108.367 116.672 107.851 116.548 107.278L119.347 106.902C119.432 107.12 119.567 107.323 119.752 107.513C119.936 107.702 120.18 107.854 120.483 107.967C120.791 108.086 121.165 108.145 121.605 108.145C122.263 108.145 122.806 107.984 123.232 107.662C123.663 107.345 123.878 106.812 123.878 106.064V104.068H123.75C123.618 104.371 123.419 104.658 123.154 104.928C122.888 105.197 122.548 105.418 122.131 105.588C121.714 105.759 121.217 105.844 120.639 105.844C119.82 105.844 119.075 105.654 118.402 105.276C117.735 104.892 117.202 104.307 116.804 103.521C116.411 102.731 116.215 101.732 116.215 100.524C116.215 99.2884 116.416 98.2562 116.818 97.4276C117.221 96.599 117.756 95.9787 118.423 95.5668C119.096 95.1548 119.832 94.9489 120.632 94.9489C121.243 94.9489 121.754 95.053 122.166 95.2614C122.578 95.465 122.91 95.7206 123.161 96.0284C123.416 96.3314 123.613 96.6297 123.75 96.9233H123.864V95.0909H126.868V106.107C126.868 107.035 126.641 107.811 126.186 108.436C125.732 109.061 125.102 109.53 124.297 109.842C123.497 110.16 122.576 110.318 121.534 110.318ZM121.598 103.571C122.086 103.571 122.498 103.45 122.834 103.209C123.175 102.963 123.435 102.612 123.615 102.158C123.8 101.698 123.892 101.149 123.892 100.51C123.892 99.8707 123.802 99.3168 123.622 98.848C123.442 98.3745 123.182 98.0076 122.841 97.7472C122.5 97.4867 122.086 97.3565 121.598 97.3565C121.101 97.3565 120.682 97.4915 120.341 97.7614C120 98.0265 119.742 98.3958 119.567 98.8693C119.392 99.3428 119.304 99.8897 119.304 100.51C119.304 101.14 119.392 101.684 119.567 102.143C119.747 102.598 120.005 102.951 120.341 103.202C120.682 103.448 121.101 103.571 121.598 103.571ZM136.271 101.355V95.0909H139.297V106H136.392V104.018H136.279C136.032 104.658 135.623 105.171 135.05 105.56C134.482 105.948 133.788 106.142 132.969 106.142C132.24 106.142 131.598 105.976 131.044 105.645C130.49 105.313 130.057 104.842 129.744 104.232C129.437 103.621 129.28 102.889 129.276 102.037V95.0909H132.301V101.497C132.306 102.141 132.479 102.65 132.82 103.024C133.161 103.398 133.618 103.585 134.191 103.585C134.555 103.585 134.896 103.502 135.213 103.337C135.53 103.166 135.786 102.915 135.98 102.584C136.179 102.252 136.276 101.843 136.271 101.355ZM144.828 106.206C144.132 106.206 143.512 106.085 142.967 105.844C142.423 105.598 141.992 105.235 141.675 104.757C141.362 104.274 141.206 103.673 141.206 102.953C141.206 102.347 141.317 101.838 141.54 101.426C141.762 101.014 142.065 100.683 142.449 100.432C142.832 100.181 143.268 99.9915 143.756 99.8636C144.248 99.7358 144.764 99.6458 145.304 99.5938C145.938 99.5275 146.45 99.4659 146.838 99.4091C147.226 99.3475 147.508 99.2576 147.683 99.1392C147.858 99.0208 147.946 98.8456 147.946 98.6136V98.571C147.946 98.1212 147.804 97.7732 147.52 97.527C147.24 97.2808 146.843 97.1577 146.327 97.1577C145.782 97.1577 145.349 97.2784 145.027 97.5199C144.705 97.7566 144.492 98.0549 144.388 98.4148L141.589 98.1875C141.731 97.5246 142.011 96.9517 142.427 96.4688C142.844 95.9811 143.381 95.607 144.04 95.3466C144.702 95.0814 145.47 94.9489 146.341 94.9489C146.947 94.9489 147.527 95.0199 148.081 95.1619C148.64 95.304 149.134 95.5241 149.565 95.8224C150.001 96.1207 150.344 96.5043 150.595 96.973C150.846 97.437 150.971 97.9934 150.971 98.642V106H148.102V104.487H148.017C147.842 104.828 147.607 105.129 147.314 105.389C147.02 105.645 146.667 105.846 146.256 105.993C145.844 106.135 145.368 106.206 144.828 106.206ZM145.694 104.118C146.14 104.118 146.532 104.03 146.873 103.855C147.214 103.675 147.482 103.434 147.676 103.131C147.87 102.828 147.967 102.484 147.967 102.101V100.943C147.872 101.005 147.742 101.062 147.577 101.114C147.416 101.161 147.233 101.206 147.03 101.249C146.826 101.286 146.622 101.322 146.419 101.355C146.215 101.384 146.031 101.41 145.865 101.433C145.51 101.485 145.2 101.568 144.934 101.682C144.669 101.795 144.463 101.949 144.317 102.143C144.17 102.333 144.096 102.57 144.096 102.854C144.096 103.266 144.246 103.58 144.544 103.798C144.847 104.011 145.23 104.118 145.694 104.118ZM153.319 106V95.0909H156.252V96.9943H156.366C156.564 96.3172 156.898 95.8059 157.367 95.4602C157.836 95.1098 158.376 94.9347 158.986 94.9347C159.138 94.9347 159.301 94.9441 159.476 94.9631C159.652 94.982 159.805 95.008 159.938 95.0412V97.7259C159.796 97.6832 159.599 97.6454 159.349 97.6122C159.098 97.5791 158.868 97.5625 158.66 97.5625C158.215 97.5625 157.817 97.6596 157.466 97.8537C157.121 98.0431 156.846 98.3082 156.643 98.6491C156.444 98.9901 156.344 99.383 156.344 99.8281V106H153.319ZM164.301 106.206C163.605 106.206 162.984 106.085 162.44 105.844C161.895 105.598 161.464 105.235 161.147 104.757C160.835 104.274 160.678 103.673 160.678 102.953C160.678 102.347 160.79 101.838 161.012 101.426C161.235 101.014 161.538 100.683 161.921 100.432C162.305 100.181 162.74 99.9915 163.228 99.8636C163.721 99.7358 164.237 99.6458 164.776 99.5938C165.411 99.5275 165.922 99.4659 166.311 99.4091C166.699 99.3475 166.981 99.2576 167.156 99.1392C167.331 99.0208 167.419 98.8456 167.419 98.6136V98.571C167.419 98.1212 167.276 97.7732 166.992 97.527C166.713 97.2808 166.315 97.1577 165.799 97.1577C165.255 97.1577 164.821 97.2784 164.499 97.5199C164.177 97.7566 163.964 98.0549 163.86 98.4148L161.062 98.1875C161.204 97.5246 161.483 96.9517 161.9 96.4688C162.317 95.9811 162.854 95.607 163.512 95.3466C164.175 95.0814 164.942 94.9489 165.813 94.9489C166.419 94.9489 166.999 95.0199 167.553 95.1619C168.112 95.304 168.607 95.5241 169.038 95.8224C169.473 96.1207 169.817 96.5043 170.068 96.973C170.319 97.437 170.444 97.9934 170.444 98.642V106H167.575V104.487H167.49C167.314 104.828 167.08 105.129 166.786 105.389C166.493 105.645 166.14 105.846 165.728 105.993C165.316 106.135 164.84 106.206 164.301 106.206ZM165.167 104.118C165.612 104.118 166.005 104.03 166.346 103.855C166.687 103.675 166.954 103.434 167.149 103.131C167.343 102.828 167.44 102.484 167.44 102.101V100.943C167.345 101.005 167.215 101.062 167.049 101.114C166.888 101.161 166.706 101.206 166.502 101.249C166.299 101.286 166.095 101.322 165.892 101.355C165.688 101.384 165.503 101.41 165.338 101.433C164.982 101.485 164.672 101.568 164.407 101.682C164.142 101.795 163.936 101.949 163.789 102.143C163.642 102.333 163.569 102.57 163.569 102.854C163.569 103.266 163.718 103.58 164.017 103.798C164.32 104.011 164.703 104.118 165.167 104.118ZM175.817 99.6932V106H172.791V95.0909H175.675V97.0156H175.803C176.044 96.3812 176.449 95.8793 177.017 95.5099C177.585 95.1359 178.274 94.9489 179.084 94.9489C179.842 94.9489 180.502 95.1146 181.066 95.446C181.629 95.7775 182.067 96.2509 182.379 96.8665C182.692 97.4773 182.848 98.2064 182.848 99.054V106H179.823V99.5938C179.827 98.9261 179.657 98.4053 179.311 98.0312C178.966 97.6525 178.49 97.4631 177.884 97.4631C177.477 97.4631 177.117 97.5507 176.804 97.7259C176.496 97.901 176.255 98.1567 176.08 98.4929C175.909 98.8243 175.822 99.2244 175.817 99.6932ZM191.035 95.0909V97.3636H184.466V95.0909H191.035ZM185.957 92.4773H188.983V102.648C188.983 102.927 189.025 103.145 189.111 103.301C189.196 103.453 189.314 103.559 189.466 103.621C189.622 103.682 189.802 103.713 190.006 103.713C190.148 103.713 190.29 103.701 190.432 103.678C190.574 103.649 190.683 103.628 190.758 103.614L191.234 105.865C191.083 105.912 190.87 105.967 190.595 106.028C190.32 106.095 189.987 106.135 189.594 106.149C188.864 106.178 188.225 106.08 187.676 105.858C187.131 105.635 186.708 105.29 186.405 104.821C186.102 104.352 185.952 103.76 185.957 103.045V92.4773ZM197.861 106.213C196.738 106.213 195.773 105.986 194.963 105.531C194.158 105.072 193.538 104.423 193.102 103.585C192.666 102.742 192.449 101.746 192.449 100.595C192.449 99.473 192.666 98.4882 193.102 97.6406C193.538 96.7931 194.151 96.1326 194.942 95.6591C195.737 95.1856 196.67 94.9489 197.74 94.9489C198.46 94.9489 199.13 95.0649 199.75 95.2969C200.375 95.5241 200.919 95.8674 201.383 96.3267C201.852 96.786 202.217 97.3636 202.477 98.0597C202.738 98.7509 202.868 99.5606 202.868 100.489V101.32H193.656V99.4446H200.02C200.02 99.009 199.925 98.6231 199.736 98.2869C199.546 97.9508 199.283 97.688 198.947 97.4986C198.616 97.3045 198.23 97.2074 197.79 97.2074C197.33 97.2074 196.923 97.3139 196.568 97.527C196.218 97.7353 195.943 98.017 195.744 98.3722C195.545 98.7225 195.443 99.1132 195.439 99.544V101.327C195.439 101.866 195.538 102.333 195.737 102.726C195.941 103.119 196.227 103.422 196.596 103.635C196.966 103.848 197.404 103.955 197.91 103.955C198.247 103.955 198.554 103.907 198.834 103.812C199.113 103.718 199.352 103.576 199.551 103.386C199.75 103.197 199.901 102.965 200.006 102.69L202.804 102.875C202.662 103.547 202.371 104.134 201.93 104.636C201.495 105.134 200.931 105.522 200.24 105.801C199.553 106.076 198.76 106.213 197.861 106.213ZM209.814 106.213C208.692 106.213 207.726 105.986 206.916 105.531C206.111 105.072 205.491 104.423 205.055 103.585C204.62 102.742 204.402 101.746 204.402 100.595C204.402 99.473 204.62 98.4882 205.055 97.6406C205.491 96.7931 206.104 96.1326 206.895 95.6591C207.69 95.1856 208.623 94.9489 209.693 94.9489C210.413 94.9489 211.083 95.0649 211.703 95.2969C212.328 95.5241 212.872 95.8674 213.336 96.3267C213.805 96.786 214.17 97.3636 214.43 98.0597C214.691 98.7509 214.821 99.5606 214.821 100.489V101.32H205.609V99.4446H211.973C211.973 99.009 211.878 98.6231 211.689 98.2869C211.499 97.9508 211.237 97.688 210.9 97.4986C210.569 97.3045 210.183 97.2074 209.743 97.2074C209.283 97.2074 208.876 97.3139 208.521 97.527C208.171 97.7353 207.896 98.017 207.697 98.3722C207.498 98.7225 207.397 99.1132 207.392 99.544V101.327C207.392 101.866 207.491 102.333 207.69 102.726C207.894 103.119 208.18 103.422 208.55 103.635C208.919 103.848 209.357 103.955 209.863 103.955C210.2 103.955 210.507 103.907 210.787 103.812C211.066 103.718 211.305 103.576 211.504 103.386C211.703 103.197 211.854 102.965 211.959 102.69L214.757 102.875C214.615 103.547 214.324 104.134 213.883 104.636C213.448 105.134 212.884 105.522 212.193 105.801C211.506 106.076 210.713 106.213 209.814 106.213Z" fill="#DF8943"/>
<defs>
<clipPath id="clip0_471_2086">
<rect width="149.839" height="127.906" fill="white" transform="translate(163.824 22.9805)"/>
</clipPath>
<clipPath id="clip1_471_2086">
<rect width="167.819" height="129.904" fill="white" transform="translate(0 20.9844)"/>
</clipPath>
</defs>
</svg>
