<svg width="49" height="48" viewBox="0 0 49 48" fill="none" xmlns="http://www.w3.org/2000/svg">
<g clip-path="url(#clip0_129_6040)">
<path d="M24.7442 0C19.9974 0 15.3573 1.40758 11.4105 4.04473C7.46369 6.68188 4.38755 10.4302 2.57104 14.8156C0.754539 19.201 0.279259 24.0266 1.2053 28.6822C2.13135 33.3377 4.41713 37.6141 7.77359 40.9706C11.1301 44.327 15.4064 46.6128 20.062 47.5389C24.7175 48.4649 29.5431 47.9896 33.9286 46.1731C38.314 44.3566 42.0623 41.2805 44.6995 37.3337C47.3366 33.3869 48.7442 28.7468 48.7442 24C48.7442 17.6348 46.2156 11.5303 41.7147 7.02944C37.2139 2.52856 31.1094 0 24.7442 0V0ZM30.8263 21.7263L30.4284 25.0705C30.4112 25.2257 30.3372 25.369 30.2205 25.4729C30.1039 25.5767 29.9529 25.6336 29.7968 25.6326H26.3231V35.5484C26.324 35.6668 26.278 35.7807 26.1951 35.8653C26.1123 35.9499 25.9994 35.9983 25.881 36H22.3442C22.2853 35.9992 22.2271 35.9868 22.173 35.9635C22.1189 35.9402 22.07 35.9064 22.0289 35.8642C21.9879 35.822 21.9555 35.7721 21.9338 35.7174C21.912 35.6626 21.9012 35.6042 21.9021 35.5453L21.921 25.6326H19.2905C19.123 25.6326 18.9623 25.5661 18.8439 25.4476C18.7254 25.3292 18.6589 25.1686 18.6589 25.0011V21.66C18.6589 21.4925 18.7254 21.3319 18.8439 21.2134C18.9623 21.095 19.123 21.0284 19.2905 21.0284H21.9021V17.7884C21.9021 14.04 24.1347 12 27.3968 12H30.0715C30.239 12 30.3997 12.0665 30.5181 12.185C30.6366 12.3034 30.7031 12.4641 30.7031 12.6316V15.4453C30.7031 15.6128 30.6366 15.7734 30.5181 15.8919C30.3997 16.0103 30.239 16.0768 30.0715 16.0768H28.4326C26.6579 16.1053 26.3231 16.9547 26.3231 18.2242V21.0189H30.2136C30.3018 21.021 30.3885 21.0414 30.4682 21.0789C30.548 21.1164 30.619 21.1703 30.6767 21.2369C30.7344 21.3035 30.7775 21.3815 30.8033 21.4658C30.829 21.5501 30.8369 21.6388 30.8263 21.7263Z" fill="white"/>
</g>
<defs>
<clipPath id="clip0_129_6040">
<rect width="48" height="48" fill="white" transform="translate(0.744141)"/>
</clipPath>
</defs>
</svg>
