<svg width="49" height="48" viewBox="0 0 49 48" fill="none" xmlns="http://www.w3.org/2000/svg">
<g clip-path="url(#clip0_129_6054)">
<path d="M24.7442 0C19.9974 0 15.3573 1.40758 11.4105 4.04473C7.46369 6.68188 4.38755 10.4302 2.57104 14.8156C0.754539 19.201 0.279259 24.0266 1.2053 28.6822C2.13135 33.3377 4.41713 37.6141 7.77359 40.9706C11.1301 44.327 15.4064 46.6128 20.062 47.5389C24.7175 48.4649 29.5431 47.9896 33.9286 46.1731C38.314 44.3566 42.0623 41.2805 44.6995 37.3337C47.3366 33.3869 48.7442 28.7468 48.7442 24C48.7442 17.6348 46.2156 11.5303 41.7147 7.02944C37.2139 2.52856 31.1094 0 24.7442 0V0ZM18.6368 35.1884C18.6368 35.4037 18.5513 35.6101 18.3991 35.7623C18.2469 35.9145 18.0405 36 17.8252 36H14.3768C14.2701 36.0004 14.1644 35.9797 14.0657 35.9391C13.9671 35.8984 13.8774 35.8387 13.802 35.7632C13.7265 35.6878 13.6668 35.5981 13.6261 35.4995C13.5855 35.4008 13.5648 35.2951 13.5652 35.1884V20.7284C13.5652 20.5132 13.6507 20.3067 13.8029 20.1545C13.9551 20.0023 14.1615 19.9168 14.3768 19.9168H17.8252C18.0405 19.9168 18.2469 20.0023 18.3991 20.1545C18.5513 20.3067 18.6368 20.5132 18.6368 20.7284V35.1884ZM16.1105 18.5558C15.4618 18.5583 14.8269 18.3683 14.2863 18.0097C13.7456 17.6512 13.3235 17.1403 13.0734 16.5418C12.8233 15.9432 12.7564 15.2839 12.8812 14.6473C13.006 14.0108 13.3168 13.4255 13.7744 12.9657C14.232 12.5059 14.8158 12.1922 15.4518 12.0643C16.0877 11.9365 16.7474 12.0002 17.3471 12.2474C17.9469 12.4947 18.4598 12.9143 18.8209 13.4532C19.182 13.9921 19.3751 14.626 19.3757 15.2747C19.3762 15.7052 19.2918 16.1315 19.1274 16.5294C18.9631 16.9272 18.722 17.2888 18.4179 17.5935C18.1138 17.8982 17.7527 18.14 17.3552 18.3051C16.9576 18.4702 16.5315 18.5554 16.101 18.5558H16.1105ZM36.6747 35.2547C36.6747 35.4524 36.5962 35.642 36.4564 35.7817C36.3167 35.9215 36.1271 36 35.9294 36H32.2189C32.0212 36 31.8317 35.9215 31.6919 35.7817C31.5522 35.642 31.4736 35.4524 31.4736 35.2547V28.4716C31.4736 27.4579 31.7673 24.0505 28.8273 24.0505C26.5473 24.0505 26.0831 26.3937 25.9852 27.4453V35.2705C25.9811 35.4643 25.9017 35.6489 25.7637 35.7851C25.6257 35.9213 25.4401 35.9984 25.2463 36H21.6652C21.5672 36.0004 21.4701 35.9814 21.3795 35.9441C21.2889 35.9068 21.2066 35.8519 21.1373 35.7826C21.068 35.7134 21.0131 35.631 20.9758 35.5404C20.9385 35.4498 20.9195 35.3527 20.92 35.2547V20.6653C20.9195 20.5671 20.9385 20.4699 20.9758 20.3791C21.013 20.2883 21.0679 20.2058 21.1371 20.1362C21.2064 20.0667 21.2887 20.0115 21.3793 19.9739C21.4699 19.9362 21.5671 19.9168 21.6652 19.9168H25.2463C25.3456 19.9152 25.4443 19.9333 25.5366 19.9701C25.6288 20.007 25.7128 20.0619 25.7837 20.1315C25.8545 20.2012 25.9108 20.2843 25.9492 20.3759C25.9876 20.4675 26.0073 20.5659 26.0073 20.6653V21.9284C26.8536 20.6653 28.1105 19.6768 30.7852 19.6768C36.7158 19.6768 36.681 25.2158 36.681 28.2568L36.6747 35.2547Z" fill="white"/>
</g>
<defs>
<clipPath id="clip0_129_6054">
<rect width="48" height="48" fill="white" transform="translate(0.744141)"/>
</clipPath>
</defs>
</svg>
