<svg width="49" height="48" viewBox="0 0 49 48" fill="none" xmlns="http://www.w3.org/2000/svg">
<path d="M24.7438 27.7923C26.8384 27.7923 28.5364 26.0943 28.5364 23.9997C28.5364 21.9051 26.8384 20.207 24.7438 20.207C22.6492 20.207 20.9512 21.9051 20.9512 23.9997C20.9512 26.0943 22.6492 27.7923 24.7438 27.7923Z" fill="white"/>
<path d="M29.5951 14.416H19.8941C18.6378 14.416 17.4329 14.9151 16.5446 15.8034C15.6563 16.6917 15.1572 17.8966 15.1572 19.1529V28.8508C15.1572 30.1071 15.6563 31.3119 16.5446 32.2002C17.4329 33.0885 18.6378 33.5876 19.8941 33.5876H29.5951C30.8514 33.5876 32.0563 33.0885 32.9446 32.2002C33.8329 31.3119 34.332 30.1071 34.332 28.8508V19.1497C34.3311 17.894 33.8317 16.6899 32.9435 15.8023C32.0552 14.9146 30.8509 14.416 29.5951 14.416ZM24.7446 30.2087C23.5166 30.2093 22.3159 29.8457 21.2945 29.1639C20.2731 28.4821 19.4769 27.5127 19.0065 26.3783C18.5361 25.2439 18.4127 23.9955 18.6519 22.791C18.8911 21.5864 19.4822 20.4799 20.3503 19.6113C21.2184 18.7428 22.3247 18.1511 23.5291 17.9113C24.7335 17.6715 25.982 17.7943 27.1166 18.2641C28.2512 18.7339 29.221 19.5297 29.9033 20.5507C30.5857 21.5717 30.9499 22.7722 30.9499 24.0002C30.9482 25.6458 30.294 27.2234 29.1307 28.3873C27.9675 29.5511 26.3901 30.2062 24.7446 30.2087ZM30.9878 19.3265C30.684 19.3272 30.3868 19.2376 30.1339 19.0692C29.8811 18.9008 29.6839 18.6612 29.5673 18.3806C29.4507 18.1 29.4201 17.7912 29.4792 17.4932C29.5383 17.1952 29.6846 16.9214 29.8994 16.7066C30.1142 16.4918 30.388 16.3455 30.686 16.2864C30.984 16.2273 31.2928 16.2579 31.5734 16.3745C31.854 16.4911 32.0936 16.6883 32.262 16.9411C32.4304 17.194 32.52 17.4912 32.5193 17.795C32.5185 18.2009 32.3569 18.59 32.0698 18.877C31.7828 19.1641 31.3937 19.3257 30.9878 19.3265Z" fill="white"/>
<path d="M24.7442 0C19.9974 0 15.3573 1.40758 11.4105 4.04473C7.46369 6.68188 4.38755 10.4302 2.57104 14.8156C0.754539 19.201 0.279259 24.0266 1.2053 28.6822C2.13135 33.3377 4.41713 37.6141 7.77359 40.9706C11.1301 44.327 15.4064 46.6128 20.062 47.5389C24.7175 48.4649 29.5431 47.9896 33.9286 46.1731C38.314 44.3566 42.0623 41.2805 44.6995 37.3337C47.3366 33.3869 48.7442 28.7468 48.7442 24C48.7442 17.6348 46.2156 11.5303 41.7147 7.02944C37.2139 2.52856 31.1094 0 24.7442 0V0ZM36.7442 28.8505C36.7425 30.7462 35.9887 32.5637 34.6483 33.9041C33.3079 35.2445 31.4903 35.9983 29.5947 36H19.8936C17.9982 35.9975 16.1812 35.2434 14.841 33.9032C13.5007 32.563 12.7467 30.7459 12.7442 28.8505V19.1495C12.7467 17.2541 13.5007 15.437 14.841 14.0968C16.1812 12.7566 17.9982 12.0025 19.8936 12H29.5947C31.4901 12.0025 33.3071 12.7566 34.6474 14.0968C35.9876 15.437 36.7417 17.2541 36.7442 19.1495V28.8505Z" fill="white"/>
</svg>
