<svg width="80" height="80" viewBox="0 0 80 80" fill="none" xmlns="http://www.w3.org/2000/svg">
<path d="M32.4305 64C33.9397 64 35.0296 63.5026 35.7004 62.5078C36.3711 61.513 36.6227 60.2694 36.455 58.7772L30.9213 23.2124C30.5859 21.2228 29.9152 19.5648 28.9091 18.2383C27.7353 16.7461 25.9746 16 23.627 16H7.026C5.68451 16 4.67839 16.4974 4.00765 17.4922C3.16922 18.3212 2.75 19.2332 2.75 20.228C2.75 21.5544 3.08537 22.8808 3.75612 24.2073L16.8357 58.2798C17.5064 59.9378 18.4287 61.3471 19.6025 62.5078C20.6086 63.5026 22.2016 64 24.3815 64H32.4305ZM72.6752 64C74.0167 64 75.1067 63.5026 75.9451 62.5078C76.6159 61.513 76.8674 60.2694 76.6997 58.7772L70.9145 23.2124C70.5791 21.2228 69.9084 19.5648 68.9023 18.2383C67.7285 16.7461 66.0516 16 63.8717 16H47.0192C45.8454 16 44.9231 16.4974 44.2524 17.4922C43.4139 18.3212 42.9947 19.2332 42.9947 20.228C42.9947 21.5544 43.3301 22.8808 44.0009 24.2073L57.0804 58.2798C57.7511 59.9378 58.6734 61.3471 59.8472 62.5078C60.8533 63.5026 62.4464 64 64.6263 64H72.6752Z" fill="#1C0B24"/>
</svg>
