<svg width="359" height="392" viewBox="0 0 359 392" fill="none" xmlns="http://www.w3.org/2000/svg">
<g filter="url(#filter0_dd_195_791)">
<circle cx="179" cy="187" r="144" fill="white"/>
</g>
<path d="M125.376 154V165.167L114.35 169.819V158.653L125.376 154Z" fill="#2BD8BF"/>
<path d="M125.376 154V165.167L114.35 169.819V158.653L125.376 154Z" fill="#8E3385"/>
<path d="M171.046 200.342L181.246 204.622C177.295 214.207 168.014 221 157.079 221C142.652 221 130.89 209.089 130.89 194.479C130.89 179.869 142.652 167.958 157.079 167.958C168.014 167.958 177.295 174.751 181.246 184.336L171.046 188.617C168.749 183.033 163.327 179.125 157.079 179.125C148.717 179.125 141.917 186.011 141.917 194.479C141.917 202.947 148.717 209.833 157.079 209.833C163.419 209.833 168.841 205.925 171.046 200.342ZM186.759 219.139H197.786V154L186.759 158.653V219.139ZM203.299 169.819L214.326 165.167V154L203.299 158.653V169.819ZM203.299 175.403V219.139H214.326V170.75L203.299 175.403ZM114.35 175.403V194.479C114.35 202.947 107.55 209.833 99.1884 209.833C90.8266 209.833 84.0267 202.947 84.0267 194.479V169.819L73 174.472V194.479C73 209.089 84.7619 221 99.1884 221C113.615 221 125.377 209.089 125.377 194.479V170.75L114.35 175.403ZM286 219.139H270.379L264.589 213.276C259.812 218.115 253.287 221 246.028 221C231.601 221 219.84 209.089 219.84 194.479C219.84 179.869 231.601 167.958 246.028 167.958C260.455 167.958 272.217 179.869 272.217 194.479C272.217 197.643 271.665 200.714 270.562 203.599L286 219.139ZM246.028 194.479H261.19C261.19 186.011 254.39 179.125 246.028 179.125C237.666 179.125 230.866 186.011 230.866 194.479C230.866 202.947 237.666 209.833 246.028 209.833C250.163 209.833 254.022 208.065 256.779 205.367L246.028 194.479Z" fill="#1C0B24"/>
<path fill-rule="evenodd" clip-rule="evenodd" d="M214.305 165.178L203.279 169.831V158.665L214.305 154.012V165.178Z" fill="#DF8943"/>
<defs>
<filter id="filter0_dd_195_791" x="0" y="0" width="359" height="392" filterUnits="userSpaceOnUse" color-interpolation-filters="sRGB">
<feFlood flood-opacity="0" result="BackgroundImageFix"/>
<feColorMatrix in="SourceAlpha" type="matrix" values="0 0 0 0 0 0 0 0 0 0 0 0 0 0 0 0 0 0 127 0" result="hardAlpha"/>
<feOffset dx="1" dy="26"/>
<feGaussianBlur stdDeviation="17.5"/>
<feComposite in2="hardAlpha" operator="out"/>
<feColorMatrix type="matrix" values="0 0 0 0 0.258333 0 0 0 0 0.258333 0 0 0 0 0.258333 0 0 0 0.08 0"/>
<feBlend mode="normal" in2="BackgroundImageFix" result="effect1_dropShadow_195_791"/>
<feColorMatrix in="SourceAlpha" type="matrix" values="0 0 0 0 0 0 0 0 0 0 0 0 0 0 0 0 0 0 127 0" result="hardAlpha"/>
<feOffset dy="-8"/>
<feGaussianBlur stdDeviation="17.5"/>
<feComposite in2="hardAlpha" operator="out"/>
<feColorMatrix type="matrix" values="0 0 0 0 0 0 0 0 0 0 0 0 0 0 0 0 0 0 0.03 0"/>
<feBlend mode="normal" in2="effect1_dropShadow_195_791" result="effect2_dropShadow_195_791"/>
<feBlend mode="normal" in="SourceGraphic" in2="effect2_dropShadow_195_791" result="shape"/>
</filter>
</defs>
</svg>
