<svg width="200" height="160" viewBox="0 0 200 160" fill="none" xmlns="http://www.w3.org/2000/svg">
<path d="M186.032 138.526L172.587 75.9221C172.479 75.4159 172.26 74.9393 171.947 74.5256C171.634 74.1118 171.235 73.7708 170.776 73.5262C170.317 73.2817 169.81 73.1395 169.29 73.1095C168.771 73.0795 168.251 73.1625 167.766 73.3527L134.029 86.6022L96.8422 74.4552L59.655 88.178L21.5826 74.7865C21.0941 74.6143 20.5738 74.5496 20.0577 74.5967C19.5416 74.6439 19.0419 74.8018 18.5932 75.0595C18.1444 75.3173 17.7571 75.6688 17.4582 76.0897C17.1593 76.5107 16.9557 76.9911 16.8616 77.4979L5.61595 138.096C5.46371 138.91 5.60192 139.752 6.00674 140.475C6.41157 141.199 7.05766 141.76 7.83367 142.061L53.8585 160L96.8422 145.743L144.656 157.36L183.809 142.601C184.607 142.297 185.27 141.719 185.678 140.972C186.085 140.225 186.211 139.357 186.032 138.526Z" fill="white"/>
<path d="M53.5161 160L7.36218 142.028C6.51103 141.695 5.80265 141.078 5.35825 140.284C4.91385 139.489 4.76106 138.566 4.92602 137.672L16.198 77.0947C16.3017 76.5383 16.5254 76.0108 16.8538 75.5485C17.1822 75.0862 17.6076 74.7002 18.1005 74.417C18.5934 74.1338 19.1422 73.9602 19.7091 73.9081C20.2761 73.8559 20.8476 73.9266 21.3844 74.1151L59.3163 87.4573L96.4916 73.7415L133.672 85.8824L167.274 72.6868C167.807 72.4777 168.38 72.3869 168.952 72.4207C169.524 72.4544 170.082 72.6119 170.587 72.8821C171.092 73.1523 171.531 73.5288 171.874 73.9851C172.217 74.4415 172.456 74.9669 172.574 75.5245L186.021 138.107C186.222 139.022 186.085 139.979 185.634 140.802C185.183 141.624 184.449 142.258 183.566 142.586L144.33 157.375L96.5154 145.74L53.5161 160ZM20.0712 74.5975C19.3171 74.5982 18.5871 74.8609 18.0075 75.3403C17.4279 75.8197 17.0352 76.4855 16.8975 77.2225L5.6445 137.795C5.50876 138.527 5.63346 139.283 5.99721 139.933C6.36096 140.584 6.9411 141.089 7.63816 141.361L53.5542 159.243L96.5059 145.002L144.301 156.614L183.318 141.9C184.041 141.631 184.643 141.112 185.013 140.438C185.382 139.764 185.495 138.98 185.331 138.23L171.88 75.6759C171.782 75.2199 171.586 74.7905 171.305 74.4177C171.023 74.0449 170.664 73.7376 170.25 73.5174C169.837 73.2972 169.381 73.1692 168.912 73.1426C168.444 73.1159 167.976 73.1912 167.54 73.3631L133.695 86.6438L133.572 86.606L96.5106 74.5029L59.321 88.2188L21.1465 74.7867C20.8015 74.6632 20.4378 74.5992 20.0712 74.5975Z" fill="#24071D"/>
<path d="M167.765 69.2143L134.027 82.4438L144.655 153.103L183.794 138.367C184.596 138.066 185.263 137.489 185.673 136.742C186.084 135.995 186.211 135.126 186.031 134.294L172.586 71.7799C172.478 71.2745 172.259 70.7986 171.946 70.3855C171.634 69.9724 171.234 69.6318 170.775 69.3877C170.316 69.1435 169.809 69.0015 169.289 68.9715C168.77 68.9416 168.25 69.0245 167.765 69.2143Z" fill="#FDAF4E"/>
<path d="M144.748 153.103L134.027 81.8512L167.99 68.5498C168.522 68.3405 169.095 68.2493 169.667 68.2826C170.239 68.3158 170.797 68.4727 171.301 68.7423C171.806 69.0119 172.245 69.3877 172.587 69.8433C172.93 70.2989 173.168 70.8233 173.285 71.3799L186.715 133.783C186.916 134.696 186.778 135.65 186.328 136.47C185.877 137.291 185.144 137.922 184.262 138.25L144.748 153.103ZM134.817 82.304L145.323 152.113L184.01 137.562C184.732 137.292 185.333 136.775 185.702 136.103C186.071 135.431 186.185 134.649 186.021 133.901L172.587 71.4978C172.49 71.0431 172.294 70.6149 172.012 70.2431C171.731 69.8713 171.372 69.5648 170.959 69.3452C170.546 69.1255 170.09 68.998 169.622 68.9714C169.154 68.9448 168.686 69.0199 168.251 69.1913L134.817 82.304Z" fill="#24071D"/>
<path d="M16.8847 73.2595L5.61538 133.932C5.4639 134.747 5.60269 135.59 6.00791 136.314C6.41312 137.039 7.05947 137.6 7.83589 137.902L53.9185 155.862L59.7223 83.9567L21.6021 70.5449C21.1135 70.3751 20.5937 70.3122 20.0784 70.3605C19.5631 70.4089 19.0644 70.5674 18.6164 70.8252C18.1684 71.083 17.7818 71.434 17.4829 71.8541C17.184 72.2743 16.9799 72.7537 16.8847 73.2595Z" fill="#DF8943"/>
<path d="M54.5552 156.552L8.05792 138.458C7.20631 138.124 6.49784 137.506 6.05327 136.712C5.6087 135.917 5.45556 134.993 5.61996 134.099L16.886 73.5529C16.9883 72.9959 17.2113 72.4675 17.5396 72.0044C17.8678 71.5413 18.2934 71.1545 18.787 70.8708C19.2806 70.5871 19.8303 70.4133 20.3982 70.3613C20.9661 70.3092 21.5386 70.3803 22.0761 70.5696L60.4168 84.0442V84.3184L54.5552 156.552ZM20.7477 71.0566C19.9931 71.0572 19.2625 71.3199 18.6824 71.7992C18.1024 72.2784 17.7095 72.944 17.5717 73.6806L6.32469 134.226C6.18828 134.958 6.31221 135.714 6.67527 136.366C7.03834 137.017 7.61798 137.522 8.31505 137.796L53.9172 155.545L59.6549 84.5312L21.8381 71.241C21.4926 71.1191 21.1286 71.0568 20.7619 71.0566H20.7477Z" fill="#24071D"/>
<path d="M59.9732 84.071L54.167 155.862L97.2226 141.606V70.3447L59.9732 84.071Z" fill="#FDAF4E"/>
<path d="M53.4727 155.862L59.3323 83.5841L97.2227 69.6553V141.41L53.4727 155.862ZM60.0083 84.0883L54.2723 154.854L96.4991 140.901V70.6919L60.0083 84.0883Z" fill="#24071D"/>
<path d="M97.2227 70.3447V141.503L145.139 153.103L134.49 82.469L97.2227 70.3447Z" fill="#DF8943"/>
<path d="M145.138 153.104L96.5273 141.353V69.6553L134.393 81.9618L145.138 153.104ZM97.2507 140.797L144.272 152.167L133.76 82.4891L97.2507 70.6251V140.797Z" fill="#24071D"/>
<path d="M85.5748 135.862L86.6822 104.716L50.2559 100.774L47.3138 117.579L10.417 110.31L10.5548 109.616L46.734 116.744L49.6665 100L87.4141 104.083L86.321 134.932L96.9627 132.114L106.122 134.658L130.666 125.203L139.644 124.457L150.224 130.981L181.622 115.021L181.945 115.653L150.191 131.793L139.468 125.184L130.827 125.897L106.16 135.404L96.958 132.846L85.5748 135.862Z" fill="#24071D"/>
<path opacity="0.3" d="M122.65 115.862L110.417 106.276L112.703 98.2891L123.259 98.5699L122.25 78.7027H123.583L124.812 78.6408L125.959 101.202L114.617 100.897L113.355 105.324L123.012 112.892L137.292 106.485L144.873 109.403L162.939 97.7322L162.344 82.8389L173.877 77.2415L175 79.5452L164.972 84.4097L165.558 99.0887L145.168 112.259L137.368 109.256L122.65 115.862Z" fill="white"/>
<path opacity="0.3" d="M64.8026 151.724L63.9545 137.576L55.5458 131.887L43.9785 130.198L32.9923 133.461L25.041 131.872L22.6446 143.052L20.1387 142.514L23.0639 128.866L32.8732 130.826L43.7927 127.586L56.4939 129.441L66.4366 136.168L67.3609 151.572L64.8026 151.724Z" fill="white"/>
<path d="M29.4229 93.7931L13.8887 88.8259L14.1091 88.1501L28.915 92.8857L33.3328 75.8621L34.0276 76.0369L29.4229 93.7931Z" fill="#24071D"/>
<path d="M159.391 117.241C159.343 117.242 159.295 117.232 159.251 117.214C159.206 117.196 159.166 117.171 159.132 117.138C159.098 117.106 159.072 117.067 159.054 117.025C159.036 116.983 159.027 116.938 159.027 116.893C159.028 116.847 159.038 116.802 159.057 116.761L162.488 109.194C162.504 109.15 162.53 109.11 162.564 109.076C162.597 109.041 162.638 109.014 162.683 108.995C162.729 108.976 162.778 108.966 162.827 108.966C162.877 108.965 162.926 108.974 162.972 108.992C163.017 109.01 163.059 109.037 163.093 109.07C163.127 109.104 163.154 109.144 163.171 109.187C163.189 109.231 163.196 109.277 163.194 109.324C163.191 109.37 163.178 109.416 163.156 109.457L159.725 117.028C159.698 117.09 159.652 117.144 159.592 117.182C159.533 117.22 159.463 117.24 159.391 117.241Z" fill="#24071D"/>
<path d="M164.932 115.862C164.886 115.862 164.841 115.852 164.799 115.833L157.153 112.42C157.069 112.383 157.003 112.311 156.969 112.222C156.935 112.133 156.936 112.033 156.972 111.944C157.008 111.856 157.076 111.786 157.16 111.75C157.245 111.714 157.339 111.716 157.423 111.753L165.065 115.18C165.107 115.199 165.146 115.226 165.178 115.261C165.211 115.295 165.236 115.336 165.253 115.381C165.27 115.426 165.279 115.475 165.278 115.523C165.277 115.572 165.267 115.619 165.248 115.664C165.218 115.725 165.172 115.775 165.117 115.811C165.061 115.846 164.997 115.863 164.932 115.862Z" fill="#24071D"/>
<path d="M64.5834 104.138C66.1176 104.138 67.3612 102.903 67.3612 101.379C67.3612 99.8557 66.1176 98.6206 64.5834 98.6206C63.0493 98.6206 61.8057 99.8557 61.8057 101.379C61.8057 102.903 63.0493 104.138 64.5834 104.138Z" fill="#DF554B"/>
<path d="M64.9353 104.827C64.3168 104.828 63.712 104.647 63.1974 104.306C62.6828 103.966 62.2815 103.481 62.0444 102.914C61.8073 102.347 61.7451 101.722 61.8655 101.12C61.9859 100.517 62.2836 99.9639 62.721 99.5296C63.1583 99.0953 63.7155 98.7996 64.3221 98.68C64.9288 98.5604 65.5575 98.6223 66.1287 98.8577C66.6999 99.0932 67.1879 99.4917 67.5309 100.003C67.874 100.514 68.0566 101.114 68.0557 101.729C68.0544 102.55 67.7253 103.338 67.1404 103.919C66.5555 104.499 65.7625 104.826 64.9353 104.827ZM64.9353 99.3184C64.4542 99.3175 63.9836 99.4584 63.5831 99.7232C63.1826 99.9879 62.8703 100.365 62.6855 100.806C62.5008 101.247 62.4519 101.733 62.5452 102.202C62.6385 102.67 62.8698 103.101 63.2096 103.439C63.5495 103.777 63.9828 104.008 64.4546 104.101C64.9264 104.195 65.4155 104.147 65.8601 103.965C66.3047 103.782 66.6847 103.473 66.9521 103.075C67.2195 102.678 67.3622 102.211 67.3622 101.733C67.3629 101.416 67.3006 101.102 67.1789 100.809C67.0573 100.516 66.8787 100.249 66.6533 100.024C66.428 99.7997 66.1602 99.6213 65.8655 99.4994C65.5707 99.3775 65.2546 99.3144 64.9353 99.3138V99.3184Z" fill="#24071D"/>
<path d="M113.889 135.173C115.423 135.173 116.667 133.937 116.667 132.414C116.667 130.89 115.423 129.655 113.889 129.655C112.355 129.655 111.111 130.89 111.111 132.414C111.111 133.937 112.355 135.173 113.889 135.173Z" fill="#FDAF4E"/>
<path d="M114.236 135.862C113.618 135.862 113.014 135.68 112.5 135.339C111.986 134.998 111.586 134.513 111.349 133.946C111.113 133.379 111.051 132.755 111.171 132.153C111.292 131.551 111.59 130.998 112.027 130.564C112.464 130.13 113.02 129.835 113.627 129.715C114.233 129.595 114.861 129.657 115.432 129.892C116.003 130.126 116.491 130.524 116.835 131.035C117.178 131.545 117.361 132.145 117.361 132.759C117.361 133.582 117.032 134.371 116.446 134.953C115.86 135.535 115.065 135.862 114.236 135.862ZM114.236 130.353C113.755 130.353 113.285 130.495 112.885 130.76C112.485 131.026 112.173 131.403 111.989 131.845C111.805 132.286 111.758 132.772 111.852 133.241C111.946 133.709 112.178 134.14 112.519 134.477C112.859 134.815 113.293 135.044 113.765 135.137C114.237 135.23 114.726 135.181 115.17 134.998C115.614 134.814 115.994 134.504 116.26 134.106C116.527 133.708 116.669 133.241 116.668 132.763C116.668 132.123 116.412 131.509 115.956 131.056C115.5 130.603 114.881 130.348 114.236 130.348V130.353Z" fill="#24071D"/>
<path d="M2.93403 50.9534C2.26275 48.7722 2.45328 46.4196 3.46702 44.3723C4.48075 42.3251 6.24186 40.7365 8.39345 39.9283C9.23276 37.2314 10.8985 34.8604 13.1594 33.1445C15.4203 31.4287 18.1641 30.4531 21.01 30.3532C23.8558 30.2534 26.6624 31.0342 29.04 32.5874C31.4177 34.1405 33.2484 36.3888 34.278 39.0202H34.7027C36.5179 39.0224 38.2906 39.5645 39.7915 40.5764C41.2923 41.5883 42.4522 43.0234 43.1209 44.6959C44.0368 44.3641 45.0198 44.2563 45.9867 44.3815C46.9536 44.5067 47.8758 44.8612 48.6749 45.4151C49.474 45.9689 50.1264 46.7057 50.5769 47.5628C51.0273 48.4199 51.2625 49.3721 51.2623 50.3386C51.2623 50.5088 51.2623 50.6744 51.2623 50.8399C52.2756 50.9254 53.2161 51.3966 53.8863 52.1547C54.5565 52.9127 54.9044 53.8987 54.8568 54.9055C54.8093 55.9123 54.37 56.8617 53.6313 57.5544C52.8925 58.247 51.9118 58.6291 50.8949 58.6204H3.94574C2.98885 58.6237 2.06359 58.281 1.34335 57.6566C0.623108 57.0322 0.157304 56.1689 0.0332143 55.2285C-0.0908758 54.2881 0.135263 53.3352 0.669264 52.5482C1.20327 51.7612 2.00848 51.1942 2.93403 50.9534Z" fill="#FBE1CA"/>
<path d="M195.978 46.0765C196.905 43.0967 196.641 39.8829 195.239 37.0868C193.838 34.2906 191.403 32.1213 188.428 31.0188C187.269 27.3359 184.968 24.098 181.844 21.7547C178.721 19.4115 174.93 18.0792 170.998 17.9428C167.066 17.8064 163.188 18.8727 159.904 20.9937C156.619 23.1147 154.089 26.1851 152.667 29.7784C152.47 29.7784 152.274 29.7784 152.08 29.7784C149.57 29.7786 147.118 30.5184 145.043 31.9015C142.968 33.2847 141.366 35.2473 140.444 37.5343C139.179 37.0829 137.821 36.937 136.485 37.109C135.15 37.2809 133.876 37.7656 132.773 38.522C131.669 39.2784 130.768 40.2842 130.145 41.4542C129.523 42.6242 129.197 43.9239 129.196 45.2433C129.196 45.4727 129.196 45.7114 129.23 45.9314C127.839 46.0596 126.553 46.7073 125.637 47.7402C124.721 48.773 124.246 50.1117 124.312 51.4783C124.377 52.8448 124.977 54.1343 125.987 55.0791C126.997 56.0238 128.34 56.5512 129.736 56.5518H194.573C195.89 56.5504 197.162 56.0804 198.152 55.2291C199.142 54.3778 199.782 53.2032 199.954 51.924C200.125 50.6448 199.817 49.348 199.086 48.2749C198.354 47.2018 197.25 46.4256 195.978 46.0905V46.0765Z" fill="#FBE1CA"/>
<path d="M97.9171 5.51733C87.7904 5.52734 78.0814 9.51403 70.9207 16.6025C63.76 23.691 59.7328 33.3021 59.7227 43.3267C59.7227 63.3979 94.3772 110.284 95.8514 112.277L97.2253 114.133C97.3045 114.241 97.4085 114.33 97.5287 114.39C97.649 114.451 97.7821 114.483 97.9171 114.483C98.0521 114.483 98.1852 114.451 98.3055 114.39C98.4257 114.33 98.5297 114.241 98.6089 114.133L99.9828 112.277C101.457 110.294 136.112 63.4074 136.112 43.3267C136.1 33.3025 132.072 23.6921 124.912 16.6039C117.752 9.51568 108.043 5.52858 97.9171 5.51733ZM97.9171 29.7822C100.623 29.7822 103.269 30.5766 105.519 32.0649C107.769 33.5532 109.522 35.6685 110.558 38.1435C111.594 40.6184 111.865 43.3418 111.337 45.9691C110.809 48.5965 109.506 51.0099 107.592 52.9042C105.679 54.7984 103.241 56.0884 100.586 56.611C97.9323 57.1336 95.1812 56.8654 92.6811 55.8402C90.1809 54.8151 88.044 53.079 86.5406 50.8517C85.0371 48.6243 84.2347 46.0056 84.2347 43.3267C84.2384 39.7357 85.6812 36.2927 88.2463 33.7535C90.8115 31.2142 94.2895 29.786 97.9171 29.7822Z" fill="#8E3385"/>
<path d="M98.2667 114.483C98.0813 114.484 97.8982 114.442 97.7324 114.36C97.5665 114.278 97.4226 114.159 97.3122 114.012L95.933 112.162C94.4536 110.181 59.725 63.392 59.725 43.2616C59.6683 38.2346 60.6233 33.2465 62.5346 28.586C64.446 23.9256 67.2757 19.6853 70.86 16.1108C74.4444 12.5362 78.7121 9.69842 83.4161 7.76166C88.1201 5.82489 93.1669 4.82764 98.2643 4.82764C103.362 4.82764 108.409 5.82489 113.113 7.76166C117.817 9.69842 122.084 12.5362 125.669 16.1108C129.253 19.6853 132.083 23.9256 133.994 28.586C135.905 33.2465 136.86 38.2346 136.804 43.2616C136.804 63.4249 102.075 110.186 100.6 112.167L99.2212 114.012C99.1101 114.158 98.966 114.277 98.8003 114.359C98.6346 114.44 98.4519 114.483 98.2667 114.483ZM98.2667 5.89542C88.2239 5.90538 78.5952 9.84438 71.4939 16.848C64.3925 23.8516 60.3985 33.3476 60.3884 43.2522C60.3884 63.1755 94.9929 109.795 96.4675 111.767L97.842 113.617C97.8929 113.68 97.9576 113.73 98.0311 113.765C98.1046 113.8 98.1851 113.818 98.2667 113.818C98.3483 113.818 98.4288 113.8 98.5023 113.765C98.5758 113.73 98.6405 113.68 98.6914 113.617L100.066 111.772C100.457 111.249 109.692 98.8473 118.678 84.1954C126.643 71.2051 136.145 53.5551 136.145 43.2475C136.136 33.3417 132.143 23.8439 125.042 16.8386C117.94 9.83319 108.311 5.89251 98.2667 5.8813V5.89542ZM98.2667 57.0757C95.4945 57.0757 92.7846 56.2649 90.4796 54.746C88.1746 53.227 86.3781 51.0681 85.3172 48.5422C84.2563 46.0163 83.9788 43.2369 84.5196 40.5554C85.0604 37.8739 86.3953 35.4108 88.3556 33.4775C90.3158 31.5443 92.8133 30.2277 95.5322 29.6943C98.2512 29.161 101.069 29.4347 103.631 30.481C106.192 31.5272 108.381 33.299 109.921 35.5723C111.461 37.8455 112.283 40.5182 112.283 43.2522C112.279 46.9172 110.801 50.4311 108.174 53.0227C105.546 55.6143 101.983 57.0719 98.2667 57.0757ZM98.2667 30.0782C95.6238 30.0782 93.0403 30.8512 90.8428 32.2992C88.6453 33.7473 86.9326 35.8056 85.9212 38.2136C84.9099 40.6217 84.6452 43.2715 85.1608 45.8279C85.6764 48.3843 86.9491 50.7325 88.8179 52.5756C90.6867 54.4187 93.0677 55.6738 95.6598 56.1823C98.2519 56.6908 100.939 56.4298 103.38 55.4324C105.822 54.4349 107.909 52.7458 109.377 50.5786C110.846 48.4113 111.629 45.8634 111.629 43.2569C111.629 39.7617 110.222 36.4097 107.716 33.9382C105.21 31.4667 101.811 30.0782 98.2667 30.0782Z" fill="#24071D"/>
<path d="M45.4858 24.8276C52.1976 24.8276 57.6386 19.4242 57.6386 12.7587C57.6386 6.09316 52.1976 0.689697 45.4858 0.689697C38.774 0.689697 33.333 6.09316 33.333 12.7587C33.333 19.4242 38.774 24.8276 45.4858 24.8276Z" fill="#FDAF4E"/>
<path d="M45.1387 24.8276C42.6664 24.8276 40.2497 24.0995 38.194 22.7355C36.1384 21.3714 34.5363 19.4327 33.5902 17.1643C32.6441 14.896 32.3965 12.4 32.8789 9.99199C33.3612 7.58395 34.5517 5.37202 36.2998 3.63592C38.048 1.89982 40.2753 0.717522 42.7 0.238533C45.1248 -0.240455 47.6381 0.00537754 49.9222 0.944948C52.2063 1.88452 54.1585 3.47562 55.532 5.51706C56.9056 7.5585 57.6387 9.95858 57.6387 12.4138C57.6349 15.705 56.3167 18.8603 53.9733 21.1875C51.6299 23.5147 48.4527 24.8238 45.1387 24.8276ZM45.1387 0.710175C42.8078 0.710175 40.5294 1.39658 38.5913 2.68259C36.6533 3.9686 35.1428 5.79645 34.2509 7.93501C33.3589 10.0736 33.1255 12.4268 33.5802 14.6971C34.0349 16.9673 35.1573 19.0527 36.8055 20.6895C38.4536 22.3263 40.5535 23.4409 42.8396 23.8925C45.1256 24.3441 47.4951 24.1123 49.6486 23.2265C51.802 22.3407 53.6425 20.8406 54.9375 18.916C56.2324 16.9913 56.9236 14.7286 56.9236 12.4138C56.9198 9.31096 55.677 6.33628 53.4677 4.14224C51.2584 1.9482 48.2631 0.713934 45.1387 0.710175Z" fill="#24071D"/>
<path d="M112.857 85.5172C112.794 85.5176 112.732 85.5015 112.678 85.4705C112.623 85.4395 112.578 85.3948 112.547 85.3408C112.516 85.2869 112.499 85.2257 112.5 85.1636C112.501 85.1015 112.518 85.0407 112.55 84.9874L112.895 84.4103C114.299 82.045 115.837 79.6183 117.327 77.2767C122.046 69.845 126.909 62.1626 129.199 53.8795C131.432 45.7477 130.824 36.5895 127.489 28.0887C127.469 28.0448 127.458 27.9973 127.458 27.9492C127.457 27.901 127.466 27.8533 127.485 27.8089C127.504 27.7645 127.532 27.7244 127.567 27.6912C127.603 27.6579 127.644 27.6322 127.69 27.6157C127.735 27.5965 127.783 27.5865 127.831 27.5862C127.88 27.5859 127.928 27.5953 127.973 27.6139C128.018 27.6324 128.058 27.6598 128.092 27.6942C128.126 27.7287 128.152 27.7696 128.169 27.8144C131.557 36.4523 132.175 45.7667 129.904 54.0451C127.604 62.4276 122.717 70.1572 117.926 77.6314C116.441 79.9683 114.903 82.3903 113.504 84.7272L113.164 85.3043C113.137 85.3643 113.095 85.4158 113.041 85.4534C112.987 85.4909 112.923 85.513 112.857 85.5172Z" fill="#FBE1CA"/>
<path d="M97.2218 141.379H96.5273V145.517H97.2218V141.379Z" fill="#24071D"/>
<path d="M144.694 153.111L144.444 157.241L145.138 157.283L145.387 153.152L144.694 153.111Z" fill="#24071D"/>
<path d="M53.7224 155.18L53.4727 159.31L54.1659 159.351L54.4156 155.221L53.7224 155.18Z" fill="#24071D"/>
<path d="M29.5299 131.724C29.434 131.722 29.3424 131.684 29.2732 131.618C29.2052 131.551 29.167 131.459 29.167 131.363C29.167 131.268 29.2052 131.176 29.2732 131.109L35.4824 124.942C35.5157 124.907 35.5558 124.879 35.6003 124.859C35.6449 124.839 35.693 124.829 35.7418 124.828C35.7906 124.827 35.839 124.836 35.8842 124.854C35.9295 124.872 35.9705 124.899 36.005 124.933C36.0395 124.968 36.0667 125.008 36.085 125.053C36.1033 125.098 36.1122 125.146 36.1114 125.195C36.1105 125.243 36.0998 125.291 36.08 125.335C36.0601 125.379 36.0315 125.419 35.9958 125.452L29.7866 131.618C29.7174 131.684 29.6258 131.722 29.5299 131.724Z" fill="#24071D"/>
<path d="M35.7485 131.724C35.6524 131.723 35.5604 131.685 35.4918 131.618L29.2826 125.452C29.2469 125.419 29.2183 125.379 29.1984 125.335C29.1786 125.291 29.1679 125.243 29.167 125.195C29.1662 125.146 29.1752 125.098 29.1934 125.053C29.2117 125.008 29.2389 124.968 29.2734 124.933C29.3079 124.899 29.349 124.872 29.3942 124.854C29.4394 124.836 29.4879 124.827 29.5367 124.828C29.5854 124.829 29.6335 124.839 29.6781 124.859C29.7226 124.879 29.7628 124.907 29.796 124.942L36.0052 131.109C36.0732 131.176 36.1114 131.268 36.1114 131.363C36.1114 131.459 36.0732 131.551 36.0052 131.618C35.936 131.684 35.8444 131.722 35.7485 131.724Z" fill="#24071D"/>
</svg>
