<svg width="24" height="24" viewBox="0 0 24 24" fill="none" xmlns="http://www.w3.org/2000/svg">
<ellipse cx="12" cy="12.5" rx="9" ry="9.5" fill="#1C0B24"/>
<path d="M11.9979 13.8942C13.0452 13.8942 13.8942 13.0452 13.8942 11.9979C13.8942 10.9506 13.0452 10.1016 11.9979 10.1016C10.9506 10.1016 10.1016 10.9506 10.1016 11.9979C10.1016 13.0452 10.9506 13.8942 11.9979 13.8942Z" fill="white"/>
<path d="M14.426 7.20703H9.57545C8.94731 7.20703 8.34489 7.45656 7.90073 7.90073C7.45656 8.34489 7.20703 8.94731 7.20703 9.57545V14.4244C7.20703 15.0525 7.45656 15.655 7.90073 16.0991C8.34489 16.5433 8.94731 16.7928 9.57545 16.7928H14.426C15.0541 16.7928 15.6565 16.5433 16.1007 16.0991C16.5449 15.655 16.7944 15.0525 16.7944 14.4244V9.57387C16.794 8.946 16.5443 8.34399 16.1002 7.90017C15.656 7.45634 15.0539 7.20703 14.426 7.20703ZM12.0007 15.1034C11.3867 15.1037 10.7864 14.9219 10.2757 14.581C9.76499 14.2401 9.36687 13.7554 9.13167 13.1882C8.89648 12.621 8.83478 11.9968 8.95438 11.3945C9.07398 10.7922 9.3695 10.239 9.80357 9.80469C10.2376 9.3704 10.7908 9.07459 11.393 8.95469C11.9952 8.83478 12.6194 8.89617 13.1867 9.13107C13.754 9.36597 14.2389 9.76385 14.5801 10.2744C14.9213 10.7849 15.1034 11.3851 15.1034 11.9991C15.1025 12.8219 14.7754 13.6107 14.1938 14.1927C13.6122 14.7746 12.8235 15.1021 12.0007 15.1034ZM15.1223 9.6623C14.9704 9.66261 14.8218 9.61783 14.6954 9.53363C14.5689 9.44943 14.4703 9.3296 14.4121 9.18932C14.3538 9.04903 14.3385 8.89461 14.368 8.74561C14.3976 8.59661 14.4707 8.45973 14.5781 8.35232C14.6855 8.2449 14.8224 8.17179 14.9714 8.14223C15.1204 8.11267 15.2748 8.128 15.4151 8.18627C15.5554 8.24455 15.6752 8.34315 15.7594 8.46958C15.8436 8.59602 15.8884 8.7446 15.8881 8.89651C15.8877 9.09948 15.8069 9.29402 15.6633 9.43754C15.5198 9.58106 15.3253 9.66188 15.1223 9.6623Z" fill="white"/>
<path d="M12 0C9.62663 0 7.30655 0.703788 5.33316 2.02236C3.35977 3.34094 1.8217 5.21508 0.913451 7.4078C0.00519938 9.60051 -0.232441 12.0133 0.230582 14.3411C0.693605 16.6688 1.83649 18.807 3.51472 20.4853C5.19296 22.1635 7.33115 23.3064 9.65892 23.7694C11.9867 24.2324 14.3995 23.9948 16.5922 23.0865C18.7849 22.1783 20.6591 20.6402 21.9776 18.6668C23.2962 16.6934 24 14.3734 24 12C24 8.8174 22.7357 5.76515 20.4853 3.51472C18.2349 1.26428 15.1826 0 12 0V0ZM18 14.4253C17.9992 15.3731 17.6223 16.2818 16.9521 16.9521C16.2819 17.6223 15.3731 17.9992 14.4253 18H9.57474C8.62705 17.9987 7.71853 17.6217 7.04841 16.9516C6.37829 16.2815 6.00126 15.373 6.00001 14.4253V9.57473C6.00126 8.62704 6.37829 7.71852 7.04841 7.0484C7.71853 6.37828 8.62705 6.00125 9.57474 6H14.4253C15.373 6.00125 16.2815 6.37828 16.9516 7.0484C17.6217 7.71852 17.9988 8.62704 18 9.57473V14.4253Z" fill="#F8F8F8"/>
</svg>
