<svg width="24" height="24" viewBox="0 0 24 24" fill="none" xmlns="http://www.w3.org/2000/svg">
<ellipse cx="11.5" cy="12" rx="8.5" ry="8" fill="#1C0B24"/>
<path d="M10.9692 10.6277C10.0124 10.154 10.5477 9.19086 11.9056 9.19086C13.7798 9.19086 13.1687 10.7098 14.3292 10.7098C15.2956 10.7098 15.6177 9.48139 14.4224 8.55612C13.1261 7.55823 10.115 7.63876 9.08872 8.96033C8.82563 9.30198 8.68126 9.72017 8.67756 10.1514C8.67385 10.5826 8.81101 11.0032 9.06819 11.3493C10.1735 12.7119 12.5829 12.4024 13.4261 13.1809C13.7419 13.4761 13.7987 14.0919 13.2129 14.4835C12.6271 14.8751 11.6008 14.8609 11.1271 14.6414C10.0929 14.1551 10.4166 12.9614 9.3903 12.9614C8.0324 12.9614 8.31187 14.8561 9.88608 15.6914C10.9913 16.2693 12.815 16.2661 13.9235 15.8098C14.9261 15.4024 15.5687 14.6209 15.5703 13.5788C15.5703 11.0524 12.2671 11.2719 10.9692 10.6277Z" fill="white"/>
<path d="M12 0C9.62663 0 7.30655 0.703788 5.33316 2.02236C3.35977 3.34094 1.8217 5.21509 0.913451 7.4078C0.00519938 9.60051 -0.232441 12.0133 0.230582 14.3411C0.693605 16.6689 1.83649 18.8071 3.51472 20.4853C5.19295 22.1635 7.33115 23.3064 9.65892 23.7694C11.9867 24.2324 14.3995 23.9948 16.5922 23.0866C18.7849 22.1783 20.6591 20.6402 21.9776 18.6668C23.2962 16.6935 24 14.3734 24 12C24 8.8174 22.7357 5.76516 20.4853 3.51472C18.2348 1.26428 15.1826 0 12 0V0ZM13.1621 17.8958C8.94158 18.6616 5.31316 14.9842 6.1579 10.8679C5.84657 10.3421 5.68292 9.74208 5.68422 9.13105C5.68422 6.40105 8.7379 4.79368 11.0321 6.21632C15.2574 5.50105 18.8542 9.23053 17.94 13.3389C19.4447 16.3263 16.1463 19.4732 13.1621 17.8958Z" fill="#F8F8F8"/>
</svg>
