<svg width="300" height="300" viewBox="0 0 300 300" fill="none" xmlns="http://www.w3.org/2000/svg">
<path d="M296.346 248.257C295.306 263.849 291.186 279.062 284.234 292.976C284.169 293.118 284.089 293.267 284.016 293.408C283.136 295.143 282.212 296.863 281.23 298.561H21.1213C19.9429 296.893 18.8299 295.18 17.7752 293.408C17.6951 293.259 17.6079 293.11 17.5278 292.976C13.2502 285.68 10.0628 277.769 8.07146 269.507C2.6595 247.349 7.00944 226.091 17.8479 205.987C22.6852 197 28.9046 188.616 34.6366 180.046C37.9173 175.139 41.6562 170.486 44.9004 165.564C54.1968 151.462 52.7565 126.392 46.9808 108.366C65.6026 124.612 80.8783 153.785 78.8125 176.718C89.0472 168.058 94.1973 158.148 97.0996 147.121C100.686 133.547 100.191 119.773 99.5292 105.968C98.8018 91.2107 97.747 76.4159 98.0744 61.6584C98.4526 44.347 107.022 29.5746 118.849 16.4403C124.276 10.4092 130.772 5.17481 137.624 0C128.473 18.3166 126.975 36.1194 138.671 53.684C144.847 62.9689 154.143 70.236 161.221 72.1197L154.027 50.527L155.562 49.7824C158.937 51.964 162.334 54.1084 165.68 56.3273C177.086 63.8177 189.285 70.5189 199.607 79.089C219.247 95.3729 229.824 116.482 233.031 140.241C234.486 151.164 234.675 162.236 235.075 173.218L236.799 173.129L238.312 178.922C245.638 173.598 250.562 165.989 253.588 156.719C261.144 161.097 267.851 166.859 273.374 173.717C291.726 195.824 298.324 221.005 296.346 248.257Z" fill="#FBE1CA"/>
<path d="M185.447 143.493L119.288 63.2272L60.4697 124.387L59.6914 123.605L119.347 61.5742L119.732 62.0433L185.694 142.063L252.834 103.226L253.373 104.194L185.447 143.493Z" fill="#24071D"/>
<path d="M74.9486 176.44V298.468H30.8164V176.44C30.8164 175.726 30.9538 175.02 31.2208 174.361C31.4877 173.702 31.879 173.103 32.3721 172.599C32.8653 172.095 33.4508 171.695 34.095 171.423C34.7392 171.15 35.4295 171.011 36.1265 171.012H69.653C70.6649 171.011 71.656 171.306 72.5093 171.863C73.3625 172.419 74.0424 173.214 74.4685 174.154C74.7904 174.871 74.9543 175.651 74.9486 176.44V176.44Z" fill="#DF8943"/>
<path d="M75.471 299.024H30.2695V176.437C30.281 174.861 30.8977 173.353 31.9866 172.238C33.0755 171.123 34.549 170.492 36.0888 170.48H69.6517C70.7677 170.482 71.8601 170.809 72.8007 171.423C73.7414 172.038 74.4911 172.915 74.9618 173.95C75.327 174.736 75.5135 175.597 75.5074 176.467L75.471 299.024ZM31.3388 297.907H74.3799V176.437C74.3844 175.729 74.2327 175.029 73.9362 174.389C73.5535 173.547 72.9436 172.833 72.178 172.333C71.4125 171.833 70.5234 171.568 69.6153 171.568H36.1252C34.8628 171.568 33.652 172.08 32.7587 172.993C31.8654 173.906 31.3626 175.145 31.3607 176.437L31.3388 297.907Z" fill="#24071D"/>
<path d="M71.9495 138.608C71.9554 142.898 70.4377 147.045 67.6789 150.276C64.9202 153.506 61.1084 155.6 56.9535 156.168C52.7985 156.736 48.5835 155.739 45.0934 153.362C41.6033 150.986 39.0759 147.392 37.9818 143.25C36.8878 139.108 37.3017 134.7 39.1465 130.847C40.9912 126.994 44.1411 123.959 48.0095 122.306C51.878 120.654 56.2014 120.496 60.1746 121.864C64.1478 123.231 67.5001 126.03 69.6072 129.74C71.1408 132.431 71.949 135.492 71.9495 138.608Z" fill="white"/>
<path d="M54.6875 156.832C50.5778 156.836 46.5932 155.386 43.4083 152.727C40.2234 150.069 38.034 146.365 37.2108 142.244C36.3876 138.122 36.9813 133.836 38.8913 130.112C40.8012 126.387 43.9101 123.452 47.6914 121.805C51.4728 120.157 55.6942 119.898 59.6408 121.071C63.5875 122.244 67.0168 124.777 69.348 128.242C71.6793 131.706 72.7692 135.889 72.4333 140.081C72.0973 144.274 70.3561 148.218 67.5045 151.248C65.8519 153.022 63.8628 154.433 61.6588 155.393C59.4549 156.354 57.0827 156.843 54.6875 156.832V156.832ZM54.6875 121.502C50.39 121.707 46.3349 123.599 43.3645 126.785C40.3941 129.97 38.7368 134.205 38.7368 138.608C38.7368 143.012 40.3941 147.247 43.3645 150.432C46.3349 153.618 50.39 155.51 54.6875 155.715C57.6213 155.709 60.5019 154.913 63.0404 153.407C65.5788 151.902 67.6858 149.739 69.1501 147.137C70.6143 144.534 71.3842 141.584 71.3827 138.581C71.3811 135.578 70.6081 132.628 69.1412 130.027C67.6684 127.439 65.5593 125.29 63.0237 123.794C60.488 122.298 57.614 121.508 54.6875 121.502V121.502Z" fill="#24071D"/>
<path d="M144.429 101.729V299.444H100.289V101.729C100.289 101.015 100.426 100.309 100.693 99.6498C100.96 98.9908 101.352 98.3921 101.845 97.888C102.338 97.3838 102.923 96.9842 103.568 96.7118C104.212 96.4395 104.902 96.2998 105.599 96.3008H139.118C139.815 96.2998 140.506 96.4395 141.15 96.7118C141.794 96.9842 142.38 97.3838 142.873 97.888C143.366 98.3921 143.757 98.9908 144.024 99.6498C144.291 100.309 144.429 101.015 144.429 101.729V101.729Z" fill="#DF8943"/>
<path d="M144.427 300H100.288C100.216 300.001 100.145 299.987 100.078 299.959C100.011 299.932 99.9507 299.89 99.8998 299.838C99.849 299.786 99.8088 299.724 99.7818 299.656C99.7547 299.588 99.7413 299.515 99.7422 299.441V101.726C99.7422 100.146 100.355 98.6314 101.447 97.5143C102.538 96.3972 104.018 95.7696 105.562 95.7696H139.117C139.884 95.7647 140.645 95.9152 141.355 96.2123C142.065 96.5095 142.711 96.9475 143.256 97.5011C143.8 98.0547 144.232 98.713 144.526 99.4381C144.821 100.163 144.973 100.941 144.973 101.726V299.441C144.973 299.589 144.915 299.731 144.813 299.836C144.711 299.941 144.572 300 144.427 300V300ZM100.833 298.883H143.882V101.726C143.887 100.949 143.707 100.183 143.358 99.4925C142.96 98.6925 142.353 98.0212 141.604 97.5532C140.855 97.0852 139.994 96.839 139.117 96.8418H105.598C104.336 96.8418 103.125 97.3546 102.231 98.2676C101.338 99.1806 100.835 100.419 100.833 101.711V298.883Z" fill="#24071D"/>
<path d="M119.319 79.1537C128.363 79.1537 135.693 71.6498 135.693 62.3932C135.693 53.1367 128.363 45.6328 119.319 45.6328C110.276 45.6328 102.945 53.1367 102.945 62.3932C102.945 71.6498 110.276 79.1537 119.319 79.1537Z" fill="#FDAF4E"/>
<path d="M119.318 79.7198C115.972 79.7198 112.7 78.704 109.918 76.801C107.136 74.898 104.967 72.1932 103.686 69.0285C102.406 65.8639 102.071 62.3817 102.724 59.0222C103.376 55.6626 104.988 52.5767 107.354 50.1546C109.72 47.7325 112.735 46.0831 116.017 45.4148C119.299 44.7466 122.701 45.0895 125.793 46.4004C128.885 47.7112 131.527 49.931 133.386 52.7791C135.245 55.6271 136.238 58.9756 136.238 62.4009C136.234 66.9929 134.45 71.3958 131.278 74.6428C128.106 77.8899 123.804 79.7158 119.318 79.7198V79.7198ZM119.318 46.2138C116.186 46.2079 113.122 47.1535 110.515 48.9309C107.908 50.7082 105.874 53.2375 104.672 56.1983C103.47 59.1592 103.154 62.4186 103.762 65.5638C104.371 68.7091 105.877 71.5988 108.091 73.867C110.305 76.1353 113.127 77.6802 116.199 78.3061C119.271 78.932 122.456 78.6107 125.35 77.3831C128.243 76.1554 130.716 74.0764 132.455 71.4094C134.194 68.7424 135.12 65.6073 135.118 62.4009C135.114 58.1102 133.449 53.996 130.488 50.9592C127.526 47.9225 123.51 46.2107 119.318 46.1989V46.2138Z" fill="#24071D"/>
<path d="M207.857 176.381V298.403H163.682V176.381C163.683 175.669 163.821 174.963 164.088 174.305C164.355 173.647 164.747 173.049 165.24 172.546C165.733 172.042 166.318 171.643 166.962 171.371C167.606 171.099 168.295 170.96 168.992 170.961H202.511C203.208 170.959 203.898 171.098 204.542 171.369C205.186 171.641 205.772 172.04 206.265 172.543C206.758 173.047 207.15 173.645 207.417 174.304C207.684 174.962 207.821 175.668 207.821 176.381H207.857Z" fill="#DF8943"/>
<path d="M207.856 298.966H163.68C163.536 298.964 163.399 298.905 163.297 298.8C163.195 298.696 163.137 298.555 163.135 298.408V176.386C163.135 175.601 163.286 174.823 163.581 174.098C163.876 173.373 164.308 172.715 164.852 172.161C165.396 171.608 166.042 171.17 166.752 170.873C167.463 170.575 168.223 170.425 168.99 170.43H202.51C203.277 170.425 204.038 170.575 204.748 170.873C205.458 171.17 206.104 171.608 206.648 172.161C207.192 172.715 207.624 173.373 207.919 174.098C208.214 174.823 208.365 175.601 208.365 176.386V298.408C208.364 298.549 208.311 298.685 208.217 298.788C208.122 298.891 207.994 298.955 207.856 298.966V298.966ZM164.211 297.849H207.274V176.386C207.277 175.609 207.095 174.842 206.743 174.153C206.344 173.357 205.737 172.689 204.989 172.224C204.242 171.759 203.384 171.514 202.51 171.517H168.99C167.729 171.517 166.52 172.029 165.627 172.94C164.733 173.851 164.23 175.088 164.226 176.379L164.211 297.849Z" fill="#24071D"/>
<path d="M199.698 143.72C199.7 145.223 199.467 146.716 199.007 148.143C197.979 151.368 195.862 154.111 193.035 155.881C190.208 157.651 186.857 158.331 183.585 157.798C180.312 157.266 177.332 155.556 175.181 152.976C173.03 150.396 171.848 147.116 171.848 143.724C171.848 140.332 173.03 137.051 175.181 134.472C177.332 131.892 180.312 130.182 183.585 129.649C186.857 129.117 190.208 129.797 193.035 131.566C195.862 133.336 197.979 136.08 199.007 139.305C199.467 140.729 199.701 142.22 199.698 143.72V143.72Z" fill="#E0554B"/>
<path d="M185.75 158.533C183.081 158.533 180.464 157.777 178.188 156.349C175.912 154.92 174.067 152.875 172.857 150.44C171.646 148.005 171.117 145.274 171.329 142.55C171.54 139.827 172.484 137.216 174.055 135.007C175.626 132.798 177.764 131.077 180.231 130.034C182.699 128.992 185.4 128.668 188.036 129.1C190.672 129.531 193.14 130.701 195.166 132.479C197.193 134.257 198.7 136.574 199.52 139.174C200.48 142.156 200.48 145.374 199.52 148.355C198.57 151.323 196.726 153.907 194.252 155.736C191.778 157.564 188.802 158.544 185.75 158.533V158.533ZM185.75 130.038C182.925 130.043 180.174 130.963 177.891 132.666C175.609 134.369 173.911 136.769 173.042 139.52C172.174 142.272 172.178 145.234 173.055 147.983C173.932 150.732 175.637 153.125 177.925 154.821C180.213 156.517 182.967 157.428 185.792 157.424C188.617 157.419 191.368 156.5 193.651 154.796C195.934 153.093 197.631 150.694 198.5 147.942C199.369 145.191 199.364 142.228 198.487 139.48C197.607 136.733 195.902 134.341 193.614 132.645C191.327 130.95 188.574 130.037 185.75 130.038V130.038Z" fill="#24071D"/>
<path d="M274.256 132.662V298.487H230.109V132.662C230.111 131.222 230.672 129.841 231.667 128.824C232.663 127.806 234.012 127.234 235.42 127.234H268.961C270.366 127.236 271.713 127.809 272.706 128.827C273.698 129.845 274.256 131.224 274.256 132.662V132.662Z" fill="white"/>
<path d="M274.78 299.051H229.564V132.668C229.576 131.085 230.198 129.571 231.294 128.455C232.391 127.34 233.874 126.713 235.42 126.711H268.961C270.501 126.723 271.975 127.354 273.063 128.469C274.152 129.583 274.769 131.091 274.78 132.668V299.051ZM230.634 297.934H273.689V132.638C273.686 131.346 273.182 130.109 272.289 129.196C271.396 128.284 270.187 127.77 268.925 127.768H235.42C234.158 127.77 232.949 128.284 232.056 129.196C231.163 130.109 230.659 131.346 230.656 132.638L230.634 297.934Z" fill="#24071D"/>
<path d="M252.187 121.258C262.347 121.258 270.584 112.828 270.584 102.428C270.584 92.0283 262.347 83.5977 252.187 83.5977C242.027 83.5977 233.791 92.0283 233.791 102.428C233.791 112.828 242.027 121.258 252.187 121.258Z" fill="#FDAF4E"/>
<path d="M252.19 121.816C248.45 121.816 244.793 120.68 241.683 118.553C238.573 116.426 236.148 113.402 234.717 109.865C233.286 106.328 232.911 102.435 233.641 98.6799C234.371 94.9246 236.172 91.4752 238.817 88.7678C241.462 86.0604 244.832 84.2166 248.5 83.4696C252.169 82.7227 255.972 83.106 259.428 84.5713C262.884 86.0365 265.837 88.5178 267.915 91.7014C269.994 94.885 271.103 98.6278 271.103 102.457C271.089 107.587 269.093 112.503 265.549 116.13C262.005 119.758 257.202 121.802 252.19 121.816V121.816ZM252.19 84.1624C248.66 84.1624 245.208 85.234 242.273 87.2418C239.337 89.2495 237.049 92.1032 235.698 95.442C234.347 98.7807 233.994 102.455 234.682 105.999C235.371 109.543 237.071 112.799 239.568 115.355C242.064 117.91 245.245 119.65 248.708 120.355C252.17 121.06 255.76 120.698 259.021 119.315C262.283 117.932 265.071 115.59 267.032 112.586C268.994 109.581 270.041 106.048 270.041 102.434C270.037 97.5895 268.155 92.9443 264.808 89.5185C261.461 86.0927 256.923 84.1664 252.19 84.1624V84.1624Z" fill="#24071D"/>
<path opacity="0.26" d="M274.258 132.67V297.899H266.053V127.234H268.962C270.368 127.238 271.715 127.813 272.708 128.832C273.701 129.851 274.258 131.231 274.258 132.67Z" fill="#680000"/>
<path opacity="0.26" d="M199.699 143.747C199.701 145.249 199.468 146.743 199.008 148.169V139.316C199.468 140.746 199.702 142.242 199.699 143.747V143.747Z" fill="#680000"/>
<path opacity="0.26" d="M207.235 174.021V297.904H199.008V171.043H202.514C203.493 171.046 204.451 171.326 205.284 171.851C206.118 172.377 206.793 173.128 207.235 174.021Z" fill="#680000"/>
<path opacity="0.26" d="M140.798 98.2173V297.898H132.578V95.2539H136.077C137.054 95.2546 138.012 95.5318 138.845 96.0547C139.678 96.5776 140.354 97.3261 140.798 98.2173V98.2173Z" fill="#680000"/>
<path opacity="0.26" d="M74.4517 174.163V297.904H66.2246V171.043H69.6507C70.6576 171.044 71.6435 171.337 72.4936 171.89C73.3436 172.442 74.0227 173.23 74.4517 174.163V174.163Z" fill="#680000"/>
<path d="M264.64 107.835H264.597C264.525 107.83 264.455 107.81 264.391 107.776C264.327 107.743 264.27 107.697 264.223 107.641C264.177 107.585 264.141 107.52 264.119 107.45C264.097 107.38 264.089 107.306 264.095 107.232C264.568 101.439 263.367 97.0018 260.458 94.0458C255.955 89.4369 248.819 89.9804 248.761 89.9879C248.618 89.9983 248.476 89.9513 248.366 89.8568C248.256 89.7623 248.187 89.6278 248.172 89.4816C248.166 89.4082 248.174 89.3343 248.196 89.2642C248.218 89.1941 248.254 89.1292 248.3 89.0731C248.347 89.0171 248.404 88.971 248.468 88.9376C248.532 88.9042 248.602 88.8841 248.674 88.8784C248.979 88.8784 256.355 88.2753 261.222 93.2491C264.349 96.4508 265.688 101.186 265.186 107.329C265.172 107.467 265.108 107.595 265.008 107.689C264.907 107.782 264.776 107.834 264.64 107.835V107.835Z" fill="#FBE1CA"/>
<path d="M186.765 154.372C186.625 154.372 186.49 154.317 186.389 154.219C186.287 154.121 186.226 153.986 186.219 153.843C186.215 153.695 186.267 153.551 186.365 153.441C186.463 153.331 186.598 153.265 186.743 153.255C188.307 153.264 189.842 152.818 191.167 151.967C192.492 151.117 193.554 149.898 194.228 148.453C194.934 147.001 195.361 145.423 195.486 143.806C195.493 143.658 195.557 143.519 195.664 143.419C195.771 143.319 195.913 143.267 196.057 143.274C196.202 143.281 196.338 143.346 196.436 143.456C196.533 143.566 196.584 143.71 196.577 143.859C196.577 143.955 196.061 153.955 186.794 154.372H186.765Z" fill="#FBE1CA"/>
<path d="M126.768 72.8678C126.691 72.8675 126.615 72.8523 126.543 72.8231C126.476 72.7934 126.417 72.7504 126.367 72.6965C126.317 72.6426 126.279 72.579 126.254 72.5094C126.228 72.4399 126.217 72.3659 126.221 72.2919C126.224 72.2179 126.242 72.1453 126.274 72.0785C131.322 60.5748 126.405 54.3948 126.354 54.3353C126.306 54.2795 126.269 54.2147 126.246 54.1445C126.223 54.0743 126.213 54.0001 126.218 53.9261C126.223 53.8522 126.242 53.7799 126.274 53.7134C126.306 53.6469 126.35 53.5875 126.405 53.5386C126.459 53.4897 126.522 53.4523 126.591 53.4284C126.66 53.4046 126.732 53.3948 126.804 53.3996C126.877 53.4045 126.947 53.4238 127.012 53.4566C127.077 53.4894 127.135 53.535 127.183 53.5907C127.408 53.8588 132.617 60.2919 127.263 72.5104C127.226 72.6145 127.159 72.7045 127.07 72.7683C126.982 72.8322 126.877 72.8669 126.768 72.8678V72.8678Z" fill="#FBE1CA"/>
<path d="M66.8074 138.171C66.6853 138.171 66.5666 138.13 66.4703 138.053C66.374 137.976 66.3057 137.868 66.2764 137.746C66.1528 137.225 63.134 125.029 48.673 126.399C48.5283 126.412 48.3846 126.365 48.2734 126.27C48.1622 126.174 48.0927 126.037 48.0802 125.889C48.0676 125.741 48.1131 125.594 48.2065 125.48C48.3 125.366 48.4338 125.295 48.5784 125.282C63.9851 123.793 67.3021 137.344 67.3385 137.486C67.3692 137.63 67.3438 137.78 67.2677 137.906C67.1917 138.031 67.0709 138.121 66.9311 138.156L66.8074 138.171Z" fill="#FBE1CA"/>
<path d="M198.831 233.48C198.687 233.478 198.549 233.418 198.447 233.314C198.345 233.21 198.287 233.069 198.285 232.921V202.461C198.285 202.313 198.343 202.171 198.445 202.066C198.547 201.961 198.686 201.902 198.831 201.902C198.975 201.902 199.114 201.961 199.216 202.066C199.319 202.171 199.376 202.313 199.376 202.461V232.921C199.376 233.07 199.319 233.212 199.216 233.316C199.114 233.421 198.975 233.48 198.831 233.48Z" fill="#FBE1CA"/>
<path d="M191.854 257.365C191.709 257.365 191.571 257.306 191.468 257.201C191.366 257.096 191.309 256.954 191.309 256.806V241.297C191.309 241.149 191.366 241.007 191.468 240.902C191.571 240.797 191.709 240.738 191.854 240.738C191.999 240.738 192.138 240.797 192.24 240.902C192.342 241.007 192.4 241.149 192.4 241.297V256.806C192.398 256.954 192.34 257.095 192.238 257.199C192.136 257.303 191.998 257.363 191.854 257.365V257.365Z" fill="#FBE1CA"/>
<path d="M132.387 114.273C132.243 114.273 132.104 114.214 132.001 114.109C131.899 114.004 131.842 113.862 131.842 113.714V103.476C131.84 102.467 131.447 101.499 130.748 100.785C130.05 100.072 129.104 99.6716 128.117 99.6716H119.112C118.967 99.6716 118.829 99.6127 118.726 99.508C118.624 99.4033 118.566 99.2612 118.566 99.1131C118.566 98.965 118.624 98.823 118.726 98.7183C118.829 98.6135 118.967 98.5547 119.112 98.5547H128.139C129.415 98.5547 130.639 99.073 131.542 99.9958C132.445 100.919 132.953 102.17 132.955 103.476V113.707C132.955 113.782 132.94 113.857 132.911 113.927C132.883 113.997 132.841 114.06 132.788 114.112C132.735 114.165 132.672 114.206 132.603 114.234C132.535 114.262 132.461 114.275 132.387 114.273V114.273Z" fill="#FBE1CA"/>
<path d="M132.514 138.368C132.442 138.369 132.371 138.355 132.304 138.327C132.238 138.3 132.177 138.259 132.126 138.207C132.076 138.154 132.035 138.092 132.008 138.024C131.981 137.956 131.968 137.883 131.969 137.809V120.222C131.969 120.074 132.026 119.932 132.129 119.828C132.231 119.723 132.37 119.664 132.514 119.664C132.659 119.664 132.798 119.723 132.9 119.828C133.002 119.932 133.06 120.074 133.06 120.222V137.809C133.06 137.958 133.002 138.1 132.9 138.204C132.798 138.309 132.659 138.368 132.514 138.368V138.368Z" fill="#FBE1CA"/>
<path d="M58.9518 276.181C58.8071 276.181 58.6684 276.122 58.566 276.017C58.4637 275.912 58.4062 275.77 58.4062 275.622V254.312C58.4062 254.164 58.4637 254.022 58.566 253.917C58.6684 253.813 58.8071 253.754 58.9518 253.754C59.0965 253.754 59.2353 253.813 59.3376 253.917C59.4399 254.022 59.4974 254.164 59.4974 254.312V275.622C59.4983 275.696 59.4849 275.769 59.4578 275.837C59.4308 275.905 59.3906 275.967 59.3398 276.019C59.2889 276.071 59.2284 276.112 59.1617 276.14C59.0951 276.168 59.0237 276.182 58.9518 276.181V276.181Z" fill="#FBE1CA"/>
<path d="M58.9518 245.12C58.8071 245.12 58.6684 245.061 58.566 244.957C58.4637 244.852 58.4062 244.71 58.4062 244.562V228.687C58.4062 228.539 58.4637 228.397 58.566 228.292C58.6684 228.188 58.8071 228.129 58.9518 228.129C59.0965 228.129 59.2353 228.188 59.3376 228.292C59.4399 228.397 59.4974 228.539 59.4974 228.687V244.562C59.4983 244.635 59.4849 244.708 59.4578 244.777C59.4308 244.845 59.3906 244.907 59.3398 244.959C59.2889 245.011 59.2284 245.052 59.1617 245.08C59.0951 245.107 59.0237 245.121 58.9518 245.12V245.12Z" fill="#FBE1CA"/>
<path d="M1.11261 64.1914H0.0214844V298.651H1.11261V64.1914Z" fill="#24071D"/>
<path d="M299.454 299.109H0.54556C0.400869 299.109 0.262106 299.05 0.159793 298.945C0.0574809 298.841 0 298.699 0 298.551C0 298.403 0.0574809 298.26 0.159793 298.156C0.262106 298.051 0.400869 297.992 0.54556 297.992H299.454C299.599 297.992 299.738 298.051 299.84 298.156C299.943 298.26 300 298.403 300 298.551C300 298.699 299.943 298.841 299.84 298.945C299.738 299.05 299.599 299.109 299.454 299.109V299.109Z" fill="#24071D"/>
</svg>
