<svg width="50" height="50" viewBox="0 0 50 50" fill="none" xmlns="http://www.w3.org/2000/svg">
<g clip-path="url(#clip0_577_447)">
<path d="M48.9238 25.9995C48.8054 26.9379 48.7258 27.8856 48.627 28.8272C48.6095 28.9947 48.5914 29.1627 48.5753 29.3297L48.5598 29.4611C48.5505 29.5407 48.5412 29.6203 48.5309 29.6989C48.5179 29.8059 48.504 29.913 48.49 30.0195C48.4761 30.126 48.46 30.2408 48.4435 30.3509C48.4269 30.461 48.4099 30.5717 48.3918 30.6818C48.383 30.7382 48.3737 30.794 48.3639 30.8504C48.3453 30.9584 48.3266 31.0665 48.306 31.174C48.2956 31.2283 48.2858 31.2826 48.2744 31.3374C48.263 31.3922 48.2527 31.446 48.2418 31.5003C48.2325 31.5468 48.2222 31.5928 48.2124 31.6389C48.2026 31.6849 48.1927 31.7288 48.1824 31.7738C48.1689 31.8369 48.1539 31.8994 48.1389 31.9625C48.126 32.0168 48.1131 32.0701 48.0997 32.1238C48.0862 32.1776 48.0723 32.2309 48.0583 32.2841C47.6912 33.6801 47.1033 35.012 46.078 36.2183C44.6608 37.8858 43.2953 39.5791 41.906 41.1819C41.7285 41.3887 41.5501 41.5926 41.3709 41.7936C38.2211 45.3513 34.9042 48.3688 30.5544 49.5119C30.2555 49.5916 29.9517 49.6605 29.6428 49.7188C29.5177 49.7436 29.3915 49.7658 29.2654 49.7875H29.2556C29.132 49.8082 29.0074 49.8268 28.8823 49.8454C27.5824 50.025 26.2658 50.0482 24.9605 49.9147C24.1224 49.833 23.2636 49.7358 22.3975 49.6185C22.2424 49.5973 22.0873 49.5755 21.9322 49.5528C21.8179 49.5373 21.7042 49.5202 21.5899 49.5011C17.2442 48.8486 12.8002 47.6522 9.83909 45.3074C9.65847 45.1643 9.48354 45.017 9.31429 44.8653C8.50651 44.156 7.83095 43.3091 7.31902 42.3638C6.67427 41.155 5.96231 39.9855 5.25448 38.8206L5.09937 38.5662C3.18631 35.3998 1.34409 32.2159 1.04524 28.215C1.02766 27.986 1.01577 27.7538 1.00905 27.5201C0.9941 26.9954 1.00549 26.4703 1.04318 25.9467C1.08006 25.4335 1.12659 24.9189 1.18278 24.4029C1.19863 24.2577 1.21587 24.1121 1.23448 23.966C1.24741 23.8579 1.26033 23.7503 1.27429 23.6428C1.28101 23.5885 1.28774 23.5342 1.29498 23.4804C1.326 23.2436 1.35909 23.0075 1.39424 22.7721C1.40355 22.7085 1.41286 22.6459 1.4232 22.5829C1.43406 22.5074 1.44595 22.4329 1.45836 22.3585C2.34457 16.8328 4.40549 11.453 8.01807 7.92318C8.11561 7.82804 8.21437 7.73394 8.31433 7.64088C8.36603 7.59486 8.41464 7.54833 8.46531 7.50334C8.71762 7.27481 8.97735 7.05558 9.24449 6.84567C9.34428 6.76708 9.44562 6.69055 9.548 6.61403C11.1246 5.43494 12.9351 4.60656 14.858 4.18445C14.9562 4.16274 15.0545 4.1405 15.1527 4.11672H15.1563C15.253 4.09397 15.3497 4.07019 15.4459 4.0464C15.4485 4.04514 15.4513 4.04427 15.4542 4.04382L15.7349 3.97298C15.8745 3.93627 16.0151 3.89801 16.1553 3.85975C16.2282 3.84062 16.3011 3.81994 16.374 3.79926L16.5844 3.73928C16.7152 3.70205 16.8429 3.66482 16.9753 3.62553L17.0663 3.59916L17.0916 3.5914L17.208 3.55676C17.2302 3.8613 17.2597 4.17721 17.3067 4.49675C17.3749 5.02159 17.4898 5.5393 17.65 6.04373C18.0595 7.28463 18.8005 8.21841 20.1256 7.99505C23.596 7.41028 22.2972 10.5849 25.2961 12.2932C25.5936 12.4647 25.909 12.6034 26.2365 12.7069V12.7069C26.5722 12.8111 26.9196 12.8726 27.2706 12.8899C28.0979 12.9323 28.8461 12.7415 29.587 12.6479C29.8521 12.6113 30.1197 12.5951 30.3874 12.5993C30.6642 12.6039 30.9393 12.644 31.2058 12.7187C31.3029 12.7457 31.3985 12.7776 31.4923 12.8144C31.6423 12.8726 31.7878 12.9417 31.9276 13.0212C32.1778 13.1639 32.4132 13.331 32.6303 13.5202C32.6365 13.5243 32.6417 13.53 32.6474 13.5346C32.7327 13.6081 32.8185 13.6763 32.9059 13.7383C33.0179 13.8208 33.135 13.8961 33.2564 13.9638C33.4767 14.0876 33.7108 14.1849 33.9539 14.2538C34.0465 14.2797 34.1395 14.3014 34.2321 14.3185C34.2838 14.3283 34.3355 14.3366 34.3898 14.3438C35.4544 14.4891 36.5526 14.1044 37.5437 13.5496C37.7919 13.4116 38.0334 13.2627 38.2676 13.1086C38.478 12.97 38.6812 12.8263 38.8762 12.6841C39.1197 12.5052 39.3492 12.3279 39.5628 12.1572C39.7939 11.9737 40.0049 11.7994 40.1936 11.6448C40.6863 11.2416 41.572 11.0027 42.5673 10.7659C43.1278 10.633 43.7229 10.5022 44.302 10.3429C44.3599 10.3817 44.4173 10.421 44.4736 10.4603C44.53 10.4996 44.5869 10.5399 44.6427 10.5803C44.6986 10.6206 44.7549 10.6625 44.8102 10.7049C44.8792 10.7576 44.9481 10.8115 45.0171 10.8667C45.0527 10.8941 45.0879 10.9231 45.1205 10.952C45.1267 10.9567 45.1328 10.9617 45.1386 10.967C45.1856 11.0058 45.2316 11.0446 45.2776 11.0833C45.3237 11.1221 45.3811 11.1712 45.4286 11.2152C45.4762 11.2591 45.5269 11.3041 45.5755 11.3496C45.6241 11.3951 45.6721 11.4406 45.7192 11.4866C45.7662 11.5326 45.8133 11.5781 45.8593 11.6247C45.9979 11.7648 46.1318 11.9075 46.26 12.0543C46.2916 12.09 46.3226 12.1257 46.3526 12.1609C46.4131 12.2322 46.4731 12.3036 46.5325 12.3765C46.562 12.4127 46.5909 12.4499 46.6194 12.4861C46.6338 12.5047 46.6483 12.5228 46.6613 12.5409C46.6912 12.5791 46.7202 12.6179 46.7497 12.6567C46.8226 12.7549 46.8939 12.8537 46.9642 12.9545C47.0435 13.0683 47.1204 13.1841 47.1948 13.302C47.2569 13.3997 47.3174 13.499 47.3758 13.5987C47.3804 13.6065 47.3851 13.6137 47.3892 13.6215C47.413 13.6613 47.4358 13.7016 47.458 13.7425C47.4952 13.8066 47.5304 13.8712 47.565 13.9359L47.578 13.9586C47.6095 14.016 47.6395 14.0729 47.6684 14.1297C47.6974 14.1866 47.7269 14.2445 47.7558 14.303C47.7848 14.3614 47.8122 14.4188 47.8396 14.4777C47.9289 14.6659 48.013 14.8572 48.0919 15.0516C48.1116 15.0987 48.1302 15.1463 48.1498 15.1943L48.2201 15.3774C48.2889 15.5614 48.3546 15.7476 48.4156 15.9358C48.4363 15.9989 48.4559 16.0625 48.475 16.126C48.5133 16.2491 48.5495 16.3737 48.5852 16.4983C48.6631 16.7813 48.7334 17.069 48.7961 17.3613C48.8059 17.4047 48.8152 17.4486 48.8245 17.4926C48.8804 17.7594 48.928 18.0298 48.9714 18.3028C48.9893 18.4193 49.0066 18.5365 49.0231 18.6544C49.082 19.088 49.1274 19.5292 49.1591 19.978C49.1722 20.1734 49.1834 20.3699 49.1927 20.5674C49.2702 22.3156 49.1575 24.148 48.9238 25.9995Z" fill="#EFAE59"/>
<g style="mix-blend-mode:overlay" opacity="0.2">
<path d="M30.5476 40.7187C30.967 43.2346 34.5289 41.9766 34.1116 38.832C33.6943 35.6873 30.1283 38.2038 30.5476 40.7187Z" fill="black"/>
</g>
<g style="mix-blend-mode:overlay" opacity="0.2">
<path d="M19.031 26.6303L16.89 29.5365C16.8386 29.6059 16.769 29.6596 16.6889 29.6917L12.0474 31.5153C11.946 31.5552 11.8337 31.5577 11.7307 31.5222C11.6277 31.4868 11.5407 31.4158 11.4853 31.3219L9.48388 27.9353C9.44882 27.8768 9.42776 27.8109 9.42235 27.7429C9.41662 27.6766 9.42546 27.6099 9.44823 27.5474C9.47101 27.4849 9.50717 27.4281 9.5542 27.381L13.114 23.8212C13.1784 23.7566 13.2607 23.7129 13.3501 23.6956C13.4396 23.6782 13.5323 23.6881 13.6161 23.724L18.756 25.9048L18.8413 25.9405C18.9045 25.9676 18.9607 26.0086 19.0059 26.0603C19.0511 26.1121 19.084 26.1734 19.1022 26.2397C19.1204 26.306 19.1235 26.3755 19.1112 26.4431C19.0989 26.5107 19.0715 26.5747 19.031 26.6303V26.6303Z" fill="black"/>
</g>
<g style="mix-blend-mode:overlay" opacity="0.2">
<path d="M46.4979 17.0847L45.1841 20.5152L43.9949 23.6294C43.9671 23.7023 43.9215 23.7672 43.8623 23.8181C43.8031 23.869 43.7322 23.9044 43.6559 23.9211C43.5796 23.9377 43.5004 23.9352 43.4254 23.9136C43.3503 23.892 43.2819 23.8521 43.2261 23.7974L38.1948 18.8855C38.1467 18.8385 38.1093 18.7817 38.0851 18.719C38.0609 18.6563 38.0503 18.5891 38.0543 18.5219C38.0582 18.4548 38.0764 18.3893 38.1078 18.3298C38.1392 18.2704 38.1829 18.2183 38.2361 18.1772L40.0298 16.79L42.3673 14.9803C42.4353 14.9277 42.5164 14.8947 42.6018 14.885C42.6872 14.8752 42.7737 14.8891 42.8518 14.925L46.257 16.489C46.3651 16.5394 46.4501 16.6289 46.4948 16.7394C46.5395 16.8499 46.5406 16.9733 46.4979 17.0847V17.0847Z" fill="black"/>
</g>
<g style="mix-blend-mode:overlay" opacity="0.2">
<path d="M20.2038 12.4835C16.4511 12.9591 14.5365 13.8179 13.9517 14.1235C13.8869 14.1573 13.8149 14.1749 13.7418 14.1749C13.6687 14.1749 13.5967 14.1573 13.5319 14.1235C12.7662 13.7321 10.2678 12.3589 10.2678 11.1164C10.2678 11.1035 10.2678 11.0905 10.2678 11.0781C10.3283 9.77985 13.4109 8.35023 14.082 8.05396C14.1648 8.01798 14.2562 8.00685 14.3452 8.02191C15.6983 8.25975 16.8022 8.69406 17.6915 9.20283C19.1842 10.0554 20.0735 11.1102 20.5254 11.7694C20.5698 11.8343 20.5968 11.9096 20.6037 11.9879C20.6107 12.0662 20.5974 12.145 20.5651 12.2167C20.5328 12.2884 20.4826 12.3506 20.4193 12.3973C20.3561 12.444 20.2818 12.4737 20.2038 12.4835V12.4835Z" fill="black"/>
</g>
<g style="mix-blend-mode:overlay" opacity="0.2">
<path d="M11.8304 18.6528C10.7265 19.9599 10.0347 21.4448 9.75293 22.117C9.70966 22.2183 9.6318 22.3011 9.53323 22.3504C9.43466 22.3997 9.32178 22.4125 9.21469 22.3864L4.8276 21.2892C4.72195 21.2626 4.62913 21.1994 4.56555 21.1109C4.50196 21.0225 4.47171 20.9144 4.48014 20.8058L4.56442 19.7515L4.77589 17.1022C4.78198 17.0378 4.8014 16.9755 4.83293 16.919C4.86446 16.8626 4.9074 16.8134 4.95901 16.7744C5.01062 16.7355 5.06977 16.7078 5.1327 16.693C5.19562 16.6782 5.26093 16.6767 5.32447 16.6886L10.0073 17.6027L11.5672 17.9067C11.6453 17.9226 11.7179 17.9585 11.778 18.0108C11.8381 18.0631 11.8836 18.1301 11.9101 18.2052C11.9366 18.2803 11.9432 18.3611 11.9293 18.4395C11.9153 18.5179 11.8812 18.5914 11.8304 18.6528Z" fill="black"/>
</g>
<g style="mix-blend-mode:overlay" opacity="0.2">
<path d="M28.2082 15.3019C27.0355 16.7496 30.7825 18.5473 32.3399 17.051C33.8972 15.5547 30.2019 12.8413 28.2082 15.3019Z" fill="black"/>
</g>
<g style="mix-blend-mode:overlay" opacity="0.2">
<path d="M30.3879 46.8429C30.0141 48.0466 26.6296 48.4654 26.0737 48.5259C26.0236 48.5321 25.9727 48.5229 25.9279 48.4995C25.3103 48.1883 24.7264 47.8142 24.1855 47.3833C22.1918 45.7902 21.5232 43.9242 21.3185 43.129C21.3078 43.0871 21.3079 43.0431 21.3187 43.0012C21.3294 42.9592 21.3505 42.9207 21.3801 42.889C21.4096 42.8574 21.4466 42.8336 21.4877 42.82C21.5288 42.8064 21.5727 42.8033 21.6153 42.811C24.4812 43.3426 26.3509 43.3074 27.326 43.2123C27.556 43.1918 27.7848 43.1597 28.0116 43.1161C28.0523 43.1077 28.0944 43.1093 28.1343 43.1208C28.1742 43.1324 28.2107 43.1535 28.2407 43.1823C28.721 43.6456 30.7483 45.6858 30.3879 46.8429Z" fill="black"/>
</g>
<g style="mix-blend-mode:overlay" opacity="0.2">
<path d="M19.1284 18.0997C18.8182 19.7542 23.2213 20.704 23.4075 17.7274C23.5936 14.7508 19.6863 15.1251 19.1284 18.0997Z" fill="black"/>
</g>
<g style="mix-blend-mode:overlay" opacity="0.2">
<path d="M19.9463 40.2579C21.1246 40.8189 24.7346 39.4307 25.8923 37.4509C26.8307 35.8419 25.1493 31.6719 24.4063 31.0117C23.6633 30.3514 19.3703 32.6626 18.6273 33.9836C18.1951 34.7483 18.2126 39.4322 19.9463 40.2579Z" fill="black"/>
</g>
<g style="mix-blend-mode:overlay" opacity="0.2">
<path d="M25.7408 37.137L20.4033 40.0325C20.3407 40.0666 20.2706 40.0851 20.1993 40.0864C20.1279 40.0877 20.0573 40.0717 19.9934 40.0398C19.9295 40.008 19.8743 39.9611 19.8324 39.9033C19.7906 39.8455 19.7633 39.7784 19.7529 39.7078L19.2012 37.2027L18.9975 34.588C18.9863 34.5035 18.9996 34.4176 19.0357 34.3403C19.0718 34.2631 19.1292 34.1978 19.2012 34.1522L23.7848 31.25C23.8428 31.2133 23.9085 31.1905 23.9768 31.1835C24.0451 31.1765 24.114 31.1854 24.1783 31.2095C24.2425 31.2337 24.3003 31.2724 24.347 31.3227C24.3938 31.373 24.4282 31.4334 24.4476 31.4992L25.0117 33.4195L25.9548 36.6252C25.9823 36.7221 25.9762 36.8255 25.9373 36.9185C25.8984 37.0115 25.8291 37.0885 25.7408 37.137V37.137Z" fill="black"/>
</g>
<g style="mix-blend-mode:overlay" opacity="0.2">
<path d="M11.6079 40.5878C11.3602 42.0738 15.5705 43.3949 17.2219 42.4869C18.8734 41.579 18.3775 39.3495 17.057 38.6065C15.7365 37.8635 11.9786 38.3656 11.6079 40.5878Z" fill="black"/>
</g>
<g style="mix-blend-mode:overlay" opacity="0.2">
<path d="M12.1942 39.9105C10.2253 42.2098 17.6335 43.6332 17.9334 40.8929C18.2333 38.1525 13.705 38.1458 12.1942 39.9105Z" fill="black"/>
</g>
<g style="mix-blend-mode:overlay" opacity="0.2">
<path d="M20.7719 42.7351C20.6334 41.5609 26.5504 42.5697 28.2018 42.2398C29.8532 41.9099 31.0083 46.1176 30.6784 46.9449C30.3486 47.7721 26.9635 48.8435 25.8901 48.7612C24.8167 48.679 21.1018 45.5411 20.7719 42.7351Z" fill="black"/>
</g>
<g style="mix-blend-mode:overlay" opacity="0.2">
<path d="M31.0038 42.2987C31.9526 43.1973 36.7161 39.7931 33.7095 37.3868C30.7029 34.9805 29.1001 40.4947 31.0038 42.2987Z" fill="black"/>
</g>
<g style="mix-blend-mode:overlay" opacity="0.2">
<path d="M37.9435 40.8355C38.3307 42.2439 45.2906 36.2953 44.7126 34.2313C44.1345 32.1673 40.0897 32.7453 38.9341 33.0757C37.7785 33.4061 36.3748 35.1392 37.9435 40.8355Z" fill="black"/>
</g>
<g style="mix-blend-mode:overlay" opacity="0.2">
<path d="M28.4496 29.5258C29.432 31.0991 33.2374 27.5445 33.8155 27.1319C34.3935 26.7193 33.8155 22.3435 34.1459 20.8576C34.4763 19.3716 31.0912 19.6167 29.1926 21.2712C27.2941 22.9257 26.3029 23.7478 27.1286 26.4721C27.9543 29.1964 28.0365 28.8655 28.4496 29.5258Z" fill="black"/>
</g>
<g style="mix-blend-mode:overlay" opacity="0.2">
<path d="M18.4603 18.2155C18.2328 19.9005 21.1018 20.6099 22.6705 19.6192C24.2392 18.6286 23.9916 17.0599 23.3308 15.9865C22.67 14.9131 18.8729 15.1613 18.4603 18.2155Z" fill="black"/>
</g>
<g style="mix-blend-mode:overlay" opacity="0.2">
<path d="M9.46173 22.7561C10.6794 22.4314 12.186 19.4537 12.351 18.4646C12.5159 17.4755 6.81861 15.9058 5.58184 16.1534C4.34508 16.4011 3.78409 19.8958 4.27011 21.0793C4.75613 22.2628 6.9851 23.4163 9.46173 22.7561Z" fill="black"/>
</g>
<g style="mix-blend-mode:overlay" opacity="0.2">
<path d="M13.7547 14.4183C15.0752 14.4183 19.1206 12.7669 21.1846 12.9323C23.2486 13.0978 20.6065 10.7855 18.9556 9.3823C17.3047 7.97904 15.3234 6.90412 14.25 7.31775C13.1767 7.73138 9.54495 9.87711 9.8743 11.0327C10.2037 12.1883 12.2687 14.4183 13.7547 14.4183Z" fill="black"/>
</g>
<g style="mix-blend-mode:overlay" opacity="0.2">
<path d="M37.9436 18.0504C37.2311 19.1781 41.4109 23.9116 43.3922 24.1593C45.3735 24.407 47.27 18.2133 46.694 17.1425C46.118 16.0717 43.3922 14.6659 42.5665 14.6659C41.7407 14.6659 38.9342 16.4817 37.9436 18.0504Z" fill="black"/>
</g>
<g style="mix-blend-mode:overlay" opacity="0.2">
<path d="M4.27016 33.4609C4.9387 34.3135 6.65476 33.7359 7.15009 32.6626C7.64542 31.5892 7.72814 30.4336 7.06788 29.6906C6.40761 28.9476 5.16878 29.1131 4.42579 29.6906C3.6828 30.2681 3.53493 32.525 4.27016 33.4609Z" fill="black"/>
</g>
<g style="mix-blend-mode:overlay" opacity="0.2">
<path d="M9.21399 27.6272C8.99011 28.3541 10.3696 31.8375 11.6906 32.0024C13.0117 32.1673 15.736 30.8468 16.8093 30.0211C17.8827 29.1954 19.1205 27.7921 19.2032 26.3889C19.286 24.9856 14.1672 23.2515 13.507 23.2515C12.8467 23.2515 9.54438 26.5517 9.21399 27.6272Z" fill="black"/>
</g>
<path d="M11.4539 18.7444C10.4648 19.916 9.84489 21.2463 9.59257 21.8466C9.55428 21.9377 9.48463 22.0121 9.39623 22.0563C9.30784 22.1005 9.20655 22.1116 9.11069 22.0875L5.18117 21.1052C5.08659 21.0811 5.00358 21.0243 4.94681 20.9449C4.89004 20.8656 4.86317 20.7687 4.87094 20.6714L4.94592 19.7272L5.13567 17.353C5.14041 17.295 5.15734 17.2386 5.18535 17.1876C5.21337 17.1366 5.25184 17.092 5.29826 17.0569C5.34467 17.0217 5.39797 16.9968 5.45469 16.9837C5.5114 16.9705 5.57025 16.9695 5.62738 16.9807L9.82317 17.7992L11.2192 18.0717C11.2897 18.0858 11.3554 18.1181 11.4096 18.1653C11.4639 18.2125 11.5049 18.2731 11.5286 18.341C11.5523 18.4089 11.5579 18.4818 11.5448 18.5526C11.5317 18.6233 11.5004 18.6894 11.4539 18.7444Z" fill="#934834"/>
<path d="M25.5143 37.0322L20.5507 39.728C20.4923 39.7594 20.4272 39.7763 20.3609 39.7773C20.2946 39.7783 20.229 39.7634 20.1697 39.7337C20.1104 39.7041 20.0591 39.6606 20.0201 39.607C19.9812 39.5533 19.9556 39.4911 19.9457 39.4255L19.6293 37.2752L19.2446 34.6615C19.233 34.5826 19.2445 34.5019 19.2778 34.4294C19.311 34.3568 19.3645 34.2954 19.4318 34.2525L23.6969 31.5526C23.7508 31.5185 23.812 31.4975 23.8754 31.491C23.9389 31.4846 24.003 31.4929 24.0628 31.5153C24.1225 31.5377 24.1762 31.5737 24.2198 31.6203C24.2633 31.667 24.2954 31.7231 24.3137 31.7842L24.8369 33.5711L25.7159 36.5529C25.7422 36.6438 25.7365 36.7409 25.6998 36.8282C25.6631 36.9154 25.5976 36.9874 25.5143 37.0322Z" fill="#934834"/>
<path d="M18.5627 26.727L16.6325 29.3474C16.5859 29.4096 16.5232 29.4579 16.4511 29.487L12.2661 31.1307C12.1747 31.1665 12.0736 31.1686 11.9807 31.1367C11.8879 31.1048 11.8095 31.0409 11.7594 30.9564L9.95443 27.9028C9.90796 27.8239 9.88899 27.7318 9.9005 27.6409C9.91201 27.55 9.95334 27.4656 10.018 27.4007L13.2278 24.1909C13.2861 24.1332 13.3602 24.094 13.4407 24.0784C13.5213 24.0629 13.6047 24.0716 13.6802 24.1036L18.315 26.0683L18.3915 26.1004C18.4491 26.1248 18.5004 26.1619 18.5415 26.209C18.5826 26.2561 18.6126 26.3119 18.629 26.3722C18.6455 26.4325 18.6481 26.4958 18.6366 26.5572C18.6251 26.6187 18.5998 26.6768 18.5627 26.727V26.727Z" fill="#934834"/>
<path d="M33.2716 26.7849L29.0835 28.8774C29.0275 28.9053 28.9659 28.9202 28.9032 28.9208C28.8406 28.9215 28.7786 28.9079 28.722 28.8811C28.6654 28.8543 28.6156 28.815 28.5764 28.7662C28.5372 28.7174 28.5096 28.6603 28.4957 28.5992L28.2397 27.4659L27.5226 24.2767C27.504 24.1945 27.5111 24.1084 27.5428 24.0303C27.5745 23.9521 27.6293 23.8855 27.7 23.8393L31.9293 21.0959L32.8207 20.5179C32.8864 20.4756 32.9627 20.4529 33.0407 20.4522C33.1188 20.4515 33.1955 20.4729 33.2619 20.5139C33.3283 20.555 33.3817 20.614 33.416 20.6841C33.4503 20.7543 33.4641 20.8327 33.4557 20.9103C33.3104 22.2065 33.117 24.6614 33.4903 26.3315C33.5094 26.4206 33.4982 26.5136 33.4586 26.5957C33.419 26.6778 33.3532 26.7443 33.2716 26.7849V26.7849Z" fill="#934834"/>
<path d="M19.7291 12.3449C16.3502 12.7736 14.6264 13.5471 14.0995 13.8221C14.0412 13.8524 13.9763 13.8683 13.9106 13.8683C13.8448 13.8683 13.78 13.8524 13.7216 13.8221C13.0324 13.4695 10.7827 12.2327 10.7827 11.1144C10.7827 11.103 10.7827 11.0911 10.7827 11.0797C10.8375 9.9107 13.613 8.62378 14.2174 8.35699C14.2919 8.3245 14.3742 8.31444 14.4542 8.32804C15.6724 8.54209 16.6666 8.93401 17.4675 9.39159C18.8119 10.1594 19.6122 11.1087 20.0191 11.7022C20.0589 11.7608 20.0829 11.8285 20.089 11.899C20.0951 11.9694 20.083 12.0403 20.054 12.1048C20.0249 12.1692 19.9797 12.2252 19.9228 12.2672C19.866 12.3093 19.7993 12.336 19.7291 12.3449V12.3449Z" fill="#934834"/>
<path d="M30.2179 46.7986C29.856 47.9568 26.5986 48.3601 26.0661 48.4185C26.0178 48.4241 25.969 48.415 25.9259 48.3926C25.3315 48.0934 24.7696 47.7335 24.2492 47.3187C22.3304 45.7857 21.6872 43.99 21.4902 43.2248C21.4797 43.1844 21.4795 43.142 21.4897 43.1015C21.4999 43.061 21.5202 43.0237 21.5487 42.9932C21.5772 42.9627 21.6129 42.9398 21.6526 42.9268C21.6923 42.9138 21.7346 42.911 21.7757 42.9187C24.5341 43.4306 26.3329 43.3965 27.2713 43.3049C27.5882 43.2744 27.8069 43.2372 27.931 43.2124C27.9702 43.2043 28.0107 43.2059 28.049 43.217C28.0874 43.228 28.1225 43.2483 28.1513 43.276C28.6115 43.7217 30.5643 45.6849 30.2179 46.7986Z" fill="#934834"/>
<path d="M45.9841 17.3695L44.8316 20.3792L43.7867 23.1113C43.7619 23.1747 43.7218 23.231 43.6701 23.2752C43.6183 23.3194 43.5565 23.3501 43.49 23.3647C43.4235 23.3793 43.3545 23.3772 43.289 23.3587C43.2235 23.3402 43.1635 23.3058 43.1145 23.2586L38.6938 18.9512C38.652 18.9098 38.6194 18.8601 38.5983 18.8051C38.5772 18.7502 38.5681 18.6915 38.5715 18.6327C38.5749 18.574 38.5908 18.5167 38.6182 18.4646C38.6455 18.4125 38.6836 18.3669 38.73 18.3307L40.3039 17.1136L42.3545 15.5273C42.4141 15.4812 42.4852 15.4522 42.5601 15.4435C42.635 15.4349 42.7109 15.4469 42.7795 15.4782L45.7669 16.8504C45.8619 16.8936 45.9371 16.9711 45.9774 17.0674C46.0177 17.1636 46.0201 17.2716 45.9841 17.3695V17.3695Z" fill="#934834"/>
<path d="M44.2008 34.631C43.3632 37.5523 40.2501 39.604 38.9414 40.3552C38.8801 40.3907 38.8107 40.4099 38.7399 40.4109C38.669 40.4119 38.5991 40.3947 38.5368 40.3609C38.4745 40.3271 38.422 40.2779 38.3842 40.218C38.3464 40.158 38.3246 40.0894 38.321 40.0186L38.2284 38.1955L38.0413 34.5416C38.0369 34.4522 38.0617 34.3638 38.1118 34.2897C38.162 34.2156 38.2348 34.1598 38.3194 34.1306L40.7909 33.2836C40.8713 33.2557 40.9585 33.2537 41.0401 33.278L43.175 33.902L43.9195 34.1197C44.0245 34.1504 44.113 34.2215 44.1657 34.3173C44.2184 34.4131 44.231 34.5259 44.2008 34.631V34.631Z" fill="#934834"/>
<path d="M12.6225 40.0103C10.9643 41.9466 17.2029 43.1472 17.4573 40.8376C17.7117 38.5279 13.8949 38.5243 12.6225 40.0103Z" fill="#934834"/>
<path d="M19.3682 18.0505C19.0926 19.52 23.0009 20.3622 23.1658 17.7202C23.3308 15.0781 19.8635 15.409 19.3682 18.0505Z" fill="#934834"/>
<path d="M30.9262 40.5056C31.256 42.4869 34.063 41.4963 33.7327 39.0197C33.4023 36.543 30.5958 38.5243 30.9262 40.5056Z" fill="#934834"/>
<path d="M4.34349 32.3328C4.60202 33.6279 7.15 33.3234 7.15 31.3421C7.15 29.3608 3.68272 29.0304 4.34349 32.3328Z" fill="#934834"/>
<g style="mix-blend-mode:overlay" opacity="0.4">
<path d="M18.5627 26.727L16.6326 29.3474C16.586 29.4096 16.5232 29.4579 16.4511 29.487L12.2662 31.1306C12.1748 31.1664 12.0736 31.1686 11.9808 31.1366C11.888 31.1047 11.8095 31.0408 11.7595 30.9564L9.9545 27.9027C9.92344 27.8498 9.90454 27.7907 9.89917 27.7295C11.0847 28.9032 14.2046 30.991 18.3151 26.0698L18.3916 26.1019C18.4489 26.1263 18.5 26.1634 18.5409 26.2104C18.5819 26.2574 18.6117 26.313 18.6282 26.3731C18.6446 26.4332 18.6473 26.4962 18.636 26.5575C18.6246 26.6188 18.5996 26.6767 18.5627 26.727V26.727Z" fill="black"/>
</g>
<g style="mix-blend-mode:overlay" opacity="0.4">
<path d="M25.5144 37.0321L20.5508 39.728C20.4924 39.7594 20.4273 39.7763 20.361 39.7773C20.2947 39.7783 20.2291 39.7633 20.1698 39.7337C20.1105 39.704 20.0592 39.6605 20.0202 39.6069C19.9813 39.5533 19.9557 39.4911 19.9458 39.4255L19.6294 37.2751C20.6025 37.5052 21.8847 37.667 22.6732 37.2033C23.5439 36.6904 24.3515 34.8766 24.8386 33.571L25.7176 36.5528C25.7437 36.6439 25.7378 36.7412 25.7008 36.8284C25.6638 36.9157 25.598 36.9876 25.5144 37.0321V37.0321Z" fill="black"/>
</g>
<g style="mix-blend-mode:overlay" opacity="0.4">
<path d="M44.2009 34.631C43.3633 37.5523 40.2502 39.6039 38.9415 40.3552C38.8802 40.3907 38.8108 40.4099 38.74 40.4109C38.6691 40.4119 38.5992 40.3946 38.5369 40.3609C38.4746 40.3271 38.4221 40.2779 38.3843 40.2179C38.3465 40.158 38.3247 40.0893 38.3211 40.0186L38.2285 38.1955C39.6483 37.8093 42.5437 36.6568 43.175 33.9041L43.9196 34.1217C44.0241 34.1525 44.1122 34.2232 44.1649 34.3186C44.2176 34.4139 44.2305 34.5262 44.2009 34.631V34.631Z" fill="black"/>
</g>
<g style="mix-blend-mode:overlay" opacity="0.4">
<path d="M33.2716 26.7849L29.0835 28.8773C29.0275 28.9053 28.9659 28.9202 28.9032 28.9208C28.8406 28.9215 28.7786 28.9079 28.722 28.8811C28.6654 28.8543 28.6156 28.815 28.5764 28.7662C28.5372 28.7173 28.5096 28.6602 28.4957 28.5992L28.2397 27.4658C29.6301 27.2761 31.6631 26.9167 32.2442 26.3888C33.0503 25.6562 33.2706 22.5844 31.9268 21.0943L32.8182 20.5163C32.8838 20.474 32.9601 20.4513 33.0382 20.4506C33.1162 20.4499 33.1929 20.4713 33.2593 20.5123C33.3257 20.5534 33.3792 20.6124 33.4134 20.6825C33.4477 20.7527 33.4615 20.8311 33.4531 20.9087C33.3078 22.2049 33.1144 24.6598 33.4877 26.3299C33.5074 26.419 33.4968 26.512 33.4576 26.5944C33.4185 26.6768 33.353 26.7438 33.2716 26.7849V26.7849Z" fill="black"/>
</g>
<g style="mix-blend-mode:overlay" opacity="0.4">
<path d="M11.4539 18.7443C10.4648 19.916 9.84489 21.2463 9.59257 21.8466C9.55428 21.9377 9.48463 22.0121 9.39623 22.0563C9.30784 22.1005 9.20655 22.1116 9.11069 22.0875L5.18117 21.1052C5.08659 21.0811 5.00358 21.0243 4.94681 20.9449C4.89004 20.8655 4.86317 20.7686 4.87094 20.6714L4.94592 19.7272C6.07462 20.3741 7.67176 21.1703 8.47525 21.0198C9.64428 20.8011 10.3609 19.2888 9.82317 17.7992L11.2192 18.0717C11.2897 18.0858 11.3554 18.118 11.4096 18.1653C11.4639 18.2125 11.5049 18.2731 11.5286 18.341C11.5523 18.4089 11.5579 18.4818 11.5448 18.5526C11.5317 18.6233 11.5004 18.6894 11.4539 18.7443V18.7443Z" fill="black"/>
</g>
<g style="mix-blend-mode:overlay" opacity="0.4">
<path d="M19.7291 12.345C16.3502 12.7736 14.6264 13.5471 14.0995 13.8222C14.0412 13.8525 13.9763 13.8683 13.9106 13.8683C13.8448 13.8683 13.78 13.8525 13.7216 13.8222C13.0324 13.4695 10.7827 12.2328 10.7827 11.1144C10.7827 11.103 10.7827 11.0911 10.7827 11.0798C11.8545 11.831 13.2531 12.6826 14.084 12.6826C15.57 12.6826 17.2214 11.1966 17.7995 10.949C18.0699 10.8321 17.815 10.1176 17.4675 9.39111C18.8119 10.1589 19.6122 11.1082 20.0191 11.7018C20.059 11.7603 20.0832 11.8281 20.0893 11.8986C20.0955 11.9692 20.0834 12.0401 20.0543 12.1046C20.0252 12.1692 19.98 12.2252 19.9231 12.2673C19.8661 12.3093 19.7993 12.3361 19.7291 12.345V12.345Z" fill="black"/>
</g>
<g style="mix-blend-mode:overlay" opacity="0.4">
<path d="M44.829 20.3793L43.7841 23.1113C43.7593 23.1747 43.7193 23.231 43.6675 23.2752C43.6158 23.3194 43.5539 23.3502 43.4874 23.3648C43.4209 23.3793 43.3519 23.3773 43.2864 23.3588C43.2209 23.3403 43.161 23.3059 43.1119 23.2587L38.6938 18.9512C38.652 18.9099 38.6194 18.8601 38.5983 18.8052C38.5772 18.7503 38.5681 18.6915 38.5715 18.6328C38.5749 18.5741 38.5908 18.5168 38.6182 18.4647C38.6455 18.4126 38.6836 18.3669 38.73 18.3308L40.3039 17.1136C40.1932 17.7486 40.1632 18.4176 40.4187 18.7165C40.914 19.2945 42.3172 21.1109 43.2252 21.1109C43.7329 21.1052 44.3668 20.7205 44.829 20.3793Z" fill="black"/>
</g>
<g style="mix-blend-mode:overlay" opacity="0.4">
<path d="M30.2178 46.7985C29.8558 47.9567 26.5985 48.36 26.0659 48.4184C26.0177 48.424 25.9689 48.415 25.9258 48.3926C25.3314 48.0933 24.7695 47.7334 24.249 47.3187C25.1544 47.5441 26.2226 47.6868 26.8808 47.3575C27.9847 46.8053 28.0503 44.8126 27.2711 43.3049C27.5881 43.2744 27.8068 43.2372 27.9309 43.2123C27.97 43.2043 28.0105 43.2059 28.0489 43.2169C28.0872 43.228 28.1223 43.2483 28.1511 43.2759C28.6113 43.7216 30.5642 45.6848 30.2178 46.7985Z" fill="black"/>
</g>
<g style="mix-blend-mode:overlay" opacity="0.4">
<path d="M17.0561 39.5863C17.0561 39.6432 17.0515 39.7021 17.0447 39.7626C16.8633 41.4109 13.638 41.2729 12.4048 40.3557C11.7037 42.08 17.2185 43.006 17.4573 40.8355C17.5168 40.2972 17.355 39.8841 17.0561 39.5863Z" fill="black"/>
</g>
<g style="mix-blend-mode:overlay" opacity="0.4">
<path d="M22.7549 16.3298C22.7609 16.4356 22.7609 16.5416 22.7549 16.6473C22.6303 18.6358 20.3853 18.6503 19.4004 17.9089C19.3895 17.9554 19.3792 18.0025 19.3699 18.0505C19.0943 19.52 23.0026 20.3622 23.1675 17.7202C23.2053 17.0899 23.0383 16.6308 22.7549 16.3298Z" fill="black"/>
</g>
<g style="mix-blend-mode:overlay" opacity="0.4">
<path d="M33.7326 39.0196C33.6721 38.5631 33.5258 38.258 33.3324 38.0765C33.5088 40.0206 31.7332 40.9906 30.9023 40.2197C30.9042 40.3155 30.913 40.4111 30.9287 40.5056C31.256 42.4869 34.063 41.4942 33.7326 39.0196Z" fill="black"/>
</g>
<g style="mix-blend-mode:overlay" opacity="0.4">
<path d="M6.73579 30.3038C6.71098 31.8963 5.02645 32.3834 4.27002 31.8033C4.28365 31.9802 4.30817 32.1562 4.34344 32.3301C4.60196 33.6253 7.14995 33.3208 7.14995 31.3395C7.15265 31.1481 7.11745 30.958 7.04637 30.7803C6.97529 30.6025 6.86974 30.4406 6.73579 30.3038V30.3038Z" fill="black"/>
</g>
<g style="mix-blend-mode:overlay" opacity="0.2">
<path d="M22.4188 24.7964C23.3754 21.4475 26.1105 25.9039 24.6338 27.6266C23.1572 29.3494 21.9266 26.5191 22.4188 24.7964Z" fill="black"/>
</g>
<g style="mix-blend-mode:overlay" opacity="0.2">
<path d="M31.8341 33.5711C31.5037 34.6439 35.5491 34.7267 35.5491 33.2407C35.5491 31.7547 32.1645 32.4977 31.8341 33.5711Z" fill="black"/>
</g>
<g style="mix-blend-mode:overlay" opacity="0.2">
<path d="M13.9196 19.5365C13.1844 20.599 16.314 20.9398 16.6439 20.0318C16.9738 19.1239 14.6626 18.4631 13.9196 19.5365Z" fill="black"/>
</g>
<g style="mix-blend-mode:overlay" opacity="0.2">
<path d="M39.842 28.6198C38.8302 29.8152 44.0523 30.1058 44.0523 28.9497C44.0523 27.7936 41.6584 26.471 39.842 28.6198Z" fill="black"/>
</g>
<g style="mix-blend-mode:overlay" opacity="0.2">
<path d="M39.0991 27.2968C39.0991 28.4989 40.8328 27.5444 40.5024 26.5538C40.172 25.5631 39.0991 26.2234 39.0991 27.2968Z" fill="black"/>
</g>
<g style="mix-blend-mode:overlay" opacity="0.2">
<path d="M5.49955 25.728C5.2524 26.3459 6.74045 26.6365 6.9028 25.6453C7.06515 24.6541 5.66397 25.3154 5.49955 25.728Z" fill="black"/>
</g>
<g style="mix-blend-mode:overlay" opacity="0.2">
<path d="M7.97576 24.9024C8.241 25.8331 9.04913 25.15 8.88368 24.4071C8.71822 23.6641 7.81082 24.3248 7.97576 24.9024Z" fill="black"/>
</g>
<g style="mix-blend-mode:overlay" opacity="0.2">
<path d="M21.0197 23.4164C20.542 24.2525 22.0926 24.7374 22.258 23.9117C22.4235 23.086 21.3496 22.8389 21.0197 23.4164Z" fill="black"/>
</g>
<g style="mix-blend-mode:overlay" opacity="0.2">
<path d="M9.21399 36.708C9.3174 37.3284 12.3509 37.5353 12.3509 35.8807C12.3509 34.2262 9.04905 35.7173 9.21399 36.708Z" fill="black"/>
</g>
<g style="mix-blend-mode:overlay" opacity="0.2">
<path d="M13.1768 35.8822C13.4244 36.7906 15.323 36.3775 14.6628 35.6345C14.0025 34.8915 12.9291 34.9743 13.1768 35.8822Z" fill="black"/>
</g>
<g style="mix-blend-mode:overlay" opacity="0.2">
<path d="M9.79099 36.4603C9.72998 36.8222 12.02 36.708 11.9372 35.965C11.8545 35.222 9.87424 35.965 9.79099 36.4603Z" fill="black"/>
</g>
<g style="mix-blend-mode:overlay" opacity="0.2">
<path d="M13.5893 35.5524C13.3013 35.783 13.9197 36.2127 14.1673 35.966C14.415 35.7194 14.0024 35.222 13.5893 35.5524Z" fill="black"/>
</g>
<g style="mix-blend-mode:overlay" opacity="0.2">
<path d="M23.6618 27.534C24.4275 27.6297 24.8169 24.9023 23.3748 24.0931C22.8159 23.7798 22.515 27.3908 23.6618 27.534Z" fill="black"/>
</g>
<g style="mix-blend-mode:overlay" opacity="0.2">
<path d="M40.8326 28.535C40.4929 29.5531 43.392 29.278 43.3093 28.7C43.2265 28.1219 41.0803 27.7926 40.8326 28.535Z" fill="black"/>
</g>
<path d="M38.8489 4.4647C39.2961 5.46724 40.7102 5.18855 40.1973 4.10639C39.9104 3.503 38.3949 3.44974 38.8489 4.4647Z" fill="#EFAE59"/>
<g style="mix-blend-mode:overlay" opacity="0.2">
<path d="M39.1957 4.04647C38.993 4.38099 39.8048 4.94302 39.8916 4.52473C39.9785 4.10644 39.4134 3.68816 39.1957 4.04647Z" fill="black"/>
</g>
<path d="M30.0142 4.37064C29.9662 5.36025 31.5685 4.42234 31.3291 3.8598C31.0897 3.29726 30.0541 3.55475 30.0142 4.37064Z" fill="#EFAE59"/>
<g style="mix-blend-mode:overlay" opacity="0.2">
<path d="M30.3333 4.37061C30.3881 4.93935 31.13 4.16379 30.9708 3.96215C30.8115 3.7605 30.293 3.96318 30.3333 4.37061Z" fill="black"/>
</g>
<g style="mix-blend-mode:overlay" opacity="0.2">
<path d="M32.6598 33.6533C32.7327 34.0918 34.5584 33.901 34.5584 33.2397C34.5584 32.5784 32.4944 32.6627 32.6598 33.6533Z" fill="black"/>
</g>
<g style="mix-blend-mode:overlay" opacity="0.2">
<path d="M29.5225 36.0477C29.5225 37.0689 32.4944 37.0384 31.9169 35.7174C31.3393 34.3963 29.5225 34.2314 29.5225 36.0477Z" fill="black"/>
</g>
<g style="mix-blend-mode:overlay" opacity="0.2">
<path d="M30.0177 35.6345C29.9758 36.0533 31.1738 36.6252 31.1738 35.8822C31.1738 35.1392 30.1004 34.8093 30.0177 35.6345Z" fill="black"/>
</g>
<g style="mix-blend-mode:overlay" opacity="0.3">
<path d="M5.66404 18.3824C5.34037 18.9579 8.30612 20.6114 8.71872 19.4553C9.13132 18.2992 6.40702 17.0598 5.66404 18.3824Z" fill="white"/>
</g>
<g style="mix-blend-mode:overlay" opacity="0.3">
<path d="M11.7734 10.7856C11.5263 11.223 17.0571 11.6129 16.9744 10.5379C16.8916 9.463 12.8463 8.88701 11.7734 10.7856Z" fill="white"/>
</g>
<path d="M37.9026 0.672725C37.9026 0.676862 37.8985 0.680998 37.8959 0.686686C37.7676 0.941587 37.5856 1.29886 37.3711 1.67889C36.9145 2.49271 36.3241 3.41201 35.8623 3.67157C35.8121 3.70128 35.7575 3.72292 35.7005 3.73568C35.1643 3.84684 33.9503 2.66902 33.1081 1.7611C32.8702 1.50258 32.6613 1.26939 32.5062 1.08894C32.4761 1.0513 32.4554 1.00697 32.4459 0.959683C32.4364 0.912393 32.4383 0.863514 32.4516 0.817137C32.4648 0.770761 32.489 0.728238 32.5221 0.693127C32.5552 0.658017 32.5962 0.631341 32.6417 0.615334L34.4953 0.0129804C34.5286 0.00188713 34.5638 -0.00216244 34.5987 0.0010887L37.7009 0.25961C37.8871 0.279774 37.9926 0.492795 37.9026 0.672725Z" fill="#EFAE59"/>
<g style="mix-blend-mode:overlay" opacity="0.4">
<path d="M37.9026 0.672725C37.9026 0.676862 37.8985 0.680998 37.8959 0.686686C37.7676 0.941587 37.5856 1.29886 37.3711 1.67889C36.9145 2.49271 36.3241 3.41201 35.8623 3.67157C35.1902 3.10282 36.9114 1.16185 36.5133 1.01759C35.4327 0.626709 33.7383 1.09567 33.1081 1.7611C32.8702 1.50258 32.6613 1.26939 32.5062 1.08894C32.4761 1.0513 32.4554 1.00697 32.4459 0.959683C32.4364 0.912393 32.4383 0.863513 32.4516 0.817137C32.4648 0.770761 32.489 0.728238 32.5221 0.693127C32.5552 0.658017 32.5962 0.631341 32.6417 0.615334L34.4953 0.0129804C34.5286 0.00188713 34.5638 -0.00216244 34.5987 0.0010887L37.7009 0.25961C37.8871 0.279774 37.9926 0.492795 37.9026 0.672725Z" fill="black"/>
</g>
<g style="mix-blend-mode:overlay" opacity="0.2">
<path d="M36.7368 1.06927C36.7549 0.832982 34.5807 0.41211 34.2348 0.991713C34.0487 1.30194 35.2306 2.55266 35.6825 2.40892C36.1344 2.26519 36.6913 1.66749 36.7368 1.06927Z" fill="black"/>
</g>
<g style="mix-blend-mode:overlay" opacity="0.3">
<path d="M28.4496 24.4897C28.5861 23.5332 31.2561 22.921 31.6692 22.921C32.0823 22.921 31.9991 24.9851 31.6692 25.4804C31.3393 25.9757 29.7701 26.8014 29.1926 26.8014C28.615 26.8014 28.3669 25.0678 28.4496 24.4897Z" fill="white"/>
</g>
<g style="mix-blend-mode:overlay" opacity="0.3">
<path d="M11.1126 27.8748C11.2749 28.6043 16.8093 27.8748 16.8093 26.8014C16.8093 25.728 13.9196 25.3976 13.2593 25.4804C12.5991 25.5631 10.9476 27.1318 11.1126 27.8748Z" fill="white"/>
</g>
<g style="mix-blend-mode:overlay" opacity="0.3">
<path d="M19.7814 34.8094C20.0058 34.1373 23.2487 32.415 23.9089 32.9931C24.5692 33.5711 23.001 36.4603 21.8449 36.6253C20.6888 36.7902 19.451 35.8001 19.7814 34.8094Z" fill="white"/>
</g>
<g style="mix-blend-mode:overlay" opacity="0.3">
<path d="M22.258 43.7252C22.288 43.5432 26.8809 43.7252 27.0458 44.4682C27.2107 45.2112 26.0551 46.8621 25.0645 46.8621C24.0738 46.8621 22.1753 44.2206 22.258 43.7252Z" fill="white"/>
</g>
<g style="mix-blend-mode:overlay" opacity="0.3">
<path d="M38.7688 34.5617C39.064 34.0447 42.5665 33.9009 42.5665 34.479C42.5665 35.057 39.5118 37.3682 39.0164 37.3682C38.5211 37.3682 38.4389 35.1392 38.7688 34.5617Z" fill="white"/>
</g>
<g style="mix-blend-mode:overlay" opacity="0.3">
<path d="M42.5664 15.9865C42.8141 15.9865 44.7954 16.8137 44.8781 17.6379C44.9608 18.462 43.6372 20.4444 42.8968 20.2794C42.1564 20.1145 40.8328 18.7107 40.8328 18.1332C40.8328 17.5557 41.9061 15.9865 42.5664 15.9865Z" fill="white"/>
</g>
<g style="mix-blend-mode:overlay" opacity="0.3">
<path d="M5.54765 31.2909C5.92993 31.2276 6.20032 30.9378 6.15158 30.6437C6.10284 30.3496 5.75342 30.1625 5.37114 30.2259C4.98885 30.2892 4.71847 30.579 4.76721 30.8731C4.81595 31.1672 5.16536 31.3543 5.54765 31.2909Z" fill="white"/>
</g>
<g style="mix-blend-mode:overlay" opacity="0.3">
<path d="M21.1869 17.8946C21.7312 17.8044 22.1162 17.392 22.0468 16.9733C21.9774 16.5547 21.4799 16.2885 20.9357 16.3787C20.3914 16.4689 20.0064 16.8814 20.0758 17.3C20.1452 17.7186 20.6426 17.9848 21.1869 17.8946Z" fill="white"/>
</g>
<g style="mix-blend-mode:overlay" opacity="0.2">
<path d="M33.3771 16.7414C33.222 18.7232 26.7109 17.4275 27.6762 15.6933C28.1932 14.7626 28.7387 14.1649 29.279 13.8206C29.544 13.7838 29.8114 13.7674 30.0789 13.7715C30.3558 13.7758 30.631 13.8154 30.8979 13.8894C30.9949 13.9165 31.0905 13.9486 31.1843 13.9855C31.3343 14.0437 31.4798 14.1128 31.6197 14.1923C31.87 14.3348 32.1055 14.5018 32.3229 14.6908C32.3291 14.6949 32.3342 14.7006 32.3399 14.7053C32.4252 14.7787 32.5111 14.8469 32.5984 14.909C32.7107 14.9911 32.828 15.0662 32.9495 15.1339C33.2525 15.6757 33.4154 16.2626 33.3771 16.7414Z" fill="black"/>
</g>
<path d="M28.5597 15.4188C27.5732 16.6359 30.7236 18.1478 32.0332 16.8898C33.3429 15.6318 30.2334 13.3506 28.5597 15.4188Z" fill="#934834"/>
<g style="mix-blend-mode:overlay" opacity="0.4">
<path d="M32.3247 16.0067C31.2022 16.776 29.1677 16.0108 28.8895 15.0791C28.7683 15.1815 28.6572 15.2953 28.5576 15.4188C27.571 16.6359 30.7214 18.1477 32.031 16.8898C32.3077 16.6245 32.3857 16.3143 32.3247 16.0067Z" fill="black"/>
</g>
<g style="mix-blend-mode:overlay" opacity="0.3">
<path d="M31.5527 15.6863C31.5978 15.4621 31.1958 15.1922 30.655 15.0835C30.1141 14.9749 29.6391 15.0686 29.594 15.2928C29.549 15.5171 29.9509 15.7869 30.4918 15.8956C31.0327 16.0043 31.5077 15.9106 31.5527 15.6863Z" fill="white"/>
</g>
<g style="mix-blend-mode:overlay" opacity="0.3">
<path d="M14.7178 40.5732C15.3463 40.469 15.8136 40.1297 15.7614 39.8153C15.7093 39.501 15.1576 39.3305 14.5291 39.4347C13.9006 39.5389 13.4334 39.8782 13.4855 40.1925C13.5376 40.5069 14.0893 40.6774 14.7178 40.5732Z" fill="white"/>
</g>
<g style="mix-blend-mode:overlay" opacity="0.3">
<path d="M32.481 38.5264C32.7012 38.6846 32.6955 39.0688 32.4691 39.3857C32.2426 39.7027 31.8796 39.8309 31.6594 39.6732C31.4391 39.5155 31.4443 39.1308 31.6713 38.8139C31.8983 38.4969 32.2607 38.3687 32.481 38.5264Z" fill="white"/>
</g>
<g style="mix-blend-mode:overlay" opacity="0.2">
<path d="M19.222 14.41C19.062 14.4692 18.9065 14.5397 18.7566 14.6209C18.4557 14.7807 18.1739 14.9663 17.8906 15.1442C17.3291 15.5061 16.7738 15.8649 16.1843 16.1121C16.0396 16.1739 15.8915 16.2274 15.7407 16.2723C15.5935 16.3172 15.4434 16.3517 15.2914 16.3758C15.0054 16.4261 14.7116 16.4094 14.4331 16.3272C14.1448 16.2335 13.8718 16.098 13.6229 15.9249C13.3571 15.7527 13.094 15.5531 12.8236 15.3562C12.5532 15.1592 12.2745 14.9601 11.9839 14.776C11.6918 14.5902 11.3885 14.4224 11.076 14.2735C10.7623 14.1247 10.4385 13.9984 10.107 13.8955C9.94105 13.8438 9.77457 13.7983 9.60601 13.759C9.51708 13.7378 9.4509 13.7244 9.378 13.7027C9.30509 13.6809 9.23426 13.6577 9.16394 13.6292C8.87568 13.5117 8.60607 13.3529 8.36356 13.1577C8.11308 12.9558 7.88137 12.7317 7.67124 12.4881C7.4543 12.2406 7.25345 11.9795 7.06992 11.7064C6.97582 11.5693 6.88637 11.4292 6.80003 11.287C6.71368 11.1448 6.62992 11.0001 6.55029 10.8517C6.64647 11.1752 6.76854 11.4904 6.91533 11.7943C7.06198 12.1018 7.23135 12.3981 7.42203 12.6805C7.61643 12.968 7.84031 13.2346 8.09004 13.4757C8.34719 13.7254 8.64207 13.933 8.96385 14.091C9.04554 14.1313 9.13085 14.1654 9.2172 14.198C9.30354 14.2306 9.39816 14.2569 9.47003 14.2792C9.62514 14.3267 9.78026 14.3764 9.92865 14.4343C10.2291 14.5462 10.5226 14.6759 10.8076 14.8226C11.3795 15.1157 11.91 15.4833 12.443 15.8789C12.7119 16.0748 12.9833 16.277 13.2791 16.4662C13.5846 16.6678 13.919 16.8217 14.2708 16.9228C14.278 16.9362 14.2847 16.9502 14.292 16.9642C14.3641 17.0941 14.448 17.2172 14.5427 17.3318C14.7353 17.5665 14.971 17.7622 15.2371 17.9083C15.51 18.0599 15.8163 18.1415 16.1285 18.1456C16.4356 18.1511 16.7364 18.0585 16.9873 17.8814C16.7124 17.8768 16.4388 17.8421 16.1714 17.778C15.9237 17.7134 15.6851 17.6182 15.461 17.4946C15.2301 17.367 15.0083 17.2236 14.7971 17.0655L14.7009 16.9931C14.9345 17.0102 15.1694 16.9928 15.3979 16.9414C15.5736 16.9032 15.7463 16.8527 15.915 16.7904C16.0807 16.7283 16.2428 16.6568 16.4005 16.5764C17.0256 16.2558 17.5617 15.8303 18.0767 15.4032C18.3352 15.1876 18.5875 14.9735 18.8523 14.7745C18.9825 14.674 19.1195 14.5827 19.2623 14.501C19.404 14.4154 19.5595 14.3552 19.7219 14.3231C19.5513 14.3207 19.3817 14.3501 19.222 14.41V14.41Z" fill="black"/>
</g>
<g style="mix-blend-mode:overlay" opacity="0.2">
<g style="mix-blend-mode:overlay">
<path d="M25.1375 16.7543C25.2326 16.8835 25.3331 17.008 25.4389 17.1276C25.5423 17.2475 25.6535 17.3623 25.7682 17.4704C25.9978 17.6855 26.247 17.884 26.521 18.0034C26.6517 18.0649 26.7914 18.105 26.9347 18.1224C27.0714 18.1373 27.2097 18.1223 27.34 18.0784C27.6499 17.9743 27.9655 17.888 28.2852 17.8199C28.6088 17.7501 28.9372 17.7049 29.2676 17.6844C29.6074 17.6615 29.9487 17.6813 30.2836 17.7434C30.6394 17.8057 30.9757 17.9502 31.2659 18.1653C31.4143 18.2785 31.5444 18.4138 31.6517 18.5665C31.678 18.6053 31.7034 18.6446 31.7271 18.6839L31.7447 18.7118L31.7546 18.7263C31.7602 18.7364 31.767 18.746 31.7747 18.7547C31.8024 18.7903 31.8377 18.8191 31.8781 18.839C31.9259 18.8633 31.9769 18.8807 32.0296 18.8907C32.0934 18.9028 32.1581 18.9099 32.223 18.9119C32.3693 18.914 32.5155 18.9052 32.6604 18.8855C32.9639 18.8488 33.2772 18.7857 33.5962 18.7335C33.9212 18.6759 34.2492 18.6371 34.5786 18.6172C34.9196 18.5951 35.2619 18.6222 35.5951 18.6978C35.9383 18.7767 36.2568 18.9386 36.5227 19.1694C36.7775 19.4 36.9807 19.682 37.1189 19.9966C37.1862 20.1476 37.2427 20.3031 37.2879 20.462C37.3342 20.6187 37.3711 20.7781 37.3986 20.9392C37.4527 21.258 37.4811 21.5806 37.4834 21.904L37.4353 21.6677L37.3836 21.434L37.3246 21.2019C37.3019 21.1259 37.2812 21.0468 37.2574 20.9738C37.1679 20.6741 37.0444 20.3856 36.8893 20.114C36.7437 19.8519 36.5451 19.623 36.3061 19.4419C36.189 19.3559 36.0621 19.2842 35.9281 19.2283C35.7931 19.1735 35.6528 19.1331 35.5093 19.1078C35.2128 19.0607 34.9113 19.0533 34.6128 19.0856C34.3077 19.1156 34.0006 19.1689 33.6898 19.2309C33.3791 19.2929 33.0637 19.3591 32.7318 19.4067C32.5596 19.4319 32.3856 19.4435 32.2116 19.4413C32.1163 19.4388 32.0214 19.4286 31.9278 19.4108C31.8232 19.3904 31.7224 19.3545 31.6284 19.3043C31.5263 19.2496 31.4368 19.174 31.3657 19.0825C31.3469 19.0605 31.3296 19.0372 31.314 19.0127L31.2768 18.9543L31.2251 18.8685C31.1483 18.7585 31.0556 18.6606 30.95 18.5779C30.7247 18.4071 30.4636 18.2897 30.1864 18.2346C29.892 18.1717 29.5912 18.1436 29.2903 18.1508C29.1352 18.1508 28.9832 18.1617 28.8286 18.1746C28.674 18.1875 28.5184 18.2056 28.3633 18.2294C28.053 18.2744 27.747 18.3375 27.4393 18.4109C27.2601 18.4542 27.0736 18.4579 26.8928 18.4217C26.7204 18.3866 26.555 18.3228 26.4037 18.233C26.1202 18.057 25.8699 17.8325 25.6643 17.5696C25.4587 17.3184 25.282 17.0449 25.1375 16.7543V16.7543Z" fill="black"/>
</g>
</g>
<g style="mix-blend-mode:overlay" opacity="0.2">
<g style="mix-blend-mode:overlay">
<path d="M6.05502 36.7891C6.02016 36.6116 6.01128 36.4299 6.02865 36.2498C6.04423 36.0661 6.08404 35.8853 6.14706 35.7121C6.21099 35.5307 6.30579 35.3617 6.42729 35.2126C6.5521 35.0548 6.71413 34.9305 6.89884 34.8507C7.0803 34.7767 7.27611 34.7445 7.47172 34.7566C7.51877 34.7566 7.5653 34.7649 7.61132 34.768C7.65734 34.7711 7.70232 34.7809 7.7473 34.7871C7.79217 34.7928 7.8367 34.8009 7.8807 34.8114C7.92465 34.8197 7.97067 34.8295 8.00996 34.8352C8.17249 34.868 8.34017 34.8655 8.50167 34.8279C8.66072 34.7895 8.81072 34.7203 8.94322 34.6242C9.07622 34.5269 9.20233 34.4205 9.32066 34.3057C9.44268 34.192 9.5678 34.0757 9.6981 33.9583C9.82979 33.8361 9.96786 33.721 10.1117 33.6134C10.2622 33.5007 10.4257 33.4066 10.5988 33.3332C10.9503 33.1853 11.3348 33.1332 11.713 33.1822C11.8945 33.2042 12.073 33.2458 12.2456 33.3063C12.3304 33.3363 12.4131 33.372 12.4948 33.4061C12.5765 33.4402 12.6545 33.4867 12.7311 33.5307L12.7171 33.5757C12.6282 33.5721 12.5413 33.5643 12.4586 33.5565L12.2001 33.5426C12.0347 33.5375 11.8692 33.5413 11.7042 33.554C11.3914 33.5766 11.0856 33.6575 10.8025 33.7923C10.5119 33.9351 10.2361 34.106 9.97885 34.3026C9.84132 34.406 9.70327 34.5094 9.55074 34.6067C9.39658 34.7051 9.23288 34.7877 9.06214 34.8533C8.71989 34.9818 8.35199 35.0272 7.98876 34.9856C7.94274 34.982 7.90293 34.981 7.86105 34.9784C7.81975 34.9753 7.77827 34.9753 7.73696 34.9784C7.50112 34.9909 7.27309 35.0672 7.07722 35.1992C6.95548 35.2796 6.84401 35.3746 6.74527 35.482C6.64329 35.5969 6.55497 35.7232 6.4821 35.8584C6.32691 36.1561 6.20003 36.4677 6.10311 36.7891H6.05502Z" fill="black"/>
</g>
</g>
<g style="mix-blend-mode:overlay" opacity="0.2">
<g style="mix-blend-mode:overlay">
<path d="M19.2224 23.3496C19.4509 23.5336 19.6553 23.7455 19.831 23.9804C20.0121 24.2172 20.164 24.475 20.2834 24.7482C20.4055 25.0284 20.4878 25.3242 20.5279 25.6272C20.5341 25.6649 20.5372 25.7032 20.5404 25.7414L20.5502 25.8531C20.5569 25.9219 20.5621 25.9912 20.5693 26.0599L20.5977 26.2668L20.6344 26.4679C20.7472 26.9989 20.969 27.4911 21.3319 27.8639C21.6949 28.2367 22.1649 28.5071 22.6762 28.715C22.9348 28.8184 23.1974 28.9109 23.4673 28.9978C23.7372 29.0846 24.0133 29.1668 24.2868 29.2516C24.5603 29.3364 24.8401 29.4192 25.1188 29.5174C25.2584 29.5691 25.398 29.6177 25.537 29.6761C25.6761 29.7346 25.8131 29.7992 25.9507 29.8736C26.2269 30.0206 26.4757 30.2143 26.6859 30.446C26.7887 30.5641 26.8798 30.6919 26.9579 30.8276C27.0327 30.9621 27.0952 31.1031 27.1445 31.249C27.2386 31.5332 27.2934 31.8289 27.3074 32.1279C27.3162 32.2748 27.3177 32.4211 27.3141 32.5669C27.3105 32.7127 27.2986 32.8575 27.2831 33.0017C27.2738 32.93 27.265 32.8582 27.2567 32.7861C27.2485 32.7148 27.236 32.6434 27.2257 32.5726C27.204 32.4304 27.1792 32.2893 27.1466 32.1507C27.0885 31.8771 26.9984 31.6112 26.8782 31.3586C26.8196 31.2369 26.7504 31.1207 26.6714 31.0111C26.5931 30.9046 26.5051 30.8054 26.4088 30.7149C26.3122 30.6264 26.2084 30.5462 26.0985 30.475C25.9853 30.4043 25.8675 30.3413 25.7459 30.2862C25.2527 30.0649 24.6968 29.9388 24.139 29.7883C23.8582 29.7134 23.5816 29.6332 23.2998 29.552C23.018 29.4709 22.7383 29.3716 22.4596 29.2604C22.1766 29.1459 21.9038 29.0075 21.6442 28.8468C21.378 28.6794 21.1361 28.476 20.9255 28.2424C20.8203 28.1234 20.7244 27.9965 20.6386 27.8629C20.5545 27.729 20.4814 27.5886 20.4199 27.443C20.2992 27.157 20.2178 26.8559 20.1779 26.548L20.1531 26.321L20.1407 26.0946V25.6639C20.1378 25.528 20.1248 25.3925 20.1019 25.2585C20.0805 25.1227 20.0505 24.9883 20.0119 24.8563C19.847 24.3084 19.579 23.797 19.2224 23.3496V23.3496Z" fill="black"/>
</g>
</g>
<g style="mix-blend-mode:overlay" opacity="0.2">
<path d="M29.1958 38.0042C29.1058 38.0331 29.0179 38.0662 28.929 38.0993C28.84 38.1324 28.7552 38.1722 28.6704 38.2105C28.3276 38.3698 28.0022 38.5642 27.6995 38.7906C27.4961 38.9408 27.3049 39.1068 27.1276 39.2869C27.2553 38.929 27.3648 38.5649 27.4559 38.196C27.579 37.7013 27.6717 37.1995 27.7336 36.6935C27.7615 36.4401 27.7853 36.1868 27.7915 35.9319C27.8031 35.6775 27.7898 35.4226 27.7517 35.1708C27.7471 35.2965 27.7362 35.422 27.7191 35.5467C27.7041 35.6713 27.6844 35.7954 27.6622 35.9184C27.6167 36.165 27.5666 36.4101 27.5071 36.6531C27.3939 37.1402 27.2538 37.6205 27.1012 38.0946C26.9504 38.5667 26.7752 39.0306 26.5764 39.4845C26.4756 39.7083 26.3696 39.9291 26.2492 40.1385C26.1357 40.3462 26.0022 40.5422 25.8505 40.7238C25.7047 40.897 25.532 41.0439 25.3614 41.0971C25.2807 41.1244 25.194 41.1286 25.1111 41.109C25.0896 41.1043 25.0685 41.0977 25.0481 41.0894C25.0362 41.0847 25.0294 41.0837 25.0134 41.0764L24.9653 41.0568C24.9012 41.0304 24.8361 41.0087 24.7709 40.988C24.5153 40.9107 24.2519 40.8618 23.9855 40.8422C23.7261 40.8218 23.4657 40.8182 23.2058 40.8313C22.6943 40.8586 22.1859 40.9277 21.6857 41.0382C21.1892 41.1444 20.7011 41.2865 20.2251 41.4632C20.7246 41.382 21.223 41.3122 21.7214 41.2651C21.846 41.2522 21.9706 41.2429 22.0947 41.2315C22.2188 41.2202 22.3434 41.214 22.468 41.2093C22.7162 41.2005 22.9639 41.1912 23.21 41.2C23.7001 41.2134 24.1924 41.2589 24.6318 41.411C24.6866 41.4301 24.7399 41.4513 24.7921 41.4735L24.8309 41.4906L24.8826 41.5123C24.9205 41.5281 24.9596 41.5408 24.9995 41.5506C25.1623 41.5928 25.3336 41.5896 25.4948 41.5412C25.6426 41.4948 25.7804 41.4212 25.9012 41.3241C26.0123 41.2363 26.1145 41.1378 26.2062 41.0299C26.4335 40.7518 26.6256 40.4466 26.7781 40.1215C26.8257 40.0811 26.8732 40.0408 26.9198 40.0005C26.9916 39.9446 27.0619 39.8872 27.1312 39.8298C27.4115 39.6029 27.6917 39.3805 27.9807 39.1675C28.2697 38.9545 28.5588 38.7404 28.8545 38.5295C29.1503 38.3185 29.4491 38.1076 29.7511 37.8759C29.5624 37.9012 29.3764 37.9441 29.1958 38.0042V38.0042Z" fill="black"/>
</g>
<g style="mix-blend-mode:soft-light" opacity="0.2">
<g style="mix-blend-mode:soft-light">
<path d="M35.5719 25.8196C35.5937 26.0026 35.618 26.1815 35.6485 26.3645C35.679 26.5476 35.7095 26.7265 35.7467 26.9033C35.7839 27.0801 35.8237 27.259 35.8687 27.4343C35.9137 27.6096 35.9659 27.7828 36.0238 27.9513C36.1311 28.2879 36.2765 28.611 36.4571 28.9146C36.5443 29.0582 36.6473 29.1915 36.7642 29.3122C36.8744 29.4247 37.0023 29.5185 37.1427 29.5898L37.2461 29.6322C37.2808 29.6462 37.3185 29.6514 37.3542 29.6622C37.39 29.6728 37.427 29.6792 37.4643 29.6814C37.502 29.686 37.5341 29.6912 37.5894 29.6969L37.7399 29.7134L37.8857 29.7398C37.9374 29.7481 37.9819 29.7589 38.0289 29.7703L38.1701 29.8044C38.5327 29.9049 38.8893 30.0257 39.2383 30.1663C39.928 30.4373 40.594 30.7351 41.2687 30.9843C41.6008 31.1103 41.9396 31.2176 42.2836 31.3059C42.615 31.3952 42.956 31.4436 43.2991 31.4502C43.6215 31.4574 43.9408 31.3864 44.2298 31.2433L44.3332 31.1829C44.351 31.1736 44.3682 31.1635 44.3849 31.1523L44.4314 31.1156L44.5261 31.0433C44.5555 31.0169 44.5829 30.9869 44.6119 30.9595C44.6408 30.9321 44.6703 30.9078 44.6987 30.8726L44.7841 30.7744C44.813 30.7423 44.8384 30.7072 44.8658 30.671C44.8932 30.6348 44.92 30.6038 44.9449 30.5676C45.1521 30.2824 45.3307 29.9774 45.4779 29.6571L45.7106 29.1592C45.7905 28.9842 45.8853 28.8164 45.9939 28.6576C46.1054 28.4914 46.2531 28.3524 46.4257 28.2512C46.5984 28.1499 46.7918 28.089 46.9913 28.0728C47.0856 28.0629 47.1804 28.0581 47.2752 28.0584C47.3688 28.0625 47.4623 28.0641 47.5544 28.0754C47.7382 28.095 47.9207 28.1254 48.1009 28.1664C47.9168 28.1613 47.7338 28.1525 47.5523 28.1664C47.4613 28.1664 47.3713 28.1783 47.2819 28.1866C47.1938 28.1981 47.1065 28.2145 47.0203 28.2357C46.8534 28.2744 46.6955 28.3446 46.5549 28.4425C46.4232 28.5436 46.3144 28.6713 46.2354 28.8174C46.1519 28.9711 46.0808 29.1312 46.0229 29.2962C45.9603 29.4647 45.8988 29.6379 45.8321 29.8132C45.7001 30.1711 45.5297 30.5137 45.3239 30.8349C45.2985 30.8757 45.2721 30.915 45.2422 30.9543C45.2122 30.9936 45.1879 31.0345 45.1574 31.0722L45.0684 31.187C45.04 31.2253 45.0012 31.263 44.9676 31.3013C44.934 31.3395 44.8988 31.3778 44.8616 31.4135L44.7427 31.5169L44.6832 31.5686C44.6631 31.5851 44.6403 31.598 44.6186 31.613L44.4873 31.6989C44.4433 31.7278 44.3947 31.7475 44.3487 31.7718L44.2784 31.8069C44.2553 31.8191 44.2313 31.8293 44.2065 31.8374C44.1105 31.8763 44.0116 31.908 43.9108 31.932C43.8591 31.9439 43.8105 31.9569 43.7603 31.9672L43.6093 31.9889C43.5093 32.0019 43.4087 32.0099 43.3079 32.0127C43.2076 32.0163 43.1088 32.0127 43.0096 32.0086C42.9103 32.0044 42.8136 31.9931 42.7169 31.9801C42.5257 31.9553 42.3359 31.9208 42.1482 31.8767C41.7812 31.7865 41.4199 31.6748 41.066 31.5422C40.716 31.4114 40.3732 31.2697 40.0319 31.1244L39.0263 30.688C38.6938 30.5464 38.3598 30.4125 38.0274 30.307C37.8656 30.2558 37.7002 30.2169 37.5326 30.1906L37.3857 30.1648C37.332 30.1568 37.279 30.1442 37.2275 30.1271C37.1758 30.1095 37.1241 30.096 37.0724 30.0754L36.9266 30.0055C36.7445 29.9015 36.5819 29.7664 36.4462 29.6064C36.3171 29.4549 36.2067 29.2884 36.1174 29.1105C35.9476 28.7691 35.8217 28.4076 35.7425 28.0346C35.6641 27.6707 35.6107 27.3019 35.5828 26.9307C35.5547 26.561 35.5511 26.1898 35.5719 25.8196V25.8196Z" fill="black"/>
</g>
</g>
<g style="mix-blend-mode:overlay" opacity="0.2">
<path d="M49.1865 20.5468C49.1777 20.3493 49.1658 20.1528 49.1524 19.9574C49.1203 19.5093 49.0746 19.0682 49.0153 18.6342C48.9988 18.5169 48.9817 18.399 48.9636 18.2827C48.9209 18.0097 48.8716 17.7398 48.8158 17.473C48.8068 17.4285 48.7975 17.3846 48.7878 17.3411C48.7248 17.0488 48.6539 16.7612 48.5753 16.4782C48.5402 16.3536 48.504 16.2295 48.4652 16.1064C48.4461 16.0433 48.4259 15.9798 48.4052 15.9167C48.3442 15.7285 48.2791 15.5422 48.2098 15.3577C48.186 15.2967 48.1627 15.2357 48.139 15.1752C48.1198 15.1266 48.1007 15.0791 48.0816 15.032C48.0019 14.8383 47.9177 14.6472 47.8287 14.4586C47.8008 14.4002 47.7724 14.3418 47.7439 14.2839C47.7155 14.2259 47.686 14.168 47.6566 14.1112C47.6271 14.0543 47.5976 13.9969 47.5661 13.94C47.5056 13.8268 47.442 13.7141 47.3768 13.6029C47.3117 13.4917 47.2491 13.3889 47.1819 13.2839C47.1075 13.166 47.0304 13.05 46.9508 12.9359C46.8819 12.8356 46.8103 12.7367 46.7362 12.6391C46.7068 12.6004 46.6778 12.5616 46.6478 12.5233C46.6349 12.5052 46.6199 12.4866 46.6059 12.4685L46.5186 12.3584C46.4606 12.2867 46.4007 12.215 46.3386 12.1433L46.2466 12.0368C46.1184 11.8903 45.9844 11.7472 45.8448 11.6076C45.7988 11.5611 45.7518 11.5151 45.7047 11.4696C45.6577 11.4241 45.6091 11.3781 45.561 11.3331C45.5129 11.2881 45.4633 11.2431 45.4136 11.1987C45.364 11.1542 45.3138 11.1108 45.2627 11.0673C45.2115 11.0239 45.1706 10.9893 45.1236 10.9505C45.1179 10.9451 45.1119 10.9401 45.1055 10.9355C45.0021 10.851 44.8978 10.7688 44.7927 10.6889C44.7373 10.6465 44.6815 10.6051 44.6251 10.5643C44.5688 10.5234 44.5135 10.4841 44.4561 10.4448C44.3987 10.4055 44.3423 10.3667 44.2844 10.328C43.7053 10.4872 43.1102 10.6191 42.5497 10.7525L42.5735 10.7685H42.5658C41.571 11.0027 40.6853 11.2416 40.1925 11.6475C40.0038 11.8026 39.7924 11.9763 39.5618 12.1598C39.3482 12.33 39.1186 12.5078 38.8756 12.6867C38.6802 12.8294 38.477 12.9726 38.266 13.1112C38.0329 13.2663 37.7909 13.4142 37.5422 13.5528C36.5484 14.107 35.4508 14.4917 34.3882 14.3464C34.3365 14.3392 34.2848 14.3309 34.2305 14.3211C34.1375 14.3035 34.0444 14.2823 33.9524 14.2565C33.7094 14.1876 33.4755 14.0903 33.2554 13.9664C33.134 13.8985 33.0168 13.8234 32.9043 13.7415C32.8182 13.6787 32.732 13.6098 32.6458 13.5347C32.6401 13.53 32.6344 13.5243 32.6287 13.5202C32.4116 13.3309 32.1762 13.1636 31.9261 13.0207C31.7861 12.9414 31.6406 12.8723 31.4907 12.8139C31.3946 12.7762 31.2994 12.7446 31.2048 12.7177C30.9378 12.6434 30.6624 12.6035 30.3853 12.5988C30.1178 12.5949 29.8505 12.6111 29.5854 12.6474C28.8445 12.7415 28.0964 12.9318 27.2691 12.8894C26.9181 12.8722 26.5706 12.8107 26.235 12.7064C25.9072 12.6031 25.5917 12.4644 25.294 12.2927C22.2951 10.5839 23.5934 7.40927 20.1236 7.99404C18.7984 8.2174 18.0554 7.28311 17.648 6.04273C17.4879 5.53844 17.373 5.02091 17.3047 4.49626C17.2597 4.17724 17.2281 3.86029 17.2059 3.55627L17.0896 3.59092L16.9732 3.62452C16.8429 3.6633 16.7147 3.70156 16.5824 3.73827L16.3719 3.79825L16.1532 3.85874C16.0053 3.90011 15.8573 3.94026 15.7091 3.97921C15.616 4.003 15.5224 4.0273 15.4288 4.05057H15.4206C15.3239 4.07487 15.2277 4.09813 15.1305 4.1214H15.1269C15.0286 4.14467 14.9304 4.16793 14.8322 4.18965C5.66399 6.23972 1.71379 16.4384 1.0406 25.97C0.559234 32.7903 4.56941 37.2121 7.33196 42.3804C10.124 47.5994 18.2157 49.2571 24.9812 49.9111C34.9642 50.8733 40.0498 43.3064 46.0847 36.1914C48.5919 33.235 48.4771 29.5324 48.9223 25.97C49.1549 24.1216 49.2651 22.2913 49.1865 20.5468ZM47.4699 28.0734C47.4668 28.107 47.4632 28.1411 47.4606 28.1768C47.1783 31.0655 46.7553 33.5359 46.199 33.5731C44.9581 33.6553 39.842 43.6446 37.9429 43.7273C36.0438 43.81 31.1733 49.7534 29.6878 48.846C28.2024 47.9386 22.9182 48.5161 18.3775 47.8559C13.8369 47.1956 9.61936 42.4823 8.22334 41.5811C5.66451 39.9302 5.41684 34.3161 2.77476 30.1886C0.132677 26.061 3.60202 19.2092 4.0958 16.1545C4.33829 14.6613 5.4277 12.8925 6.71048 11.329L6.77511 11.2514C8.10132 9.64858 9.61884 8.27376 10.6172 7.65124C11.8954 6.85293 14.3399 5.47088 16.5793 4.72272C16.5855 4.78011 16.9929 8.61191 19.0352 8.61398C21.0935 8.61398 22.7956 12.029 24.853 13.0895C26.9103 14.1499 30.4401 12.9189 33.4358 15.0977C36.4316 17.2765 39.676 12.1609 41.1444 11.9861C41.8057 11.9075 42.7648 11.6981 43.6262 11.4272C45.836 12.9235 47.6912 17.4569 47.851 19.371C47.9399 20.4506 47.8086 24.5544 47.4699 28.0734V28.0734Z" fill="black"/>
</g>
<g style="mix-blend-mode:overlay" opacity="0.2">
<path d="M49.1866 20.5468C49.1778 20.3493 49.1659 20.1528 49.1525 19.9573C49.1204 19.5092 49.0747 19.0682 49.0154 18.6342C48.9989 18.5169 48.9818 18.399 48.9637 18.2826C48.921 18.0096 48.8717 17.7397 48.8159 17.473C48.8069 17.4285 48.7976 17.3845 48.7879 17.3411C48.7249 17.0488 48.654 16.7612 48.5754 16.4782C48.5403 16.3536 48.5041 16.2295 48.4653 16.1064C48.4462 16.0433 48.426 15.9797 48.4053 15.9167C48.3443 15.7285 48.2792 15.5421 48.2099 15.3577C48.1861 15.2967 48.1628 15.2357 48.139 15.1752C48.1199 15.1266 48.1008 15.0791 48.0817 15.032C48.002 14.8383 47.9178 14.6471 47.8288 14.4586C47.8009 14.4002 47.7725 14.3417 47.744 14.2838C47.7156 14.2259 47.6861 14.168 47.6567 14.1111C47.6272 14.0543 47.5977 13.9969 47.5662 13.94C47.5346 13.8831 47.4964 13.8107 47.4591 13.7466C47.4323 13.6985 47.4074 13.6505 47.3769 13.6029C47.3185 13.5031 47.258 13.4038 47.196 13.3061C47.1215 13.1882 47.0446 13.0724 46.9654 12.9587C46.895 12.8553 46.8237 12.7591 46.7508 12.6608C46.7213 12.6221 46.6924 12.5833 46.6624 12.545C46.6495 12.5269 46.635 12.5088 46.6205 12.4902C46.5921 12.454 46.5631 12.4168 46.5336 12.3806C46.4742 12.3077 46.4142 12.2364 46.3537 12.165C46.3237 12.1298 46.2927 12.0942 46.2612 12.0585C46.1329 11.9117 45.999 11.769 45.8605 11.6288C45.8144 11.5823 45.7674 11.5363 45.7203 11.4908C45.6733 11.4453 45.6252 11.3987 45.5766 11.3538C45.528 11.3088 45.4789 11.2638 45.4298 11.2193C45.3806 11.1749 45.33 11.1314 45.2788 11.0875C45.2276 11.0435 45.1867 11.0099 45.1397 10.9712C45.1339 10.9659 45.1279 10.9608 45.1216 10.9562C45.087 10.9272 45.0518 10.8983 45.0182 10.8708C44.9492 10.8154 44.8803 10.7614 44.8114 10.709C44.756 10.6666 44.7002 10.6247 44.6439 10.5844C44.5875 10.5441 44.5322 10.5043 44.4748 10.4645C44.4174 10.4246 44.361 10.3859 44.3031 10.3471C43.724 10.5063 43.1289 10.6371 42.5684 10.77C41.5731 11.0042 40.6874 11.2431 40.1947 11.649C40.006 11.8041 39.795 11.9778 39.5639 12.1614C39.3504 12.332 39.1208 12.5094 38.8773 12.6882C38.6824 12.8304 38.4792 12.9742 38.2687 13.1127C38.0345 13.2679 37.793 13.4157 37.5449 13.5538C36.5516 14.1086 35.4534 14.4932 34.3909 14.348C34.3392 14.3407 34.2875 14.3324 34.2332 14.3226C34.1407 14.3056 34.0476 14.2838 33.955 14.258C33.712 14.1891 33.4778 14.0917 33.2576 13.9679C33.1361 13.9002 33.019 13.8249 32.907 13.7425C32.8207 13.6805 32.7348 13.6122 32.6485 13.5388C32.6428 13.5341 32.6376 13.5284 32.6314 13.5243C32.4143 13.3352 32.1789 13.168 31.9288 13.0254C31.7889 12.9458 31.6434 12.8767 31.4934 12.8185C31.3996 12.7818 31.304 12.7499 31.207 12.7229C30.9404 12.6482 30.6653 12.608 30.3885 12.6035C30.1209 12.5992 29.8533 12.6155 29.5881 12.6521C28.8472 12.7456 28.099 12.9364 27.2718 12.894C26.9207 12.8768 26.5733 12.8153 26.2377 12.711V12.711C25.9101 12.6076 25.5948 12.4689 25.2972 12.2974C22.2983 10.5911 23.5966 7.41442 20.1268 7.9992C18.8016 8.22256 18.0586 7.28878 17.6512 6.04788C17.491 5.54345 17.3761 5.02574 17.3079 4.5009C17.2629 4.1824 17.2313 3.86545 17.2091 3.56091L17.0928 3.59555L17.0674 3.60331H17.0648C17.0276 3.61417 16.9904 3.62554 16.9526 3.63588C16.8227 3.67483 16.6926 3.71292 16.5623 3.75015L16.3518 3.81013C16.1388 3.8701 15.9258 3.92819 15.7128 3.98437C15.6197 4.00815 15.5261 4.03246 15.4325 4.05572H15.4243C15.3276 4.08002 15.2314 4.10329 15.1342 4.12656H15.1306C15.0324 4.14982 14.9341 4.17309 14.8359 4.19481C12.9213 4.61809 11.1188 5.44401 9.54809 6.61766C9.44469 6.69367 9.34438 6.77278 9.24459 6.8493C8.97745 7.05956 8.71772 7.27879 8.46541 7.50698C8.4137 7.55196 8.362 7.59849 8.31443 7.64451C8.21481 7.73758 8.11606 7.83168 8.01816 7.92681C4.40042 11.4541 2.33846 16.8349 1.45536 22.3637C1.44295 22.4381 1.43105 22.5126 1.4202 22.588C1.40985 22.6511 1.40055 22.7137 1.39124 22.7773C1.35677 23.0131 1.32368 23.2492 1.29197 23.4856C1.28473 23.5373 1.27801 23.5937 1.27129 23.648C1.25733 23.7555 1.2444 23.8631 1.23147 23.9711C1.21389 24.1169 1.19666 24.2626 1.17977 24.408C1.12358 24.9323 1.07688 25.4552 1.03965 25.9767C1.00191 26.5067 0.992084 27.0222 1.00604 27.5253C1.01277 27.759 1.02466 27.9906 1.04224 28.2202C1.33851 32.2236 3.17762 35.4071 5.09636 38.5714L5.25147 38.8257C5.96396 39.9989 6.68264 41.1721 7.33205 42.3871C7.84117 43.324 8.51112 44.1641 9.31129 44.8689C9.48019 45.0209 9.65512 45.1683 9.83608 45.311C12.7972 47.6589 17.2391 48.8548 21.5869 49.5047C21.7012 49.5218 21.8149 49.5388 21.9292 49.5564C22.0843 49.5792 22.2394 49.6009 22.3945 49.6221C23.2688 49.7395 24.1354 49.8372 24.9797 49.9184C26.2774 50.05 27.5861 50.0268 28.8782 49.8491C29.0033 49.8305 29.1279 49.8118 29.2515 49.7912H29.2613C29.3875 49.7694 29.5137 49.7472 29.6388 49.7224C29.949 49.6624 30.2529 49.5935 30.5503 49.5156C34.9043 48.3745 38.2206 45.357 41.3668 41.7972C41.5464 41.5948 41.7248 41.391 41.902 41.1855C43.2939 39.5775 44.6619 37.8765 46.0833 36.2023C47.1013 35.0012 47.6861 33.6765 48.0543 32.2893C48.0682 32.2376 48.0817 32.1823 48.0956 32.129C48.1096 32.0758 48.122 32.022 48.1349 31.9677C48.1499 31.9046 48.1649 31.8421 48.1783 31.779C48.1887 31.734 48.199 31.6895 48.2083 31.644C48.2176 31.5985 48.2285 31.552 48.2378 31.5055C48.2487 31.4512 48.26 31.3969 48.2704 31.3426C48.2807 31.2883 48.2916 31.2335 48.3019 31.1792C48.3226 31.0717 48.3412 30.9636 48.3598 30.8555C48.3696 30.7992 48.379 30.7433 48.3877 30.687C48.4053 30.5767 48.4226 30.4664 48.4394 30.3561C48.456 30.246 48.471 30.1353 48.486 30.0247C48.501 29.914 48.5139 29.8111 48.5268 29.7041C48.5372 29.6255 48.5465 29.5459 48.5558 29.4663L48.5713 29.3349C48.5899 29.1679 48.608 28.9999 48.623 28.8324C48.7218 27.8831 48.8009 26.9271 48.9187 25.9809C49.155 24.1216 49.2652 22.2913 49.1866 20.5468ZM44.7188 30.8493C44.6351 31.1406 44.5489 31.4284 44.4603 31.7128C43.4609 34.9009 42.1259 37.5854 40.7505 38.5238C37.3649 40.836 34.5574 46.7799 30.7613 46.6129C26.9652 46.4459 15.4051 45.0447 12.7641 42.6503C10.123 40.2559 2.77485 32.084 3.84771 25.8935C4.1507 24.1469 4.26961 22.5994 4.33993 21.2251C4.41645 19.7164 4.43455 18.4181 4.57363 17.3013C4.75666 15.8277 5.14807 14.6696 6.1594 13.759C6.53322 13.4235 6.92876 13.0186 7.3486 12.5724C7.41581 12.5006 7.50991 12.4452 7.55231 12.3537C9.49018 8.14862 14.9005 6.03134 16.6062 4.7377C16.9247 5.69113 18.0121 7.9506 18.8409 8.20757C20.5471 8.73702 21.1345 7.79393 21.8397 8.6212C22.545 9.44847 23.1923 12.5026 25.6038 12.8558C28.0153 13.2089 29.4263 12.6205 30.6615 13.0321C31.8967 13.4436 33.4065 14.212 35.0134 14.7962C36.9539 15.502 40.1296 10.9737 43.6584 11.3838C44.9251 12.3884 42.9392 13.8873 43.9536 15.1065C44.0915 15.274 44.2263 15.4448 44.3579 15.6188C44.5596 15.8908 44.7493 16.171 44.9236 16.4601C45.2408 16.9799 45.5009 17.5326 45.6991 18.1084C45.7302 18.1984 45.7593 18.2894 45.7865 18.3814C45.8186 18.4879 45.8485 18.5965 45.876 18.7102C46.0307 19.3856 46.1211 20.0741 46.1458 20.7665V20.7665C46.2808 23.6221 45.695 27.4488 44.7188 30.8493Z" fill="black"/>
</g>
<path d="M33.7094 6.69729L34.2812 5.96877C34.289 5.93483 34.3067 5.90395 34.332 5.88002C34.3573 5.8561 34.3891 5.8402 34.4234 5.83434L35.4684 5.35763C35.4927 5.35337 35.5176 5.35425 35.5415 5.36021C35.5655 5.36616 35.5879 5.37707 35.6074 5.39221C35.6269 5.40736 35.643 5.42641 35.6546 5.44815C35.6663 5.46989 35.6733 5.49383 35.6752 5.51843L35.7641 6.72314C35.766 6.74735 35.7628 6.77169 35.7548 6.79462C35.7468 6.81755 35.7341 6.83859 35.7176 6.8564C35.7011 6.87422 35.6811 6.88843 35.6589 6.89815C35.6366 6.90787 35.6126 6.91289 35.5883 6.91289C34.9885 7.13419 34.4162 7.16159 33.8821 6.91289C33.8555 6.91292 33.8293 6.90697 33.8054 6.8955C33.7815 6.88402 33.7605 6.86732 33.7439 6.84661C33.7273 6.8259 33.7156 6.80173 33.7096 6.77588C33.7036 6.75003 33.7036 6.72317 33.7094 6.69729Z" fill="#EFAE59"/>
<g style="mix-blend-mode:overlay" opacity="0.2">
<path d="M35.6747 5.51794C35.6728 5.49334 35.6658 5.4694 35.6541 5.44766C35.6424 5.42592 35.6264 5.40687 35.6069 5.39172C35.5874 5.37658 35.565 5.36568 35.541 5.35972C35.5171 5.35377 35.4921 5.35289 35.4678 5.35714L34.4229 5.83385C34.3886 5.83971 34.3567 5.85561 34.3314 5.87954C34.3061 5.90346 34.2885 5.93434 34.2807 5.96828L33.7094 6.69731C33.7036 6.72316 33.7036 6.74997 33.7096 6.77578C33.7155 6.80159 33.7272 6.82574 33.7437 6.84644C33.7603 6.86713 33.7812 6.88385 33.8051 6.89536C33.8289 6.90687 33.8551 6.91287 33.8816 6.91292C34.4157 7.16162 34.988 7.13421 35.5878 6.91292C35.6121 6.91292 35.6361 6.9079 35.6584 6.89818C35.6806 6.88846 35.7006 6.87425 35.7171 6.85643C35.7336 6.83862 35.7463 6.81758 35.7543 6.79465C35.7623 6.77172 35.7654 6.74738 35.7636 6.72317L35.6747 5.51794ZM34.1313 6.55926C34.6013 5.73613 35.4839 5.97139 35.5423 6.38295C35.6007 6.79452 33.9534 6.87001 34.1313 6.55926Z" fill="black"/>
</g>
<path d="M19.7815 3.73616C20.0369 2.8422 21.7219 3.26565 21.7219 3.91299C21.7219 4.56032 20.7225 5.55925 20.4872 5.50082C20.252 5.4424 19.5462 4.55981 19.7815 3.73616Z" fill="#EFAE59"/>
<g style="mix-blend-mode:overlay" opacity="0.2">
<path d="M19.7815 3.73625C19.5462 4.5599 20.252 5.44249 20.4872 5.50091C20.7225 5.55934 21.7219 4.5599 21.7219 3.91308C21.7219 3.26626 20.0369 2.84229 19.7815 3.73625ZM20.4872 4.79515C20.0736 4.67727 20.0736 4.03045 20.1341 3.79519C20.1946 3.55994 21.1341 3.61888 21.2519 3.85414C21.3698 4.08939 20.6661 4.84634 20.4872 4.79515V4.79515Z" fill="black"/>
</g>
</g>
<defs>
<clipPath id="clip0_577_447">
<rect width="50" height="50" fill="white"/>
</clipPath>
</defs>
</svg>
