<svg width="24" height="24" viewBox="0 0 24 24" fill="none" xmlns="http://www.w3.org/2000/svg">
<ellipse cx="11.5" cy="12.5" rx="9.5" ry="8.5" fill="#1C0B24"/>
<path d="M14.3689 12.6688C14.2903 12.586 14.1916 12.5251 14.0825 12.4919C13.9733 12.4587 13.8574 12.4544 13.746 12.4794C13.6347 12.5043 13.5317 12.5578 13.4472 12.6344C13.3626 12.711 13.2994 12.8083 13.2637 12.9167C13.2072 13.0696 13.0972 13.1969 12.9541 13.275C12.811 13.3531 12.6444 13.3767 12.4853 13.3414C11.7763 13.1646 10.821 12.2361 10.6442 11.5019C10.601 11.3422 10.621 11.172 10.7001 11.0267C10.7793 10.8815 10.9114 10.7723 11.0689 10.7219C11.1753 10.6861 11.2708 10.6237 11.3463 10.5407C11.4218 10.4576 11.4748 10.3566 11.5003 10.2473C11.5257 10.138 11.5228 10.0239 11.4918 9.91605C11.4608 9.80817 11.4028 9.71 11.3232 9.63087L10.3316 8.63929C10.2013 8.51957 10.0309 8.45312 9.85394 8.45312C9.67703 8.45312 9.50656 8.51957 9.37631 8.63929L8.70368 9.31508C8.03105 10.0225 8.77473 11.8982 10.4405 13.5625C12.1063 15.2267 13.9789 16.0035 14.6863 15.2993L15.3589 14.6267C15.4764 14.4969 15.5415 14.328 15.5415 14.153C15.5415 13.9779 15.4764 13.8091 15.3589 13.6793L14.3689 12.6688Z" fill="white"/>
<path d="M12 0C9.62663 0 7.30655 0.703788 5.33316 2.02236C3.35977 3.34094 1.8217 5.21509 0.913451 7.4078C0.00519938 9.60051 -0.232441 12.0133 0.230582 14.3411C0.693605 16.6689 1.83649 18.8071 3.51472 20.4853C5.19295 22.1635 7.33115 23.3064 9.65892 23.7694C11.9867 24.2324 14.3995 23.9948 16.5922 23.0866C18.7849 22.1783 20.6591 20.6402 21.9776 18.6668C23.2962 16.6935 24 14.3734 24 12C24 8.8174 22.7357 5.76516 20.4853 3.51472C18.2348 1.26428 15.1826 0 12 0V0ZM12 18.3158C10.7645 18.3181 9.55595 17.955 8.52632 17.2721L6.09948 18.0489L6.88895 15.7026C6.20698 14.7602 5.79853 13.6478 5.70865 12.488C5.61878 11.3282 5.85096 10.1661 6.37961 9.12983C6.90826 8.09361 7.71282 7.22351 8.70457 6.61552C9.69632 6.00752 10.8367 5.68523 12 5.68421C13.6751 5.68421 15.2815 6.34962 16.4659 7.53406C17.6504 8.7185 18.3158 10.3249 18.3158 12C18.3158 13.6751 17.6504 15.2815 16.4659 16.4659C15.2815 17.6504 13.6751 18.3158 12 18.3158Z" fill="#F8F8F8"/>
</svg>
