<svg width="222" height="222" viewBox="0 0 222 222" fill="none" xmlns="http://www.w3.org/2000/svg">
<path d="M221.239 111.019C221.239 132.817 214.775 154.126 202.665 172.251C190.554 190.376 173.341 204.503 153.202 212.845C133.064 221.187 110.903 223.371 89.5233 219.119C68.1435 214.867 48.5047 204.371 33.0902 188.958C17.6756 173.544 7.17767 153.907 2.92377 132.527C-1.33013 111.148 0.851083 88.9873 9.1916 68.8476C17.5321 48.7078 31.6573 31.4936 49.7811 19.3816C67.9049 7.26953 89.2133 0.803706 111.012 0.801696C125.503 0.742543 139.862 3.55294 153.261 9.07079C166.661 14.5886 178.835 22.7047 189.082 32.951C199.33 43.1973 207.447 55.3709 212.966 68.7698C218.485 82.1688 221.297 96.5278 221.239 111.019Z" fill="#DF8943"/>
<path d="M111.013 222C85.3849 222.002 60.5456 213.137 40.7108 196.909C20.8759 180.68 7.26766 158.088 2.1957 132.968C-2.87627 107.847 0.900569 81.7447 12.8852 59.0918C24.8698 36.4389 44.3237 18.6309 67.9451 8.69034C91.5664 -1.25023 117.9 -2.7109 142.476 4.55625C167.052 11.8234 188.356 27.3706 202.772 48.5591C217.189 69.7475 223.829 95.2717 221.566 120.799C219.304 146.327 208.278 170.286 190.359 188.608C180.051 199.214 167.714 207.637 154.082 213.373C140.45 219.11 125.803 222.044 111.013 222ZM111.013 1.56541C89.3679 1.56944 68.2103 7.9914 50.2151 20.0193C32.22 32.0472 18.1953 49.1409 9.91454 69.1391C1.63376 89.1372 -0.531296 111.142 3.69312 132.37C7.91754 153.599 18.3417 173.098 33.6476 188.403C48.9535 203.707 68.4537 214.129 89.6827 218.352C110.912 222.574 132.916 220.407 152.913 212.124C172.911 203.842 190.003 189.816 202.029 171.819C214.056 153.823 220.476 132.665 220.478 111.02C220.445 81.9991 208.902 54.1761 188.38 33.656C167.858 13.136 140.034 1.59501 111.013 1.56541Z" fill="#24071D"/>
<path d="M149.72 91.5424C150.178 91.4522 150.645 91.4079 151.112 91.4102C156.591 91.4102 161.003 96.7671 161.003 103.344C161.003 109.443 154.711 113.915 149.445 114.617" fill="white"/>
<path d="M149.547 115.411L149.334 113.825C154.589 113.134 160.21 108.743 160.21 103.345C160.21 97.2462 156.144 92.1638 151.113 92.1638C150.693 92.1632 150.274 92.204 149.863 92.2858L149.568 90.7204C150.078 90.6273 150.595 90.5797 151.113 90.5781C157.008 90.5781 161.806 96.2907 161.806 103.304C161.806 109.586 155.463 114.618 149.547 115.411Z" fill="#24071D"/>
<path d="M77.0513 114.517C71.9689 113.501 66.1953 109.13 66.1953 103.336C66.1953 96.7592 70.6272 91.4023 76.0958 91.4023C76.333 91.4023 76.5668 91.4023 76.7972 91.4023" fill="white"/>
<path d="M76.8988 115.291C71.2471 114.193 65.4023 109.416 65.4023 103.347C65.4023 96.3337 70.2001 90.6211 76.0957 90.6211H76.8683L76.7259 92.2068H76.0957C71.0743 92.2068 66.9474 97.2079 66.9474 103.388C66.9474 108.572 72.2433 112.811 77.1122 113.777L76.8988 115.291Z" fill="#24071D"/>
<path d="M132.338 131.055L132.044 178.28H93.8848L94.1796 131.055H132.338Z" fill="white"/>
<path d="M132.826 179.072H93.082L93.387 130.281H133.131L132.826 179.072ZM94.6881 177.487H131.281L131.566 131.847H94.9727L94.6881 177.487Z" fill="#24071D"/>
<path opacity="0.26" d="M93.5703 140.445V150.671C98.7239 156.15 109.377 157.786 131.414 141.228L132.003 140.791L131.414 141.126C128.131 142.956 111.42 151.169 93.5703 140.445Z" fill="#680000"/>
<path d="M113.258 146.646C103.588 146.646 94.3139 142.805 87.4761 135.967C80.6383 129.129 76.7969 119.855 76.7969 110.185V79.9855C76.7955 75.5533 77.6675 71.1644 79.363 67.0694C81.0585 62.9744 83.5442 59.2536 86.6782 56.1196C89.8122 52.9856 93.533 50.4999 97.628 48.8044C101.723 47.1089 106.112 46.2369 110.544 46.2383H115.931C120.364 46.2369 124.753 47.1089 128.849 48.8042C132.945 50.4996 136.666 52.9852 139.801 56.119C142.936 59.2529 145.422 62.9736 147.119 67.0686C148.816 71.1637 149.689 75.5529 149.689 79.9855V110.185C149.689 119.85 145.852 129.119 139.02 135.956C132.189 142.793 122.923 146.638 113.258 146.646Z" fill="white"/>
<path d="M113.26 147.44C103.382 147.429 93.9118 143.501 86.926 136.517C79.9402 129.533 76.0095 120.064 75.9961 110.186V79.9861C75.9961 70.8202 79.6373 62.0296 86.1186 55.5483C92.5999 49.0669 101.39 45.4258 110.556 45.4258H115.934C125.1 45.4258 133.89 49.0669 140.372 55.5483C146.853 62.0296 150.494 70.8202 150.494 79.9861V110.186C150.483 120.059 146.558 129.526 139.578 136.509C132.598 143.493 123.134 147.424 113.26 147.44ZM110.546 47.0318C101.81 47.0453 93.4361 50.5215 87.2589 56.6988C81.0817 62.876 77.6054 71.2502 77.592 79.9861V110.186C77.6027 119.642 81.3641 128.708 88.0509 135.395C94.7377 142.082 103.804 145.843 113.26 145.854C122.717 145.843 131.783 142.082 138.47 135.395C145.157 128.708 148.918 119.642 148.929 110.186V79.9861C148.915 71.2432 145.433 62.8628 139.247 56.6844C133.061 50.506 124.677 47.0345 115.934 47.0318H110.546Z" fill="#24071D"/>
<path d="M189.82 188.068C169.91 208.429 142.891 220.293 114.427 221.172C85.9629 222.051 58.2633 211.878 37.1345 192.785C35.6504 191.453 34.2172 190.081 32.8145 188.668C38.5032 182.285 45.791 177.534 53.9268 174.905H54.0183C54.5367 174.732 55.0348 174.58 55.5938 174.427L91.6789 164.14C91.8989 164.069 92.1286 164.031 92.36 164.029C92.9051 163.988 93.4515 164.09 93.9457 164.323C94.2879 164.465 94.6013 164.669 94.8707 164.923C96.7216 166.608 98.8024 168.022 101.051 169.121C107.536 172.282 117.935 173.97 131.017 164.557C131.337 164.324 131.7 164.155 132.084 164.059C132.685 163.887 133.323 163.887 133.924 164.059L167.996 174.326C176.381 176.847 183.923 181.597 189.82 188.068Z" fill="white"/>
<path d="M111.023 221.948C83.5358 221.976 57.0225 211.772 36.6466 193.324C35.2032 192.023 33.7802 190.671 32.2961 189.176L31.8184 188.699L32.2758 188.19C38.0515 181.715 45.4473 176.894 53.7032 174.224C54.3131 174.021 54.8518 173.858 55.3906 173.706L91.4757 163.419C91.6595 163.367 91.8462 163.327 92.0347 163.297H92.3702C93.4906 163.242 94.5871 163.633 95.4197 164.384C97.1742 166.013 99.1527 167.382 101.295 168.45L101.437 168.522C107.678 171.571 117.823 173.258 130.661 164.019C131.058 163.729 131.506 163.519 131.983 163.398C132.708 163.201 133.473 163.201 134.198 163.398L168.271 173.665C176.766 176.238 184.406 181.065 190.379 187.631L190.837 188.129L190.359 188.617C180.051 199.216 167.714 207.63 154.083 213.357C140.452 219.083 125.807 222.005 111.023 221.948ZM33.77 188.648C35.061 189.929 36.3112 191.118 37.5818 192.256C58.4871 211.142 85.867 221.245 114.029 220.463C142.191 219.681 168.968 208.075 188.794 188.058C183.062 181.938 175.819 177.436 167.793 175.007L133.721 164.74C133.249 164.603 132.749 164.603 132.277 164.74C131.977 164.814 131.694 164.945 131.444 165.126C118.128 174.702 107.506 172.994 100.888 169.823L100.726 169.751C98.4183 168.622 96.2827 167.171 94.3828 165.442C94.1791 165.245 93.9415 165.086 93.6814 164.974C93.3641 164.821 93.0174 164.737 92.665 164.73H92.3499C92.1908 164.734 92.0333 164.761 91.8823 164.811L55.7768 175.108C55.2584 175.251 54.7603 175.403 54.2318 175.576H54.1302C46.3396 178.107 39.3363 182.61 33.8005 188.648H33.77Z" fill="#24071D"/>
<path d="M126.574 116.469C126.58 117.848 126.37 119.22 125.954 120.535C125.09 123.275 123.376 125.668 121.059 127.367C118.742 129.066 115.943 129.982 113.07 129.982C110.197 129.982 107.399 129.066 105.082 127.367C102.765 125.668 101.05 123.275 100.187 120.535C99.7706 119.22 99.5614 117.848 99.5665 116.469H126.574Z" fill="white"/>
<path d="M113.076 130.771C111.195 130.78 109.331 130.416 107.591 129.701C105.852 128.986 104.271 127.933 102.942 126.603C101.612 125.273 100.558 123.692 99.8431 121.953C99.1277 120.213 98.7642 118.349 98.7736 116.469V115.676H127.367V116.469C127.377 118.349 127.014 120.212 126.299 121.951C125.584 123.689 124.532 125.269 123.203 126.599C121.874 127.929 120.295 128.982 118.557 129.698C116.818 130.414 114.955 130.779 113.076 130.771ZM100.38 117.262C100.511 120.543 101.907 123.647 104.276 125.923C106.644 128.198 109.801 129.469 113.086 129.469C116.37 129.469 119.527 128.198 121.896 125.923C124.264 123.647 125.66 120.543 125.792 117.262H100.38Z" fill="#24071D"/>
<path d="M126.574 116.469C126.58 117.848 126.37 119.22 125.954 120.535H100.187C99.7706 119.22 99.5614 117.848 99.5665 116.469H126.574Z" fill="white"/>
<path d="M126.534 121.317H99.607L99.424 120.758C98.9892 119.37 98.7698 117.923 98.7735 116.469V115.676H127.367V116.469C127.371 117.923 127.151 119.37 126.717 120.758L126.534 121.317ZM100.786 119.721H125.354C125.566 118.916 125.703 118.092 125.761 117.262H100.349C100.418 118.093 100.564 118.917 100.786 119.721Z" fill="#24071D"/>
<path d="M149.353 22.0066C163.777 31.8766 150.736 51.1085 150.736 51.1085C150.736 51.1085 165.088 65.1664 150.309 98.2528L147.676 97.7141C149.353 87.1224 148.347 74.2232 147.676 72.1903C145.643 66.0914 135.061 62.92 135.61 56.384C135.61 56.384 103.083 66.5488 85.4673 56.567C85.4673 56.567 84.0748 64.9428 79.2465 70.2285C75.1805 74.6502 77.5083 90.06 78.0267 96.718L75.3228 96.9822C73.727 90.1921 69.8135 77.9741 69.3968 74.3757C69.1325 72.0988 68.1668 63.0928 67.7501 56.6584C67.3329 51.015 68.4387 45.3632 70.952 40.2931C72.3752 37.3275 74.462 34.7293 77.0509 32.7C86.4533 25.6558 136.261 13.1124 149.353 22.0066Z" fill="#DF8943"/>
<path d="M150.758 99.1184L146.815 98.3154L146.926 97.5937C148.644 86.7479 147.526 74.1638 146.926 72.4358C146.113 69.9658 143.602 67.8922 141.163 65.8795C138.185 63.4196 135.064 60.8784 134.82 57.4021C129.043 59.0201 123.155 60.2159 117.204 60.9801C103.889 62.6471 93.3882 61.5493 85.9781 57.7273C85.4394 60.1771 83.7418 66.4081 79.7877 70.7485C76.5756 74.2553 77.7547 86.0872 78.4358 93.111C78.5679 94.4325 78.6797 95.6217 78.7611 96.6179L78.822 97.3701L74.7561 97.7665L74.5935 97.116C73.9226 94.2597 72.8248 90.4072 71.7677 86.6767C70.5144 82.6477 69.4728 78.5558 68.6471 74.418C68.4235 72.4968 67.4273 63.2875 67.0004 56.6702C66.5779 50.8932 67.7117 45.1087 70.2836 39.9186C71.7476 36.8411 73.9047 34.1447 76.5858 32.0409C86.1611 24.9255 136.558 12.2703 149.773 21.3373C163.302 30.5975 153.635 47.7658 151.673 50.9779C154.042 53.7021 164.542 68.1869 150.992 98.5289L150.758 99.1184ZM148.543 97.0855L149.864 97.3498C163.851 65.5237 150.342 51.7606 150.199 51.6081L149.742 51.1609L150.108 50.6323C152.197 47.3496 153.754 43.7579 154.723 39.9897C156.563 32.3356 154.611 26.4807 148.929 22.5876C143.43 18.8266 129.961 18.6335 111.98 22.059C97.0781 24.895 82.2476 29.7131 77.4905 33.2403C74.9958 35.195 72.9911 37.7044 71.6355 40.5691C69.1889 45.5182 68.1114 51.032 68.5149 56.5381C68.9317 63.1249 69.9278 72.2935 70.1515 74.2147C70.976 78.2931 72.0074 82.3269 73.2416 86.3006C74.2581 89.7668 75.2745 93.355 75.9352 96.1605L77.2262 96.0385C77.155 95.2152 77.0636 94.3003 76.9721 93.3042C76.1995 85.5078 75.0407 73.7369 78.7102 69.7218C83.3251 64.6394 84.7176 56.5076 84.738 56.4364L84.9108 55.3589L85.8663 55.8977C102.984 65.6152 135.084 55.7554 135.41 55.6537L136.487 55.3183L136.396 56.4466C136.121 59.6993 139.069 62.1287 142.19 64.7004C144.782 66.8553 147.475 69.0713 148.421 71.9581C149.112 74.1029 150.067 86.6665 148.543 97.116V97.0855Z" fill="#24071D"/>
<path opacity="0.26" d="M153.969 27.2733C138 20.9812 93.0616 32.5895 84.1267 39.2474C81.5346 41.2776 79.4472 43.8798 78.0278 46.8507C75.5183 51.9184 74.4126 57.566 74.8259 63.2059C75.2427 69.6504 76.2083 78.6462 76.4726 80.9231C76.5438 81.5025 76.6963 82.3056 76.9199 83.2712C77.052 88.4756 77.7534 93.9544 78.0075 97.2681L75.3037 97.5324C73.7078 90.7423 69.7944 78.5141 69.3776 74.9157C69.1133 72.649 68.1476 63.643 67.7309 57.2086C67.3127 51.5652 68.4186 45.913 70.9328 40.8433C72.3559 37.8748 74.4427 35.2733 77.0317 33.24C86.4545 26.1958 136.262 13.6118 149.354 22.5568C151.21 23.7842 152.783 25.3918 153.969 27.2733Z" fill="#680000"/>
<path d="M148.063 107.646L113.716 109.943L77.8239 107.626C74.6723 107.424 71.7159 106.03 69.5558 103.726C67.3957 101.422 66.194 98.3825 66.1953 95.2245V77.1515C66.1987 73.9966 67.4005 70.9608 69.5575 68.6584C71.7146 66.3561 74.6657 64.9592 77.8137 64.7504L112.882 62.4023L148.042 64.7097C151.196 64.9168 154.153 66.3194 156.308 68.6315C158.463 70.9435 159.655 73.9907 159.641 77.1515V95.2652C159.637 98.4114 158.441 101.439 156.292 103.737C154.143 106.035 151.202 107.432 148.063 107.646Z" fill="white"/>
<g clip-path="url(#clip0_479_589)">
<path d="M92.7059 75V78.6364L88.9785 80.1515V76.5152L92.7059 75Z" fill="#8E3385"/>
<path d="M92.7059 75V78.6364L88.9785 80.1515V76.5152L92.7059 75Z" fill="#8E3385"/>
<path d="M108.142 90.0909L111.59 91.4848C110.255 94.6061 107.117 96.8182 103.421 96.8182C98.5444 96.8182 94.5686 92.9394 94.5686 88.1818C94.5686 83.4242 98.5444 79.5455 103.421 79.5455C107.117 79.5455 110.255 81.7576 111.59 84.8788L108.142 86.2727C107.366 84.4546 105.533 83.1818 103.421 83.1818C100.594 83.1818 98.2959 85.4242 98.2959 88.1818C98.2959 90.9394 100.594 93.1818 103.421 93.1818C105.564 93.1818 107.397 91.9091 108.142 90.0909ZM113.454 96.2121H117.181V75L113.454 76.5152V96.2121ZM119.045 80.1515L122.772 78.6364V75L119.045 76.5152V80.1515ZM119.045 81.9697V96.2121H122.772V80.4545L119.045 81.9697ZM88.9776 81.9697V88.1818C88.9776 90.9394 86.679 93.1818 83.8524 93.1818C81.0259 93.1818 78.7274 90.9394 78.7274 88.1818V80.1515L75 81.6666V88.1818C75 92.9394 78.9758 96.8182 83.8524 96.8182C88.7291 96.8182 92.7049 92.9394 92.7049 88.1818V80.4545L88.9776 81.9697ZM147 96.2121H141.72L139.762 94.303C138.148 95.8788 135.942 96.8182 133.488 96.8182C128.612 96.8182 124.636 92.9394 124.636 88.1818C124.636 83.4242 128.612 79.5455 133.488 79.5455C138.365 79.5455 142.341 83.4242 142.341 88.1818C142.341 89.2121 142.154 90.2121 141.782 91.1515L147 96.2121ZM133.488 88.1818H138.613C138.613 85.4242 136.315 83.1818 133.488 83.1818C130.662 83.1818 128.363 85.4242 128.363 88.1818C128.363 90.9394 130.662 93.1818 133.488 93.1818C134.886 93.1818 136.191 92.6061 137.122 91.7273L133.488 88.1818Z" fill="#24071D"/>
<path fill-rule="evenodd" clip-rule="evenodd" d="M122.766 78.6403L119.039 80.1554V76.5191L122.766 75.0039V78.6403Z" fill="#DF8943"/>
</g>
<path d="M113.716 110.695L77.7729 108.378C74.4165 108.163 71.2683 106.676 68.9698 104.221C66.6713 101.766 65.3955 98.5267 65.4024 95.1634V77.1514C65.3953 73.7898 66.6697 70.5519 68.9661 68.0969C71.2625 65.6418 74.4082 64.1543 77.7628 63.9371L112.882 61.6094L148.103 63.9371C151.458 64.1543 154.604 65.6418 156.9 68.0969C159.196 70.5519 160.471 73.7898 160.464 77.1514V95.2651C160.457 98.6208 159.179 101.849 156.887 104.301C154.596 106.753 151.461 108.246 148.114 108.479L148.063 107.676L148.114 108.479L113.716 110.695ZM112.882 63.1951L77.8543 65.5025C74.9024 65.7013 72.1368 67.0158 70.1187 69.1792C68.1007 71.3426 66.9814 74.1928 66.9881 77.1514V95.2346C66.9945 98.1886 68.122 101.03 70.1428 103.185C72.1636 105.34 74.927 106.647 77.8746 106.843L113.716 109.15L148.012 106.863C150.952 106.66 153.707 105.351 155.721 103.199C157.735 101.047 158.859 98.2125 158.868 95.2651V77.1514C158.862 74.2016 157.737 71.3641 155.72 69.2115C153.703 67.0588 150.945 65.7515 148.002 65.5533L112.882 63.1951Z" fill="#24071D"/>
<path opacity="0.26" d="M101.214 169.039H101.122L91.3235 171.825L68.3205 178.381L58.6945 181.125C50.7574 183.376 43.4114 187.342 37.1755 192.744C35.6915 191.412 34.2582 190.04 32.8555 188.627C38.538 182.265 45.8105 177.529 53.9272 174.905H54.0186L60.575 173.044L82.4496 166.813L91.8724 164.13C92.0317 164.081 92.195 164.047 92.3603 164.028C93.0522 163.93 93.7577 164.033 94.3933 164.323C94.5778 164.402 94.7547 164.497 94.9219 164.608C95.0985 164.726 95.2651 164.858 95.42 165.004C97.1839 166.575 99.129 167.93 101.214 169.039Z" fill="#680000"/>
<defs>
<clipPath id="clip0_479_589">
<rect width="72" height="21.8182" fill="white" transform="translate(75 75)"/>
</clipPath>
</defs>
</svg>
