<svg width="24" height="24" viewBox="0 0 24 24" fill="none" xmlns="http://www.w3.org/2000/svg">
<path d="M12.2973 0H11.7027C5.23947 0 0 5.37258 0 12C0 18.6274 5.23947 24 11.7027 24H12.2973C18.7605 24 24 18.6274 24 12C24 5.37258 18.7605 0 12.2973 0Z" fill="#DF8943"/>
<path d="M11.6552 17.6166C11.3183 17.606 10.9988 17.4648 10.7642 17.2228C10.5296 16.9808 10.3984 16.657 10.3984 16.32C10.3984 15.9829 10.5296 15.6591 10.7642 15.4171C10.9988 15.1751 11.3183 15.0339 11.6552 15.0234C11.8289 15.0179 12.0019 15.0475 12.1639 15.1102C12.326 15.1729 12.4738 15.2675 12.5985 15.3885C12.7233 15.5094 12.8225 15.6542 12.8902 15.8142C12.958 15.9742 12.9929 16.1462 12.9929 16.32C12.9929 16.4937 12.958 16.6657 12.8902 16.8257C12.8225 16.9857 12.7233 17.1305 12.5985 17.2514C12.4738 17.3724 12.326 17.467 12.1639 17.5297C12.0019 17.5924 11.8289 17.622 11.6552 17.6166ZM12.589 13.1721C12.5766 13.4114 12.4728 13.6368 12.299 13.8017C12.1252 13.9667 11.8948 14.0587 11.6552 14.0587C11.4156 14.0587 11.1852 13.9667 11.0114 13.8017C10.8377 13.6368 10.7339 13.4114 10.7214 13.1721C10.6406 11.384 10.469 8.11572 10.469 7.79267C10.4681 7.63534 10.4989 7.47944 10.5597 7.33432C10.6205 7.1892 10.7099 7.05785 10.8227 6.94814C10.9355 6.83843 11.0693 6.75263 11.216 6.69587C11.3627 6.63911 11.5194 6.61257 11.6767 6.61784C11.8306 6.61627 11.9833 6.64571 12.1256 6.7044C12.268 6.7631 12.397 6.84984 12.5051 6.95947C12.6132 7.0691 12.6982 7.19937 12.7549 7.34252C12.8115 7.48566 12.8388 7.63876 12.8351 7.79267C12.83 8.11572 12.6698 11.384 12.589 13.1721Z" fill="white"/>
</svg>
