<svg width="300" height="237" viewBox="0 0 300 237" fill="none" xmlns="http://www.w3.org/2000/svg">
<path d="M112.5 11.751L61.7852 17.4844L69.3292 84.2151L120.044 78.4817L112.5 11.751Z" fill="#FBE1CA"/>
<path opacity="0.26" d="M299.192 226.727H0.488281V230.868H299.192V226.727Z" fill="#680000"/>
<path d="M200.42 60.6692L199.938 59.8225C201.304 58.943 202.481 57.7982 203.397 56.4558C204.313 55.1135 204.95 53.6009 205.271 52.0077C206.105 47.2862 204.008 41.9004 199.039 35.9872L199.788 35.3359C204.959 41.4836 207.127 47.1494 206.229 52.164C205.897 53.9046 205.209 55.5581 204.21 57.0214C203.21 58.4847 201.92 59.7264 200.42 60.6692Z" fill="#24071D"/>
<path d="M299.512 227.211H0.48843C0.35889 227.211 0.234658 227.16 0.14306 227.068C0.0514615 226.977 0 226.852 0 226.723C0 226.593 0.0514615 226.469 0.14306 226.377C0.234658 226.286 0.35889 226.234 0.48843 226.234H299.512C299.641 226.234 299.765 226.286 299.857 226.377C299.949 226.469 300 226.593 300 226.723C300 226.852 299.949 226.977 299.857 227.068C299.765 227.16 299.641 227.211 299.512 227.211V227.211Z" fill="#24071D"/>
<path d="M41.1191 110.561C41.7704 109.258 43.2813 108.933 46.9087 113.303Z" fill="white"/>
<path d="M46.9085 113.797C46.8365 113.797 46.7655 113.781 46.7002 113.751C46.635 113.72 46.5772 113.676 46.5308 113.621C43.9258 110.489 42.7145 110.13 42.2066 110.195C42.0372 110.195 41.7898 110.3 41.5553 110.775C41.5 110.893 41.4004 110.983 41.2783 111.027C41.1561 111.071 41.0215 111.065 40.9041 111.01C40.7866 110.954 40.6959 110.855 40.652 110.732C40.608 110.61 40.6144 110.476 40.6696 110.358C40.7832 110.061 40.974 109.799 41.2224 109.6C41.4708 109.401 41.7678 109.271 42.0828 109.225C43.3267 109.062 45.0329 110.3 47.2927 112.996C47.3741 113.095 47.4129 113.223 47.4007 113.351C47.3885 113.479 47.3263 113.597 47.2276 113.68C47.139 113.756 47.0256 113.798 46.9085 113.797V113.797Z" fill="#24071D"/>
<path d="M35.6094 108.792C35.8568 107.763 36.3583 106.839 37.3482 106.63C37.3482 106.63 39.5429 106.051 42.7535 114.165" fill="white"/>
<path d="M42.7502 114.652C42.6515 114.652 42.5551 114.622 42.4738 114.566C42.3924 114.51 42.3298 114.431 42.2943 114.339C39.4288 107.084 37.4881 107.097 37.4751 107.104C36.8239 107.247 36.3355 107.853 36.0815 108.901C36.0665 108.964 36.0394 109.023 36.0017 109.075C35.9639 109.126 35.9164 109.17 35.8616 109.204C35.8069 109.238 35.7461 109.26 35.6827 109.27C35.6193 109.28 35.5545 109.278 35.4921 109.263C35.4297 109.248 35.3708 109.221 35.3188 109.183C35.2669 109.145 35.2229 109.098 35.1893 109.043C35.1558 108.988 35.1333 108.927 35.1232 108.864C35.1132 108.801 35.1157 108.736 35.1307 108.673C35.567 106.869 36.5243 106.309 37.2472 106.153C37.6575 106.042 39.9954 105.873 43.206 113.968C43.2314 114.029 43.2445 114.094 43.2445 114.159C43.2445 114.225 43.2314 114.29 43.2059 114.351C43.1804 114.412 43.1431 114.466 43.0962 114.513C43.0493 114.559 42.9936 114.595 42.9325 114.619C42.8738 114.639 42.8123 114.65 42.7502 114.652V114.652Z" fill="#24071D"/>
<path d="M68.2637 163.539C73.2196 177.899 79.0221 191.946 86.3681 205.264C87.5273 207.361 88.7712 209.497 90.6598 210.975C93.5513 213.222 97.576 213.58 101.138 212.727C117.66 208.872 131.714 192.135 134.54 175.795L107.735 159.254L97.3936 176.739C89.8457 161.422 76.2348 122.003 70.5625 116.877C69.7217 115.987 68.6976 115.289 67.5609 114.832C66.4241 114.376 65.2019 114.172 63.9785 114.233" fill="white"/>
<path d="M97.5759 213.637C94.9841 213.701 92.445 212.899 90.3602 211.358C88.439 209.86 87.1756 207.73 85.9448 205.497C79.2631 193.397 73.3303 179.721 67.8012 163.694C67.7797 163.633 67.7704 163.569 67.7739 163.506C67.7773 163.442 67.7934 163.379 67.8213 163.321C67.8492 163.264 67.8883 163.212 67.9363 163.17C67.9843 163.128 68.0402 163.095 68.1008 163.075C68.163 163.049 68.2298 163.037 68.2971 163.038C68.3644 163.039 68.4307 163.054 68.4919 163.082C68.553 163.111 68.6077 163.151 68.6525 163.201C68.6973 163.252 68.7312 163.311 68.7521 163.375C74.2615 179.349 80.1748 192.973 86.824 205.054C88.0483 207.281 89.214 209.235 90.9854 210.615C93.5057 212.569 97.1787 213.188 101.054 212.283C116.566 208.662 131.011 192.798 134.026 176.067L107.931 159.962L97.8364 177.018C97.7917 177.094 97.7272 177.157 97.6498 177.199C97.5725 177.241 97.485 177.262 97.3969 177.259C97.3087 177.255 97.2231 177.228 97.1491 177.18C97.0752 177.132 97.0156 177.065 96.9768 176.985C94.0788 171.124 90.3537 161.838 86.4137 152.03C80.1488 136.459 73.6754 120.36 70.2629 117.273C69.4692 116.426 68.5024 115.759 67.4281 115.319C66.3538 114.878 65.1973 114.674 64.0371 114.72C63.9079 114.726 63.7818 114.68 63.6857 114.594C63.5895 114.508 63.531 114.387 63.5226 114.258C63.5182 114.194 63.5268 114.129 63.5478 114.068C63.5688 114.007 63.6018 113.951 63.645 113.903C63.6881 113.855 63.7404 113.816 63.7988 113.789C63.8572 113.761 63.9205 113.746 63.985 113.744C65.2789 113.673 66.5726 113.887 67.7752 114.37C68.9779 114.852 70.0604 115.592 70.9467 116.537C74.5351 119.794 81.0344 135.996 87.3254 151.633C91.0831 160.984 94.6453 169.835 97.4652 175.729L107.351 159.031C107.416 158.923 107.521 158.845 107.642 158.814C107.764 158.782 107.893 158.799 108.002 158.861L134.807 175.409C134.89 175.46 134.955 175.535 134.994 175.623C135.034 175.711 135.046 175.809 135.029 175.904C132.053 193.11 117.224 209.502 101.255 213.227C100.049 213.505 98.8141 213.642 97.5759 213.637V213.637Z" fill="#24071D"/>
<path d="M68.2655 163.538C68.2655 163.538 55.9897 125.193 51.4766 124.691Z" fill="white"/>
<path d="M68.2648 164.028C68.1613 164.027 68.0606 163.994 67.9766 163.933C67.8927 163.873 67.8296 163.788 67.7959 163.69C63.0875 148.978 54.4781 125.52 51.4238 125.182C51.359 125.176 51.2962 125.157 51.2388 125.126C51.1815 125.096 51.1308 125.054 51.0898 125.003C51.0488 124.953 51.0183 124.895 51.0001 124.832C50.9818 124.77 50.9762 124.705 50.9836 124.64C50.991 124.575 51.0112 124.513 51.043 124.456C51.0748 124.4 51.1176 124.35 51.1689 124.31C51.2203 124.27 51.279 124.241 51.3418 124.224C51.4046 124.207 51.4701 124.203 51.5345 124.211C52.3811 124.303 54.6474 124.557 62.0194 144.133C65.6143 153.68 68.7012 163.292 68.7272 163.39C68.7663 163.513 68.7554 163.646 68.6968 163.76C68.6383 163.875 68.5369 163.962 68.4146 164.002C68.3666 164.02 68.3159 164.029 68.2648 164.028V164.028Z" fill="#24071D"/>
<path d="M156.012 85.7891L156.227 120.064H183.911L183.702 85.7891H156.012Z" fill="white"/>
<path d="M184.403 120.548H155.749L155.527 85.2969H184.182L184.403 120.548ZM156.706 119.604H183.407L183.212 86.2737H156.511L156.706 119.604Z" fill="#24071D"/>
<path opacity="0.26" d="M156.24 92.5977V100.028C159.978 104.001 167.709 105.206 183.703 93.1708L184.133 92.8516L183.703 93.0991C181.306 94.4276 169.174 100.393 156.24 92.5977Z" fill="#680000"/>
<path d="M168.883 97.1063C172.488 97.1072 176.059 96.3978 179.39 95.0187C182.721 93.6396 185.748 91.6178 188.297 89.0688C190.847 86.5197 192.869 83.4934 194.249 80.1626C195.629 76.8318 196.339 73.2619 196.339 69.6566V46.9218C196.339 43.5864 195.682 40.2837 194.406 37.2023C193.13 34.1208 191.259 31.3209 188.9 28.9624C186.542 26.604 183.742 24.7332 180.661 23.4568C177.579 22.1804 174.276 21.5234 170.941 21.5234H166.858C152.824 21.5234 140.124 31.8391 140.541 47.7163L141.446 69.6761C141.452 76.9506 144.344 83.9255 149.489 89.0688C154.633 94.212 161.609 97.1029 168.883 97.1063Z" fill="white"/>
<path d="M168.885 97.5918C161.48 97.5746 154.384 94.6256 149.149 89.3899C143.913 84.1542 140.964 77.058 140.947 69.6536L140.041 47.7134C139.853 40.4716 142.295 34.0373 147.094 29.1075C149.685 26.5155 152.766 24.4649 156.157 23.0751C159.548 21.6854 163.182 20.9842 166.846 21.0125H170.93C177.797 21.0212 184.381 23.7535 189.236 28.6102C194.092 33.4669 196.823 40.0513 196.83 46.9189V69.6536C196.812 77.0591 193.862 84.1563 188.625 89.3922C183.388 94.6281 176.29 97.5763 168.885 97.5918ZM166.846 21.9894C163.312 21.9625 159.807 22.6396 156.536 23.9813C153.266 25.3231 150.295 27.3025 147.798 29.8043C145.506 32.1653 143.722 34.9707 142.556 38.0474C141.391 41.1241 140.867 44.4071 141.018 47.6938L141.924 69.6406C141.868 73.2169 142.524 76.7685 143.854 80.0887C145.185 83.4089 147.162 86.4314 149.671 88.9801C152.181 91.5288 155.172 93.5528 158.471 94.9344C161.77 96.316 165.311 97.0275 168.888 97.0275C172.465 97.0275 176.006 96.316 179.305 94.9344C182.604 93.5528 185.595 91.5288 188.105 88.9801C190.614 86.4314 192.592 83.4089 193.922 80.0887C195.252 76.7685 195.908 73.2169 195.853 69.6406V46.9189C195.846 40.3104 193.218 33.9745 188.546 29.301C183.873 24.6275 177.538 21.998 170.93 21.9894H166.846Z" fill="#24071D"/>
<path d="M245.887 180.817C234.132 183.422 220.28 183.318 215.2 184.073C214.06 184.242 215.597 193.484 215.623 194.636L216.327 204.47V204.535C216.336 204.862 216.28 205.188 216.161 205.492C216.042 205.797 215.863 206.075 215.635 206.309C215.406 206.543 215.133 206.728 214.831 206.854C214.529 206.98 214.205 207.044 213.878 207.042H131.581C130.934 207.037 130.316 206.776 129.862 206.316C129.408 205.855 129.155 205.234 129.158 204.587V204.457L129.334 187.447C129.412 185.968 128.683 184.496 127.882 183.253C122.516 175.06 109.413 173.705 102.015 169.238C100.009 168.02 98.4524 167.115 97.6123 166.633C97.1953 166.388 96.861 166.024 96.6522 165.588C96.4433 165.151 96.3695 164.663 96.4401 164.184C96.4337 164.13 96.4337 164.076 96.4401 164.022L104.815 142.947C105.479 141.276 106.204 139.654 106.99 138.083C108.435 135.149 110.169 132.367 112.168 129.779C116.662 123.789 122.942 119.381 130.103 117.191L154.85 109.734C155.205 109.629 155.579 109.605 155.944 109.665C156.31 109.725 156.657 109.866 156.96 110.079C170.636 119.907 180.255 113.042 183.198 110.34C183.509 110.056 183.886 109.856 184.295 109.758C184.704 109.66 185.131 109.667 185.536 109.78L211.729 117.243C217.369 118.855 222.514 121.856 226.694 125.971C230.874 130.086 233.956 135.184 235.656 140.798L246.915 178.043C247.215 179.085 246.948 180.576 245.887 180.817Z" fill="#FDAF4E"/>
<path d="M213.877 207.519H131.58C130.803 207.517 130.059 207.208 129.51 206.659C128.961 206.11 128.651 205.365 128.649 204.589V204.458L128.825 187.441C128.884 186.302 128.435 185.032 127.451 183.534C124.052 178.324 117.468 175.967 111.099 173.674C107.64 172.43 104.371 171.252 101.74 169.669C99.9038 168.549 98.4385 167.715 97.5658 167.188L97.3444 167.064C96.8478 166.773 96.4487 166.34 96.1972 165.822C95.9458 165.304 95.8532 164.724 95.9312 164.153C95.931 164.065 95.9441 163.977 95.9703 163.893L104.365 142.773C105.016 141.054 105.784 139.399 106.553 137.869C108.004 134.908 109.75 132.1 111.763 129.488C116.318 123.419 122.683 118.954 129.939 116.736L154.686 109.273C155.112 109.147 155.562 109.119 156 109.191C156.439 109.264 156.856 109.434 157.219 109.69C170.355 119.133 179.511 113.044 182.839 109.989C183.212 109.65 183.666 109.412 184.158 109.298C184.649 109.184 185.161 109.198 185.646 109.338L211.865 116.769C217.591 118.39 222.817 121.428 227.058 125.604C231.299 129.779 234.419 134.956 236.13 140.656L247.39 177.894C247.52 178.31 247.567 178.747 247.528 179.18C247.489 179.614 247.364 180.036 247.162 180.421C247.043 180.638 246.879 180.828 246.682 180.977C246.484 181.126 246.257 181.232 246.016 181.287V181.287C238.097 183.026 229.22 183.56 222.741 183.951C219.706 184.133 217.075 184.296 215.414 184.53C215.01 185.429 215.662 190.587 215.909 192.567C216.039 193.576 216.13 194.305 216.137 194.612L216.84 204.523C216.85 204.914 216.781 205.304 216.637 205.667C216.494 206.031 216.279 206.363 216.005 206.642C215.731 206.922 215.404 207.143 215.043 207.294C214.682 207.444 214.294 207.521 213.903 207.519H213.877ZM155.539 110.113C155.347 110.115 155.157 110.144 154.973 110.198L130.225 117.655C123.162 119.818 116.967 124.166 112.531 130.074C110.552 132.635 108.835 135.388 107.406 138.292C106.651 139.803 105.921 141.425 105.25 143.118L96.8755 164.199C96.8166 164.589 96.8749 164.988 97.043 165.345C97.2111 165.702 97.4815 166.001 97.8198 166.204L98.0347 166.335C98.9139 166.843 100.386 167.696 102.229 168.822C104.775 170.353 107.999 171.519 111.411 172.73C117.924 175.081 124.67 177.503 128.246 182.974C129.353 184.661 129.854 186.126 129.776 187.461L129.607 204.576C129.607 205.094 129.813 205.591 130.179 205.957C130.545 206.323 131.042 206.529 131.561 206.529H213.877C214.141 206.531 214.401 206.479 214.644 206.377C214.887 206.275 215.107 206.126 215.29 205.937C215.471 205.749 215.613 205.528 215.706 205.285C215.8 205.043 215.845 204.784 215.837 204.523V204.445L215.121 194.657C215.121 194.384 215.017 193.596 214.9 192.703C214.014 185.716 214.06 183.755 215.115 183.586C216.808 183.332 219.38 183.176 222.643 182.98C229.09 182.59 237.921 182.062 245.768 180.336C245.879 180.311 245.982 180.262 246.071 180.192C246.16 180.123 246.232 180.034 246.283 179.933C246.547 179.387 246.596 178.761 246.42 178.181L235.153 140.943C233.49 135.4 230.456 130.366 226.332 126.306C222.208 122.246 217.127 119.29 211.559 117.713L185.372 110.25C185.046 110.156 184.701 110.148 184.371 110.228C184.041 110.308 183.737 110.473 183.49 110.706C180.762 113.213 170.746 120.611 156.64 110.478C156.32 110.244 155.935 110.117 155.539 110.113Z" fill="#24071D"/>
<path opacity="0.26" d="M166.633 115.132L166.281 115.047L166.529 115.184L166.633 115.132Z" fill="#680000"/>
<path opacity="0.26" d="M179.842 112.812L204.335 120.204C216.63 123.903 225.455 134.967 229.968 146.95L241.514 183.354C243.52 182.136 245.076 181.231 245.917 180.749C246.334 180.504 246.668 180.14 246.877 179.704C247.086 179.268 247.159 178.779 247.089 178.301L236.154 142.678C235.626 141.01 234.993 139.376 234.259 137.787C232.042 132.895 228.789 128.543 224.726 125.03C220.662 121.518 215.885 118.929 210.724 117.442L185.976 109.973C185.62 109.867 185.245 109.844 184.879 109.903C184.512 109.963 184.164 110.105 183.86 110.318C182.584 111.247 181.241 112.08 179.842 112.812V112.812Z" fill="#680000"/>
<path opacity="0.26" d="M161.41 113.09C162.95 113.914 164.575 114.569 166.255 115.044C165.441 114.549 164.601 114.002 163.748 113.39C163.447 113.174 163.099 113.03 162.733 112.972C162.367 112.913 161.992 112.94 161.638 113.051L161.41 113.09Z" fill="#680000"/>
<path d="M156.227 75.2031C156.227 77.8026 157.259 80.2955 159.097 82.1336C160.935 83.9717 163.428 85.0043 166.028 85.0043C168.627 85.0043 171.12 83.9717 172.958 82.1336C174.796 80.2955 175.829 77.8026 175.829 75.2031H156.227Z" fill="#DF554B"/>
<path d="M166.028 85.4928C163.299 85.4911 160.683 84.4065 158.754 82.4772C156.825 80.5479 155.74 77.9317 155.738 75.2033V74.7148H176.317V75.2033C176.32 76.2506 176.159 77.292 175.842 78.2901C175.191 80.3819 173.886 82.2099 172.12 83.5062C170.354 84.8024 168.219 85.4987 166.028 85.4928V85.4928ZM156.728 75.6917C156.843 77.8711 157.72 79.9409 159.206 81.5396C160.691 83.1384 162.691 84.1646 164.857 84.4391C167.022 84.7136 169.214 84.219 171.052 83.0416C172.89 81.8642 174.255 80.0788 174.911 77.9971C175.15 77.2501 175.29 76.4751 175.328 75.6917H156.728Z" fill="#24071D"/>
<path d="M156.227 75.2031C156.225 76.1994 156.377 77.19 156.676 78.1402H175.399C175.698 77.19 175.85 76.1994 175.848 75.2031H156.227Z" fill="white"/>
<path d="M175.738 78.6288H156.318L156.214 78.2901C155.9 77.2913 155.739 76.2504 155.738 75.2033V74.7148H176.317V75.2033C176.32 76.2506 176.159 77.292 175.842 78.2901L175.738 78.6288ZM157.041 77.6519H175.015C175.19 77.0141 175.295 76.3589 175.328 75.6982H156.728C156.764 76.3586 156.869 77.0134 157.041 77.6519Z" fill="#24071D"/>
<path d="M140.528 44.5159C141.348 37.0201 142.71 33.5425 150.772 30.9245C150.772 30.9245 177.251 38.9804 190.029 31.7256C190.029 31.7256 191.038 37.8081 194.535 41.6439C197.466 44.8545 195.799 56.0363 195.421 60.8685L197.375 61.0639C198.54 56.134 201.38 47.2641 201.686 44.6527C201.875 43.005 202.578 36.4666 202.878 31.7972C203.176 27.7032 202.373 23.604 200.553 19.9251C199.527 17.7717 198.018 15.884 196.144 14.4091C189.28 9.29687 153.071 2.14625 143.582 8.6326C133.117 15.7962 140.652 42.9334 140.652 42.9334" fill="#E0554B"/>
<path d="M197.384 61.5511H197.332L195.378 61.3623C195.315 61.3566 195.253 61.3383 195.197 61.3087C195.141 61.279 195.091 61.2385 195.05 61.1895C195.01 61.1404 194.979 61.0838 194.961 61.0229C194.942 60.9621 194.936 60.8981 194.942 60.8348C194.994 60.1119 195.079 59.2523 195.177 58.2884C195.678 53.1501 196.525 44.5538 194.18 42.0074C191.269 38.8164 190.051 34.1926 189.68 32.5058C184.275 35.2997 176.167 35.99 165.545 34.5572C160.558 33.8731 155.624 32.8394 150.782 31.4639C142.967 34.0688 141.794 37.4618 141.013 44.5994C141.006 44.6628 140.987 44.7243 140.957 44.7803C140.927 44.8364 140.885 44.8858 140.836 44.9258C140.786 44.9658 140.729 44.9955 140.668 45.0132C140.606 45.031 140.542 45.0364 140.479 45.0292C140.35 45.016 140.232 44.9524 140.15 44.8523C140.069 44.7522 140.03 44.6238 140.043 44.4952C140.095 44.0263 140.147 43.5704 140.205 43.1276C140.205 43.1276 140.205 43.1276 140.205 43.095C138.965 38.321 138.137 33.4491 137.731 28.5333C136.949 18.159 138.831 11.3406 143.325 8.26019C152.898 1.74779 189.407 8.79421 196.453 14.0497C198.393 15.5651 199.954 17.5116 201.012 19.735C202.868 23.4825 203.693 27.6567 203.402 31.8286C203.089 36.6542 202.366 43.3164 202.203 44.7036C202.021 46.2535 201.012 49.8158 199.944 53.5865C199.175 56.2956 198.381 59.096 197.886 61.1734C197.86 61.2853 197.795 61.3844 197.704 61.4535C197.612 61.5226 197.499 61.5571 197.384 61.5511V61.5511ZM195.945 60.431L197.007 60.5352C197.501 58.4903 198.25 55.8658 198.96 53.3195C199.976 49.7507 201.025 46.0581 201.194 44.5929C201.363 43.1276 202.08 36.5761 202.386 31.7634C202.689 27.7602 201.915 23.7488 200.146 20.1453C199.157 18.0564 197.697 16.226 195.88 14.7986C188.964 9.64733 153.224 2.64651 143.885 9.03517C135.53 14.7531 139.124 34.1014 140.629 40.6268C141.632 35.6188 143.787 32.6882 150.651 30.4544C150.747 30.4284 150.848 30.4284 150.944 30.4544C151.211 30.5326 177.365 38.367 189.817 31.3011C189.886 31.264 189.963 31.2446 190.042 31.2446C190.12 31.2446 190.197 31.264 190.266 31.3011C190.338 31.3339 190.4 31.3838 190.447 31.4462C190.495 31.5086 190.527 31.5818 190.54 31.6592C190.54 31.7178 191.569 37.6441 194.929 41.3301C197.567 44.2216 196.727 52.7464 196.173 58.3926C196.069 59.1285 195.997 59.8188 195.945 60.431V60.431Z" fill="#24071D"/>
<path opacity="0.26" d="M140.456 43.1272L140.319 44.7097C140.807 40.3203 141.465 37.3116 143.575 35.0453C142.273 26.4685 141.765 14.1079 148.323 9.64694C152.959 6.48192 163.952 6.56658 174.802 8.07094C162.533 5.88278 148.752 5.212 143.399 8.86545C132.921 15.99 140.456 43.1272 140.456 43.1272Z" fill="#680000"/>
<path d="M195.028 72.2316C198.727 71.5088 202.902 68.3242 202.902 64.1302C202.902 59.3501 199.684 55.4688 195.738 55.4688C195.569 55.4688 194.937 55.612 194.768 55.625" fill="white"/>
<path d="M195.118 72.715L194.929 71.7577C198.53 71.0544 202.412 67.9414 202.412 64.1382C202.412 59.6316 199.41 55.9651 195.717 55.9651C195.553 55.9827 195.39 56.0088 195.229 56.0433C195.04 56.0824 194.87 56.1149 194.792 56.1214L194.701 55.1511L195.046 55.086C195.26 55.0351 195.478 55.0025 195.698 54.9883C199.931 54.9883 203.369 59.0911 203.369 64.1056C203.402 68.4885 199.182 71.914 195.118 72.715Z" fill="#24071D"/>
<path d="M165.227 210.075C176.949 206.969 206.43 200.958 220.614 201.459L215.496 184.319L245.082 181.375L250.291 198.867C251.4 201.684 251.848 204.718 251.601 207.735C251.355 210.753 250.42 213.673 248.868 216.273C247.317 218.873 245.19 221.082 242.652 222.732C240.114 224.382 237.231 225.428 234.225 225.79C221.728 227.3 192.461 227.743 167.415 227.294L166.659 227.248" fill="white"/>
<path d="M186.671 227.949C180.021 227.949 173.457 227.891 167.453 227.78L166.671 227.734L166.736 226.757C166.977 226.757 167.225 226.797 167.472 226.803C190.168 227.22 220.737 226.933 234.211 225.299C237.142 224.947 239.953 223.929 242.429 222.321C244.905 220.713 246.979 218.559 248.492 216.025C250.005 213.49 250.917 210.643 251.158 207.701C251.398 204.759 250.961 201.8 249.88 199.054L244.755 181.913L216.133 184.726L221.277 201.952H220.594C206.664 201.437 177.267 207.396 165.349 210.548L165.102 209.604C176.876 206.491 205.661 200.649 219.955 200.955L214.856 183.899L245.465 180.852L250.811 198.735C251.939 201.62 252.391 204.725 252.133 207.812C251.875 210.899 250.914 213.886 249.324 216.544C247.734 219.202 245.556 221.461 242.958 223.148C240.36 224.835 237.41 225.905 234.335 226.276C224.384 227.474 205.179 227.949 186.671 227.949Z" fill="#24071D"/>
<path d="M165.227 210.078H165.181C163.97 210.332 129.708 218.127 122.16 226.489C121.825 227.169 121.697 227.933 121.793 228.686C121.888 229.438 122.203 230.145 122.699 230.72C123.194 231.294 123.847 231.71 124.577 231.915C125.307 232.121 126.082 232.107 126.804 231.875C132.964 229.863 143.619 224.008 148.646 225.558C148.646 225.558 162.003 228.847 166.705 227.245" fill="white"/>
<path d="M125.591 232.56C124.85 232.557 124.123 232.366 123.477 232.005C122.831 231.644 122.287 231.125 121.896 230.496C121.505 229.867 121.281 229.149 121.244 228.41C121.207 227.671 121.358 226.934 121.683 226.269C121.703 226.228 121.73 226.191 121.761 226.158C129.498 217.595 164.698 209.676 165.049 209.604C165.122 209.584 165.198 209.58 165.272 209.595C165.346 209.609 165.416 209.641 165.475 209.687C165.535 209.733 165.583 209.793 165.615 209.861C165.647 209.929 165.663 210.004 165.661 210.079C165.661 210.195 165.62 210.307 165.545 210.396C165.47 210.484 165.366 210.543 165.251 210.561C164.906 210.639 130.169 218.448 122.53 226.771C122.252 227.366 122.154 228.029 122.247 228.68C122.34 229.33 122.621 229.939 123.055 230.433C123.489 230.926 124.057 231.282 124.69 231.458C125.323 231.633 125.994 231.62 126.62 231.42C128.332 230.86 130.41 229.994 132.605 229.082C138.401 226.666 144.978 223.931 148.755 225.097C148.866 225.097 162.001 228.353 166.515 226.79C166.576 226.767 166.641 226.756 166.707 226.759C166.773 226.761 166.837 226.777 166.897 226.805C166.956 226.833 167.009 226.873 167.053 226.922C167.097 226.971 167.13 227.028 167.151 227.09C167.172 227.152 167.18 227.218 167.175 227.284C167.17 227.349 167.152 227.413 167.122 227.471C167.092 227.53 167.05 227.581 166.999 227.623C166.949 227.665 166.89 227.696 166.827 227.715C162.047 229.343 149.048 226.171 148.495 226.041C145.024 224.973 138.629 227.63 132.982 229.981C130.762 230.906 128.671 231.779 126.926 232.345C126.495 232.485 126.044 232.558 125.591 232.56V232.56Z" fill="#24071D"/>
<path d="M165.178 210.566C165.056 210.566 164.938 210.52 164.848 210.437C164.758 210.353 164.703 210.239 164.693 210.117C164.683 209.995 164.72 209.874 164.795 209.777C164.87 209.681 164.979 209.616 165.1 209.596C165.173 209.576 165.249 209.573 165.323 209.587C165.397 209.602 165.467 209.633 165.526 209.679C165.586 209.726 165.634 209.785 165.666 209.853C165.698 209.921 165.714 209.996 165.713 210.072C165.712 210.187 165.671 210.3 165.596 210.388C165.521 210.476 165.417 210.535 165.302 210.553L165.178 210.566Z" fill="#24071D"/>
<path opacity="0.26" d="M122.443 226.57C129.998 218.208 164.527 210.797 165.738 210.543H165.783C173.663 208.453 181.687 206.831 189.703 205.379C199.003 203.699 208.498 202.09 217.967 201.914C219.035 201.914 220.11 201.914 221.178 201.914C218.84 195.864 217.883 190.387 215.545 184.331L220.807 183.641C222.832 187.144 223.483 190.075 225.509 193.579L228.543 198.834C228.778 199.238 230.399 202.781 230.836 202.8C229.116 202.728 227.293 203.582 225.626 203.953C223.679 204.371 221.712 204.686 219.732 204.897C214.047 205.548 208.381 206.115 202.722 206.994C201.042 207.255 199.361 207.528 197.681 207.815C196.001 208.101 194.36 208.39 192.758 208.681C191.188 208.974 189.625 209.267 188.056 209.58C186.597 209.866 185.138 210.166 183.679 210.478C182.377 210.76 181.055 211.049 179.713 211.344C178.567 211.611 177.421 211.878 176.275 212.165C174.035 212.725 171.964 212.985 169.762 213.604C168.603 213.923 161.765 215.636 160.606 215.942C151.866 218.221 127.914 223.223 122.391 229.065C121.486 229.364 121.896 228.837 122.919 230.875C124.436 233.949 121.922 229.996 122.443 226.57Z" fill="#680000"/>
<path d="M230.537 203.209C230.505 203.209 227.281 200.792 219.616 201.157L219.57 200.18C227.659 199.796 231 202.329 231.136 202.434L230.537 203.209L230.837 202.824L230.537 203.209Z" fill="#24071D"/>
<path d="M143.261 29.2812C143.148 29.2802 143.039 29.24 142.952 29.1676C142.866 29.0951 142.807 28.9949 142.786 28.8839C140.376 16.5104 146.745 10.6492 147.019 10.4018C147.066 10.3589 147.122 10.326 147.183 10.3048C147.244 10.2835 147.308 10.2745 147.372 10.2781C147.436 10.2818 147.499 10.298 147.557 10.3259C147.614 10.3538 147.666 10.3929 147.709 10.4408C147.794 10.5382 147.837 10.665 147.83 10.7939C147.823 10.9229 147.765 11.0439 147.67 11.1311C147.605 11.1832 141.451 16.8946 143.762 28.7146C143.787 28.8415 143.761 28.9732 143.689 29.0806C143.617 29.188 143.505 29.2625 143.378 29.2877L143.261 29.2812Z" fill="#FBE1CA"/>
<path d="M227.289 142.397C227.19 142.396 227.093 142.366 227.011 142.309C226.93 142.252 226.868 142.171 226.833 142.078C218.367 119.682 195.821 119.063 195.574 119.063C195.445 119.06 195.322 119.006 195.232 118.913C195.142 118.821 195.092 118.697 195.092 118.568C195.092 118.504 195.105 118.44 195.13 118.381C195.155 118.321 195.191 118.267 195.238 118.223C195.284 118.178 195.338 118.142 195.398 118.119C195.458 118.096 195.522 118.084 195.587 118.086C195.821 118.086 219.031 118.705 227.725 141.733C227.752 141.794 227.765 141.859 227.765 141.926C227.765 141.992 227.752 142.057 227.725 142.118C227.699 142.179 227.661 142.234 227.613 142.28C227.565 142.326 227.508 142.361 227.445 142.384C227.394 142.396 227.342 142.4 227.289 142.397Z" fill="#FBE1CA"/>
<path d="M110.17 32.5254C110.17 26.013 105.651 20.6859 99.998 20.6598C105.651 20.6598 110.255 15.4499 110.288 8.89844C110.255 15.4108 114.814 20.738 120.46 20.764C114.833 20.738 110.203 25.9935 110.17 32.5254Z" fill="white"/>
<path d="M110.626 32.5241H109.715C109.765 29.58 108.755 26.716 106.869 24.4553C106.035 23.4334 104.988 22.6057 103.801 22.0299C102.615 21.454 101.317 21.1438 99.998 21.1209V20.2092C101.317 20.2041 102.618 19.9098 103.811 19.3472C105.004 18.7846 106.059 17.9674 106.901 16.953C108.819 14.7072 109.86 11.8437 109.832 8.89062H110.743C110.711 15.149 115.074 20.2678 120.467 20.2938V21.2056C115.061 21.173 110.652 26.2592 110.626 32.5241ZM102.903 20.6715C104.718 21.2847 106.329 22.3866 107.559 23.8561C108.809 25.3372 109.7 27.0866 110.164 28.9683C111.238 24.9828 114.039 21.8633 117.549 20.7497C114.045 19.597 111.278 16.4515 110.249 12.4529C109.757 14.33 108.839 16.0684 107.565 17.5326C106.33 18.9886 104.716 20.0749 102.903 20.6715V20.6715Z" fill="#24071D"/>
<path d="M107.391 225.922H215.496C217.142 225.922 218.721 226.576 219.885 227.74C221.049 228.904 221.703 230.482 221.703 232.128V236.407H107.391V225.922V225.922Z" fill="#E3803A"/>
<path d="M222.189 236.895H106.92V225.434H215.495C217.269 225.437 218.97 226.143 220.225 227.398C221.479 228.653 222.186 230.354 222.189 232.128V236.895ZM107.877 235.919H221.193V232.128C221.191 230.612 220.588 229.159 219.516 228.087C218.444 227.015 216.991 226.412 215.475 226.41H107.877V235.919Z" fill="#24071D"/>
<path d="M174.572 236.412H68.7066L44.8777 164.32C44.5757 163.407 44.4947 162.435 44.6414 161.485C44.7882 160.535 45.1584 159.633 45.7217 158.853C46.285 158.074 47.0253 157.439 47.8816 157.001C48.738 156.564 49.686 156.336 50.6477 156.336H143.716C144.993 156.336 146.238 156.739 147.273 157.487C148.307 158.236 149.08 159.291 149.48 160.504L174.572 236.412Z" fill="#E3803A"/>
<path d="M175.247 236.897H68.3527L44.4131 164.473C44.0863 163.486 43.9984 162.436 44.1566 161.409C44.3147 160.382 44.7145 159.407 45.323 158.565C45.9315 157.722 46.7312 157.036 47.6566 156.563C48.5819 156.09 49.6063 155.844 50.6455 155.844H143.714C145.095 155.843 146.441 156.278 147.56 157.088C148.679 157.897 149.515 159.039 149.947 160.35L175.247 236.897ZM69.0561 235.92H173.906L149.015 160.63C148.648 159.514 147.938 158.543 146.986 157.854C146.034 157.165 144.889 156.795 143.714 156.795H50.6455C49.7618 156.796 48.891 157.006 48.1043 157.409C47.3177 157.811 46.6376 158.395 46.1198 159.111C45.602 159.827 45.2611 160.655 45.1252 161.528C44.9893 162.402 45.0622 163.294 45.3379 164.134L69.0561 235.92Z" fill="#24071D"/>
<path d="M68.66 118.738C68.66 118.738 64.5247 110.421 50.9528 112.453L41.2428 114.485L32.92 106.019C32.5995 105.682 32.1972 105.433 31.7521 105.297C31.307 105.161 30.8344 105.143 30.3802 105.244C29.1298 105.563 28.2181 106.097 29.6378 110.356C29.6378 110.356 33.2196 117.924 36.8861 121.349C37.4407 121.873 38.1095 122.261 38.8398 122.482C41.7052 123.342 50.8877 125.426 55.9804 124.436" fill="white"/>
<path d="M52.7949 125.199C47.4027 125.199 40.5777 123.525 38.7021 122.965C37.8927 122.724 37.1504 122.298 36.5335 121.721C32.841 118.302 29.3243 110.891 29.181 110.579C28.3539 108.123 28.2106 106.671 28.6795 105.805C28.8492 105.532 29.0764 105.3 29.3453 105.125C29.6141 104.949 29.9182 104.835 30.236 104.789C30.7729 104.664 31.3331 104.682 31.8609 104.841C32.3887 105 32.8658 105.294 33.2447 105.694L41.3852 113.952L50.8542 111.998C58.0179 110.917 62.5765 112.734 65.1815 114.447C66.7949 115.478 68.1354 116.883 69.0889 118.543C69.1454 118.659 69.1538 118.792 69.1123 118.914C69.0708 119.036 68.9829 119.137 68.8675 119.194C68.8107 119.223 68.7487 119.241 68.6851 119.246C68.6215 119.251 68.5576 119.243 68.497 119.223C68.4364 119.203 68.3804 119.171 68.3322 119.129C68.284 119.088 68.2446 119.037 68.2163 118.98C68.047 118.654 64.0418 111.008 51.0236 112.962L41.3136 114.981C41.2342 114.997 41.152 114.993 41.0746 114.969C40.9972 114.945 40.9271 114.902 40.8707 114.844L32.5414 106.378C32.2831 106.098 31.956 105.891 31.5927 105.777C31.2293 105.662 30.8424 105.645 30.4704 105.727C29.995 105.851 29.689 105.974 29.5327 106.261C29.2135 106.847 29.3959 108.175 30.0797 110.207C30.0797 110.207 33.6355 117.677 37.1912 120.998C37.6997 121.473 38.3101 121.825 38.9756 122.027C41.2159 122.679 50.6524 124.984 55.9079 123.981C55.9726 123.964 56.0402 123.96 56.1064 123.971C56.1726 123.981 56.236 124.005 56.2927 124.04C56.3493 124.076 56.398 124.123 56.4357 124.178C56.4735 124.234 56.4994 124.296 56.5119 124.362C56.5245 124.428 56.5233 124.495 56.5086 124.561C56.4939 124.626 56.4659 124.688 56.4263 124.742C56.3867 124.796 56.3365 124.841 56.2787 124.875C56.2209 124.909 56.1567 124.93 56.0902 124.938C55.0024 125.129 53.8991 125.216 52.7949 125.199V125.199Z" fill="#24071D"/>
<path d="M177.951 86.085L177.508 85.2188C186.449 80.5605 193.468 72.9074 197.338 63.5977L198.256 63.9168C194.306 73.4647 187.116 81.3142 177.951 86.085V86.085Z" fill="#24071D"/>
<path d="M173.856 84.2048L177.911 82.4241L180.1 87.409L176.045 89.1897C175.387 89.4827 174.639 89.5025 173.965 89.2448C173.292 88.9871 172.749 88.4729 172.454 87.815V87.815C172.164 87.154 172.148 86.4047 172.41 85.732C172.672 85.0593 173.191 84.5183 173.852 84.228L173.856 84.2048Z" fill="#E3803A"/>
<path d="M174.954 89.9204C174.214 89.9252 173.496 89.6745 172.92 89.2106C172.344 88.7468 171.945 88.0983 171.792 87.3747C171.639 86.6511 171.74 85.8968 172.079 85.2393C172.418 84.5818 172.973 84.0615 173.652 83.7662L178.145 81.8125L180.75 87.6737L176.263 89.6274C175.852 89.8148 175.406 89.9147 174.954 89.9204V89.9204ZM177.65 83.0824L174.049 84.6649C173.508 84.9027 173.084 85.3454 172.87 85.8958C172.761 86.1689 172.707 86.4613 172.713 86.7554C172.718 87.0496 172.783 87.3397 172.903 87.6085C173.142 88.1497 173.586 88.574 174.138 88.7887C174.69 89.0035 175.304 88.9913 175.846 88.7547L179.441 87.1722L177.65 83.0824Z" fill="#24071D"/>
<path d="M199.644 65.4924L198.674 65.3751C198.782 64.8769 198.783 64.3613 198.676 63.8627C198.57 63.3641 198.358 62.894 198.055 62.4836C197.554 61.9679 196.878 61.6588 196.16 61.6175V60.6406C197.15 60.6801 198.085 61.1055 198.765 61.8259C199.547 62.692 199.833 63.9229 199.644 65.4924Z" fill="#24071D"/>
<path d="M191.899 232.005C191.243 232.005 190.589 231.94 189.946 231.809C189.883 231.797 189.823 231.772 189.77 231.736C189.717 231.7 189.671 231.654 189.636 231.6C189.6 231.547 189.576 231.487 189.564 231.424C189.551 231.361 189.552 231.296 189.565 231.233C189.577 231.17 189.602 231.111 189.638 231.057C189.674 231.004 189.72 230.959 189.774 230.923C189.827 230.888 189.887 230.863 189.95 230.851C190.013 230.839 190.078 230.839 190.141 230.852C192.746 231.38 195.507 230.709 198.125 228.898C202.325 225.824 205.194 221.264 206.148 216.147C207.451 208.241 204.37 200.276 201.655 193.256C199.05 186.49 195.794 178.069 197.22 169.811C198.34 163.403 202.13 157.894 205.803 152.56C209.476 147.226 213.332 141.613 214.269 135.224C215.572 126.569 211.209 117.914 207.822 112.157C206.93 110.633 205.979 109.09 205.061 107.599C201.668 102.109 198.171 96.4298 196.471 90.1063C193.579 79.3608 197.532 70.8296 202.736 67.137C202.839 67.0698 202.964 67.0444 203.085 67.0662C203.206 67.088 203.314 67.1553 203.387 67.2543C203.454 67.357 203.479 67.4809 203.459 67.6014C203.438 67.722 203.373 67.8305 203.276 67.9055C198.353 71.4027 194.621 79.5366 197.383 89.8262C199.05 96.013 202.514 101.627 205.849 107.058C206.774 108.556 207.724 110.099 208.63 111.617C212.088 117.478 216.529 126.361 215.201 135.322C214.217 141.938 210.323 147.598 206.552 153.068C202.944 158.317 199.213 163.735 198.132 169.935C196.731 177.906 199.936 186.184 202.514 192.839C205.276 200.003 208.376 208.072 207.073 216.238C206.07 221.616 203.054 226.41 198.64 229.641C196.685 231.095 194.334 231.92 191.899 232.005V232.005Z" fill="#24071D"/>
<path d="M205.799 61.9447C206.896 57.6884 204.586 53.4136 200.641 52.3966C196.695 51.3796 192.607 54.0056 191.51 58.262C190.413 62.5183 192.722 66.7932 196.668 67.8101C200.614 68.8271 204.702 66.2011 205.799 61.9447Z" fill="#E3803A"/>
<path d="M199.174 69.7457C198.537 69.7462 197.902 69.6652 197.286 69.5048C196.273 69.2315 195.327 68.7506 194.51 68.0925C193.693 67.4344 193.021 66.6135 192.538 65.682C191.531 63.7259 191.286 61.4659 191.849 59.3391C192.412 57.2124 193.743 55.3699 195.586 54.1681C196.463 53.5908 197.452 53.2048 198.488 53.0354C199.524 52.866 200.584 52.9169 201.599 53.1848C202.615 53.4527 203.562 53.9316 204.379 54.5903C205.197 55.249 205.867 56.0726 206.345 57.0075C207.371 58.9553 207.62 61.2198 207.041 63.344C206.497 65.478 205.167 67.3275 203.316 68.5214C202.08 69.3144 200.643 69.7391 199.174 69.7457V69.7457ZM199.702 53.9206C198.422 53.9285 197.17 54.3012 196.094 54.9951C194.463 56.0668 193.285 57.7036 192.787 59.5909C192.29 61.4782 192.507 63.4829 193.398 65.2196C193.815 66.0343 194.398 66.7521 195.111 67.3261C195.824 67.9001 196.649 68.3174 197.534 68.5509C198.419 68.7844 199.343 68.8288 200.246 68.6812C201.149 68.5336 202.011 68.1973 202.776 67.6943C204.42 66.6355 205.603 64.9925 206.084 63.0966V63.0966C206.599 61.211 206.38 59.2006 205.472 57.4699C205.053 56.6559 204.469 55.9383 203.757 55.363C203.045 54.7877 202.22 54.3674 201.336 54.129C200.802 53.9921 200.253 53.9221 199.702 53.9206V53.9206Z" fill="#24071D"/>
<path d="M202.567 62.1764C203.057 60.3158 202.057 58.4387 200.332 57.9839C198.607 57.5291 196.81 58.6688 196.32 60.5294C195.829 62.3901 196.83 64.2671 198.555 64.7219C200.28 65.1767 202.076 64.0371 202.567 62.1764Z" fill="#FDAF4E"/>
<path d="M199.311 65.3023C199.012 65.3017 198.715 65.2623 198.426 65.185C197.944 65.0579 197.495 64.831 197.107 64.5191C196.719 64.2072 196.4 63.8173 196.172 63.3746C195.7 62.4568 195.584 61.3963 195.847 60.398C196.111 59.3997 196.735 58.5344 197.599 57.9693C198.014 57.6948 198.483 57.511 198.975 57.43C199.466 57.349 199.969 57.3725 200.451 57.4991C200.933 57.6257 201.383 57.8525 201.771 58.1647C202.159 58.4769 202.477 58.8674 202.704 59.3109C203.182 60.227 203.298 61.2892 203.03 62.287C202.832 63.1308 202.36 63.885 201.687 64.4308C201.013 64.9767 200.178 65.2832 199.311 65.3023ZM199.552 58.3601C199.044 58.3657 198.547 58.5147 198.12 58.7899C197.464 59.2239 196.991 59.8838 196.791 60.6439C196.59 61.404 196.676 62.2113 197.032 62.9122C197.201 63.2311 197.433 63.5115 197.716 63.7357C197.998 63.9599 198.324 64.123 198.673 64.2147C199.417 64.3716 200.193 64.2284 200.832 63.8162C201.471 63.404 201.922 62.7561 202.086 62.0135V62.0135C202.291 61.2539 202.203 60.4445 201.838 59.7472C201.67 59.4283 201.437 59.1479 201.154 58.9237C200.872 58.6995 200.546 58.5364 200.197 58.4447C199.985 58.3989 199.769 58.3792 199.552 58.3861V58.3601Z" fill="#24071D"/>
<path d="M189.816 232.991C190.406 232.991 190.884 232.166 190.884 231.148C190.884 230.13 190.406 229.305 189.816 229.305C189.226 229.305 188.748 230.13 188.748 231.148C188.748 232.166 189.226 232.991 189.816 232.991Z" fill="#24071D"/>
<path d="M183.873 232.991C184.463 232.991 184.941 232.166 184.941 231.148C184.941 230.13 184.463 229.305 183.873 229.305C183.283 229.305 182.805 230.13 182.805 231.148C182.805 232.166 183.283 232.991 183.873 232.991Z" fill="#24071D"/>
<path d="M101.569 110.895C108.23 110.895 113.63 105.495 113.63 98.8344C113.63 92.1733 108.23 86.7734 101.569 86.7734C94.9077 86.7734 89.5078 92.1733 89.5078 98.8344C89.5078 105.495 94.9077 110.895 101.569 110.895Z" fill="#FDAF4E"/>
<path d="M101.567 111.388C99.0849 111.388 96.6586 110.652 94.5949 109.273C92.5312 107.894 90.9227 105.934 89.9728 103.641C89.023 101.348 88.7745 98.8245 89.2587 96.3902C89.7429 93.9559 90.9382 91.7198 92.6932 89.9647C94.4483 88.2096 96.6844 87.0144 99.1187 86.5302C101.553 86.046 104.076 86.2945 106.369 87.2443C108.663 88.1942 110.622 89.8027 112.001 91.8664C113.38 93.9301 114.116 96.3564 114.116 98.8385C114.113 102.166 112.79 105.356 110.437 107.708C108.084 110.061 104.894 111.384 101.567 111.388V111.388ZM101.567 87.292C99.2781 87.292 97.0407 87.9707 95.1376 89.2423C93.2345 90.5139 91.7512 92.3213 90.8753 94.4359C89.9995 96.5505 89.7703 98.8773 90.2168 101.122C90.6633 103.367 91.7655 105.429 93.384 107.048C95.0024 108.666 97.0644 109.768 99.3093 110.215C101.554 110.661 103.881 110.432 105.996 109.556C108.11 108.68 109.918 107.197 111.189 105.294C112.461 103.391 113.139 101.153 113.139 98.8645C113.141 97.3431 112.843 95.8362 112.263 94.4299C111.682 93.0236 110.83 91.7455 109.755 90.6685C108.681 89.5914 107.405 88.7366 106 88.1528C104.595 87.569 103.088 87.2676 101.567 87.2659V87.292Z" fill="#24071D"/>
<path d="M229.484 33.3733C238.58 33.3733 245.953 25.9995 245.953 16.9034C245.953 7.8074 238.58 0.433594 229.484 0.433594C220.387 0.433594 213.014 7.8074 213.014 16.9034C213.014 25.9995 220.387 33.3733 229.484 33.3733Z" fill="#FDAF4E"/>
<path d="M229.483 33.8645C226.134 33.8645 222.86 32.8714 220.076 31.0109C217.291 29.1503 215.121 26.5059 213.84 23.4119C212.558 20.318 212.223 16.9135 212.876 13.6289C213.529 10.3444 215.142 7.32736 217.51 4.95934C219.878 2.59133 222.895 0.97869 226.18 0.325356C229.464 -0.327977 232.869 0.00733461 235.963 1.28889C239.057 2.57046 241.701 4.7407 243.562 7.52519C245.422 10.3097 246.415 13.5834 246.415 16.9322C246.403 21.4192 244.615 25.719 241.443 28.8918C238.27 32.0646 233.97 33.8524 229.483 33.8645V33.8645ZM229.483 0.931278C226.322 0.92999 223.231 1.86635 220.602 3.62192C217.973 5.37748 215.923 7.87338 214.713 10.7939C213.502 13.7144 213.185 16.9282 213.802 20.0289C214.418 23.1296 215.94 25.9778 218.176 28.2133C220.411 30.4487 223.26 31.9709 226.36 32.5874C229.461 33.2038 232.675 32.8868 235.595 31.6764C238.516 30.466 241.012 28.4166 242.767 25.7874C244.523 23.1583 245.459 20.0676 245.458 16.9062C245.453 12.671 243.768 8.61069 240.773 5.61593C237.779 2.62118 233.718 0.936448 229.483 0.931278V0.931278Z" fill="#24071D"/>
<path d="M106.386 104.234L101.189 99.0433V89.2812H102.166V98.6396L107.077 103.543L106.386 104.234Z" fill="#24071D"/>
<path d="M236.023 26.9001C234.32 27.1995 232.566 26.9557 231.009 26.2033C229.722 25.5746 228.535 24.7606 227.486 23.7872C225.145 21.7444 223.144 19.3415 221.559 16.6691C220.991 15.7146 220.588 14.671 220.367 13.5823C220.206 12.7302 220.23 11.8536 220.435 11.0112C220.641 10.1688 221.024 9.38012 221.559 8.69797C222.009 8.04148 222.564 7.46294 223.2 6.98521C223.478 6.80014 223.777 6.65132 224.093 6.54237C224.256 6.48154 224.432 6.46517 224.604 6.49492C224.776 6.52467 224.936 6.59948 225.069 6.71169C225.222 6.83331 225.362 6.97084 225.486 7.12197C226.413 8.26548 227.225 9.498 227.909 10.8015C227.993 10.9765 228.065 11.1571 228.124 11.342C228.174 11.4962 228.169 11.6632 228.11 11.8142C228.05 11.9652 227.94 12.0907 227.798 12.1691C227.533 12.3389 227.256 12.4912 226.971 12.625C226.606 12.7943 226.229 12.9441 225.857 13.1004C225.206 13.3674 225.017 13.7516 225.206 14.3442C225.495 15.0764 225.873 15.7699 226.333 16.4087C227.625 18.3301 229.22 20.03 231.054 21.4427C231.332 21.6567 231.624 21.8524 231.927 22.0288C232.046 22.1171 232.182 22.1806 232.326 22.2153C232.471 22.2501 232.62 22.2555 232.767 22.2312C232.913 22.2069 233.053 22.1534 233.179 22.0739C233.304 21.9944 233.412 21.8905 233.496 21.7683C233.776 21.4558 234.043 21.1171 234.33 20.8241C234.512 20.6313 234.71 20.4548 234.923 20.2966C235.061 20.1837 235.23 20.1153 235.408 20.1001C235.586 20.085 235.764 20.124 235.919 20.2119C236.11 20.3071 236.293 20.4182 236.466 20.544C237.669 21.41 238.791 22.3821 239.82 23.4485C239.923 23.5535 240.016 23.6668 240.1 23.7872C240.242 23.9616 240.315 24.1825 240.304 24.4073C240.293 24.6322 240.2 24.8451 240.041 25.005C239.778 25.3193 239.455 25.5782 239.091 25.767C238.136 26.3071 237.1 26.6897 236.023 26.9001V26.9001Z" fill="white"/>
<path d="M234.551 27.4983C233.252 27.5005 231.97 27.2088 230.8 26.6451C229.47 25.998 228.243 25.1575 227.159 24.1509C224.776 22.0777 222.742 19.6348 221.135 16.9156C220.537 15.9095 220.116 14.8081 219.891 13.6594C219.721 12.7402 219.749 11.7951 219.973 10.8875C220.198 9.98 220.614 9.13098 221.194 8.39741C221.67 7.69888 222.26 7.08479 222.939 6.58045C223.252 6.3734 223.589 6.20503 223.942 6.079C224.184 5.99282 224.444 5.97032 224.697 6.01366C224.95 6.057 225.188 6.16472 225.388 6.32647C225.574 6.47129 225.742 6.6374 225.889 6.82141C226.836 7.98772 227.663 9.24665 228.357 10.5791C228.46 10.7887 228.545 11.0065 228.611 11.2303C228.69 11.4853 228.681 11.7594 228.585 12.0085C228.489 12.2577 228.313 12.4675 228.084 12.6044C227.8 12.7864 227.504 12.9496 227.198 13.0928C226.957 13.2036 226.703 13.3078 226.456 13.412L226.065 13.5748C225.59 13.7832 225.616 13.959 225.707 14.226C225.975 14.9201 226.332 15.5767 226.768 16.1797C228.033 18.0579 229.592 19.7203 231.386 21.1031C231.649 21.3054 231.925 21.4903 232.213 21.6567C232.284 21.7138 232.367 21.7551 232.456 21.778C232.545 21.8009 232.637 21.8048 232.728 21.7894C232.818 21.774 232.904 21.7398 232.98 21.6888C233.057 21.6379 233.121 21.5715 233.17 21.4938L233.437 21.1878C233.626 20.9663 233.815 20.7514 234.017 20.5365C234.216 20.3245 234.434 20.1306 234.668 19.9569C234.882 19.7926 235.139 19.693 235.408 19.6699C235.676 19.6468 235.946 19.7012 236.185 19.8267C236.394 19.9374 236.596 20.0611 236.791 20.1914C238.017 21.0766 239.162 22.0705 240.21 23.161C240.331 23.2847 240.442 23.4175 240.542 23.5583C240.745 23.8193 240.849 24.1441 240.835 24.4746C240.82 24.8051 240.689 25.1197 240.464 25.3622C240.159 25.725 239.785 26.0238 239.363 26.2414C238.351 26.8164 237.251 27.2191 236.107 27.4331C235.591 27.493 235.07 27.5148 234.551 27.4983ZM224.437 6.93864C224.376 6.93009 224.315 6.93009 224.255 6.93864C223.982 7.0383 223.722 7.16943 223.48 7.32938C222.885 7.77339 222.369 8.31509 221.956 8.93143C221.456 9.55773 221.098 10.285 220.907 11.0631C220.716 11.8412 220.696 12.6515 220.849 13.438C221.058 14.4718 221.441 15.4627 221.982 16.3686C223.547 19.0001 225.526 21.3618 227.843 23.3629C228.857 24.3057 230.005 25.0936 231.249 25.7008C232.719 26.4113 234.376 26.6392 235.983 26.3521C237.011 26.1581 237.999 25.795 238.907 25.2775C239.218 25.1168 239.492 24.8953 239.715 24.6263C239.93 24.3528 239.904 24.2095 239.754 23.9751C239.686 23.8779 239.609 23.7864 239.526 23.7015C238.518 22.6534 237.417 21.6987 236.237 20.8491C236.082 20.7401 235.918 20.6421 235.749 20.5561C235.675 20.5107 235.588 20.49 235.502 20.4971C235.415 20.5041 235.333 20.5384 235.267 20.5951C235.079 20.737 234.902 20.8938 234.74 21.064C234.551 21.2659 234.368 21.4743 234.192 21.7153L233.919 22.0344C233.671 22.3647 233.305 22.5864 232.897 22.6532C232.489 22.7199 232.071 22.6265 231.731 22.3926C231.412 22.2022 231.104 21.9957 230.806 21.7739C228.933 20.3272 227.304 18.5903 225.98 16.6291C225.498 15.9565 225.102 15.2257 224.802 14.4539C224.726 14.2741 224.689 14.0802 224.694 13.8851C224.699 13.69 224.745 13.4981 224.829 13.3221C224.913 13.1461 225.034 12.99 225.183 12.8641C225.332 12.7381 225.506 12.6452 225.694 12.5914L226.091 12.4286C226.332 12.3309 226.566 12.2332 226.794 12.1225C227.06 11.9995 227.317 11.8581 227.563 11.6992C227.719 11.595 227.713 11.5103 227.687 11.4192C227.64 11.2619 227.579 11.1093 227.504 10.9633C226.836 9.68675 226.042 8.48029 225.134 7.36194C225.032 7.24231 224.919 7.13322 224.795 7.03632C224.692 6.96088 224.564 6.92611 224.437 6.93864V6.93864Z" fill="#24071D"/>
<path d="M43.7373 13.3203C44.6426 13.3203 45.5478 13.3203 46.453 13.3594C46.7099 13.3778 46.9492 13.4969 47.1187 13.6908C47.2883 13.8847 47.3743 14.1378 47.3582 14.3949C47.3645 14.5217 47.3446 14.6486 47.2997 14.7674C47.2548 14.8863 47.1859 14.9946 47.0973 15.0856C47.0087 15.1767 46.9023 15.2485 46.7848 15.2966C46.6672 15.3447 46.5409 15.368 46.4139 15.3652C45.6064 15.3652 44.7858 15.3131 43.9783 15.3652C37.9087 15.9643 32.9072 20.6923 31.4094 27.2699C31.4094 27.3285 31.4094 27.3936 31.3638 27.4587C31.3445 27.5807 31.2996 27.6971 31.2321 27.8004C31.1645 27.9037 31.0757 27.9915 30.9717 28.058C30.8677 28.1245 30.7508 28.1681 30.6286 28.1861C30.5065 28.204 30.3819 28.1958 30.2632 28.1621C30.0177 28.0731 29.8146 27.8953 29.694 27.6637C29.5734 27.4322 29.5441 27.1638 29.612 26.9117C29.8682 25.6745 30.2591 24.469 30.7777 23.3168C33.1178 18.1764 36.8082 14.9614 41.8487 13.672C42.1288 13.6003 42.4088 13.5352 42.6954 13.4896C42.9819 13.444 43.3466 13.418 43.7243 13.3789L43.7373 13.3203Z" fill="#FBE1CA"/>
<path d="M44.2853 17.3047C44.7216 17.3047 45.3142 17.3047 45.9069 17.3047C46.0341 17.3097 46.159 17.3399 46.2744 17.3934C46.3899 17.447 46.4936 17.5228 46.5796 17.6167C46.6656 17.7105 46.7321 17.8205 46.7754 17.9402C46.8186 18.0599 46.8378 18.187 46.8316 18.3141C46.8446 18.4415 46.8303 18.5702 46.7898 18.6917C46.7493 18.8132 46.6835 18.9247 46.5967 19.0189C46.5099 19.1131 46.4041 19.1878 46.2863 19.238C46.1685 19.2883 46.0414 19.313 45.9134 19.3105C44.932 19.2587 43.9484 19.3553 42.9958 19.5971C38.9104 20.7302 36.2273 23.5371 34.9465 28.0176C34.8228 28.4539 34.6469 28.7991 34.2171 28.8837C33.5203 29.027 32.9798 28.3367 33.1751 27.5422C33.5621 25.9387 34.2231 24.4141 35.1289 23.0356C36.1257 21.4531 37.4668 20.116 39.0521 19.1237C40.6375 18.1315 42.4263 17.5097 44.2853 17.3047V17.3047Z" fill="#FBE1CA"/>
<path d="M44.5377 21.3438C44.8047 21.3438 45.0718 21.2656 45.3453 21.2656C45.4767 21.2663 45.6065 21.2937 45.727 21.3461C45.8475 21.3984 45.9561 21.4748 46.0462 21.5704C46.1364 21.666 46.2061 21.7789 46.2513 21.9022C46.2965 22.0256 46.3162 22.1569 46.3091 22.2881C46.3161 22.4144 46.2975 22.5409 46.2544 22.6599C46.2112 22.7789 46.1444 22.8879 46.058 22.9804C45.9716 23.0729 45.8674 23.147 45.7516 23.1981C45.6358 23.2492 45.5109 23.2764 45.3843 23.278C42.2714 23.278 39.5232 25.4857 38.4812 28.7874C38.3119 29.3149 38.0188 29.582 37.6151 29.582C37.4577 29.571 37.3051 29.5233 37.1695 29.4427C37.0339 29.3622 36.9191 29.2509 36.8343 29.118C36.7494 28.985 36.6969 28.834 36.681 28.6771C36.665 28.5201 36.686 28.3617 36.7424 28.2144C37.0744 27.0395 37.6197 25.9358 38.351 24.9582C39.0652 23.9498 39.9867 23.1057 41.0537 22.4823C42.1207 21.859 43.3086 21.4708 44.5377 21.3438Z" fill="#FBE1CA"/>
<path d="M83.118 71.4649C82.8668 71.728 82.5293 71.8921 82.1672 71.9272L37.7917 76.7334C37.3802 76.7754 36.9687 76.6533 36.6467 76.3935C36.3248 76.1338 36.1184 75.7574 36.0725 75.3462L32.7056 44.2365V43.95C32.6795 43.7258 32.7033 43.4986 32.7754 43.2846C32.8474 43.0707 32.9659 42.8754 33.1224 42.7126C33.3735 42.439 33.7166 42.2674 34.0862 42.2307L78.4682 37.4246C78.8377 37.381 79.2105 37.4737 79.5167 37.6851C79.6993 37.814 79.852 37.9809 79.9644 38.1741C80.0768 38.3674 80.1462 38.5827 80.1679 38.8052L80.207 39.1764L83.5739 70.208C83.5961 70.4382 83.5666 70.6704 83.4878 70.8879C83.4089 71.1053 83.2826 71.3024 83.118 71.4649V71.4649Z" fill="white"/>
<path d="M37.6301 77.2292C37.1234 77.2306 36.6342 77.0444 36.2566 76.7065C35.879 76.3686 35.6399 75.9029 35.5852 75.3992L32.1857 44.003C32.1273 43.4624 32.2858 42.9208 32.6265 42.497C32.9672 42.0733 33.4622 41.8022 34.0027 41.7432L78.3651 36.937C78.9053 36.8803 79.4461 37.0395 79.8694 37.3799C80.2927 37.7203 80.5643 38.2142 80.6249 38.754L80.664 39.1252L84.0244 70.1568C84.0792 70.6976 83.9185 71.2383 83.5771 71.6614C83.2357 72.0845 82.7412 72.3559 82.2009 72.4166L37.8255 77.2162C37.7608 77.2259 37.6955 77.2302 37.6301 77.2292ZM78.6126 37.9009H78.4889L34.0808 42.7135C33.8314 42.7442 33.6008 42.8618 33.4296 43.0457C33.3234 43.1589 33.2428 43.2938 33.1933 43.441C33.1439 43.5882 33.1267 43.7443 33.143 43.8988V44.1853L36.5555 75.3211C36.5732 75.474 36.6229 75.6216 36.7015 75.754C36.78 75.8864 36.8856 76.0007 37.0114 76.0895C37.2263 76.2325 37.4839 76.297 37.7408 76.2719L82.1163 71.4136C82.3632 71.3888 82.5936 71.2782 82.7675 71.1011V71.1011C82.8778 70.9874 82.9618 70.851 83.0136 70.7013C83.0654 70.5516 83.0836 70.3924 83.0671 70.2349L79.6676 38.8517C79.6363 38.5919 79.5124 38.3521 79.3187 38.1762C79.1249 38.0004 78.8742 37.9003 78.6126 37.8943V37.9009Z" fill="#24071D"/>
<path d="M83.1157 71.4657C82.8644 71.7288 82.527 71.8929 82.1648 71.9281L37.7894 76.7342C37.4163 76.772 37.0421 76.675 36.7344 76.4607L53.0154 57.6269L56.6232 53.4459C56.8822 53.1461 57.245 52.9553 57.6387 52.9118C58.0325 52.8683 58.4281 52.9754 58.7463 53.2115L63.1942 56.5458L83.1157 71.4657Z" fill="white"/>
<path d="M37.6307 77.2309C37.2118 77.2323 36.8026 77.105 36.4585 76.8662L36.0156 76.5537L56.2562 53.109C56.5958 52.7169 57.0709 52.4676 57.5865 52.4108C58.1021 52.354 58.6202 52.4941 59.0369 52.8029L83.8557 71.4154L83.4714 71.8126C83.1391 72.1531 82.7001 72.3692 82.2276 72.4248L37.8456 77.2244C37.7743 77.2331 37.7024 77.2352 37.6307 77.2309V77.2309ZM37.5656 76.2541H37.7414L82.1169 71.4154C82.16 71.4222 82.204 71.4222 82.2471 71.4154L58.4508 53.5975C58.2318 53.436 57.96 53.3632 57.6896 53.3933C57.4192 53.4235 57.1701 53.5545 56.992 53.7603L37.5656 76.2541Z" fill="#24071D"/>
<path opacity="0.26" d="M79.944 39.0011L63.9757 57.6917L60.0161 62.3285C59.7294 62.6598 59.329 62.8717 58.8938 62.9223C58.4586 62.973 58.0202 62.8587 57.6652 62.602L52.6701 58.9942L32.651 44.5171V44.2306C32.6226 44.0098 32.6434 43.7855 32.7121 43.5738C32.7808 43.362 32.8956 43.1682 33.0483 43.0062C33.3013 42.734 33.643 42.5609 34.0121 42.5178L78.2052 37.3079C78.573 37.2641 78.9444 37.3517 79.2537 37.5554C79.4399 37.6776 79.5974 37.8387 79.7154 38.0275C79.8335 38.2164 79.9092 38.4285 79.9375 38.6494L79.944 39.0011Z" fill="#680000"/>
<path d="M79.4841 37.7827L63.2032 56.6687L59.5953 60.8496C59.3374 61.1493 58.9752 61.3397 58.5821 61.382C58.189 61.4243 57.7945 61.3155 57.4788 61.0776L53.0113 57.7367L33.0898 42.8233C33.3444 42.5507 33.6891 42.3795 34.0602 42.3414L78.4356 37.5483C78.8018 37.5006 79.1731 37.5837 79.4841 37.7827V37.7827Z" fill="#E3803A"/>
<path d="M58.3959 61.8521C57.9541 61.8517 57.5245 61.7077 57.1716 61.4419L32.3594 42.8685L32.7306 42.4712C33.0709 42.1027 33.534 41.8711 34.0331 41.82L78.3629 37.0334C78.8499 36.9758 79.341 37.0986 79.7436 37.3786L80.1929 37.6912L59.9329 61.1358C59.7417 61.3569 59.506 61.535 59.2411 61.6585C58.9762 61.7819 58.6882 61.8479 58.3959 61.8521V61.8521ZM33.9484 42.8359L57.7577 60.6604C57.9749 60.8221 58.2452 60.8959 58.5145 60.8669C58.7838 60.8379 59.0322 60.7083 59.21 60.5041L78.656 37.9972H78.4867L34.1112 42.8034L33.9484 42.8359Z" fill="#24071D"/>
<path d="M38.7374 82.0521C37.0199 82.0229 35.3368 81.565 33.8412 80.7199C32.3457 79.8749 31.0849 78.6695 30.1736 77.2134C30.1093 77.1084 30.0869 76.983 30.111 76.8622C30.1352 76.7414 30.2041 76.6343 30.3039 76.5621C30.4093 76.4992 30.5343 76.4777 30.6546 76.5018C30.7749 76.5259 30.882 76.5938 30.9551 76.6924C34.2113 81.5832 39.0044 81.1013 39.2128 81.0817C39.2773 81.073 39.3428 81.0772 39.4055 81.0941C39.4683 81.1111 39.5271 81.1403 39.5784 81.1803C39.6297 81.2202 39.6725 81.2699 39.7043 81.3266C39.7362 81.3833 39.7563 81.4458 39.7637 81.5104C39.7711 81.575 39.7655 81.6404 39.7472 81.7028C39.729 81.7652 39.6985 81.8233 39.6575 81.8737C39.6165 81.9242 39.5659 81.966 39.5085 81.9966C39.4512 82.0272 39.3883 82.0461 39.3236 82.0521C39.291 82.026 39.0891 82.0521 38.7374 82.0521Z" fill="#24071D"/>
<path d="M279.597 94.4871C279.313 94.7766 278.938 94.9585 278.535 95.0016L228.8 100.387C228.382 100.435 227.96 100.328 227.615 100.088C227.407 99.9453 227.233 99.7599 227.104 99.5442C226.975 99.3284 226.894 99.0873 226.866 98.8374L223.095 63.9635L223.056 63.6379C223.03 63.3866 223.059 63.1327 223.14 62.8934C223.221 62.6541 223.352 62.4349 223.525 62.2507C223.81 61.9448 224.196 61.7527 224.612 61.7102L274.361 56.3245C274.775 56.2747 275.193 56.3815 275.533 56.624C275.743 56.7645 275.919 56.9493 276.049 57.1654C276.18 57.3814 276.262 57.6234 276.288 57.8744L276.327 58.2847L280.098 93.0739C280.124 93.3319 280.092 93.5923 280.006 93.8366C279.919 94.081 279.779 94.3031 279.597 94.4871Z" fill="white"/>
<path d="M228.578 100.896C228.026 100.893 227.495 100.688 227.085 100.319C226.674 99.9506 226.413 99.4443 226.351 98.8962L222.541 63.7293C222.505 63.4077 222.54 63.0822 222.642 62.7752C222.744 62.4682 222.912 62.1872 223.134 61.9514C223.503 61.5655 223.996 61.3212 224.527 61.2611L274.276 55.8754C274.86 55.8146 275.445 55.985 275.905 56.3502C276.365 56.7154 276.664 57.2462 276.737 57.8291L276.783 58.2394L280.554 93.0286C280.586 93.3588 280.545 93.6921 280.432 94.0042C280.319 94.3163 280.138 94.5993 279.902 94.8325C279.536 95.1982 279.056 95.428 278.541 95.4837L228.8 100.883L228.578 100.896ZM274.523 56.8066H274.386L224.638 62.1924C224.305 62.2301 224.001 62.3977 223.791 62.6587C223.581 62.9197 223.483 63.253 223.518 63.586L223.551 63.9116L227.328 98.7855C227.373 99.1148 227.543 99.4143 227.802 99.6225C228.061 99.8308 228.39 99.9321 228.721 99.9057L278.463 94.5199C278.756 94.4912 279.03 94.357 279.232 94.1422C279.363 94.0102 279.464 93.8506 279.526 93.6748C279.588 93.499 279.609 93.3116 279.59 93.1263L275.773 57.9593C275.732 57.655 275.585 57.3751 275.357 57.169C275.13 56.9628 274.836 56.8437 274.53 56.8327L274.523 56.8066Z" fill="#24071D"/>
<path d="M279.599 94.4902C279.316 94.7797 278.94 94.9616 278.538 95.0047L228.802 100.39C228.384 100.435 227.964 100.329 227.617 100.091L245.852 78.9712L249.903 74.2823C250.19 73.9537 250.589 73.7442 251.023 73.6949C251.457 73.6455 251.893 73.7597 252.247 74.0153L257.242 77.7534L279.599 94.4902Z" fill="white"/>
<path d="M228.579 100.896C228.114 100.9 227.659 100.759 227.277 100.493L226.834 100.187L249.478 73.9677C249.849 73.5399 250.368 73.2685 250.931 73.2081C251.494 73.1477 252.059 73.3027 252.512 73.6421L280.288 94.4296L279.903 94.8334C279.538 95.2005 279.057 95.4304 278.542 95.4846L228.801 100.883L228.579 100.896ZM228.397 99.9066C228.503 99.9164 228.61 99.9164 228.716 99.9066L278.464 94.5208C278.555 94.5075 278.644 94.4879 278.731 94.4622L251.959 74.417C251.7 74.2337 251.383 74.1511 251.068 74.1847C250.753 74.2183 250.46 74.3657 250.246 74.5994L228.397 99.9066Z" fill="#24071D"/>
<path opacity="0.26" d="M276.021 58.0949L258.105 79.0453L253.657 84.2552C253.339 84.6213 252.897 84.8561 252.415 84.9138C251.934 84.9716 251.448 84.8483 251.052 84.5678L245.452 80.5301L223.004 64.2817L222.964 63.9626C222.936 63.7147 222.961 63.4636 223.039 63.2264C223.116 62.9893 223.244 62.7717 223.414 62.5885C223.698 62.2843 224.081 62.0905 224.495 62.0415L274.035 56.1803C274.448 56.1311 274.866 56.2303 275.213 56.4603C275.422 56.5984 275.598 56.7799 275.729 56.9924C275.861 57.2048 275.945 57.4432 275.975 57.6912L276.021 58.0949Z" fill="#680000"/>
<path d="M275.507 56.7306L257.239 77.8698L253.189 82.5587C252.899 82.8938 252.494 83.1064 252.054 83.1535C251.613 83.2007 251.172 83.0789 250.818 82.8127L245.823 79.0746L223.492 62.3573C223.778 62.0527 224.164 61.8609 224.58 61.8168L274.328 56.431C274.744 56.3886 275.161 56.4947 275.507 56.7306V56.7306Z" fill="#FDAF4E"/>
<path d="M251.868 83.6461C251.384 83.648 250.913 83.4925 250.526 83.2033L222.764 62.4222L223.135 62.0249C223.501 61.6339 223.996 61.3886 224.529 61.3346L274.277 55.9489C274.808 55.8856 275.343 56.0201 275.781 56.3266L276.23 56.6392L253.548 82.8776C253.339 83.1182 253.081 83.3112 252.791 83.4437C252.501 83.5763 252.186 83.6453 251.868 83.6461V83.6461ZM224.327 62.3766L251.112 82.4218C251.371 82.6051 251.688 82.6877 252.003 82.6541C252.318 82.6206 252.611 82.4731 252.825 82.2394L274.694 56.9192C274.59 56.9062 274.485 56.9062 274.381 56.9192L224.633 62.2919C224.527 62.3036 224.423 62.3322 224.327 62.3766V62.3766Z" fill="#24071D"/>
<path d="M280.748 56.0242C280.677 56.024 280.607 56.0082 280.542 55.9778C280.478 55.9474 280.422 55.9032 280.377 55.8484C276.072 50.7947 270.784 51.9409 270.562 51.993C270.5 52.0084 270.435 52.0112 270.371 52.0011C270.308 51.991 270.247 51.9683 270.192 51.9343C270.138 51.9003 270.09 51.8557 270.053 51.8032C270.016 51.7506 269.99 51.6912 269.976 51.6283C269.949 51.5024 269.971 51.3707 270.04 51.2612C270.108 51.1517 270.216 51.0732 270.341 51.0422C270.588 50.9836 276.417 49.6942 281.119 55.2167C281.202 55.3157 281.243 55.4434 281.234 55.5724C281.224 55.7015 281.164 55.8216 281.067 55.907C280.977 55.9815 280.864 56.0229 280.748 56.0242V56.0242Z" fill="#24071D"/>
<path d="M240.52 34.8081C240.434 34.8072 240.35 34.7839 240.276 34.7405C240.202 34.6971 240.14 34.6351 240.097 34.5607C240.04 34.4485 240.027 34.3186 240.063 34.1976C240.098 34.0766 240.178 33.9736 240.286 33.9094C248.752 29.1749 248.602 21.0279 248.602 20.9498C248.599 20.8207 248.646 20.6953 248.733 20.6004C248.821 20.5055 248.942 20.4486 249.071 20.4418C249.136 20.4392 249.2 20.4495 249.261 20.472C249.322 20.4946 249.377 20.529 249.425 20.5732C249.472 20.6175 249.51 20.6706 249.536 20.7297C249.563 20.7888 249.578 20.8525 249.579 20.9172C249.579 21.0019 249.768 29.7415 240.761 34.7691C240.685 34.8008 240.603 34.8141 240.52 34.8081V34.8081Z" fill="#24071D"/>
</svg>
