<svg width="615" height="448" viewBox="0 0 615 448" fill="none" xmlns="http://www.w3.org/2000/svg">
<g filter="url(#filter0_f_388_392)">
<circle cx="511.529" cy="200.176" r="45.1765" fill="#C10FC1"/>
</g>
<path d="M523.96 175.349L523.886 189.744C523.87 192.962 525.13 196.054 527.391 198.341C529.652 200.628 532.727 201.922 535.94 201.938C539.154 201.955 542.242 200.692 544.526 198.429C546.81 196.165 548.102 193.085 548.118 189.868L548.19 175.472L523.96 175.349ZM544.095 189.474C544.085 191.622 543.222 193.677 541.698 195.188C540.174 196.699 538.113 197.542 535.968 197.531C533.824 197.52 531.771 196.657 530.262 195.131C528.753 193.605 527.912 191.541 527.922 189.393L527.97 179.775L544.142 179.858L544.095 189.474Z" fill="#DF8943"/>
<path d="M536.004 202.113H535.939C534.325 202.104 532.729 201.778 531.241 201.151C529.754 200.525 528.404 199.611 527.269 198.462C526.134 197.314 525.236 195.952 524.627 194.456C524.017 192.96 523.708 191.358 523.717 189.742L523.791 175.173L548.36 175.297L548.286 189.866C548.268 193.117 546.966 196.229 544.665 198.524C542.365 200.818 539.251 202.108 536.004 202.113V202.113ZM524.126 175.517L524.054 189.751C524.046 191.322 524.347 192.879 524.94 194.334C525.533 195.788 526.407 197.111 527.511 198.228C528.614 199.344 529.927 200.232 531.374 200.84C532.82 201.449 534.372 201.766 535.941 201.773H536.004C539.161 201.769 542.188 200.516 544.426 198.286C546.663 196.056 547.93 193.031 547.949 189.87L548.021 175.637L524.126 175.517ZM536.004 197.702H535.961C534.876 197.697 533.802 197.478 532.801 197.056C531.801 196.635 530.893 196.021 530.13 195.247C529.367 194.474 528.763 193.558 528.354 192.551C527.946 191.544 527.739 190.467 527.747 189.38L527.796 179.595L544.313 179.679L544.263 189.465C544.252 191.652 543.377 193.746 541.83 195.289C540.282 196.832 538.188 197.7 536.004 197.702ZM528.131 179.946L528.084 189.393C528.078 190.435 528.277 191.467 528.67 192.432C529.063 193.396 529.642 194.274 530.374 195.014C531.106 195.754 531.976 196.343 532.935 196.746C533.894 197.149 534.923 197.36 535.963 197.365H536.004C538.097 197.362 540.104 196.532 541.588 195.054C543.072 193.576 543.913 191.57 543.926 189.474L543.974 180.027L528.131 179.946Z" fill="#24071D"/>
<path opacity="0.26" d="M545.984 175.418L545.915 188.896C545.881 195.599 540.503 201.152 533.81 201.157C532.87 201.158 531.933 201.05 531.018 200.835C532.507 201.506 534.116 201.868 535.748 201.899C542.509 202.03 548.071 196.395 548.102 189.625L548.165 177.029C548.167 176.602 548 176.192 547.7 175.889C547.4 175.586 546.992 175.414 546.566 175.412L545.984 175.418Z" fill="#680000"/>
<path d="M480.407 176.736L480.342 189.332C480.31 195.986 485.546 201.577 492.189 201.723C493.797 201.759 495.396 201.474 496.893 200.885C498.39 200.295 499.754 199.413 500.907 198.289C502.06 197.166 502.977 195.824 503.607 194.342C504.236 192.86 504.564 191.267 504.572 189.656L504.646 175.261L482.022 175.146C481.598 175.144 481.19 175.31 480.888 175.608C480.585 175.906 480.412 176.311 480.407 176.736V176.736ZM500.551 189.253C500.546 190.317 500.332 191.369 499.92 192.349C499.509 193.33 498.909 194.219 498.154 194.967C497.4 195.715 496.505 196.307 495.522 196.709C494.539 197.112 493.486 197.316 492.424 197.31C491.363 197.305 490.312 197.09 489.333 196.678C488.354 196.267 487.465 195.666 486.718 194.91C485.209 193.384 484.368 191.32 484.378 189.172L484.428 179.555L500.601 179.638L500.551 189.253Z" fill="#DF8943"/>
<path d="M492.469 201.89H492.193C485.538 201.744 480.149 196.109 480.185 189.33L480.248 176.734C480.249 176.264 480.437 175.814 480.77 175.482C481.102 175.15 481.553 174.964 482.022 174.964V174.964L504.815 175.081L504.743 189.649C504.726 192.899 503.426 196.01 501.127 198.304C498.827 200.597 495.715 201.886 492.469 201.89ZM482.022 175.304C481.642 175.305 481.278 175.456 481.009 175.725C480.739 175.994 480.587 176.358 480.585 176.739L480.522 189.334C480.488 195.932 485.726 201.413 492.202 201.555C493.788 201.59 495.365 201.309 496.841 200.727C498.317 200.146 499.663 199.276 500.8 198.168C501.937 197.06 502.842 195.737 503.463 194.275C504.083 192.813 504.407 191.242 504.415 189.654L504.487 175.423L482.024 175.308L482.022 175.304ZM492.469 197.481H492.427C490.237 197.468 488.143 196.585 486.602 195.027C485.062 193.469 484.202 191.363 484.21 189.17L484.259 179.386L500.778 179.469L500.729 189.254C500.719 191.44 499.844 193.533 498.296 195.075C496.748 196.617 494.653 197.483 492.469 197.481ZM484.608 179.726L484.558 189.173C484.547 191.277 485.372 193.299 486.85 194.794C488.328 196.289 490.339 197.135 492.44 197.146C494.541 197.157 496.561 196.331 498.054 194.851C499.547 193.371 500.392 191.358 500.403 189.254L500.45 179.807L484.608 179.726Z" fill="#24071D"/>
<path d="M519.573 212.771L508.646 212.715L508.573 227.142L519.5 227.197L519.573 212.771Z" fill="#DF8943"/>
<path d="M519.666 227.365L508.401 227.309L508.478 212.545L519.74 212.603L519.666 227.365ZM508.741 226.974L519.332 227.028L519.403 212.939L508.812 212.885L508.741 226.974Z" fill="#24071D"/>
<path d="M523.871 221.943L504.25 221.844C503.418 221.839 502.74 222.512 502.736 223.345L502.715 227.36C502.711 228.194 503.382 228.873 504.215 228.877L523.835 228.977C524.668 228.981 525.346 228.309 525.35 227.475L525.371 223.46C525.375 222.626 524.703 221.947 523.871 221.943Z" fill="#DF8943"/>
<path d="M523.845 229.145L504.218 229.039C503.773 229.036 503.348 228.857 503.036 228.541C502.723 228.225 502.549 227.797 502.551 227.352L502.571 223.337C502.574 222.894 502.752 222.47 503.066 222.157C503.379 221.844 503.804 221.669 504.247 221.668V221.668L523.868 221.767C524.312 221.77 524.737 221.949 525.049 222.265C525.362 222.582 525.536 223.009 525.534 223.454L525.514 227.469C525.514 227.913 525.338 228.338 525.025 228.652C524.712 228.966 524.288 229.143 523.845 229.145V229.145ZM523.845 228.808C524.2 228.808 524.54 228.668 524.793 228.418C525.045 228.168 525.189 227.829 525.193 227.474L525.213 223.459C525.213 223.103 525.073 222.762 524.824 222.51C524.575 222.257 524.236 222.113 523.881 222.109L504.26 222.01C503.905 222.01 503.565 222.15 503.313 222.4C503.06 222.649 502.917 222.989 502.912 223.344L502.892 227.359C502.892 227.714 503.032 228.055 503.281 228.308C503.531 228.56 503.87 228.704 504.224 228.709L523.845 228.808Z" fill="#24071D"/>
<path opacity="0.26" d="M516.744 212.754L516.697 221.904L519.417 221.918L519.464 212.768L516.744 212.754Z" fill="#680000"/>
<path opacity="0.26" d="M525.262 223.605L525.244 227.33C525.243 227.547 525.199 227.762 525.115 227.963C525.031 228.163 524.908 228.345 524.753 228.498C524.599 228.651 524.416 228.772 524.215 228.854C524.014 228.936 523.799 228.978 523.582 228.976L520.859 228.963C521.298 228.965 521.72 228.792 522.031 228.483C522.343 228.174 522.519 227.753 522.522 227.314L522.542 223.591C522.544 223.152 522.371 222.73 522.062 222.418C521.754 222.106 521.334 221.929 520.895 221.927L523.618 221.94C523.835 221.941 524.05 221.985 524.25 222.069C524.45 222.153 524.632 222.276 524.785 222.431C524.938 222.585 525.058 222.769 525.14 222.97C525.222 223.172 525.263 223.387 525.262 223.605Z" fill="#680000"/>
<path d="M495.489 226.131L532.587 226.319C532.987 226.321 533.369 226.482 533.651 226.766C533.932 227.051 534.089 227.435 534.087 227.836L534.032 238.587L493.926 238.384L493.981 227.632C493.983 227.233 494.142 226.851 494.425 226.57C494.708 226.288 495.09 226.13 495.489 226.131V226.131Z" fill="#E3803A"/>
<path d="M534.2 238.765L493.768 238.56L493.821 227.633C493.824 227.189 494.002 226.765 494.317 226.451C494.631 226.138 495.056 225.962 495.499 225.962L532.592 226.151C533.036 226.154 533.461 226.333 533.773 226.649C534.086 226.966 534.26 227.393 534.258 227.838L534.2 238.765ZM494.093 238.225L533.865 238.425L533.917 227.836C533.917 227.48 533.777 227.139 533.528 226.887C533.278 226.634 532.94 226.49 532.585 226.486L495.495 226.297C495.14 226.297 494.8 226.437 494.547 226.687C494.295 226.936 494.151 227.276 494.147 227.631L494.093 238.225Z" fill="#24071D"/>
<path opacity="0.26" d="M533.913 227.984L533.868 236.938C533.868 237.854 534.335 238.652 533.419 238.646L528.421 238.567C528.86 238.569 529.281 238.396 529.593 238.087C529.904 237.778 530.081 237.357 530.083 236.918L530.128 227.964C530.129 227.746 530.088 227.531 530.006 227.33C529.924 227.128 529.803 226.945 529.65 226.791C529.497 226.636 529.316 226.513 529.116 226.429C528.916 226.344 528.701 226.3 528.484 226.299L532.266 226.317C532.484 226.318 532.699 226.362 532.9 226.446C533.1 226.531 533.282 226.654 533.435 226.809C533.588 226.963 533.709 227.147 533.791 227.349C533.873 227.55 533.914 227.766 533.913 227.984V227.984Z" fill="#680000"/>
<path d="M537.911 167.634V168.599L537.778 194.764C537.764 197.591 537.194 200.388 536.101 202.994C535.007 205.601 533.412 207.966 531.405 209.955C529.399 211.943 527.021 213.517 524.407 214.586C521.793 215.654 518.995 216.197 516.172 216.182L512.014 216.162C509.19 216.15 506.397 215.58 503.793 214.486C501.189 213.392 498.826 211.794 496.84 209.785C494.853 207.775 493.282 205.393 492.215 202.775C491.149 200.157 490.609 197.354 490.625 194.526L490.762 167.393L537.911 167.634Z" fill="#DF8943"/>
<path d="M516.282 216.344H516.169L512.012 216.323C509.165 216.31 506.348 215.735 503.723 214.631C501.098 213.527 498.716 211.916 496.714 209.89C494.711 207.863 493.127 205.462 492.052 202.822C490.976 200.182 490.431 197.356 490.448 194.505L490.587 167.204L538.075 167.447V168.571L537.942 194.737C537.912 200.472 535.617 205.963 531.559 210.011C527.502 214.059 522.009 216.335 516.282 216.344ZM490.928 167.554L490.791 194.519C490.774 197.325 491.31 200.107 492.367 202.705C493.425 205.304 494.984 207.668 496.955 209.663C498.927 211.657 501.271 213.243 503.855 214.329C506.439 215.415 509.211 215.981 512.014 215.993L516.172 216.013H516.282C521.917 216.005 527.322 213.767 531.316 209.786C535.311 205.806 537.572 200.405 537.607 194.762L537.744 167.8L490.928 167.554Z" fill="#24071D"/>
<path opacity="0.26" d="M537.911 168.592L537.779 194.757C537.765 197.584 537.194 200.381 536.101 202.987C535.007 205.594 533.412 207.959 531.406 209.948C529.399 211.936 527.021 213.51 524.407 214.579C521.794 215.647 518.995 216.19 516.172 216.175L512.014 216.155C509.344 216.141 506.7 215.629 504.218 214.643C501.659 213.362 499.354 211.626 497.416 209.519C500.933 212.033 505.072 213.531 509.381 213.85C513.69 214.169 518.004 213.296 521.851 211.327C525.699 209.358 528.932 206.369 531.199 202.685C533.465 199.002 534.678 194.765 534.704 190.439L534.814 168.567L537.911 168.592Z" fill="#680000"/>
<path d="M542.753 161.574L485.985 161.287C485.28 161.283 484.706 161.852 484.703 162.558L484.667 169.51C484.664 170.216 485.232 170.791 485.937 170.794L542.705 171.082C543.41 171.086 543.984 170.517 543.988 169.811L544.023 162.859C544.026 162.153 543.458 161.578 542.753 161.574Z" fill="#DF8943"/>
<path d="M542.711 171.248L485.942 170.961C485.559 170.958 485.192 170.804 484.923 170.531C484.653 170.259 484.503 169.891 484.504 169.507L484.54 162.555C484.54 162.365 484.578 162.178 484.651 162.003C484.724 161.828 484.832 161.669 484.967 161.536C485.239 161.266 485.608 161.116 485.991 161.118L542.76 161.406C542.95 161.406 543.138 161.444 543.313 161.518C543.488 161.591 543.647 161.698 543.78 161.833C543.914 161.968 544.019 162.128 544.091 162.304C544.163 162.48 544.199 162.669 544.198 162.859L544.162 169.811C544.16 170.193 544.007 170.559 543.736 170.829C543.466 171.098 543.099 171.249 542.717 171.248H542.711ZM542.711 170.911C542.856 170.912 543 170.884 543.135 170.829C543.269 170.774 543.392 170.693 543.495 170.591C543.598 170.489 543.68 170.367 543.737 170.233C543.793 170.098 543.822 169.954 543.823 169.809L543.859 162.856C543.861 162.71 543.834 162.564 543.779 162.428C543.725 162.292 543.644 162.168 543.541 162.064C543.439 161.959 543.317 161.876 543.182 161.819C543.047 161.762 542.902 161.732 542.756 161.732L485.986 161.444C485.694 161.443 485.413 161.559 485.205 161.766C484.997 161.972 484.88 162.253 484.879 162.546L484.843 169.498C484.842 169.792 484.957 170.074 485.163 170.283C485.37 170.492 485.65 170.61 485.944 170.612L542.711 170.911Z" fill="#24071D"/>
<path opacity="0.26" d="M543.872 163.11L543.839 169.815C543.838 169.999 543.801 170.181 543.73 170.351C543.658 170.521 543.555 170.675 543.424 170.804C543.294 170.934 543.139 171.036 542.969 171.106C542.798 171.175 542.616 171.211 542.433 171.21L538.729 171.192C539.099 171.193 539.456 171.047 539.719 170.785C539.983 170.524 540.132 170.169 540.135 169.797L540.168 163.092C540.169 162.908 540.134 162.726 540.064 162.555C539.995 162.385 539.893 162.23 539.763 162.099C539.634 161.969 539.48 161.865 539.311 161.793C539.141 161.722 538.959 161.685 538.776 161.684L542.482 161.704C542.666 161.705 542.847 161.742 543.017 161.813C543.186 161.884 543.339 161.988 543.469 162.118C543.598 162.249 543.7 162.404 543.769 162.574C543.839 162.744 543.874 162.926 543.872 163.11V163.11Z" fill="#680000"/>
<path d="M515.426 179.903L516.794 184.199C516.889 184.497 517.075 184.756 517.327 184.941C517.578 185.126 517.881 185.226 518.193 185.227L522.686 185.25C522.998 185.251 523.301 185.351 523.553 185.536C523.804 185.721 523.991 185.981 524.086 186.278C524.18 186.576 524.179 186.896 524.08 187.192C523.982 187.489 523.793 187.747 523.539 187.929L519.882 190.56C519.629 190.743 519.44 191.001 519.343 191.297C519.245 191.594 519.244 191.914 519.339 192.211L520.709 196.507C520.804 196.805 520.802 197.124 520.704 197.421C520.606 197.717 520.417 197.974 520.164 198.157C519.911 198.339 519.607 198.436 519.295 198.434C518.983 198.432 518.68 198.332 518.429 198.147L514.799 195.477C514.547 195.294 514.243 195.195 513.931 195.195C513.619 195.195 513.315 195.294 513.063 195.477L509.406 198.111C509.153 198.293 508.849 198.39 508.537 198.389C508.225 198.387 507.922 198.286 507.671 198.102C507.42 197.917 507.234 197.657 507.139 197.36C507.044 197.063 507.046 196.743 507.144 196.447L508.557 192.173C508.654 191.877 508.655 191.557 508.561 191.26C508.466 190.962 508.28 190.703 508.029 190.518L504.41 187.832C504.159 187.647 503.972 187.388 503.877 187.09C503.782 186.793 503.783 186.473 503.881 186.176C503.979 185.88 504.168 185.622 504.421 185.44C504.675 185.257 504.979 185.16 505.291 185.162L509.783 185.184C510.095 185.186 510.399 185.089 510.652 184.906C510.905 184.724 511.094 184.466 511.192 184.17L512.607 179.896C512.701 179.595 512.889 179.332 513.143 179.146C513.397 178.959 513.704 178.859 514.019 178.86C514.334 178.861 514.64 178.962 514.894 179.15C515.147 179.338 515.333 179.602 515.426 179.903V179.903Z" fill="white"/>
<path d="M519.314 198.608C518.963 198.607 518.622 198.493 518.339 198.284L514.709 195.614C514.486 195.452 514.217 195.364 513.941 195.364C513.665 195.364 513.396 195.452 513.173 195.614L509.516 198.248C509.234 198.451 508.895 198.56 508.548 198.558C508.2 198.556 507.862 198.444 507.582 198.238C507.302 198.032 507.095 197.742 506.99 197.411C506.884 197.079 506.886 196.723 506.996 196.393L508.409 192.119C508.496 191.857 508.498 191.573 508.414 191.31C508.33 191.046 508.164 190.816 507.942 190.653L504.312 187.967C504.032 187.762 503.825 187.473 503.719 187.143C503.613 186.812 503.614 186.457 503.722 186.127C503.83 185.798 504.039 185.51 504.32 185.307C504.6 185.103 504.938 184.993 505.284 184.993V184.993L509.777 185.016C510.052 185.016 510.32 184.929 510.543 184.768C510.765 184.606 510.931 184.378 511.017 184.116L512.43 179.843C512.536 179.513 512.744 179.225 513.025 179.023C513.306 178.821 513.645 178.714 513.991 178.718V178.718C514.339 178.715 514.679 178.825 514.96 179.031C515.241 179.238 515.448 179.529 515.55 179.863L516.92 184.159C517.003 184.423 517.168 184.653 517.391 184.817C517.614 184.981 517.883 185.069 518.16 185.07L522.652 185.092C523 185.094 523.338 185.206 523.618 185.412C523.898 185.618 524.106 185.907 524.211 186.239C524.317 186.57 524.315 186.927 524.205 187.257C524.096 187.587 523.885 187.874 523.602 188.077L519.945 190.709C519.721 190.87 519.553 191.098 519.467 191.361C519.38 191.624 519.378 191.907 519.463 192.171L520.833 196.467C520.942 196.798 520.943 197.155 520.833 197.486C520.724 197.817 520.511 198.104 520.226 198.305C519.959 198.494 519.642 198.6 519.314 198.608V198.608ZM513.937 195.021C514.287 195.021 514.628 195.134 514.909 195.342L518.539 198.012C518.762 198.177 519.031 198.267 519.308 198.269C519.585 198.271 519.855 198.185 520.08 198.023C520.305 197.861 520.473 197.632 520.559 197.368C520.646 197.105 520.646 196.821 520.561 196.557L519.191 192.261C519.085 191.929 519.087 191.573 519.196 191.243C519.306 190.913 519.517 190.626 519.799 190.423L523.456 187.791C523.68 187.629 523.846 187.401 523.932 187.139C524.018 186.876 524.019 186.594 523.935 186.331C523.851 186.068 523.687 185.838 523.465 185.674C523.243 185.51 522.975 185.421 522.699 185.418L518.207 185.396C517.86 185.395 517.521 185.283 517.241 185.078C516.961 184.872 516.753 184.583 516.648 184.251L515.278 179.955C515.199 179.689 515.035 179.456 514.812 179.292C514.588 179.127 514.317 179.04 514.04 179.044V179.044C513.764 179.039 513.493 179.124 513.27 179.286C513.046 179.448 512.881 179.679 512.8 179.944L511.387 184.217C511.276 184.546 511.064 184.832 510.782 185.034C510.5 185.235 510.162 185.343 509.815 185.342L505.322 185.32C505.047 185.32 504.779 185.407 504.556 185.569C504.333 185.731 504.167 185.959 504.081 186.221C503.996 186.483 503.995 186.766 504.079 187.028C504.163 187.291 504.328 187.52 504.55 187.684L508.18 190.353C508.461 190.558 508.669 190.848 508.775 191.179C508.881 191.511 508.878 191.868 508.768 192.198L507.355 196.471C507.268 196.734 507.266 197.017 507.35 197.281C507.434 197.544 507.599 197.775 507.821 197.939C508.044 198.102 508.313 198.191 508.589 198.193C508.865 198.194 509.135 198.108 509.359 197.947L512.978 195.333C513.257 195.131 513.592 195.021 513.937 195.021Z" fill="#24071D"/>
<path d="M517.918 211.648C517.882 211.648 517.846 211.636 517.817 211.614C517.788 211.592 517.767 211.561 517.757 211.526C517.744 211.483 517.749 211.437 517.771 211.398C517.792 211.358 517.828 211.329 517.871 211.317C528.653 208.222 532.485 196.323 532.524 196.204C532.53 196.183 532.541 196.163 532.555 196.146C532.569 196.129 532.586 196.115 532.606 196.104C532.626 196.094 532.647 196.088 532.669 196.086C532.691 196.084 532.714 196.087 532.735 196.094C532.777 196.107 532.813 196.137 532.833 196.177C532.854 196.216 532.858 196.263 532.845 196.305C532.807 196.427 528.916 208.496 517.963 211.641C517.949 211.645 517.934 211.648 517.918 211.648Z" fill="#FBE1CA"/>
<path d="M533.221 194.175C533.199 194.175 533.176 194.17 533.156 194.161C533.135 194.152 533.117 194.138 533.102 194.122C533.086 194.106 533.074 194.087 533.066 194.066C533.058 194.045 533.054 194.022 533.055 194C533.06 193.935 533.074 193.87 533.097 193.809C533.511 192.459 533.668 190.21 533.565 187.148C533.563 187.103 533.58 187.06 533.611 187.027C533.641 186.994 533.684 186.975 533.729 186.973C533.751 186.972 533.773 186.975 533.794 186.983C533.815 186.991 533.834 187.003 533.85 187.018C533.866 187.034 533.879 187.052 533.888 187.072C533.897 187.093 533.901 187.115 533.902 187.137C534.007 190.234 533.845 192.513 533.421 193.908C533.405 193.957 533.394 193.991 533.389 194.013C533.389 194.035 533.385 194.057 533.377 194.077C533.368 194.097 533.355 194.115 533.34 194.13C533.324 194.146 533.305 194.157 533.285 194.165C533.265 194.173 533.243 194.176 533.221 194.175V194.175Z" fill="#FBE1CA"/>
<path d="M530.035 235.29C530.013 235.29 529.992 235.286 529.971 235.277C529.951 235.269 529.933 235.256 529.917 235.24C529.902 235.225 529.889 235.206 529.881 235.186C529.873 235.165 529.869 235.143 529.869 235.121L529.896 229.376C529.895 229.354 529.899 229.331 529.908 229.311C529.916 229.29 529.929 229.271 529.945 229.255C529.961 229.24 529.98 229.228 530.001 229.22C530.022 229.212 530.044 229.208 530.067 229.21C530.089 229.21 530.111 229.214 530.131 229.223C530.151 229.231 530.17 229.244 530.185 229.259C530.201 229.275 530.213 229.294 530.221 229.314C530.229 229.334 530.233 229.356 530.233 229.378L530.204 235.112C530.205 235.135 530.201 235.158 530.193 235.179C530.185 235.201 530.173 235.22 530.157 235.237C530.141 235.253 530.122 235.266 530.102 235.276C530.081 235.285 530.058 235.29 530.035 235.29V235.29Z" fill="#FBE1CA"/>
<path d="M540.027 168.925C540.004 168.925 539.982 168.92 539.962 168.912C539.942 168.903 539.923 168.89 539.907 168.874C539.892 168.858 539.88 168.839 539.872 168.819C539.864 168.798 539.86 168.776 539.86 168.754L539.883 163.947C539.882 163.924 539.886 163.902 539.895 163.881C539.903 163.86 539.916 163.841 539.932 163.825C539.948 163.809 539.967 163.797 539.988 163.789C540.009 163.781 540.031 163.777 540.054 163.778C540.076 163.778 540.097 163.782 540.118 163.791C540.138 163.799 540.156 163.812 540.172 163.828C540.187 163.843 540.2 163.862 540.208 163.882C540.216 163.903 540.22 163.925 540.22 163.947L540.197 168.756C540.197 168.801 540.178 168.844 540.147 168.875C540.115 168.907 540.072 168.925 540.027 168.925Z" fill="#FBE1CA"/>
<path d="M542.226 197.871C542.192 197.871 542.159 197.862 542.131 197.843C542.103 197.825 542.082 197.798 542.069 197.767C542.056 197.736 542.053 197.701 542.061 197.668C542.068 197.636 542.085 197.606 542.109 197.583C545.917 193.883 545.748 188.952 545.746 188.903C545.745 188.858 545.761 188.815 545.791 188.782C545.821 188.749 545.863 188.73 545.908 188.727C545.93 188.726 545.952 188.729 545.973 188.737C545.994 188.744 546.013 188.756 546.029 188.771C546.046 188.786 546.059 188.805 546.068 188.825C546.077 188.845 546.082 188.867 546.083 188.889C546.083 188.939 546.263 194.015 542.343 197.823C542.327 197.839 542.309 197.851 542.289 197.859C542.269 197.867 542.248 197.871 542.226 197.871V197.871Z" fill="#FBE1CA"/>
<path d="M493.413 192.353C493.391 192.353 493.369 192.349 493.349 192.34C493.328 192.332 493.31 192.319 493.294 192.303C493.279 192.287 493.267 192.268 493.258 192.247C493.25 192.227 493.247 192.205 493.247 192.182L493.312 178.957C493.312 178.934 493.316 178.912 493.325 178.891C493.333 178.871 493.346 178.852 493.362 178.837C493.378 178.821 493.397 178.809 493.418 178.801C493.438 178.793 493.461 178.789 493.483 178.79C493.505 178.79 493.527 178.795 493.547 178.803C493.567 178.812 493.586 178.824 493.601 178.84C493.617 178.855 493.629 178.874 493.637 178.894C493.645 178.915 493.65 178.937 493.649 178.959L493.584 192.185C493.583 192.23 493.565 192.272 493.533 192.304C493.501 192.336 493.458 192.353 493.413 192.353V192.353Z" fill="#FBE1CA"/>
<path d="M493.289 308.412H567.848C570.01 308.412 572.083 309.203 573.612 310.612C575.14 312.022 575.999 313.933 575.999 315.926V499.601H485.138V315.926C485.138 314.939 485.349 313.962 485.758 313.05C486.168 312.138 486.768 311.31 487.525 310.612C488.282 309.915 489.18 309.361 490.169 308.984C491.158 308.606 492.218 308.412 493.289 308.412V308.412Z" fill="#D8833B"/>
<path d="M466.5 308.412H541.029C543.189 308.412 545.262 309.203 546.79 310.611C548.318 312.019 549.176 313.929 549.176 315.92V499.47H458.353V315.92C458.353 314.934 458.563 313.958 458.973 313.047C459.382 312.136 459.982 311.308 460.739 310.611C461.495 309.914 462.394 309.361 463.382 308.983C464.371 308.606 465.43 308.412 466.5 308.412V308.412Z" fill="#FDAF4E"/>
<path d="M511.194 360.887C509.489 360.887 507.964 360.568 506.617 359.928C505.27 359.281 504.201 358.394 503.408 357.269C502.624 356.144 502.206 354.857 502.155 353.409H506.758C506.843 354.482 507.307 355.36 508.151 356.042C508.995 356.715 510.009 357.052 511.194 357.052C512.123 357.052 512.949 356.839 513.674 356.413C514.398 355.987 514.969 355.394 515.387 354.636C515.804 353.877 516.009 353.012 516 352.041C516.009 351.052 515.8 350.174 515.374 349.407C514.948 348.64 514.364 348.039 513.623 347.605C512.881 347.161 512.029 346.94 511.066 346.94C510.282 346.931 509.51 347.076 508.752 347.374C507.993 347.673 507.392 348.065 506.949 348.551L502.667 347.847L504.035 334.347H519.222V338.311H507.959L507.205 345.252H507.358C507.844 344.681 508.53 344.208 509.417 343.833C510.303 343.45 511.275 343.258 512.331 343.258C513.917 343.258 515.331 343.633 516.576 344.383C517.82 345.124 518.8 346.147 519.516 347.451C520.232 348.755 520.59 350.247 520.59 351.926C520.59 353.656 520.189 355.198 519.388 356.553C518.596 357.9 517.492 358.961 516.077 359.737C514.671 360.504 513.043 360.887 511.194 360.887Z" fill="#D8833B"/>
<path d="M465.852 343.219C465.776 343.219 465.702 343.205 465.632 343.179C465.562 343.152 465.498 343.113 465.445 343.063C465.392 343.014 465.349 342.955 465.321 342.891C465.292 342.826 465.277 342.757 465.277 342.687V328.175C465.282 324.503 466.866 320.984 469.682 318.388C472.498 315.792 476.316 314.332 480.299 314.327H504.191C504.266 314.327 504.341 314.341 504.41 314.367C504.48 314.394 504.544 314.433 504.597 314.482C504.65 314.532 504.693 314.59 504.722 314.654C504.75 314.718 504.765 314.787 504.765 314.857C504.765 314.927 504.75 314.995 504.722 315.06C504.693 315.124 504.65 315.182 504.597 315.232C504.544 315.281 504.48 315.32 504.41 315.346C504.341 315.373 504.266 315.387 504.191 315.387H480.299C476.621 315.391 473.095 316.739 470.495 319.137C467.895 321.534 466.433 324.784 466.429 328.175V342.687C466.429 342.828 466.368 342.964 466.26 343.063C466.152 343.163 466.005 343.219 465.852 343.219V343.219Z" fill="#FBE1CA"/>
<path d="M465.852 358.605C465.776 358.606 465.702 358.592 465.632 358.566C465.562 358.539 465.498 358.5 465.445 358.451C465.392 358.402 465.349 358.343 465.321 358.279C465.292 358.214 465.277 358.145 465.277 358.076V352.162C465.286 352.027 465.35 351.9 465.458 351.807C465.565 351.714 465.706 351.662 465.853 351.662C466 351.662 466.142 351.714 466.249 351.807C466.356 351.9 466.42 352.027 466.429 352.162V358.081C466.427 358.221 466.366 358.355 466.258 358.453C466.15 358.551 466.004 358.606 465.852 358.605V358.605Z" fill="white"/>
<path d="M269.29 348.882H343.849C346.011 348.882 348.084 349.674 349.613 351.083C351.141 352.492 352 354.403 352 356.396V540.072H261.139V356.396C261.139 355.409 261.349 354.432 261.759 353.521C262.169 352.609 262.769 351.781 263.526 351.083C264.283 350.385 265.181 349.832 266.17 349.454C267.159 349.077 268.219 348.882 269.29 348.882V348.882Z" fill="#D8833B"/>
<path d="M242.501 348.882H317.029C319.19 348.882 321.262 349.673 322.79 351.082C324.318 352.49 325.177 354.4 325.177 356.391V539.941H234.353V356.391C234.353 355.405 234.564 354.429 234.973 353.518C235.383 352.607 235.983 351.779 236.739 351.082C237.496 350.384 238.394 349.831 239.383 349.454C240.371 349.077 241.431 348.882 242.501 348.882V348.882Z" fill="#FDAF4E"/>
<path d="M286.076 401.358C284.235 401.358 282.599 401.043 281.167 400.412C279.744 399.781 278.619 398.903 277.792 397.778C276.965 396.653 276.526 395.354 276.475 393.879H281.282C281.325 394.587 281.559 395.205 281.985 395.733C282.411 396.253 282.978 396.658 283.685 396.947C284.393 397.237 285.185 397.382 286.063 397.382C287.001 397.382 287.832 397.22 288.556 396.896C289.281 396.564 289.847 396.104 290.256 395.516C290.666 394.928 290.866 394.25 290.857 393.483C290.866 392.69 290.661 391.991 290.244 391.386C289.826 390.781 289.221 390.308 288.428 389.967C287.644 389.626 286.698 389.456 285.59 389.456H283.276V385.8H285.59C286.502 385.8 287.299 385.642 287.981 385.327C288.671 385.011 289.212 384.568 289.604 383.997C289.996 383.418 290.188 382.749 290.18 381.99C290.188 381.249 290.022 380.605 289.681 380.06C289.349 379.506 288.876 379.075 288.262 378.768C287.657 378.462 286.945 378.308 286.127 378.308C285.326 378.308 284.585 378.453 283.903 378.743C283.221 379.033 282.671 379.446 282.254 379.983C281.836 380.511 281.614 381.142 281.589 381.875H277.025C277.059 380.409 277.481 379.122 278.291 378.014C279.109 376.898 280.2 376.028 281.563 375.406C282.927 374.776 284.457 374.46 286.153 374.46C287.9 374.46 289.417 374.788 290.704 375.445C291.999 376.092 293.001 376.966 293.708 378.065C294.416 379.165 294.769 380.379 294.769 381.709C294.778 383.183 294.343 384.419 293.465 385.416C292.596 386.413 291.454 387.065 290.039 387.372V387.577C291.88 387.832 293.291 388.514 294.271 389.622C295.259 390.722 295.749 392.089 295.741 393.726C295.741 395.192 295.323 396.504 294.488 397.663C293.661 398.814 292.519 399.717 291.062 400.374C289.613 401.03 287.951 401.358 286.076 401.358Z" fill="#D8833B"/>
<path d="M241.852 383.69C241.776 383.69 241.702 383.676 241.632 383.649C241.562 383.622 241.498 383.583 241.445 383.534C241.392 383.485 241.349 383.426 241.321 383.361C241.292 383.297 241.277 383.228 241.277 383.158V368.645C241.282 364.974 242.866 361.454 245.682 358.859C248.498 356.263 252.316 354.802 256.299 354.798H280.191C280.266 354.798 280.341 354.812 280.41 354.838C280.48 354.865 280.544 354.904 280.597 354.953C280.65 355.002 280.693 355.061 280.722 355.125C280.75 355.189 280.765 355.258 280.765 355.328C280.765 355.397 280.75 355.466 280.722 355.53C280.693 355.595 280.65 355.653 280.597 355.702C280.544 355.751 280.48 355.791 280.41 355.817C280.341 355.844 280.266 355.857 280.191 355.857H256.299C252.621 355.861 249.095 357.21 246.495 359.607C243.895 362.005 242.433 365.255 242.429 368.645V383.158C242.429 383.299 242.368 383.434 242.26 383.534C242.152 383.634 242.005 383.69 241.852 383.69V383.69Z" fill="#FBE1CA"/>
<path d="M241.852 399.076C241.776 399.076 241.702 399.063 241.632 399.036C241.562 399.01 241.498 398.971 241.445 398.922C241.392 398.872 241.349 398.814 241.321 398.749C241.292 398.685 241.277 398.616 241.277 398.546V392.633C241.286 392.498 241.35 392.371 241.458 392.278C241.565 392.185 241.706 392.133 241.853 392.133C242 392.133 242.142 392.185 242.249 392.278C242.356 392.371 242.42 392.498 242.429 392.633V398.552C242.427 398.692 242.366 398.825 242.258 398.924C242.15 399.022 242.004 399.077 241.852 399.076V399.076Z" fill="white"/>
<path d="M385.995 328.647H460.555C462.717 328.647 464.79 329.439 466.318 330.848C467.847 332.257 468.706 334.168 468.706 336.161V519.837H377.844V336.161C377.844 335.174 378.055 334.197 378.465 333.285C378.874 332.374 379.475 331.545 380.232 330.848C380.988 330.15 381.887 329.597 382.876 329.219C383.865 328.841 384.925 328.647 385.995 328.647V328.647Z" fill="#D8833B"/>
<path d="M359.206 328.647H433.735C435.896 328.647 437.968 329.438 439.496 330.846C441.024 332.254 441.882 334.164 441.882 336.156V519.706H351.059V336.156C351.059 335.17 351.269 334.193 351.679 333.282C352.088 332.371 352.688 331.543 353.445 330.846C354.201 330.149 355.1 329.596 356.088 329.219C357.077 328.841 358.136 328.647 359.206 328.647V328.647Z" fill="#FDAF4E"/>
<path d="M392.912 375.907V372.135L404.022 354.583H407.167V359.952H405.249L397.77 371.803V372.008H413.277V375.907H392.912ZM405.402 380.765V374.756L405.453 373.069V354.583H409.928V380.765H405.402Z" fill="#D8833B"/>
<path d="M358.558 363.454C358.482 363.454 358.408 363.441 358.338 363.414C358.268 363.387 358.204 363.348 358.151 363.299C358.098 363.249 358.055 363.191 358.027 363.126C357.998 363.062 357.983 362.992 357.983 362.923V348.41C357.988 344.739 359.572 341.219 362.388 338.623C365.204 336.027 369.022 334.567 373.005 334.562H396.897C396.972 334.562 397.047 334.576 397.117 334.603C397.186 334.629 397.25 334.668 397.303 334.718C397.356 334.767 397.399 334.825 397.428 334.89C397.456 334.954 397.471 335.023 397.471 335.092C397.471 335.162 397.456 335.231 397.428 335.295C397.399 335.359 397.356 335.418 397.303 335.467C397.25 335.516 397.186 335.555 397.117 335.582C397.047 335.608 396.972 335.622 396.897 335.622H373.005C369.327 335.626 365.801 336.975 363.201 339.372C360.601 341.769 359.139 345.02 359.135 348.41V362.923C359.135 363.064 359.074 363.199 358.966 363.299C358.858 363.398 358.711 363.454 358.558 363.454V363.454Z" fill="#FBE1CA"/>
<path d="M358.558 378.841C358.483 378.841 358.408 378.828 358.338 378.801C358.268 378.774 358.205 378.735 358.151 378.686C358.098 378.637 358.055 378.578 358.027 378.514C357.998 378.45 357.983 378.381 357.983 378.311V372.398C357.992 372.262 358.057 372.135 358.164 372.042C358.271 371.949 358.412 371.897 358.559 371.897C358.706 371.897 358.848 371.949 358.955 372.042C359.062 372.135 359.126 372.262 359.135 372.398V378.317C359.133 378.456 359.072 378.59 358.964 378.688C358.856 378.786 358.71 378.841 358.558 378.841V378.841Z" fill="white"/>
<path d="M34.9365 379H109.496C111.658 379 113.731 379.792 115.26 381.201C116.788 382.61 117.647 384.521 117.647 386.514V570.19H26.7856V386.514C26.7856 385.527 26.9965 384.55 27.4061 383.638C27.8157 382.727 28.4161 381.898 29.173 381.201C29.9299 380.503 30.8284 379.95 31.8173 379.572C32.8062 379.194 33.8661 379 34.9365 379V379Z" fill="#D8833B"/>
<path d="M8.14748 379H82.6761C84.8369 379 86.9092 379.791 88.4372 381.199C89.9651 382.607 90.8235 384.517 90.8235 386.509V570.059H0V386.509C0 385.523 0.210739 384.546 0.620188 383.635C1.02964 382.724 1.62978 381.897 2.38634 381.199C3.1429 380.502 4.04107 379.949 5.02956 379.572C6.01806 379.194 7.07754 379 8.14748 379V379Z" fill="#FDAF4E"/>
<path d="M52.9759 404.936V431.118H48.233V409.551H48.0795L41.956 413.463V409.116L48.4631 404.936H52.9759Z" fill="#D8833B"/>
<path d="M7.49952 413.807C7.42388 413.807 7.34899 413.794 7.27913 413.767C7.20927 413.74 7.14581 413.701 7.09242 413.652C7.03902 413.602 6.99675 413.544 6.96798 413.479C6.93922 413.415 6.92454 413.345 6.92481 413.276V398.763C6.92961 395.092 8.51376 391.572 11.3297 388.976C14.1457 386.38 17.9636 384.92 21.946 384.916H45.838C45.9135 384.916 45.9882 384.929 46.058 384.956C46.1277 384.982 46.191 385.022 46.2444 385.071C46.2978 385.12 46.3401 385.178 46.369 385.243C46.3979 385.307 46.4127 385.376 46.4127 385.445C46.4127 385.515 46.3979 385.584 46.369 385.648C46.3401 385.712 46.2978 385.771 46.2444 385.82C46.191 385.869 46.1277 385.908 46.058 385.935C45.9882 385.961 45.9135 385.975 45.838 385.975H21.946C18.2685 385.979 14.7429 387.328 12.1426 389.725C9.54241 392.122 8.08001 395.373 8.07627 398.763V413.276C8.07627 413.417 8.01549 413.552 7.90733 413.652C7.79917 413.751 7.65248 413.807 7.49952 413.807V413.807Z" fill="#FBE1CA"/>
<path d="M7.49949 429.194C7.42395 429.194 7.34911 429.181 7.27926 429.154C7.20942 429.128 7.14595 429.088 7.09253 429.039C7.03912 428.99 6.99679 428.931 6.96801 428.867C6.93922 428.803 6.92454 428.734 6.92481 428.664V422.751C6.9335 422.615 6.99796 422.488 7.10496 422.395C7.21197 422.302 7.35345 422.25 7.5005 422.25C7.64755 422.25 7.78905 422.302 7.89606 422.395C8.00307 422.488 8.06753 422.615 8.07622 422.751V428.67C8.07462 428.81 8.01309 428.943 7.90505 429.041C7.79701 429.14 7.65122 429.194 7.49949 429.194V429.194Z" fill="white"/>
<path d="M152.113 363.471H226.672C228.834 363.471 230.907 364.262 232.436 365.671C233.965 367.081 234.823 368.992 234.823 370.985V554.661H143.962V370.985C143.962 369.998 144.173 369.021 144.582 368.109C144.992 367.198 145.592 366.369 146.349 365.671C147.106 364.974 148.005 364.42 148.994 364.043C149.983 363.665 151.042 363.471 152.113 363.471V363.471Z" fill="#D8833B"/>
<path d="M125.324 363.471H199.852C202.013 363.471 204.086 364.262 205.613 365.67C207.141 367.078 208 368.988 208 370.979V554.53H117.176V370.979C117.176 369.993 117.387 369.017 117.796 368.106C118.206 367.195 118.806 366.367 119.563 365.67C120.319 364.973 121.217 364.42 122.206 364.042C123.194 363.665 124.254 363.471 125.324 363.471V363.471Z" fill="#FDAF4E"/>
<path d="M159.503 415.588V412.162L168.592 403.252C169.462 402.374 170.186 401.594 170.766 400.912C171.345 400.23 171.78 399.57 172.07 398.931C172.36 398.292 172.504 397.61 172.504 396.885C172.504 396.059 172.317 395.351 171.942 394.763C171.567 394.167 171.051 393.706 170.395 393.382C169.739 393.059 168.993 392.897 168.158 392.897C167.297 392.897 166.543 393.076 165.895 393.434C165.247 393.783 164.744 394.282 164.386 394.929C164.037 395.577 163.862 396.348 163.862 397.243H159.35C159.35 395.581 159.729 394.137 160.487 392.909C161.246 391.682 162.29 390.732 163.619 390.059C164.958 389.385 166.492 389.049 168.222 389.049C169.977 389.049 171.52 389.377 172.85 390.033C174.179 390.689 175.21 391.588 175.943 392.73C176.685 393.872 177.056 395.176 177.056 396.642C177.056 397.622 176.868 398.586 176.493 399.532C176.118 400.478 175.458 401.526 174.511 402.676C173.574 403.827 172.257 405.22 170.561 406.857L166.048 411.446V411.625H177.452V415.588H159.503Z" fill="#D8833B"/>
<path d="M124.676 398.278C124.6 398.278 124.525 398.264 124.455 398.238C124.386 398.211 124.322 398.172 124.269 398.122C124.215 398.073 124.173 398.014 124.144 397.95C124.115 397.885 124.101 397.816 124.101 397.746V383.234C124.106 379.562 125.69 376.043 128.506 373.447C131.322 370.851 135.14 369.391 139.122 369.386H163.014C163.09 369.386 163.164 369.4 163.234 369.427C163.304 369.453 163.367 369.492 163.421 369.541C163.474 369.591 163.516 369.649 163.545 369.713C163.574 369.778 163.589 369.846 163.589 369.916C163.589 369.986 163.574 370.054 163.545 370.119C163.516 370.183 163.474 370.241 163.421 370.291C163.367 370.34 163.304 370.379 163.234 370.406C163.164 370.432 163.09 370.446 163.014 370.446H139.122C135.445 370.45 131.919 371.798 129.319 374.196C126.719 376.593 125.256 379.843 125.253 383.234V397.746C125.253 397.887 125.192 398.023 125.084 398.122C124.975 398.222 124.829 398.278 124.676 398.278V398.278Z" fill="#FBE1CA"/>
<path d="M124.676 413.665C124.6 413.665 124.525 413.651 124.456 413.625C124.386 413.598 124.322 413.559 124.269 413.51C124.215 413.461 124.173 413.402 124.144 413.338C124.115 413.273 124.101 413.204 124.101 413.135V407.221C124.11 407.086 124.174 406.959 124.281 406.866C124.388 406.773 124.53 406.721 124.677 406.721C124.824 406.721 124.965 406.773 125.072 406.866C125.179 406.959 125.244 407.086 125.252 407.221V413.14C125.251 413.28 125.189 413.414 125.081 413.512C124.973 413.61 124.827 413.665 124.676 413.665V413.665Z" fill="white"/>
<path d="M475.719 392.872L475.436 393.28C427.166 462.859 364.796 504.188 314.499 528.122C289.351 540.089 267.218 547.708 251.37 552.336C243.446 554.65 237.093 556.216 232.719 557.204C231.399 557.502 230.259 557.748 229.311 557.945L346.043 561.036C393.262 546.206 428.623 505.646 452.196 468.725C463.983 450.265 472.812 432.73 478.695 419.81C481.636 413.351 483.84 408.046 485.309 404.356C486.043 402.512 486.594 401.071 486.96 400.092C487.144 399.603 487.281 399.229 487.372 398.977C487.418 398.852 487.452 398.756 487.475 398.693L487.501 398.622L487.507 398.604L487.509 398.599C487.509 398.598 487.509 398.598 487.864 398.724L487.509 398.598L487.685 398.101L488.098 398.428L497.574 405.927C497.574 405.927 497.574 405.927 497.575 405.927C498.054 406.304 498.628 406.541 499.234 406.611C499.839 406.681 500.453 406.582 501.006 406.325C501.559 406.068 502.029 405.662 502.366 405.153C502.702 404.644 502.891 404.052 502.911 403.443C502.911 403.443 502.911 403.442 502.911 403.442M475.719 392.872L463.952 389.196C463.252 388.954 462.63 388.527 462.153 387.959C461.676 387.391 461.361 386.705 461.243 385.973C461.125 385.241 461.207 384.49 461.482 383.801C461.756 383.112 462.212 382.51 462.8 382.06L498.269 354.895C500.961 352.833 504.837 354.826 504.73 358.217L503.288 403.455L502.911 403.442M475.719 392.872L475.249 392.709L464.076 388.84L464.076 388.84C463.439 388.62 462.874 388.232 462.441 387.717C462.008 387.201 461.722 386.578 461.615 385.913C461.508 385.248 461.583 384.566 461.832 383.941C462.081 383.315 462.495 382.768 463.029 382.359L463.029 382.359L498.498 355.194C500.938 353.326 504.451 355.132 504.353 358.205L502.911 403.442M475.719 392.872L502.911 403.442" fill="#DF8943" stroke="#24071D" stroke-width="0.753522"/>
<defs>
<filter id="filter0_f_388_392" x="311.353" y="0" width="400.353" height="400.353" filterUnits="userSpaceOnUse" color-interpolation-filters="sRGB">
<feFlood flood-opacity="0" result="BackgroundImageFix"/>
<feBlend mode="normal" in="SourceGraphic" in2="BackgroundImageFix" result="shape"/>
<feGaussianBlur stdDeviation="77.5" result="effect1_foregroundBlur_388_392"/>
</filter>
</defs>
</svg>
