<svg width="48" height="48" viewBox="0 0 48 48" fill="none" xmlns="http://www.w3.org/2000/svg">
<path fill-rule="evenodd" clip-rule="evenodd" d="M24 48C37.2548 48 48 37.2548 48 24C48 10.7452 37.2548 0 24 0C10.7452 0 0 10.7452 0 24C0 37.2548 10.7452 48 24 48ZM24.0573 22.7435L33.7805 16.0001L14.334 16L24.0573 22.7435ZM24.6522 24.6891C24.4752 24.8119 24.2664 24.8731 24.0577 24.8731C23.8489 24.8731 23.6403 24.8119 23.4632 24.6891L13.0001 17.4327L13 30.8941C13.0001 31.4192 13.4501 31.8449 14.0052 31.8449L34.1101 31.8448C34.6654 31.8448 35.1154 31.4191 35.1154 30.8941V17.4326L24.6522 24.6891Z" fill="white"/>
</svg>
