<svg width="49" height="48" viewBox="0 0 49 48" fill="none" xmlns="http://www.w3.org/2000/svg">
<path d="M24.7442 0C19.9974 0 15.3573 1.40758 11.4105 4.04473C7.46369 6.68188 4.38755 10.4302 2.57104 14.8156C0.754539 19.201 0.279259 24.0266 1.2053 28.6822C2.13135 33.3377 4.41713 37.6141 7.77359 40.9706C11.1301 44.327 15.4064 46.6128 20.062 47.5389C24.7175 48.4649 29.5431 47.9896 33.9286 46.1731C38.314 44.3566 42.0623 41.2805 44.6995 37.3337C47.3366 33.3869 48.7442 28.7468 48.7442 24C48.7442 17.6348 46.2156 11.5303 41.7147 7.02944C37.2139 2.52856 31.1094 0 24.7442 0V0ZM36.6968 16.7368C36.1295 17.589 35.4364 18.3503 34.641 18.9947C34.5407 19.0783 34.4604 19.1832 34.4057 19.3017C34.3511 19.4203 34.3236 19.5495 34.3252 19.68V19.7589C34.316 21.4703 34.0016 23.1664 33.3968 24.7674C32.7737 26.4477 31.8478 27.9997 30.6652 29.3463C29.076 31.1555 27.0316 32.5064 24.7442 33.2589C23.2411 33.7468 21.6696 33.9909 20.0894 33.9821C17.5825 33.9818 15.1202 33.3183 12.9526 32.0589C12.8749 32.0148 12.8138 31.9465 12.7784 31.8644C12.7431 31.7823 12.7355 31.691 12.7568 31.6042C12.7786 31.5188 12.8285 31.4432 12.8983 31.3894C12.9681 31.3356 13.0539 31.3067 13.1421 31.3074H13.7421C15.647 31.3107 17.5096 30.7455 19.0915 29.6842C18.1492 29.5303 17.2674 29.1197 16.5432 28.4974C15.819 27.8752 15.2803 27.0653 14.9863 26.1568C14.9712 26.1114 14.9685 26.0627 14.9784 26.0158C14.9882 25.9689 15.0103 25.9255 15.0424 25.8899C15.0744 25.8543 15.1153 25.8278 15.161 25.8131C15.2066 25.7984 15.2552 25.7961 15.3021 25.8063C15.5894 25.8604 15.8812 25.8879 16.1736 25.8884H16.2842C15.3731 25.4703 14.6028 24.7971 14.0664 23.9502C13.5301 23.1034 13.2507 22.1192 13.2621 21.1168C13.2624 21.0699 13.2748 21.0239 13.2982 20.9833C13.3216 20.9426 13.3551 20.9087 13.3955 20.8849C13.4359 20.861 13.4818 20.848 13.5287 20.8472C13.5756 20.8463 13.6219 20.8576 13.6631 20.88C14.0336 21.0868 14.4311 21.241 14.8442 21.3379C14.0284 20.5303 13.5037 19.4749 13.3523 18.3371C13.2008 17.1993 13.4312 16.0433 14.0073 15.0505C14.0294 15.0126 14.0604 14.9806 14.0976 14.9572C14.1348 14.9339 14.1771 14.9199 14.2208 14.9165C14.2646 14.9131 14.3086 14.9203 14.3489 14.9376C14.3893 14.9549 14.4249 14.9817 14.4526 15.0158C15.5943 16.4265 17.0072 17.594 18.6078 18.4494C20.2084 19.3047 21.9642 19.8306 23.7715 19.9958H23.7968C23.8234 19.995 23.8495 19.9889 23.8736 19.9777C23.8977 19.9665 23.9193 19.9505 23.937 19.9307C23.9547 19.9109 23.9682 19.8877 23.9767 19.8625C23.9852 19.8373 23.9884 19.8107 23.9863 19.7842C23.916 19.1505 23.9566 18.5093 24.1063 17.8895C24.31 17.047 24.7283 16.2715 25.3204 15.6385C25.9124 15.0055 26.6582 14.5364 27.4852 14.2768C28.0158 14.1111 28.5683 14.0259 29.1242 14.0242C30.3846 14.0228 31.602 14.4821 32.5473 15.3158C32.6698 15.4254 32.8283 15.486 32.9926 15.4863C33.0459 15.4852 33.0989 15.4778 33.1505 15.4642C34.0381 15.2395 34.8889 14.8886 35.6768 14.4221C35.7239 14.393 35.7788 14.3793 35.8341 14.3826C35.8893 14.386 35.9422 14.4064 35.9854 14.441C36.0286 14.4755 36.0601 14.5226 36.0755 14.5758C36.0909 14.6289 36.0896 14.6856 36.0715 14.7379C35.8088 15.5646 35.3405 16.311 34.7105 16.9074C35.2784 16.7735 35.8325 16.5864 36.3652 16.3484C36.4175 16.3288 36.4745 16.3258 36.5285 16.3397C36.5826 16.3536 36.631 16.3839 36.6672 16.4263C36.7035 16.4688 36.7257 16.5214 36.731 16.5769C36.7363 16.6325 36.7244 16.6883 36.6968 16.7368Z" fill="white"/>
</svg>
