<svg width="1224" height="397" viewBox="0 0 1224 397" fill="none" xmlns="http://www.w3.org/2000/svg">
<path d="M1048.24 0H1206.68C1211.27 0 1215.68 1.68224 1218.93 4.67664C1222.18 7.67104 1224 11.7323 1224 15.967V406.278H1030.92V15.967C1030.92 13.8702 1031.37 11.7939 1032.24 9.85671C1033.11 7.9195 1034.38 6.15931 1035.99 4.67664C1037.6 3.19396 1039.51 2.01783 1041.61 1.21542C1043.71 0.412997 1045.97 0 1048.24 0Z" fill="#D8833B"/>
<path d="M991.313 0H1149.69C1154.28 0 1158.68 1.68108 1161.93 4.67343C1165.18 7.66578 1167 11.7243 1167 15.9561V406H974V15.9561C974 13.8607 974.448 11.7858 975.318 9.84996C976.188 7.91408 977.463 6.15509 979.071 4.67343C980.679 3.19177 982.587 2.01645 984.688 1.21458C986.788 0.412714 989.04 0 991.313 0Z" fill="#FDAF4E"/>
<path d="M1073.43 68.358C1071.72 68.358 1070.2 68.0384 1068.85 67.3991C1067.51 66.7514 1066.44 65.8651 1065.64 64.7401C1064.86 63.6151 1064.44 62.3281 1064.39 60.8793H1068.99C1069.08 61.9531 1069.54 62.831 1070.39 63.5128C1071.23 64.1861 1072.24 64.5227 1073.43 64.5227C1074.36 64.5227 1075.18 64.3097 1075.91 63.8835C1076.63 63.4574 1077.2 62.8651 1077.62 62.1065C1078.04 61.348 1078.24 60.483 1078.24 59.5114C1078.24 58.5227 1078.04 57.6449 1077.61 56.8778C1077.18 56.1108 1076.6 55.5099 1075.86 55.0753C1075.12 54.6321 1074.26 54.4105 1073.3 54.4105C1072.52 54.402 1071.75 54.5469 1070.99 54.8452C1070.23 55.1435 1069.63 55.5355 1069.18 56.0213L1064.9 55.3182L1066.27 41.8182H1081.46V45.7812H1070.19L1069.44 52.723H1069.59C1070.08 52.152 1070.77 51.679 1071.65 51.304C1072.54 50.9205 1073.51 50.7287 1074.57 50.7287C1076.15 50.7287 1077.57 51.1037 1078.81 51.8537C1080.06 52.5952 1081.04 53.6179 1081.75 54.9219C1082.47 56.2259 1082.83 57.7173 1082.83 59.3963C1082.83 61.1264 1082.42 62.669 1081.62 64.0241C1080.83 65.3707 1079.73 66.4318 1078.31 67.2074C1076.91 67.9744 1075.28 68.358 1073.43 68.358Z" fill="#D8833B"/>
<path d="M989.936 73.9656C989.775 73.9656 989.616 73.9363 989.468 73.8795C989.319 73.8227 989.184 73.7394 989.071 73.6344C988.958 73.5295 988.868 73.4049 988.807 73.2678C988.745 73.1308 988.714 72.984 988.715 72.8358V41.9959C988.725 34.1947 992.091 26.7156 998.075 21.1993C1004.06 15.6829 1012.17 12.5797 1020.63 12.5703H1071.41C1071.57 12.5703 1071.72 12.5994 1071.87 12.656C1072.02 12.7126 1072.16 12.7955 1072.27 12.9001C1072.38 13.0046 1072.47 13.1287 1072.53 13.2653C1072.6 13.4019 1072.63 13.5483 1072.63 13.6961C1072.63 13.844 1072.6 13.9904 1072.53 14.127C1072.47 14.2636 1072.38 14.3877 1072.27 14.4922C1072.16 14.5968 1072.02 14.6797 1071.87 14.7363C1071.72 14.7929 1071.57 14.822 1071.41 14.822H1020.63C1012.82 14.8303 1005.33 17.6961 999.803 22.7905C994.277 27.8849 991.17 34.7919 991.162 41.9959V72.8358C991.162 73.1354 991.033 73.4228 990.803 73.6347C990.573 73.8465 990.261 73.9656 989.936 73.9656Z" fill="#FBE1CA"/>
<path d="M989.936 106.662C989.776 106.662 989.616 106.634 989.468 106.577C989.32 106.521 989.185 106.438 989.071 106.333C988.958 106.229 988.868 106.104 988.807 105.968C988.745 105.831 988.714 105.684 988.715 105.536V92.9702C988.733 92.6826 988.87 92.4124 989.098 92.2149C989.325 92.0173 989.626 91.9072 989.938 91.9072C990.251 91.9072 990.551 92.0173 990.779 92.2149C991.006 92.4124 991.143 92.6826 991.162 92.9702V105.548C991.158 105.845 991.027 106.129 990.798 106.338C990.568 106.546 990.258 106.663 989.936 106.662Z" fill="white"/>
<path d="M572.24 86H730.679C735.273 86 739.679 87.6822 742.927 90.6766C746.175 93.671 748 97.7323 748 101.967V492.278H554.919V101.967C554.919 99.8702 555.367 97.7939 556.238 95.8567C557.108 93.9195 558.384 92.1593 559.993 90.6766C561.601 89.194 563.51 88.0178 565.612 87.2154C567.713 86.413 569.965 86 572.24 86Z" fill="#D8833B"/>
<path d="M515.313 86H673.687C678.278 86 682.682 87.6811 685.929 90.6734C689.176 93.6658 691 97.7243 691 101.956V492H498V101.956C498 99.8607 498.448 97.7858 499.318 95.85C500.188 93.9141 501.463 92.1551 503.071 90.6734C504.679 89.1918 506.587 88.0165 508.688 87.2146C510.788 86.4127 513.04 86 515.313 86Z" fill="#FDAF4E"/>
<path d="M594.723 154.358C592.882 154.358 591.246 154.043 589.814 153.412C588.391 152.781 587.266 151.903 586.439 150.778C585.612 149.653 585.173 148.354 585.122 146.879H589.929C589.972 147.587 590.206 148.205 590.632 148.733C591.058 149.253 591.625 149.658 592.332 149.947C593.04 150.237 593.832 150.382 594.71 150.382C595.648 150.382 596.479 150.22 597.203 149.896C597.928 149.564 598.494 149.104 598.903 148.516C599.313 147.928 599.513 147.25 599.504 146.483C599.513 145.69 599.308 144.991 598.891 144.386C598.473 143.781 597.868 143.308 597.075 142.967C596.291 142.626 595.345 142.456 594.237 142.456H591.923V138.8H594.237C595.149 138.8 595.946 138.642 596.628 138.327C597.318 138.011 597.859 137.568 598.251 136.997C598.643 136.418 598.835 135.749 598.827 134.99C598.835 134.249 598.669 133.605 598.328 133.06C597.996 132.506 597.523 132.075 596.909 131.768C596.304 131.462 595.592 131.308 594.774 131.308C593.973 131.308 593.232 131.453 592.55 131.743C591.868 132.033 591.318 132.446 590.901 132.983C590.483 133.511 590.261 134.142 590.236 134.875H585.672C585.706 133.409 586.128 132.122 586.938 131.014C587.756 129.898 588.847 129.028 590.21 128.406C591.574 127.776 593.104 127.46 594.8 127.46C596.547 127.46 598.064 127.788 599.351 128.445C600.646 129.092 601.648 129.966 602.355 131.065C603.063 132.165 603.416 133.379 603.416 134.709C603.425 136.183 602.99 137.419 602.112 138.416C601.243 139.413 600.101 140.065 598.686 140.372V140.577C600.527 140.832 601.938 141.514 602.918 142.622C603.906 143.722 604.396 145.089 604.388 146.726C604.388 148.192 603.97 149.504 603.135 150.663C602.308 151.814 601.166 152.717 599.709 153.374C598.26 154.03 596.598 154.358 594.723 154.358Z" fill="#D8833B"/>
<path d="M513.936 159.966C513.775 159.966 513.616 159.936 513.468 159.879C513.319 159.823 513.184 159.739 513.071 159.634C512.958 159.529 512.868 159.405 512.807 159.268C512.745 159.131 512.714 158.984 512.715 158.836V127.996C512.725 120.195 516.091 112.716 522.075 107.199C528.059 101.683 536.172 98.5797 544.635 98.5703H595.405C595.566 98.5703 595.725 98.5994 595.873 98.656C596.021 98.7126 596.156 98.7955 596.269 98.9001C596.382 99.0046 596.472 99.1287 596.534 99.2653C596.595 99.4019 596.627 99.5483 596.627 99.6961C596.627 99.844 596.595 99.9904 596.534 100.127C596.472 100.264 596.382 100.388 596.269 100.492C596.156 100.597 596.021 100.68 595.873 100.736C595.725 100.793 595.566 100.822 595.405 100.822H544.635C536.82 100.83 529.328 103.696 523.803 108.791C518.277 113.885 515.17 120.792 515.162 127.996V158.836C515.162 159.135 515.033 159.423 514.803 159.635C514.573 159.847 514.261 159.966 513.936 159.966Z" fill="#FBE1CA"/>
<path d="M513.936 192.662C513.776 192.662 513.616 192.634 513.468 192.577C513.32 192.521 513.185 192.438 513.071 192.333C512.958 192.229 512.868 192.104 512.807 191.968C512.745 191.831 512.714 191.684 512.715 191.536V178.97C512.733 178.683 512.87 178.412 513.098 178.215C513.325 178.017 513.626 177.907 513.938 177.907C514.251 177.907 514.551 178.017 514.779 178.215C515.006 178.412 515.143 178.683 515.162 178.97V191.548C515.158 191.845 515.027 192.129 514.798 192.338C514.568 192.546 514.258 192.663 513.936 192.662Z" fill="white"/>
<path d="M820.24 43H978.679C983.273 43 987.679 44.6822 990.927 47.6766C994.175 50.671 996 54.7323 996 58.967V449.278H802.919V58.967C802.919 56.8702 803.367 54.7939 804.238 52.8567C805.108 50.9195 806.384 49.1593 807.993 47.6766C809.601 46.194 811.51 45.0178 813.612 44.2154C815.713 43.413 817.965 43 820.24 43Z" fill="#D8833B"/>
<path d="M763.313 43H921.687C926.278 43 930.682 44.6811 933.929 47.6734C937.176 50.6658 939 54.7243 939 58.9561V449H746V58.9561C746 56.8607 746.448 54.7858 747.318 52.85C748.188 50.9141 749.463 49.1551 751.071 47.6734C752.679 46.1918 754.587 45.0165 756.688 44.2146C758.788 43.4127 761.04 43 763.313 43Z" fill="#FDAF4E"/>
<path d="M832.854 106.142V102.371L843.963 84.8182H847.108V90.1875H845.19L837.712 102.038V102.243H853.219V106.142H832.854ZM845.344 111V104.991L845.395 103.304V84.8182H849.869V111H845.344Z" fill="#D8833B"/>
<path d="M761.936 116.966C761.775 116.966 761.616 116.936 761.468 116.879C761.319 116.823 761.184 116.739 761.071 116.634C760.958 116.529 760.868 116.405 760.807 116.268C760.745 116.131 760.714 115.984 760.715 115.836V84.9959C760.725 77.1947 764.091 69.7156 770.075 64.1993C776.059 58.6829 784.172 55.5797 792.635 55.5703H843.405C843.566 55.5703 843.725 55.5994 843.873 55.656C844.021 55.7126 844.156 55.7955 844.269 55.9001C844.382 56.0046 844.472 56.1287 844.534 56.2653C844.595 56.4019 844.627 56.5483 844.627 56.6961C844.627 56.844 844.595 56.9904 844.534 57.127C844.472 57.2636 844.382 57.3877 844.269 57.4922C844.156 57.5968 844.021 57.6797 843.873 57.7363C843.725 57.7929 843.566 57.822 843.405 57.822H792.635C784.82 57.8303 777.328 60.6961 771.803 65.7905C766.277 70.8849 763.17 77.7919 763.162 84.9959V115.836C763.162 116.135 763.033 116.423 762.803 116.635C762.573 116.847 762.261 116.966 761.936 116.966Z" fill="#FBE1CA"/>
<path d="M761.936 149.662C761.776 149.662 761.616 149.634 761.468 149.577C761.32 149.521 761.185 149.438 761.071 149.333C760.958 149.229 760.868 149.104 760.807 148.968C760.745 148.831 760.714 148.684 760.715 148.536V135.97C760.733 135.683 760.87 135.412 761.098 135.215C761.325 135.017 761.626 134.907 761.938 134.907C762.251 134.907 762.551 135.017 762.779 135.215C763.006 135.412 763.143 135.683 763.162 135.97V148.548C763.158 148.845 763.027 149.129 762.798 149.338C762.568 149.546 762.258 149.663 761.936 149.662Z" fill="white"/>
<path d="M74.24 150H232.679C237.273 150 241.679 151.682 244.927 154.677C248.175 157.671 250 161.732 250 165.967V556.278H56.9194V165.967C56.9194 163.87 57.3674 161.794 58.2379 159.857C59.1083 157.92 60.3842 156.159 61.9925 154.677C63.6009 153.194 65.5103 152.018 67.6118 151.215C69.7132 150.413 71.9655 150 74.24 150Z" fill="#D8833B"/>
<path d="M17.3134 150H175.687C180.278 150 184.682 151.681 187.929 154.673C191.176 157.666 193 161.724 193 165.956V556H0V165.956C0 163.861 0.447821 161.786 1.3179 159.85C2.18798 157.914 3.46328 156.155 5.07097 154.673C6.67867 153.192 8.58727 152.016 10.6878 151.215C12.7884 150.413 15.0398 150 17.3134 150Z" fill="#FDAF4E"/>
<path d="M97.9759 191.818V218H93.233V196.433H93.0795L86.956 200.345V195.999L93.4631 191.818H97.9759Z" fill="#D8833B"/>
<path d="M15.9361 223.966C15.7754 223.966 15.6162 223.936 15.4678 223.879C15.3193 223.823 15.1845 223.739 15.071 223.634C14.9576 223.529 14.8677 223.405 14.8066 223.268C14.7455 223.131 14.7143 222.984 14.7149 222.836V191.996C14.7251 184.195 18.0914 176.716 24.0753 171.199C30.0593 165.683 38.1723 162.58 46.6349 162.57H97.4055C97.5658 162.57 97.7246 162.599 97.8728 162.656C98.021 162.713 98.1556 162.796 98.269 162.9C98.3824 163.005 98.4724 163.129 98.5338 163.265C98.5951 163.402 98.6267 163.548 98.6267 163.696C98.6267 163.844 98.5951 163.99 98.5338 164.127C98.4724 164.264 98.3824 164.388 98.269 164.492C98.1556 164.597 98.021 164.68 97.8728 164.736C97.7246 164.793 97.5658 164.822 97.4055 164.822H46.6349C38.8202 164.83 31.3282 167.696 25.8027 172.791C20.2773 177.885 17.1696 184.792 17.1617 191.996V222.836C17.1617 223.135 17.0325 223.423 16.8027 223.635C16.5729 223.847 16.2611 223.966 15.9361 223.966Z" fill="#FBE1CA"/>
<path d="M15.9361 256.662C15.7755 256.662 15.6165 256.634 15.4681 256.577C15.3196 256.521 15.1848 256.438 15.0713 256.333C14.9578 256.229 14.8678 256.104 14.8066 255.968C14.7455 255.831 14.7143 255.684 14.7149 255.536V242.97C14.7333 242.683 14.8703 242.412 15.0977 242.215C15.3251 242.017 15.6257 241.907 15.9382 241.907C16.2507 241.907 16.5514 242.017 16.7788 242.215C17.0062 242.412 17.1431 242.683 17.1616 242.97V255.548C17.1582 255.845 17.0274 256.129 16.7979 256.338C16.5683 256.546 16.2585 256.663 15.9361 256.662Z" fill="white"/>
<path d="M323.24 117H481.679C486.273 117 490.679 118.682 493.927 121.677C497.175 124.671 499 128.732 499 132.967V523.278H305.919V132.967C305.919 130.87 306.367 128.794 307.238 126.857C308.108 124.92 309.384 123.159 310.993 121.677C312.601 120.194 314.51 119.018 316.612 118.215C318.713 117.413 320.965 117 323.24 117Z" fill="#D8833B"/>
<path d="M266.313 117H424.687C429.278 117 433.682 118.681 436.929 121.673C440.176 124.666 442 128.724 442 132.956V523H249V132.956C249 130.861 249.448 128.786 250.318 126.85C251.188 124.914 252.463 123.155 254.071 121.673C255.679 120.192 257.587 119.016 259.688 118.215C261.788 117.413 264.04 117 266.313 117Z" fill="#FDAF4E"/>
<path d="M336.327 185V181.574L345.416 172.663C346.286 171.786 347.01 171.006 347.589 170.324C348.169 169.642 348.604 168.982 348.893 168.342C349.183 167.703 349.328 167.021 349.328 166.297C349.328 165.47 349.141 164.763 348.766 164.175C348.391 163.578 347.875 163.118 347.219 162.794C346.562 162.47 345.817 162.308 344.982 162.308C344.121 162.308 343.366 162.487 342.719 162.845C342.071 163.195 341.568 163.693 341.21 164.341C340.861 164.989 340.686 165.76 340.686 166.655H336.173C336.173 164.993 336.553 163.548 337.311 162.321C338.07 161.094 339.114 160.143 340.443 159.47C341.781 158.797 343.315 158.46 345.045 158.46C346.801 158.46 348.344 158.788 349.673 159.445C351.003 160.101 352.034 161 352.767 162.142C353.509 163.284 353.879 164.588 353.879 166.054C353.879 167.034 353.692 167.997 353.317 168.943C352.942 169.889 352.281 170.937 351.335 172.088C350.398 173.239 349.081 174.632 347.385 176.268L342.872 180.858V181.037H354.276V185H336.327Z" fill="#D8833B"/>
<path d="M264.936 190.966C264.775 190.966 264.616 190.936 264.468 190.879C264.319 190.823 264.184 190.739 264.071 190.634C263.958 190.529 263.868 190.405 263.807 190.268C263.745 190.131 263.714 189.984 263.715 189.836V158.996C263.725 151.195 267.091 143.716 273.075 138.199C279.059 132.683 287.172 129.58 295.635 129.57H346.405C346.566 129.57 346.725 129.599 346.873 129.656C347.021 129.713 347.156 129.796 347.269 129.9C347.382 130.005 347.472 130.129 347.534 130.265C347.595 130.402 347.627 130.548 347.627 130.696C347.627 130.844 347.595 130.99 347.534 131.127C347.472 131.264 347.382 131.388 347.269 131.492C347.156 131.597 347.021 131.68 346.873 131.736C346.725 131.793 346.566 131.822 346.405 131.822H295.635C287.82 131.83 280.328 134.696 274.803 139.791C269.277 144.885 266.17 151.792 266.162 158.996V189.836C266.162 190.135 266.033 190.423 265.803 190.635C265.573 190.847 265.261 190.966 264.936 190.966Z" fill="#FBE1CA"/>
<path d="M264.936 223.662C264.776 223.662 264.616 223.634 264.468 223.577C264.32 223.521 264.185 223.438 264.071 223.333C263.958 223.229 263.868 223.104 263.807 222.968C263.745 222.831 263.714 222.684 263.715 222.536V209.97C263.733 209.683 263.87 209.412 264.098 209.215C264.325 209.017 264.626 208.907 264.938 208.907C265.251 208.907 265.551 209.017 265.779 209.215C266.006 209.412 266.143 209.683 266.162 209.97V222.548C266.158 222.845 266.027 223.129 265.798 223.338C265.568 223.546 265.258 223.663 264.936 223.662Z" fill="white"/>
<path d="M1009.95 180.103L1010.24 179.695L1009.77 179.533L986.022 171.312L985.899 171.668L986.022 171.312C984.598 170.82 983.333 169.95 982.363 168.796C981.393 167.642 980.754 166.246 980.514 164.758C980.273 163.269 980.441 161.743 980.999 160.343C981.556 158.942 982.483 157.718 983.68 156.802L983.451 156.503L983.68 156.802L1059.05 99.0766C1064.52 94.8891 1072.39 98.9365 1072.17 105.825L1069.11 201.954C1069.11 201.954 1069.11 201.955 1069.11 201.955C1069.06 203.329 1068.64 204.663 1067.88 205.81C1067.12 206.956 1066.06 207.871 1064.82 208.451C1063.57 209.031 1062.19 209.254 1060.82 209.095C1059.46 208.937 1058.16 208.403 1057.08 207.553L1036.95 191.618L1036.53 191.291L1036.36 191.788L1036.71 191.913C1036.36 191.788 1036.36 191.789 1036.36 191.791L1036.35 191.8L1036.34 191.838L1036.28 191.991L1036.24 192.099C1036.2 192.227 1036.14 192.393 1036.06 192.597C1035.87 193.133 1035.58 193.929 1035.19 194.97C1034.41 197.053 1033.24 200.117 1031.68 204.04C1028.55 211.885 1023.87 223.164 1017.61 236.898C1005.11 264.365 986.334 301.645 961.273 340.895C911.152 419.394 835.919 505.712 735.4 537.252L483.549 530.584C483.621 530.57 483.695 530.555 483.769 530.541C486.201 530.061 489.792 529.319 494.435 528.27C503.721 526.173 517.213 522.847 534.042 517.932C567.701 508.103 614.712 491.92 668.129 466.501C774.963 415.665 907.433 327.883 1009.95 180.103Z" fill="#DF8943" stroke="#24071D" stroke-width="0.753522"/>
</svg>
