<svg width="222" height="222" viewBox="0 0 222 222" fill="none" xmlns="http://www.w3.org/2000/svg">
<path d="M111.028 222C92.1531 222.009 73.5877 217.2 57.0902 208.029C56.0324 207.451 55.1742 206.952 54.3759 206.463C34.95 194.942 19.5011 177.769 10.0917 157.238C0.682274 136.706 -2.23985 113.793 1.71545 91.5575C5.67076 69.3219 16.3153 48.8218 32.2278 32.7943C48.1403 16.7669 68.5637 5.97477 90.771 1.85886C112.978 -2.25704 135.913 0.499132 156.513 9.7594C177.112 19.0197 194.397 34.3433 206.059 53.6845C217.721 73.0257 223.204 95.4641 221.778 118.004C220.352 140.543 212.084 162.112 198.078 179.829C196.91 181.296 195.813 182.623 194.715 183.821C184.31 195.802 171.455 205.41 157.017 211.996C142.58 218.583 126.897 221.994 111.028 222ZM111.028 1.46574C87.0418 1.47966 63.723 9.36743 44.6537 23.9175C25.5844 38.4676 11.8193 58.8753 5.47247 82.0062C-0.874308 105.137 0.548303 129.712 9.5218 151.956C18.4953 174.2 34.5234 192.883 55.1443 205.136C55.9326 205.615 56.7709 206.133 57.8087 206.672C79.7419 218.862 105.197 223.15 129.913 218.818C154.63 214.485 177.108 201.796 193.587 182.873C194.675 181.635 195.753 180.338 196.91 178.881C212.258 159.601 220.576 135.666 220.492 111.024C220.465 81.9966 208.926 54.1645 188.405 33.6332C167.884 13.1019 140.057 1.54792 111.028 1.50565V1.46574Z" fill="#24071D"/>
<path d="M162.242 121.9C161.394 101.434 166.144 102.651 162.901 73.0036C162.901 72.7641 162.901 72.5247 162.901 72.2852C162.901 72.0457 162.831 71.9559 162.811 71.7763C162.701 70.8382 162.611 69.9701 162.492 68.9622C159.845 54.23 151.66 41.0695 139.616 32.1815C127.572 23.2935 112.583 19.3522 97.7246 21.1665C82.8664 22.9808 69.2661 30.413 59.7149 41.9379C50.1637 53.4627 45.386 68.2061 46.3624 83.1422C46.1927 83.1422 48.478 110.035 43.638 120.543C36.7124 135.591 47.1607 139.613 47.8393 149.293C48.5179 158.972 39.3669 162.105 40.5844 174.958C41.8018 187.811 52.4897 195.814 52.4897 195.814C52.4897 195.814 169.876 184.139 169.866 184.089C190.374 150.55 163.11 143.275 162.242 121.9Z" fill="#DF8943"/>
<path d="M52.2201 196.593L51.9806 196.413C51.5315 196.084 41.0033 188.041 39.7659 175.009C39.0873 167.824 41.5821 163.493 43.7576 159.671C45.6537 156.388 47.2903 153.544 46.9909 149.333C46.7614 146.06 45.3643 143.475 43.8873 140.731C41.1031 135.582 38.2291 130.263 42.8894 120.194C45.5639 114.397 46.472 102.512 45.6038 84.8789C45.6038 84.0806 45.5339 83.5417 45.6038 83.1725C44.6509 68.057 49.5107 53.1487 59.1887 41.4984C68.8667 29.848 82.6312 22.3364 97.6656 20.5005C112.7 18.6646 127.868 22.6433 140.065 31.6224C152.262 40.6015 160.567 53.9022 163.28 68.8028C163.36 69.4814 163.43 70.0502 163.489 70.629L163.599 71.6768C163.599 71.6768 163.599 71.7766 163.599 71.8364C163.63 71.9474 163.65 72.061 163.659 72.1757C163.669 72.3219 163.669 72.4686 163.659 72.6148C163.659 72.7146 163.659 72.8044 163.659 72.9042C165.575 90.4272 164.657 97.3525 163.849 104.058C162.996 109.955 162.712 115.92 163 121.871C163.3 129.225 166.763 134.793 170.435 140.681C177.101 151.368 183.997 162.415 170.435 184.479C170.176 184.838 170.176 184.838 151.474 186.704L111.118 190.695L52.4496 196.533L52.2201 196.593ZM47.1206 83.8311C47.1206 84.1105 47.1206 84.4498 47.1206 84.829C48.0088 102.721 47.0508 114.856 44.2765 120.883C39.9655 130.233 42.5301 134.993 45.2745 140.022C46.7614 142.787 48.2682 145.651 48.5576 149.253C48.887 153.943 47.0508 157.116 45.1148 160.479C42.9293 164.271 40.664 168.203 41.3027 174.889C42.3705 186.185 51.1223 193.759 52.6691 195.016C59.1956 194.368 162.442 184.099 169.347 183.371C182.111 162.415 175.794 152.247 169.118 141.539C165.495 135.731 161.753 129.734 161.444 121.961C161.147 115.923 161.435 109.871 162.302 103.889C163.14 97.2827 163.998 90.4471 162.112 73.1037C162.112 72.974 162.112 72.8443 162.112 72.7146C162.112 72.5849 162.112 72.495 162.112 72.3853C162.119 72.3189 162.119 72.2521 162.112 72.1857C162.108 72.0893 162.108 71.9927 162.112 71.8963L161.993 70.8285C161.933 70.2597 161.873 69.691 161.793 69.0723C159.159 54.554 151.072 41.5925 139.191 32.8432C127.309 24.0938 112.531 20.2191 97.8843 22.0126C83.2378 23.8062 69.8316 31.1324 60.4122 42.4902C50.9928 53.8481 46.2732 68.3778 47.2204 83.1026L47.2703 83.8511L47.1206 83.8311Z" fill="#24071D"/>
<path d="M90.0014 191.613C88.2715 188.735 86.1487 186.112 83.6945 183.82C80.7007 180.736 77.7967 177.832 76.5293 173.571C75.5159 170.213 75.5159 166.631 76.5293 163.273C77.1065 161.768 77.8781 160.346 78.8246 159.042C79.7773 157.689 80.5741 156.233 81.1997 154.701C83.1157 149.592 80.7905 145.72 78.5352 142.058L78.4653 141.948C77.133 140.036 76.1218 137.919 75.4715 135.681C74.5534 131.69 75.711 127.698 76.9285 123.467C77.8785 120.632 78.5111 117.7 78.8146 114.726C79.0855 108.359 78.882 101.982 78.2059 95.6458C77.8266 91.0255 77.4275 86.2456 77.4374 81.5156H78.9343C78.9343 86.1758 79.3136 90.9158 79.6928 95.4861C80.3885 101.911 80.5986 108.379 80.3215 114.835C80.018 117.908 79.372 120.937 78.3955 123.866C77.2179 127.858 76.1202 131.71 76.9485 135.362C77.5579 137.436 78.4944 139.4 79.7227 141.18V141.279C81.9381 144.922 84.7124 149.452 82.5269 155.25C81.8654 156.872 81.0253 158.415 80.0221 159.85C79.1552 161.055 78.4475 162.366 77.9164 163.752C76.9881 166.82 76.9881 170.094 77.9164 173.162C79.074 177.074 81.8084 179.848 84.7024 182.782C87.2637 185.173 89.4743 187.915 91.2688 190.925L90.0014 191.613Z" fill="#24071D"/>
<path d="M74.4637 194.121C61.4906 183.144 61.0116 173.893 61.7899 167.906C62.1142 165.828 62.5641 163.772 63.1371 161.749L63.197 161.51C64.0357 158.737 64.5842 155.884 64.8336 152.998C65.0831 148.387 63.3767 144.505 61.7301 140.763L60.9018 138.857C58.5067 133.209 59.4149 127.99 60.3928 122.462C61.0712 119.161 61.4387 115.803 61.4906 112.433C61.3043 107.254 60.7003 102.098 59.6843 97.0158C58.6799 91.9799 58.0891 86.8703 57.918 81.738C57.918 71.5895 62.4985 63.2571 67.3983 54.4257L69.3942 50.8633L70.7015 51.5917L68.7056 55.1542C63.9056 63.8059 59.365 71.9787 59.4149 81.7281C59.5828 86.7803 60.1669 91.8101 61.1612 96.7663C62.1879 101.925 62.7986 107.157 62.9875 112.413C62.9349 115.874 62.5573 119.322 61.8598 122.712C60.9217 128.02 60.0436 133.03 62.259 138.269L63.0873 140.155C64.8037 144.066 66.58 148.138 66.3206 153.077C66.0668 156.065 65.5016 159.018 64.634 161.889L64.5742 162.128C64.0229 164.097 63.5864 166.096 63.2669 168.116C62.0893 177.196 65.8316 184.87 75.4217 192.993L74.4637 194.121Z" fill="#24071D"/>
<path d="M154.258 185.558C153.21 181.427 152.122 177.156 152.671 173.114C152.982 171.401 153.484 169.727 154.168 168.125L154.238 167.965C154.657 166.888 155.086 165.73 155.425 164.572C158.908 152.548 155.156 143.168 150.805 132.311L150.416 131.313C147.362 123.649 144.758 117.113 143.959 109.08C142.651 94.9933 142.208 80.8399 142.632 66.6992H144.129C143.708 80.7633 144.148 94.8398 145.446 108.85C146.224 116.674 148.789 123.12 151.763 130.584L152.192 131.662C156.643 142.779 160.485 152.378 156.862 164.892C156.513 166.119 156.064 167.307 155.635 168.414L155.575 168.564C154.924 170.076 154.446 171.656 154.148 173.274C153.649 177.026 154.697 181.157 155.715 185.149L154.258 185.558Z" fill="#24071D"/>
<path d="M135.109 174.35L92.418 168.423L95.6014 130.323L130.878 130.273L135.109 174.35Z" fill="white"/>
<path d="M135.947 175.218L91.6094 169.071L94.9125 129.574H131.557L135.947 175.218ZM93.226 167.784L134.271 173.481L130.199 131.021H96.2697L93.226 167.784Z" fill="#24071D"/>
<path d="M83.506 104.628C84.953 110.616 82.9571 118.928 78.2269 120.066C73.4967 121.203 66.591 116.304 65.1341 110.366C63.6771 104.429 67.6089 97.1342 72.3391 95.9866C77.0693 94.839 82.0789 98.7109 83.506 104.628Z" fill="white"/>
<path d="M76.8281 120.983C74.3638 120.874 71.9949 119.999 70.0522 118.479C67.3237 116.56 65.3423 113.757 64.4438 110.545C62.9669 104.388 66.9486 96.525 72.1977 95.2577C73.302 95.0079 74.4449 94.9798 75.5601 95.1751C76.6753 95.3703 77.7406 95.7851 78.6943 96.3953C81.5415 98.245 83.5456 101.142 84.2727 104.458C85.3205 108.759 84.632 114.108 82.5862 117.431C82.1521 118.234 81.5623 118.942 80.8512 119.514C80.1401 120.087 79.322 120.511 78.4448 120.764C77.916 120.898 77.3736 120.972 76.8281 120.983ZM74.0739 96.525C73.5593 96.5291 73.0469 96.5927 72.547 96.7146C68.0962 97.7923 64.6135 104.847 65.9008 110.186C66.7027 113.05 68.4643 115.551 70.8904 117.271C73.3454 119.067 76.0198 119.836 78.0456 119.337C78.7325 119.131 79.3714 118.79 79.9248 118.334C80.4783 117.879 80.9353 117.317 81.2689 116.682C83.0951 113.689 83.7239 108.699 82.7758 104.808C82.1455 101.877 80.3848 99.3132 77.876 97.6726C76.7261 96.9421 75.3961 96.5448 74.0339 96.525H74.0739Z" fill="#24071D"/>
<path d="M77.2381 119.217C81.3396 136.261 99.1926 148.785 117.674 146.809C137.763 144.664 152.362 127.211 150.287 107.891C148.74 93.5017 144.099 50.3828 144.099 50.3828L71.4102 58.1664C71.4102 58.1664 73.5956 78.5633 75.4518 95.9665" fill="white"/>
<path d="M113.912 147.767C96.738 147.767 80.4318 135.692 76.51 119.397L77.957 119.047C82.0185 135.852 99.7917 147.986 117.595 146.07C126.984 145.117 135.63 140.538 141.695 133.307C144.65 129.829 146.867 125.785 148.211 121.422C149.554 117.06 149.996 112.47 149.509 107.931C148.092 94.6589 144.03 56.9386 143.411 51.1708L72.1989 58.7947L76.1906 95.8464L74.7037 96.0061L70.5723 57.4675L144.759 49.4844L144.838 50.2228C144.838 50.2228 149.479 93.3417 151.016 107.731C151.524 112.47 151.063 117.262 149.661 121.816C148.26 126.371 145.947 130.593 142.862 134.225C139.31 138.443 134.88 141.835 129.882 144.165C124.883 146.496 119.437 147.708 113.922 147.717L113.912 147.767Z" fill="#24071D"/>
<path d="M99.0641 58.955C119.232 77.915 146.675 78.4039 146.675 78.4039C146.675 78.4039 151.575 70.78 150.028 56.9692C147.394 33.409 129.431 23.0409 101.599 26.0345C73.7665 29.0282 53.0195 47.2897 56.0333 75.1209C57.151 85.4391 55.4545 116.034 72.6987 104.968C80.293 101.316 87.8074 85.7883 99.0641 58.955Z" fill="#DF8943"/>
<path d="M55.2031 107.025C55.2031 107.025 78.7244 122.751 99.1121 58.9961L55.2031 107.025Z" fill="#DF8943"/>
<path d="M61.9208 109.527C59.4105 109.577 56.9348 108.935 54.7656 107.671L55.6338 106.373L55.2047 107.022L55.6338 106.373C55.8234 106.493 60.394 109.427 67.2398 107.012C75.3031 104.168 87.1984 93.4806 98.3154 58.7539L99.8023 59.2329C93.5752 78.7716 82.9472 103.14 67.6988 108.509C65.8443 109.173 63.8905 109.517 61.9208 109.527Z" fill="#24071D"/>
<path d="M97.9258 58.0469C97.9258 58.0469 127.764 84.3413 152.642 76.0089L97.9258 58.0469Z" fill="#DF8943"/>
<path d="M142.295 78.3946C134.212 78.3946 125.16 75.8499 115.59 70.8505C109.114 67.4395 103.022 63.3448 97.418 58.6363L98.4159 57.4688C98.7153 57.7282 128.204 83.364 152.364 75.2612L152.863 76.738C149.453 77.8592 145.884 78.4186 142.295 78.3946Z" fill="#24071D"/>
<path d="M104.874 128.961C104.286 125.542 105.061 122.028 107.033 119.174C109.005 116.319 112.018 114.351 115.424 113.692C118.831 113.032 122.36 113.734 125.255 115.647C128.15 117.559 130.18 120.53 130.91 123.922L104.874 128.961Z" fill="#8E3385"/>
<path d="M125.466 111.855C125.487 113.208 125.368 114.576 125.115 115.914L107.69 118.876C107.392 117.622 107.228 116.29 107.205 114.927L125.466 111.855Z" fill="white"/>
<path d="M118.636 112.517C121.153 112.642 123.59 113.446 125.688 114.843C127.786 116.24 129.467 118.179 130.553 120.453C131.169 121.735 131.588 123.103 131.796 124.509L131.901 125.244L104.173 129.245L104.059 128.5C103.86 127.088 103.875 125.654 104.104 124.246C104.578 121.302 105.982 118.587 108.111 116.498C110.239 114.409 112.98 113.056 115.932 112.637C116.828 112.513 117.733 112.473 118.636 112.517ZM130.182 123.992C129.589 121.131 128.013 118.567 125.727 116.746C123.441 114.925 120.589 113.961 117.667 114.022C114.745 114.084 111.937 115.165 109.729 117.081C107.521 118.996 106.053 121.623 105.58 124.507C105.402 125.513 105.353 126.538 105.433 127.557L130.182 123.992Z" fill="#24071D"/>
<path opacity="0.26" d="M111.836 22.4824L111.078 22.5622C96.2494 24.3828 82.6784 31.8049 73.1455 43.3078C63.6126 54.8106 58.8396 69.5233 59.8043 84.4315C59.6346 84.4315 61.9099 111.325 57.0799 121.833C50.1443 136.881 60.6026 140.902 61.2812 150.582C61.9598 160.261 52.7988 163.395 54.0163 176.248C55.0142 186.227 61.6405 193.302 64.5644 195.946L53.0084 197.104C53.0084 197.104 42.3305 189.12 41.103 176.248C39.8756 163.375 49.0865 160.281 48.368 150.582C47.6495 140.882 37.2311 136.881 44.1667 121.833C48.9967 111.325 46.7114 84.4515 46.891 84.4315C45.9239 69.5228 50.6961 54.8088 60.2294 43.3054C69.7627 31.802 83.3352 24.3805 98.1648 22.5622C102.704 22.0073 107.291 21.9805 111.836 22.4824Z" fill="#8E3385"/>
<path d="M194.196 183.363C177.609 202.424 154.978 215.209 130.09 219.58C105.203 223.951 79.5695 219.641 57.4798 207.372C56.5717 206.873 55.6835 206.374 54.7953 205.815C45.0375 200.023 36.2319 192.759 28.6895 184.281C34.8168 178.563 42.2151 174.384 50.2747 172.087L59.2561 169.532L80.7416 163.405L89.9824 160.78C90.8248 160.533 91.7278 160.597 92.5271 160.96C92.7072 161.039 92.8807 161.133 93.0461 161.239C93.2157 161.361 93.3789 161.491 93.535 161.629C98.0058 165.72 112.586 176.128 133.343 161.21C133.5 161.099 133.667 161.002 133.842 160.92C134.06 160.816 134.287 160.733 134.52 160.671C135.173 160.49 135.863 160.49 136.516 160.671L153.581 165.83L173.479 171.817L174.028 171.987C181.505 174.25 188.391 178.135 194.196 183.363Z" fill="#8E3385"/>
<path d="M111.028 221.998C92.1529 222.009 73.5872 217.2 57.0902 208.028C56.0324 207.449 55.1742 206.95 54.3759 206.461C44.5502 200.633 35.6867 193.318 28.1003 184.777C27.9755 184.641 27.9062 184.463 27.9062 184.278C27.9062 184.093 27.9755 183.915 28.1003 183.779C34.316 177.982 41.8203 173.744 49.9949 171.415L89.8024 160.059C90.8166 159.759 91.9051 159.837 92.8661 160.279C93.0741 160.369 93.2743 160.475 93.4648 160.598C93.6808 160.74 93.8844 160.901 94.0736 161.077C99.1231 165.697 113.034 174.908 132.933 160.608C133.129 160.468 133.336 160.345 133.552 160.239C133.812 160.119 134.083 160.022 134.36 159.949C135.149 159.725 135.986 159.725 136.775 159.949L174.297 171.265C181.871 173.564 188.849 177.491 194.745 182.771C194.89 182.903 194.978 183.087 194.989 183.283C195 183.479 194.934 183.671 194.805 183.819C184.39 195.811 171.52 205.427 157.066 212.013C142.613 218.6 126.912 222.006 111.028 221.998ZM29.717 184.328C37.092 192.52 45.6649 199.548 55.1443 205.174C55.9326 205.653 56.7709 206.172 57.8087 206.711C79.6397 218.845 104.963 223.152 129.579 218.915C154.194 214.679 176.621 202.155 193.138 183.42C187.522 178.528 180.935 174.879 173.808 172.712L173.259 172.543L136.336 161.396C135.811 161.247 135.254 161.247 134.729 161.396C134.54 161.445 134.356 161.512 134.18 161.596C134.047 161.655 133.92 161.729 133.801 161.815C124.72 168.342 115.779 170.856 107.216 169.28C101.931 168.261 97.0281 165.806 93.0457 162.185C92.9155 162.06 92.7754 161.947 92.6266 161.845C92.5136 161.77 92.3932 161.707 92.2673 161.656C91.6252 161.351 90.8931 161.294 90.2116 161.496L50.4939 172.802C46.8177 173.848 43.2671 175.294 39.9059 177.113C36.2275 179.093 32.8057 181.516 29.717 184.328Z" fill="#24071D"/>
<path opacity="0.26" d="M99.0833 165.947L89.3335 168.721L66.7503 175.158L57.2999 177.852C48.8209 180.262 41.0383 184.658 34.597 190.675C34.5371 190.725 34.597 190.725 34.4772 190.805C32.4125 188.845 30.4537 186.776 28.6094 184.608C31.8798 181.543 35.5326 178.913 39.4768 176.784C42.8788 174.94 46.4729 173.474 50.1946 172.413L59.176 169.859L80.6615 163.732L89.9123 161.097C90.7513 160.85 91.6513 160.914 92.4471 161.277C92.6282 161.354 92.8018 161.448 92.966 161.556C93.1394 161.672 93.3029 161.803 93.455 161.946C95.1659 163.498 97.0553 164.841 99.0833 165.947Z" fill="#8E3385"/>
<path opacity="0.26" d="M95.2102 142.168L94.332 151.039C99.9005 153.823 110.718 159.222 132.363 142.946L132.942 142.507C132.942 142.507 132.742 142.637 132.363 142.847C129.12 144.643 112.754 152.756 95.2102 142.168Z" fill="#8E3385"/>
</svg>
