<svg width="172" height="36" viewBox="0 0 172 36" fill="none" xmlns="http://www.w3.org/2000/svg">
<g clip-path="url(#clip0_129_1413)">
<path d="M62.0097 0.816895V7.19392H53.1604V34.6344H46.699V7.19392H37.8965V0.816895H62.0097Z" fill="black"/>
<path d="M68.4033 14.6334C68.9652 13.0875 69.886 11.928 71.1658 11.155C72.4768 10.3821 73.9282 9.99561 75.5202 9.99561V16.9524C73.6785 16.7269 72.0241 17.1134 70.557 18.1117C69.1212 19.1102 68.4033 20.7689 68.4033 23.0878V34.634H62.3633V10.4787H68.4033V14.6334Z" fill="black"/>
<path d="M95.9764 10.4791H102.016V34.6344H95.9764V31.7841C94.166 34.1352 91.622 35.3108 88.3445 35.3108C85.2231 35.3108 82.5387 34.0869 80.2911 31.6392C78.0749 29.1592 76.9668 26.1317 76.9668 22.5568C76.9668 18.9817 78.0749 15.9704 80.2911 13.5227C82.5387 11.0427 85.2231 9.80273 88.3445 9.80273C91.622 9.80273 94.166 10.9783 95.9764 13.3294V10.4791ZM84.8328 27.4845C86.0501 28.7405 87.5953 29.3685 89.4681 29.3685C91.3411 29.3685 92.8861 28.7405 94.1036 27.4845C95.3521 26.1961 95.9764 24.5536 95.9764 22.5568C95.9764 20.5599 95.3521 18.9335 94.1036 17.6773C92.8861 16.3891 91.3411 15.7451 89.4681 15.7451C87.5953 15.7451 86.0501 16.3891 84.8328 17.6773C83.6155 18.9335 83.0068 20.5599 83.0068 22.5568C83.0068 24.5536 83.6155 26.1961 84.8328 27.4845Z" fill="black"/>
<path d="M127.091 25.1172C127.904 28.1447 130.104 29.6585 133.695 29.6585C136.004 29.6585 137.752 28.8533 138.939 27.2428L143.807 30.1416C141.497 33.5877 138.095 35.3108 133.6 35.3108C129.73 35.3108 126.624 34.1031 124.283 31.6875C121.942 29.272 120.771 26.2284 120.771 22.5568C120.771 18.9173 121.926 15.8899 124.236 13.4744C126.546 11.0266 129.511 9.80273 133.132 9.80273C136.565 9.80273 139.389 11.0266 141.607 13.4744C143.853 15.9221 144.977 18.9496 144.977 22.5568C144.977 23.362 144.9 24.2155 144.744 25.1172H127.091ZM126.998 20.2861H138.939C138.595 18.6436 137.876 17.4197 136.784 16.6145C135.723 15.8093 134.505 15.4067 133.132 15.4067C131.508 15.4067 130.167 15.8415 129.105 16.7111C128.044 17.5485 127.341 18.7403 126.998 20.2861Z" fill="black"/>
<path d="M154.114 25.1172C154.926 28.1447 157.126 29.6585 160.716 29.6585C163.025 29.6585 164.774 28.8533 165.96 27.2428L170.829 30.1416C168.52 33.5877 165.117 35.3108 160.622 35.3108C156.752 35.3108 153.646 34.1031 151.304 31.6875C148.964 29.272 147.793 26.2284 147.793 22.5568C147.793 18.9173 148.949 15.8899 151.257 13.4744C153.568 11.0266 156.533 9.80273 160.154 9.80273C163.588 9.80273 166.412 11.0266 168.629 13.4744C170.876 15.9221 172 18.9496 172 22.5568C172 23.362 171.922 24.2155 171.766 25.1172H154.114ZM154.02 20.2861H165.96C165.616 18.6436 164.898 17.4197 163.805 16.6145C162.745 15.8093 161.528 15.4067 160.154 15.4067C158.53 15.4067 157.188 15.8415 156.128 16.7111C155.066 17.5485 154.364 18.7403 154.02 20.2861Z" fill="black"/>
<path d="M104.262 16.3237V11.2881H122.895L104.262 16.3237Z" fill="url(#paint0_linear_129_1413)"/>
<path d="M120.011 6.02349C115.131 6.02349 115.057 8.84644 115.131 10.1435H109.141C109.067 8.69385 109.452 5.15369 111.581 2.59013C113.711 0.0265697 118.089 -0.156542 120.011 0.0723473V6.02349Z" fill="black"/>
<path d="M115.131 34.6345V16.5522H109.142V34.6345H115.131Z" fill="black"/>
<path d="M31.9445 13.3802V1.21631H19.7753L21.6768 3.17822L7.41602 26.9174L29.8529 11.222L31.9445 13.3802Z" fill="url(#paint1_linear_129_1413)"/>
<path d="M0 17.1069V25.3471V34.7641H9.12689H17.1129L12.9298 30.448H4.18316V21.4232L0 17.1069Z" fill="#A6A6A6"/>
<path d="M19.7762 34.7644H20.917C25.9577 34.7644 30.0438 30.5481 30.0438 25.3472V13.772L25.1002 17.1072V22.2081C25.1002 26.3257 21.8653 29.6634 17.8746 29.6634H15.0225L19.7762 34.7644Z" fill="black"/>
<path d="M19.3947 3.17773H9.12688C4.08625 3.17773 0 7.19776 0 12.3987V14.3605L4.94373 19.2655V15.5377C4.94373 11.4203 8.17868 8.08251 12.1692 8.08251H16.7325L19.3947 3.17773Z" fill="black"/>
</g>
<defs>
<linearGradient id="paint0_linear_129_1413" x1="122.895" y1="10.9293" x2="120.615" y2="20.2765" gradientUnits="userSpaceOnUse">
<stop stop-color="#FAAF40"/>
<stop offset="1" stop-color="#F16633"/>
</linearGradient>
<linearGradient id="paint1_linear_129_1413" x1="31.9445" y1="-0.614805" x2="6.71044" y2="26.0647" gradientUnits="userSpaceOnUse">
<stop stop-color="#FAAF40"/>
<stop offset="1" stop-color="#F16633"/>
</linearGradient>
<clipPath id="clip0_129_1413">
<rect width="172" height="36" fill="white"/>
</clipPath>
</defs>
</svg>
