<svg width="60" height="100" viewBox="0 0 60 100" fill="none" xmlns="http://www.w3.org/2000/svg">
<path d="M7.11155 92.2718H4.7959V91.1401H10.6994V92.2718H8.38377V97.5001H7.11155V92.2718ZM15.8407 91.1401H19.0313C19.5129 91.1401 19.9302 91.1918 20.2834 91.2951C20.6366 91.3951 20.9296 91.5418 21.1624 91.7343C21.3951 91.9268 21.5677 92.1618 21.68 92.4385C21.7951 92.7151 21.8526 93.0285 21.8526 93.3785C21.8526 93.6143 21.8245 93.8393 21.7684 94.0535C21.7122 94.2651 21.6252 94.461 21.5075 94.6393C21.3924 94.8185 21.2466 94.9785 21.0701 95.1201C20.8934 95.2585 20.6861 95.3735 20.448 95.466L21.8125 97.5001H20.2553L19.0754 95.6935H19.0393L17.1129 95.6893V97.5001H15.8407V91.1401ZM19.0634 94.5743C19.3042 94.5743 19.5142 94.546 19.6934 94.4893C19.8754 94.4318 20.0266 94.3518 20.147 94.2493C20.27 94.146 20.361 94.021 20.4198 93.8743C20.4814 93.7251 20.5122 93.5601 20.5122 93.3785C20.5122 93.0226 20.3918 92.7493 20.151 92.556C19.9102 92.361 19.5476 92.2635 19.0634 92.2635H17.1129V94.5743H19.0634ZM29.2815 91.1401H30.63L33.664 97.5001H32.3275L31.8259 96.4301H28.1618L27.6762 97.5001H26.3358L29.2815 91.1401ZM31.3242 95.3676L29.9677 92.4793L28.6474 95.3676H31.3242ZM38.42 91.1401H40.7197C41.3912 91.1401 41.9745 91.2135 42.4694 91.3601C42.9644 91.5068 43.3737 91.7168 43.6975 91.991C44.0239 92.2618 44.2661 92.5926 44.4239 92.9835C44.5844 93.3718 44.6647 93.8085 44.6647 94.2935C44.6647 94.7551 44.5858 95.1818 44.4279 95.5751C44.27 95.966 44.0293 96.3051 43.7055 96.5926C43.3818 96.8776 42.9725 97.101 42.4775 97.2643C41.9825 97.4243 41.3992 97.5043 40.7276 97.5043L38.42 97.5001V91.1401ZM41.0326 96.3851C41.4126 96.3851 41.7457 96.3368 42.032 96.2385C42.3183 96.1385 42.5564 95.9976 42.7463 95.816C42.939 95.6335 43.0835 95.4143 43.1797 95.1568C43.2761 94.8985 43.3242 94.611 43.3242 94.2935C43.3242 93.9818 43.2761 93.701 43.1797 93.4518C43.0835 93.1993 42.939 92.986 42.7463 92.8126C42.5564 92.636 42.3183 92.501 42.032 92.406C41.7457 92.311 41.4126 92.2635 41.0326 92.2635H39.6923V96.3851H41.0326ZM49.7217 91.1401H55.0634V92.2718H50.994V93.541H54.5978V94.6026H50.994V96.3726H55.1477V97.5001H49.7217V91.1401Z" fill="black"/>
<path d="M10.5794 76.9509L3.33301 68.0532H8.94597L13.3413 73.4731L17.5139 68.0532H22.9932L16.1775 76.9359L23.4238 85.8336H17.8109L13.2819 80.2781L9.07962 85.8336H3.60029L10.5794 76.9509Z" fill="black"/>
<path d="M26.2344 60.8564H30.6297V69.7391C31.0157 69.4681 31.4711 69.2122 31.9958 68.9713C32.5205 68.7304 33.0847 68.5196 33.6886 68.3389C34.2925 68.1583 34.9161 68.0178 35.5596 67.9174C36.203 67.807 36.8465 67.7518 37.49 67.7518C38.9748 67.7518 40.336 67.9726 41.5735 68.4143C42.8208 68.8559 43.8899 69.4782 44.7809 70.2811C45.6718 71.084 46.3648 72.0476 46.8597 73.1718C47.3646 74.2859 47.6171 75.5204 47.6171 76.8754C47.6171 78.2905 47.3547 79.5703 46.8301 80.7144C46.3054 81.8486 45.5778 82.8222 44.6472 83.6349C43.7266 84.4383 42.6278 85.0608 41.3508 85.5024C40.0836 85.9333 38.7076 86.1491 37.2227 86.1491C36.5891 86.1491 35.9605 86.1091 35.3369 86.0291C34.7231 85.9491 34.1291 85.8383 33.5549 85.6974C32.9907 85.5574 32.4561 85.3916 31.9512 85.2008C31.4563 84.9999 31.0157 84.7841 30.6297 84.5533V85.8333H26.2344V60.8564ZM30.6297 80.2478C31.0751 80.6091 31.5454 80.9152 32.0403 81.1661C32.5353 81.417 33.0402 81.6228 33.5549 81.7834C34.0697 81.9439 34.5894 82.0644 35.1141 82.1447C35.6388 82.2149 36.1486 82.2501 36.6436 82.2501C37.6533 82.2501 38.5492 82.1146 39.3312 81.8436C40.1232 81.5626 40.7864 81.1812 41.321 80.6994C41.8655 80.2176 42.2813 79.6505 42.5683 78.9982C42.8554 78.3458 42.999 77.6382 42.999 76.8754C42.999 76.1627 42.8554 75.4903 42.5683 74.8579C42.2912 74.2256 41.8853 73.6736 41.3508 73.2019C40.826 72.7201 40.1876 72.3437 39.4352 72.0727C38.6928 71.7917 37.8562 71.6511 36.9257 71.6511C36.3317 71.6511 35.7378 71.7114 35.1438 71.8318C34.5498 71.9422 33.9757 72.1028 33.4213 72.3136C32.8769 72.5244 32.3621 72.7803 31.877 73.0814C31.4019 73.3825 30.986 73.7188 30.6297 74.0901V80.2478Z" fill="black"/>
<path d="M52.4818 65.6438C52.0463 65.6438 51.6503 65.5837 51.2939 65.4633C50.9475 65.3328 50.6504 65.1621 50.403 64.9513C50.1555 64.7305 49.9625 64.4796 49.8238 64.1986C49.6952 63.9075 49.6309 63.6013 49.6309 63.2802C49.6309 62.949 49.6952 62.6428 49.8238 62.3618C49.9625 62.0708 50.1555 61.8198 50.403 61.6091C50.6504 61.3983 50.9475 61.2327 51.2939 61.1123C51.6503 60.9818 52.0463 60.9165 52.4818 60.9165C52.9273 60.9165 53.3233 60.9818 53.6698 61.1123C54.0261 61.2327 54.3281 61.3983 54.5756 61.6091C54.8231 61.8198 55.0111 62.0708 55.1398 62.3618C55.2784 62.6428 55.3478 62.949 55.3478 63.2802C55.3478 63.6013 55.2784 63.9075 55.1398 64.1986C55.0111 64.4796 54.8231 64.7305 54.5756 64.9513C54.3281 65.1621 54.0261 65.3328 53.6698 65.4633C53.3233 65.5837 52.9273 65.6438 52.4818 65.6438ZM50.2842 68.0678H54.6796V85.8331H50.2842V68.0678Z" fill="black"/>
<path d="M29.7574 52.0085C43.9224 52.0085 55.4054 40.366 55.4054 26.0042C55.4054 11.6425 43.9224 0 29.7574 0C15.5924 0 4.10938 11.6425 4.10938 26.0042C4.10938 40.366 15.5924 52.0085 29.7574 52.0085Z" fill="#449F7E"/>
<path d="M43.4617 11.6597C40.0333 8.18373 34.4749 8.18373 31.0465 11.6597L24.8389 17.9536L37.2541 30.5412L43.4617 24.2474C46.8901 20.7714 46.8901 15.1357 43.4617 11.6597Z" fill="white"/>
<path d="M31.167 23.4876L16.8191 38.0348L15.7969 36.9983L17.3869 35.3863L30.1448 22.4512L31.167 23.4876Z" fill="white"/>
<path d="M16.7596 38.0961C16.4481 38.4119 15.9667 38.436 15.6844 38.1498C15.4022 37.8636 15.4258 37.3755 15.7374 37.0597C16.0489 36.7438 16.5303 36.7198 16.8125 37.006C17.0948 37.2922 17.0711 37.7803 16.7596 38.0961Z" fill="white"/>
<path d="M31.3037 13.471L20.8386 24.0814L19.8164 23.0451L21.2571 21.5843L30.2816 12.4346L31.3037 13.471Z" fill="white"/>
<path fill-rule="evenodd" clip-rule="evenodd" d="M18.7631 20.9319C19.0454 21.2182 19.0454 21.6822 18.7631 21.9683C18.6127 22.1209 18.5706 22.2387 18.557 22.3127C18.5423 22.3933 18.5512 22.4818 18.5851 22.5811C18.6199 22.6827 18.675 22.777 18.7265 22.8495C18.7512 22.8842 18.7726 22.9103 18.7858 22.9257C18.7897 22.9302 18.7928 22.9337 18.795 22.9362C18.7981 22.9392 18.8029 22.9437 18.8093 22.9494C18.8276 22.9657 18.8573 22.9913 18.8964 23.0208C18.9776 23.0822 19.0833 23.1488 19.1973 23.1931C19.3103 23.2368 19.4074 23.2495 19.4899 23.237C19.5622 23.2261 19.6728 23.1892 19.8151 23.045L20.8373 24.0813C20.4934 24.4301 20.1053 24.6259 19.703 24.6867C19.311 24.7459 18.9578 24.6693 18.6813 24.5622C18.4058 24.4554 18.1827 24.3095 18.0325 24.1961C17.9559 24.1382 17.8944 24.0857 17.8502 24.0459C17.8279 24.026 17.8098 24.009 17.7962 23.9958C17.7893 23.9892 17.7836 23.9836 17.7789 23.9789C17.7766 23.9767 17.7745 23.9746 17.7728 23.9728C17.7719 23.9719 17.7711 23.9711 17.7704 23.9703L17.7702 23.9702L17.7697 23.9697L17.7693 23.9692L17.7688 23.9687L17.7685 23.9685C17.7678 23.9677 17.767 23.9668 17.7661 23.9659C17.7643 23.9641 17.7622 23.962 17.7599 23.9596C17.7553 23.9547 17.7498 23.9489 17.7434 23.942C17.7307 23.9282 17.7144 23.9101 17.6954 23.888C17.6577 23.844 17.6083 23.783 17.5543 23.7071C17.4482 23.5582 17.3135 23.3367 17.2193 23.0612C17.1242 22.783 17.0648 22.4326 17.1357 22.0453C17.2077 21.6513 17.4051 21.2724 17.7409 20.9319C18.0232 20.6457 18.4808 20.6457 18.7631 20.9319Z" fill="white"/>
<path d="M33.1363 14.7537L20.1355 27.935L19.1133 26.8986L20.554 25.438L32.114 13.7173L33.1363 14.7537Z" fill="white"/>
<path fill-rule="evenodd" clip-rule="evenodd" d="M18.0629 24.7859C18.3452 25.0722 18.3452 25.5362 18.0629 25.8223C17.9125 25.9749 17.8704 26.0927 17.8568 26.1667C17.8421 26.2473 17.851 26.3358 17.8849 26.4351C17.9197 26.5367 17.9747 26.631 18.0263 26.7035C18.051 26.7382 18.0724 26.7643 18.0856 26.7797C18.0895 26.7842 18.0926 26.7877 18.0948 26.7902C18.0979 26.7932 18.1027 26.7977 18.1091 26.8034C18.1274 26.8197 18.1571 26.8453 18.1962 26.8748C18.2774 26.9362 18.3831 27.0029 18.4971 27.0471C18.6101 27.0908 18.7072 27.1035 18.7897 27.0911C18.862 27.0802 18.9726 27.0433 19.1149 26.899L20.1371 27.9354C19.7932 28.2841 19.405 28.4799 19.0028 28.5407C18.6108 28.5999 18.2576 28.5233 17.981 28.4162C17.7056 28.3094 17.4825 28.1635 17.3323 28.0501C17.2557 27.9922 17.1942 27.9397 17.15 27.8999C17.1277 27.88 17.1096 27.863 17.096 27.8498C17.0891 27.8432 17.0834 27.8376 17.0787 27.8329C17.0764 27.8307 17.0743 27.8286 17.0726 27.8268C17.0717 27.8259 17.0709 27.8251 17.0702 27.8243L17.07 27.8242L17.0695 27.8237L17.0691 27.8232L17.0686 27.8227L17.0683 27.8225C17.0676 27.8217 17.0668 27.8208 17.0659 27.8199C17.0641 27.8181 17.062 27.816 17.0597 27.8136C17.0551 27.8088 17.0496 27.8029 17.0432 27.796C17.0305 27.7822 17.0142 27.7642 16.9952 27.742C16.9574 27.698 16.9081 27.637 16.8541 27.5611C16.748 27.4122 16.6133 27.1907 16.5191 26.9152C16.424 26.637 16.3646 26.2866 16.4355 25.8993C16.5076 25.5053 16.7049 25.1264 17.0407 24.7859C17.323 24.4997 17.7806 24.4997 18.0629 24.7859Z" fill="white"/>
<path d="M31.7559 19.3318L16.9587 34.3345L15.9365 33.2981L17.5763 31.6355L30.7337 18.2954L31.7559 19.3318Z" fill="white"/>
<path d="M16.9635 34.3292C16.6573 34.6398 16.1801 34.6596 15.8978 34.3734C15.6156 34.0872 15.635 33.6034 15.9414 33.2929C16.2476 32.9823 16.7248 32.9626 17.0071 33.2487C17.2893 33.5349 17.2698 34.0187 16.9635 34.3292Z" fill="white"/>
<path d="M31.9306 24.2661L17.5732 38.8229L18.5955 39.8593L20.1865 38.2461L32.9528 25.3025L31.9306 24.2661Z" fill="white"/>
<path d="M18.5352 39.9206C18.2235 40.2367 17.742 40.2608 17.4597 39.9747C17.1774 39.6885 17.2014 39.2003 17.513 38.8842C17.8248 38.5682 18.3063 38.5439 18.5886 38.8302C18.8708 39.1163 18.847 39.6046 18.5352 39.9206Z" fill="white"/>
<path d="M41.3128 24.353L31.2148 34.5912L32.237 35.6276L33.6777 34.1669L42.335 25.3894L41.3128 24.353Z" fill="white"/>
<path fill-rule="evenodd" clip-rule="evenodd" d="M34.3223 36.6942C34.04 36.4081 33.5824 36.4081 33.3001 36.6942C33.1496 36.8468 33.0334 36.8895 32.9605 36.9032C32.8809 36.9181 32.7937 36.9091 32.6958 36.8747C32.5955 36.8395 32.5025 36.7837 32.431 36.7314C32.3968 36.7063 32.371 36.6846 32.3558 36.6712C32.3514 36.6673 32.3479 36.6642 32.3455 36.662C32.3426 36.6588 32.3382 36.6539 32.3325 36.6474C32.3164 36.629 32.2911 36.5988 32.262 36.5591C32.2015 36.4768 32.1357 36.3696 32.0922 36.2541C32.049 36.1395 32.0365 36.0411 32.0488 35.9574C32.0595 35.8841 32.0958 35.772 32.2382 35.6277L31.216 34.5913C30.8721 34.94 30.6789 35.3336 30.6189 35.7414C30.5606 36.1388 30.6361 36.4969 30.7418 36.7773C30.8471 37.0566 30.991 37.2827 31.1029 37.435C31.16 37.5126 31.2117 37.5751 31.251 37.62C31.2706 37.6425 31.2874 37.6608 31.3004 37.6746C31.3069 37.6816 31.3125 37.6875 31.3171 37.6921C31.3193 37.6945 31.3214 37.6966 31.3231 37.6984C31.324 37.6992 31.3248 37.7001 31.3255 37.7008L31.3257 37.701L31.3262 37.7015L31.3266 37.7019L31.3271 37.7024L31.3274 37.7026C31.3281 37.7034 31.3289 37.7043 31.3299 37.7051C31.3317 37.707 31.3338 37.7091 31.3362 37.7114C31.3408 37.7161 31.3467 37.7216 31.3535 37.7281C31.3671 37.7411 31.3849 37.7576 31.4068 37.7768C31.4502 37.8151 31.5103 37.8651 31.5852 37.92C31.732 38.0274 31.9505 38.1641 32.2223 38.2596C32.4966 38.356 32.8422 38.4161 33.2242 38.3443C33.6128 38.2712 33.9865 38.0711 34.3223 37.7306C34.6046 37.4445 34.6046 36.9805 34.3223 36.6942Z" fill="white"/>
<path d="M40.4099 22.1294L27.4092 35.3107L28.4314 36.3471L29.8721 34.8863L41.4322 23.1657L40.4099 22.1294Z" fill="white"/>
<path fill-rule="evenodd" clip-rule="evenodd" d="M30.5167 37.4135C30.2344 37.1273 29.7767 37.1273 29.4945 37.4135C29.344 37.566 29.2277 37.6087 29.1549 37.6225C29.0753 37.6374 28.988 37.6284 28.8901 37.594C28.7898 37.5587 28.6969 37.5029 28.6254 37.4506C28.5911 37.4255 28.5654 37.4039 28.5502 37.3905C28.5458 37.3865 28.5423 37.3834 28.5399 37.3812C28.537 37.378 28.5325 37.3731 28.5269 37.3666C28.5107 37.3481 28.4855 37.318 28.4563 37.2784C28.3958 37.196 28.3301 37.0889 28.2865 36.9733C28.2434 36.8587 28.2309 36.7603 28.2431 36.6766C28.2539 36.6033 28.2902 36.4912 28.4326 36.3469L27.4104 35.3105C27.0665 35.6592 26.8732 36.0527 26.8133 36.4605C26.7549 36.858 26.8305 37.2161 26.9362 37.4965C27.0415 37.7758 27.1854 38.002 27.2973 38.1542C27.3544 38.2319 27.4061 38.2943 27.4453 38.3391C27.465 38.3617 27.4818 38.3801 27.4948 38.3939C27.5013 38.4008 27.5069 38.4066 27.5114 38.4114C27.5137 38.4137 27.5157 38.4158 27.5175 38.4176C27.5184 38.4185 27.5192 38.4193 27.5199 38.42L27.5201 38.4202L27.5206 38.4207L27.521 38.4211L27.5215 38.4216L27.5217 38.4219C27.5225 38.4226 27.5233 38.4235 27.5242 38.4244C27.5261 38.4262 27.5281 38.4283 27.5305 38.4306C27.5352 38.4353 27.541 38.4409 27.5479 38.4474C27.5614 38.4603 27.5793 38.4768 27.601 38.4961C27.6445 38.5343 27.7047 38.5844 27.7795 38.6391C27.9264 38.7466 28.1448 38.8832 28.4166 38.9788C28.6909 39.0752 29.0366 39.1354 29.4185 39.0636C29.8072 38.9905 30.1809 38.7904 30.5167 38.4499C30.799 38.1637 30.799 37.6997 30.5167 37.4135Z" fill="white"/>
<path d="M35.2889 24.1416L21.0088 38.62L22.031 39.6564L23.6135 38.0519L36.3111 25.178L35.2889 24.1416Z" fill="white"/>
<path d="M22.0379 39.6512C21.7279 39.9656 21.2477 39.9884 20.9654 39.7022C20.6831 39.416 20.7056 38.9292 21.0157 38.6148C21.3258 38.3005 21.8059 38.2777 22.0882 38.5638C22.3704 38.8501 22.3479 39.3369 22.0379 39.6512Z" fill="white"/>
</svg>
