<svg width="58" height="59" viewBox="0 0 58 59" fill="none" xmlns="http://www.w3.org/2000/svg">
<g filter="url(#filter0_d_129_1337)">
<path d="M33.8495 0.921216C25.9421 -0.679096 14.1025 2.02868 7.69855 13.2846L7.69854 13.2846C1.98931 23.3188 3.74252 37.2607 14.4108 45.4337C23.5432 52.4244 35.8379 51.8005 43.8858 45.8897C42.2 42.9659 40.5124 40.038 38.8084 37.081C37.8371 37.8194 36.9876 38.3705 35.9897 38.8712M33.8495 0.921216L35.7655 38.4243M33.8495 0.921216C33.3959 1.86828 32.4481 3.83808 31.5128 5.78046C30.8949 7.06372 30.2838 8.33217 29.8272 9.27981L29.2766 10.4224L29.1961 10.5893C29.0947 10.5946 28.989 10.5992 28.9108 10.6007L28.9108 10.6006L28.8993 10.6011C26.432 10.7057 24.5844 11.2836 22.6234 12.2975L22.6217 12.2984C20.4597 13.4265 18.6069 15.0671 17.2253 17.0766C15.8439 19.0859 14.9755 21.4028 14.6962 23.8251C14.4047 26.2839 14.7447 28.7765 15.6842 31.0674L15.6842 31.0674C16.4753 32.9961 17.5978 34.7169 19.1067 36.1716M33.8495 0.921216L19.1067 36.1716M35.9897 38.8712L35.7655 38.4243M35.9897 38.8712C35.9898 38.8711 35.9899 38.8711 35.99 38.871L35.7655 38.4243M35.9897 38.8712C33.2667 40.2395 30.3595 40.6674 27.3486 40.2352M35.7655 38.4243C33.1384 39.7445 30.3348 40.1587 27.4197 39.7403M27.3486 40.2352C27.3486 40.2352 27.3487 40.2352 27.3487 40.2352L27.4197 39.7403M27.3486 40.2352C24.1629 39.7783 21.4115 38.3957 19.1067 36.1716M27.3486 40.2352L27.4197 39.7403M27.4197 39.7403L19.1067 36.1716M38.5691 36.6347C38.5649 36.6379 38.5608 36.6411 38.5566 36.6442L38.8589 37.0425M38.5691 36.6347L38.841 37.0543C38.8469 37.0505 38.8529 37.0466 38.8589 37.0425M38.5691 36.6347L38.8727 37.032C38.8681 37.0355 38.8635 37.039 38.8589 37.0425M38.5691 36.6347C38.649 36.5829 38.7232 36.5222 38.8058 36.4547C38.8522 36.4168 38.9013 36.3767 38.9554 36.3348C39.0396 36.4809 39.1237 36.6269 39.2078 36.7728C39.1912 36.7862 39.1736 36.8006 39.1552 36.8155C39.0651 36.8888 38.9566 36.9772 38.8589 37.0425" fill="#FF492C"/>
<path d="M33.8495 0.921216C25.9421 -0.679096 14.1025 2.02868 7.69855 13.2846L7.69854 13.2846C1.98931 23.3188 3.74252 37.2607 14.4108 45.4337C23.5432 52.4244 35.8379 51.8005 43.8858 45.8897C42.2 42.9659 40.5124 40.038 38.8084 37.081C37.8371 37.8194 36.9876 38.3705 35.9897 38.8712M33.8495 0.921216L35.7655 38.4243M33.8495 0.921216C33.3959 1.86828 32.4481 3.83808 31.5128 5.78046C30.8949 7.06372 30.2838 8.33217 29.8272 9.27981L29.2766 10.4224L29.1961 10.5893C29.0947 10.5946 28.989 10.5992 28.9108 10.6007L28.9108 10.6006L28.8993 10.6011C26.432 10.7057 24.5844 11.2836 22.6234 12.2975L22.6217 12.2984C20.4597 13.4265 18.6069 15.0671 17.2253 17.0766C15.8439 19.0859 14.9755 21.4028 14.6962 23.8251C14.4047 26.2839 14.7447 28.7765 15.6842 31.0674L15.6842 31.0674C16.4753 32.9961 17.5978 34.7169 19.1067 36.1716M33.8495 0.921216L19.1067 36.1716M35.9897 38.8712L35.7655 38.4243M35.9897 38.8712C35.9898 38.8711 35.9899 38.8711 35.99 38.871L35.7655 38.4243M35.9897 38.8712C33.2667 40.2395 30.3595 40.6674 27.3486 40.2352M35.7655 38.4243C33.1384 39.7445 30.3348 40.1587 27.4197 39.7403M27.3486 40.2352C27.3486 40.2352 27.3487 40.2352 27.3487 40.2352L27.4197 39.7403M27.3486 40.2352C24.1629 39.7783 21.4115 38.3957 19.1067 36.1716M27.3486 40.2352L27.4197 39.7403M27.4197 39.7403L19.1067 36.1716M38.5691 36.6347C38.5649 36.6379 38.5608 36.6411 38.5566 36.6442L38.8589 37.0425M38.5691 36.6347L38.841 37.0543C38.8469 37.0505 38.8529 37.0466 38.8589 37.0425M38.5691 36.6347L38.8727 37.032C38.8681 37.0355 38.8635 37.039 38.8589 37.0425M38.5691 36.6347C38.649 36.5829 38.7232 36.5222 38.8058 36.4547C38.8522 36.4168 38.9013 36.3767 38.9554 36.3348C39.0396 36.4809 39.1237 36.6269 39.2078 36.7728C39.1912 36.7862 39.1736 36.8006 39.1552 36.8155C39.0651 36.8888 38.9566 36.9772 38.8589 37.0425" stroke="black"/>
<path d="M33.8495 0.921216C25.9421 -0.679096 14.1025 2.02868 7.69855 13.2846L7.69854 13.2846C1.98931 23.3188 3.74252 37.2607 14.4108 45.4337C23.5432 52.4244 35.8379 51.8005 43.8858 45.8897C42.2 42.9659 40.5124 40.038 38.8084 37.081C37.8371 37.8194 36.9876 38.3705 35.9897 38.8712M33.8495 0.921216L35.7655 38.4243M33.8495 0.921216C33.3959 1.86828 32.4481 3.83808 31.5128 5.78046C30.8949 7.06372 30.2838 8.33217 29.8272 9.27981L29.2766 10.4224L29.1961 10.5893C29.0947 10.5946 28.989 10.5992 28.9108 10.6007L28.9108 10.6006L28.8993 10.6011C26.432 10.7057 24.5844 11.2836 22.6234 12.2975L22.6217 12.2984C20.4597 13.4265 18.6069 15.0671 17.2253 17.0766C15.8439 19.0859 14.9755 21.4028 14.6962 23.8251C14.4047 26.2839 14.7447 28.7765 15.6842 31.0674L15.6842 31.0674C16.4753 32.9961 17.5978 34.7169 19.1067 36.1716M33.8495 0.921216L19.1067 36.1716M35.9897 38.8712L35.7655 38.4243M35.9897 38.8712C35.9898 38.8711 35.9899 38.8711 35.99 38.871L35.7655 38.4243M35.9897 38.8712C33.2667 40.2395 30.3595 40.6674 27.3486 40.2352M35.7655 38.4243C33.1384 39.7445 30.3348 40.1587 27.4197 39.7403M27.3486 40.2352C27.3486 40.2352 27.3487 40.2352 27.3487 40.2352L27.4197 39.7403M27.3486 40.2352C24.1629 39.7783 21.4115 38.3957 19.1067 36.1716M27.3486 40.2352L27.4197 39.7403M27.4197 39.7403L19.1067 36.1716M38.5691 36.6347C38.5649 36.6379 38.5608 36.6411 38.5566 36.6442L38.8589 37.0425M38.5691 36.6347L38.841 37.0543C38.8469 37.0505 38.8529 37.0466 38.8589 37.0425M38.5691 36.6347L38.8727 37.032C38.8681 37.0355 38.8635 37.039 38.8589 37.0425M38.5691 36.6347C38.649 36.5829 38.7232 36.5222 38.8058 36.4547C38.8522 36.4168 38.9013 36.3767 38.9554 36.3348C39.0396 36.4809 39.1237 36.6269 39.2078 36.7728C39.1912 36.7862 39.1736 36.8006 39.1552 36.8155C39.0651 36.8888 38.9566 36.9772 38.8589 37.0425" stroke="black" stroke-opacity="0.2"/>
<path d="M45.269 6.74722C45.2731 7.75927 44.6894 8.44007 43.9697 8.86675C43.4665 9.1653 42.9522 9.44181 42.4487 9.71252L42.4187 9.72866C41.9024 10.0063 41.3975 10.2783 40.9073 10.5711L40.9072 10.5712C39.6651 11.313 38.6587 12.2591 38.014 13.5341C37.33 14.8909 37.1307 16.3068 37.1572 17.8518H47.8376V15.4832L40.7735 15.4924L40.2502 15.493L40.2734 14.9702L40.7729 14.9924C40.2734 14.9702 40.2734 14.97 40.2734 14.9698L40.2734 14.9693L40.2735 14.9684L40.2736 14.9664L40.2738 14.9618L40.2746 14.9501C40.2752 14.9412 40.2761 14.9301 40.2775 14.917C40.2801 14.8908 40.2844 14.8565 40.2913 14.8151C40.3051 14.7324 40.3294 14.6207 40.3723 14.4892C40.4584 14.2255 40.6193 13.8816 40.9185 13.5328L40.9292 13.5204L40.9406 13.5087C41.5636 12.872 42.1158 12.5608 42.7057 12.2351L42.7059 12.235C43.0711 12.0336 43.4254 11.848 43.7711 11.667C44.4636 11.3043 45.121 10.9599 45.7598 10.5438L45.7601 10.5436C47.2785 9.55599 48.0194 8.1763 47.8932 6.34518C47.8183 5.27208 47.4007 4.39515 46.5824 3.6958L46.5823 3.69575C45.4399 2.71906 44.0767 2.34323 42.5568 2.3134L42.5541 2.31335C41.4032 2.2846 40.2696 2.59772 39.2966 3.21313L39.2952 3.21404L39.2952 3.21404C38.4087 3.77053 37.6895 4.4478 37.2268 5.34951C37.3816 5.49766 37.5386 5.65753 37.6885 5.8102C37.7855 5.90896 37.8795 6.00471 37.9681 6.09231L37.9683 6.09251C38.2635 6.38489 38.5593 6.67569 38.8667 6.9778C38.8988 6.92283 38.9304 6.86869 38.9619 6.81412L38.962 6.81394C39.9422 5.11895 41.8438 4.30786 43.7136 4.81219C44.6042 5.05051 45.2685 5.82616 45.269 6.74722ZM45.269 6.74722C45.269 6.74759 45.269 6.74796 45.269 6.74833H44.769L45.269 6.7461C45.269 6.74647 45.269 6.74684 45.269 6.74722Z" fill="#FF492C"/>
<path d="M45.269 6.74722C45.2731 7.75927 44.6894 8.44007 43.9697 8.86675C43.4665 9.1653 42.9522 9.44181 42.4487 9.71252L42.4187 9.72866C41.9024 10.0063 41.3975 10.2783 40.9073 10.5711L40.9072 10.5712C39.6651 11.313 38.6587 12.2591 38.014 13.5341C37.33 14.8909 37.1307 16.3068 37.1572 17.8518H47.8376V15.4832L40.7735 15.4924L40.2502 15.493L40.2734 14.9702L40.7729 14.9924C40.2734 14.9702 40.2734 14.97 40.2734 14.9698L40.2734 14.9693L40.2735 14.9684L40.2736 14.9664L40.2738 14.9618L40.2746 14.9501C40.2752 14.9412 40.2761 14.9301 40.2775 14.917C40.2801 14.8908 40.2844 14.8565 40.2913 14.8151C40.3051 14.7324 40.3294 14.6207 40.3723 14.4892C40.4584 14.2255 40.6193 13.8816 40.9185 13.5328L40.9292 13.5204L40.9406 13.5087C41.5636 12.872 42.1158 12.5608 42.7057 12.2351L42.7059 12.235C43.0711 12.0336 43.4254 11.848 43.7711 11.667C44.4636 11.3043 45.121 10.9599 45.7598 10.5438L45.7601 10.5436C47.2785 9.55599 48.0194 8.1763 47.8932 6.34518C47.8183 5.27208 47.4007 4.39515 46.5824 3.6958L46.5823 3.69575C45.4399 2.71906 44.0767 2.34323 42.5568 2.3134L42.5541 2.31335C41.4032 2.2846 40.2696 2.59772 39.2966 3.21313L39.2952 3.21404L39.2952 3.21404C38.4087 3.77053 37.6895 4.4478 37.2268 5.34951C37.3816 5.49766 37.5386 5.65753 37.6885 5.8102C37.7855 5.90896 37.8795 6.00471 37.9681 6.09231L37.9683 6.09251C38.2635 6.38489 38.5593 6.67569 38.8667 6.9778C38.8988 6.92283 38.9304 6.86869 38.9619 6.81412L38.962 6.81394C39.9422 5.11895 41.8438 4.30786 43.7136 4.81219C44.6042 5.05051 45.2685 5.82616 45.269 6.74722ZM45.269 6.74722C45.269 6.74759 45.269 6.74796 45.269 6.74833H44.769L45.269 6.7461C45.269 6.74647 45.269 6.74684 45.269 6.74722Z" stroke="black"/>
<path d="M45.269 6.74722C45.2731 7.75927 44.6894 8.44007 43.9697 8.86675C43.4665 9.1653 42.9522 9.44181 42.4487 9.71252L42.4187 9.72866C41.9024 10.0063 41.3975 10.2783 40.9073 10.5711L40.9072 10.5712C39.6651 11.313 38.6587 12.2591 38.014 13.5341C37.33 14.8909 37.1307 16.3068 37.1572 17.8518H47.8376V15.4832L40.7735 15.4924L40.2502 15.493L40.2734 14.9702L40.7729 14.9924C40.2734 14.9702 40.2734 14.97 40.2734 14.9698L40.2734 14.9693L40.2735 14.9684L40.2736 14.9664L40.2738 14.9618L40.2746 14.9501C40.2752 14.9412 40.2761 14.9301 40.2775 14.917C40.2801 14.8908 40.2844 14.8565 40.2913 14.8151C40.3051 14.7324 40.3294 14.6207 40.3723 14.4892C40.4584 14.2255 40.6193 13.8816 40.9185 13.5328L40.9292 13.5204L40.9406 13.5087C41.5636 12.872 42.1158 12.5608 42.7057 12.2351L42.7059 12.235C43.0711 12.0336 43.4254 11.848 43.7711 11.667C44.4636 11.3043 45.121 10.9599 45.7598 10.5438L45.7601 10.5436C47.2785 9.55599 48.0194 8.1763 47.8932 6.34518C47.8183 5.27208 47.4007 4.39515 46.5824 3.6958L46.5823 3.69575C45.4399 2.71906 44.0767 2.34323 42.5568 2.3134L42.5541 2.31335C41.4032 2.2846 40.2696 2.59772 39.2966 3.21313L39.2952 3.21404L39.2952 3.21404C38.4087 3.77053 37.6895 4.4478 37.2268 5.34951C37.3816 5.49766 37.5386 5.65753 37.6885 5.8102C37.7855 5.90896 37.8795 6.00471 37.9681 6.09231L37.9683 6.09251C38.2635 6.38489 38.5593 6.67569 38.8667 6.9778C38.8988 6.92283 38.9304 6.86869 38.9619 6.81412L38.962 6.81394C39.9422 5.11895 41.8438 4.30786 43.7136 4.81219C44.6042 5.05051 45.2685 5.82616 45.269 6.74722ZM45.269 6.74722C45.269 6.74759 45.269 6.74796 45.269 6.74833H44.769L45.269 6.7461C45.269 6.74647 45.269 6.74684 45.269 6.74722Z" stroke="black" stroke-opacity="0.2"/>
<path d="M41.3413 32.6187L41.1973 32.367H40.9073H29.0649L34.9041 22.2441H46.9425L53.0277 32.753L47.1815 42.8228L41.3413 32.6187Z" fill="#FF492C"/>
<path d="M41.3413 32.6187L41.1973 32.367H40.9073H29.0649L34.9041 22.2441H46.9425L53.0277 32.753L47.1815 42.8228L41.3413 32.6187Z" stroke="black"/>
<path d="M41.3413 32.6187L41.1973 32.367H40.9073H29.0649L34.9041 22.2441H46.9425L53.0277 32.753L47.1815 42.8228L41.3413 32.6187Z" stroke="black" stroke-opacity="0.2"/>
</g>
<defs>
<filter id="filter0_d_129_1337" x="0" y="0" width="57.6055" height="59" filterUnits="userSpaceOnUse" color-interpolation-filters="sRGB">
<feFlood flood-opacity="0" result="BackgroundImageFix"/>
<feColorMatrix in="SourceAlpha" type="matrix" values="0 0 0 0 0 0 0 0 0 0 0 0 0 0 0 0 0 0 127 0" result="hardAlpha"/>
<feOffset dy="4"/>
<feGaussianBlur stdDeviation="2"/>
<feComposite in2="hardAlpha" operator="out"/>
<feColorMatrix type="matrix" values="0 0 0 0 0 0 0 0 0 0 0 0 0 0 0 0 0 0 0.25 0"/>
<feBlend mode="normal" in2="BackgroundImageFix" result="effect1_dropShadow_129_1337"/>
<feBlend mode="normal" in="SourceGraphic" in2="effect1_dropShadow_129_1337" result="shape"/>
</filter>
</defs>
</svg>
