<svg width="190" height="40" viewBox="0 0 190 40" fill="none" xmlns="http://www.w3.org/2000/svg">
<path d="M0 18.8695C0.0569998 18.6423 0.114 18.434 0.132999 18.2257C0.455998 14.5525 1.78599 11.0308 3.97098 8.07706C5.56812 5.85666 7.61894 3.99843 9.98852 2.62465C12.3581 1.25086 14.9927 0.39264 17.7191 0.106464C20.4454 -0.179713 23.2016 0.112637 25.8064 0.964277C28.4112 1.81592 30.8056 3.20754 32.8319 5.0476C34.8669 6.90018 36.503 9.14545 37.641 11.6472C38.779 14.1489 39.3951 16.855 39.452 19.6012C39.5088 22.3473 39.0052 25.0764 37.9718 27.6228C36.9383 30.1692 35.3965 32.4798 33.4399 34.4144C30.8157 36.9708 27.5242 38.7421 23.9399 39.5266C23.0659 39.716 22.1539 39.7917 21.2419 39.9243L20.8619 40H18.7339L18.3539 39.9243C15.6586 39.7107 13.0363 38.9465 10.6501 37.6794C8.26395 36.4123 6.16503 34.6693 4.48398 32.5589C2.00728 29.4637 0.500561 25.7099 0.151999 21.7664C0.121415 21.5493 0.0769923 21.3342 0.0189999 21.1227V18.8506L0 18.8695ZM20.8429 18.6234L20.8809 18.9452L21.3939 24.1332C21.5269 25.4965 21.6789 26.8597 21.7739 28.223C21.8031 28.8467 21.9636 29.4573 22.2451 30.0151C22.5267 30.573 22.9228 31.0655 23.4079 31.4607C24.3348 32.214 25.4811 32.6486 26.6761 32.6998C27.871 32.751 29.0506 32.416 30.0389 31.7447C30.7259 31.3048 31.2742 30.6803 31.6204 29.9433C31.9667 29.2063 32.0968 28.3868 31.9959 27.5792L31.8059 25.9887C31.3274 21.0794 30.8587 16.1692 30.3999 11.258C30.3162 10.3422 29.9361 9.47834 29.3169 8.79656C29.0413 8.48496 28.7496 8.18792 28.4429 7.90665C27.8725 7.33814 27.1493 6.94625 26.3604 6.77827C25.5715 6.61029 24.7506 6.67338 23.9969 6.95995L23.1989 7.20609L14.0029 9.97047L8.20797 11.6745C7.48597 11.9018 6.82097 12.2804 6.28898 12.8106C5.29594 13.832 4.72659 15.1895 4.69489 16.6113C4.66318 18.0332 5.17145 19.4145 6.11798 20.4789C7.25797 21.6528 8.58797 22.1451 10.203 21.8232C10.621 21.7286 11.039 21.5771 11.457 21.4446L20.3109 18.7938L20.8429 18.6044V18.6234Z" fill="black"/>
<path d="M175.749 33.7903V35.3429C175.752 35.381 175.747 35.4193 175.734 35.4553C175.721 35.4912 175.7 35.5239 175.673 35.5511C175.647 35.5792 175.614 35.6006 175.578 35.6138C175.541 35.6269 175.503 35.6314 175.464 35.6269H164.311C164.083 35.6269 164.007 35.5511 163.988 35.3239V33.8092L164.368 33.6767C165.622 33.2601 166.116 32.6542 166.211 31.3099C166.268 30.4011 166.306 29.4922 166.306 28.5834V18.7187C166.306 17.7531 166.249 16.7874 166.211 15.8218C166.211 15.6324 166.173 15.4431 166.116 15.2538C166.053 14.9324 165.905 14.6334 165.688 14.3873C165.471 14.1413 165.193 13.9568 164.881 13.8526L163.741 13.5118V11.6184H164.026L172.823 11.3912H173.089C173.431 11.4101 173.488 11.5048 173.469 11.8456L173.184 14.5153V14.894L173.564 14.5532C174.553 13.6685 175.636 12.8939 176.794 12.2432C178.694 11.2018 180.898 10.9178 182.988 11.4859C185.04 11.9592 186.351 13.2846 187.016 15.2916C187.32 16.2383 187.51 17.2229 187.548 18.2075C187.605 18.8891 187.624 19.5897 187.624 20.2902V28.5076C187.624 29.4543 187.681 30.4011 187.7 31.3478L187.738 31.6318C187.776 32.1051 187.966 32.5406 188.27 32.9004C188.574 33.279 188.992 33.5063 189.448 33.6199L189.923 33.7713L189.999 33.8471V35.3618C190.002 35.3999 189.997 35.4383 189.984 35.4742C189.971 35.5102 189.95 35.5429 189.923 35.5701C189.895 35.601 189.859 35.6242 189.819 35.6374C189.779 35.6507 189.736 35.6536 189.695 35.6458H178.58C178.295 35.6458 178.219 35.5701 178.219 35.305V33.7903L178.789 33.6009C179.158 33.5149 179.492 33.3211 179.749 33.0445C180.006 32.7679 180.175 32.421 180.233 32.0483C180.347 31.4046 180.423 30.7608 180.423 30.117C180.463 26.5006 180.444 22.8837 180.366 19.2678C180.339 18.6208 180.237 17.979 180.062 17.3554C179.587 15.6514 178.428 14.9697 176.699 15.462C175.824 15.6809 175.042 16.1712 174.465 16.862C173.888 17.5529 173.546 18.4086 173.488 19.3057L173.507 30.0792C173.507 30.6472 173.564 31.1963 173.64 31.7454C173.678 32.2187 173.849 32.6542 174.153 32.995C174.457 33.3358 174.875 33.5631 175.312 33.6577C175.459 33.6973 175.605 33.7415 175.749 33.7903Z" fill="black"/>
<path d="M114.132 33.203V34.7745C114.138 34.8157 114.134 34.8577 114.121 34.8971C114.108 34.9366 114.086 34.9724 114.056 35.0017C114.028 35.0326 113.992 35.0558 113.952 35.0691C113.912 35.0823 113.869 35.0852 113.828 35.0774H105.373C105.088 35.0585 105.012 34.9828 105.031 34.6988L105.183 32.4456L105.221 31.9154C105.031 31.8586 104.974 31.9912 104.879 32.0669C104.214 32.616 103.568 33.203 102.884 33.6953C101.119 34.9866 98.9503 35.6107 96.766 35.4561C95.6496 35.41 94.5583 35.1122 93.574 34.5852C92.8633 34.2117 92.2475 33.6817 91.7734 33.0353C91.2993 32.3889 90.9794 31.6433 90.838 30.8551C90.5463 29.681 90.6029 28.4477 91.0009 27.305C91.3989 26.1622 92.1211 25.1592 93.08 24.4175C94.2405 23.5307 95.5542 22.8633 96.956 22.4484C98.666 21.9182 100.452 21.5395 102.238 21.3502L104.366 21.1041C104.404 21.0851 104.423 21.0662 104.423 21.0283C104.423 19.684 104.499 18.3207 104.29 16.9575C104.196 16.2357 103.957 15.5402 103.587 14.9126C103.362 14.5324 103.047 14.2129 102.669 13.9819C102.292 13.7509 101.863 13.6154 101.421 13.5872C100.832 13.5115 100.224 13.5872 99.654 13.7387C99.141 13.8902 98.666 14.1931 98.324 14.6097C97.83 15.1777 97.469 15.8593 97.279 16.5977C97.108 17.1658 96.994 17.7338 96.842 18.3207L96.519 18.3397H92.358C92.3229 18.3402 92.288 18.3337 92.2554 18.3207C92.2228 18.3077 92.1931 18.2884 92.168 18.2639C92.1395 18.2339 92.118 18.198 92.1048 18.1587C92.0917 18.1195 92.0873 18.0778 92.092 18.0367V13.7008L94.486 12.6973C96.386 11.8642 98.419 11.2772 100.471 10.8986C102.611 10.5001 104.81 10.5453 106.931 11.0311C108.47 11.4098 109.724 12.224 110.541 13.6629C110.921 14.3446 111.187 15.083 111.339 15.8593C111.51 16.7492 111.586 17.658 111.586 18.5858V28.0908C111.586 29.0753 111.662 30.0788 111.719 31.0634C111.719 31.2528 111.757 31.4421 111.814 31.5936C111.871 31.8903 112.007 32.1664 112.207 32.3929C112.408 32.6194 112.666 32.788 112.954 32.8811L114.132 33.203ZM104.442 23.7548L102.048 24.0767C101.231 24.2093 100.433 24.4933 99.692 24.9098C99.2088 25.1809 98.7881 25.5502 98.4575 25.9938C98.1269 26.4375 97.8937 26.9455 97.773 27.4849C97.621 28.1097 97.583 28.7724 97.659 29.4161C97.6932 29.9068 97.8798 30.3747 98.1931 30.7547C98.5064 31.1347 98.9307 31.4081 99.407 31.5368C99.996 31.7261 100.642 31.7261 101.231 31.5936C102.143 31.4042 102.941 30.893 103.53 30.1735C104.1 29.4351 104.442 28.5452 104.461 27.6174V24.1146L104.423 23.7548H104.442Z" fill="black"/>
<path d="M136.266 33.7901L136.817 33.6007C137.387 33.4114 137.957 33.0895 138.394 32.673C139.04 32.1049 139.648 31.499 140.218 30.8742L145.538 24.8153L145.652 24.626L145.424 24.2851L139.933 16.4275C139.515 15.8405 139.059 15.2914 138.603 14.7234L138.375 14.4773C137.919 14.0039 137.425 13.5684 136.665 13.4927V11.959C136.665 11.6561 136.741 11.6182 136.988 11.5803H148.141C148.176 11.5798 148.211 11.5863 148.244 11.5993C148.277 11.6123 148.306 11.6316 148.331 11.6561C148.363 11.6844 148.388 11.7196 148.405 11.7589C148.421 11.7982 148.429 11.8407 148.426 11.8833V13.4738L148.103 13.5495L147.4 13.8524C147.233 13.9416 147.099 14.0814 147.017 14.2516C146.935 14.4218 146.91 14.6135 146.944 14.7991C146.982 15.0642 147.058 15.3104 147.172 15.5186C147.286 15.7837 147.438 16.0299 147.609 16.2571L149.965 19.6652L150.098 19.8356L150.288 19.6463L152.473 16.863C152.701 16.579 152.891 16.2949 153.062 15.992C153.252 15.6701 153.328 15.3293 153.347 14.9696C153.37 14.7006 153.304 14.4317 153.16 14.203C153.016 13.9743 152.802 13.7982 152.549 13.701L151.922 13.5116L151.542 13.4548V11.8454C151.544 11.8091 151.554 11.7735 151.57 11.7409C151.586 11.7083 151.609 11.6794 151.637 11.6561C151.662 11.6307 151.691 11.6107 151.724 11.5977C151.757 11.5846 151.792 11.5787 151.827 11.5803H160.529C160.795 11.5803 160.871 11.675 160.89 11.9212V13.4359C160.816 13.4666 160.74 13.4919 160.662 13.5116C159.883 13.7199 159.18 14.1365 158.61 14.7045C158.059 15.2536 157.546 15.8216 157.033 16.3896C155.304 18.3784 153.581 20.3728 151.865 22.3728L152.093 22.7325L157.375 30.3062L158.553 31.9156C159.218 32.7487 159.997 33.4303 161.061 33.7333L161.137 33.7901V35.3427C161.137 35.532 161.023 35.6267 160.833 35.6267H149.661C149.395 35.6077 149.319 35.5509 149.3 35.2669V33.7522L149.718 33.6575C149.908 33.6197 150.098 33.5629 150.269 33.4682C150.421 33.3981 150.548 33.2855 150.636 33.1442C150.723 33.0029 150.768 32.8391 150.763 32.673C150.773 32.3199 150.681 31.9715 150.497 31.6695C149.55 30.2668 148.6 28.8657 147.647 27.4661L147.419 27.1631L147.21 27.3903L144.835 30.3441L144.227 31.1961C144.018 31.5369 143.904 31.9535 143.923 32.3321C143.907 32.5734 143.968 32.8137 144.098 33.0181C144.227 33.2224 144.419 33.3801 144.645 33.4682C144.987 33.6007 145.31 33.6954 145.652 33.7711V35.3616C145.656 35.4134 145.644 35.465 145.616 35.5093C145.589 35.5535 145.548 35.5879 145.5 35.6077H136.57C136.531 35.6179 136.489 35.618 136.449 35.6081C136.409 35.5982 136.373 35.5785 136.342 35.5509C136.314 35.5246 136.293 35.492 136.28 35.4558C136.266 35.4196 136.262 35.3809 136.266 35.3427V33.7901Z" fill="black"/>
<path d="M65.6258 14.0395L65.1698 12.4491C64.9988 11.9378 64.8468 11.5024 64.6568 11.0479C64.5238 10.7639 64.3528 10.4799 64.1628 10.2148C63.9307 9.88909 63.6267 9.62072 63.2743 9.43034C62.9219 9.23996 62.5303 9.13265 62.1298 9.11666C61.3698 9.05985 60.6098 9.05986 59.8498 9.04092C59.8041 9.04846 59.7595 9.06117 59.7168 9.07879L59.6788 9.4196V30.569C59.6788 31.137 59.7358 31.7051 59.8308 32.2731C59.8707 32.56 59.9895 32.8303 60.1739 33.0541C60.3583 33.278 60.6012 33.4467 60.8758 33.5417C61.2178 33.6742 61.5978 33.731 61.9398 33.8446L62.2058 33.9014V35.3026C62.212 35.3706 62.1916 35.4385 62.1488 35.4919C62.1244 35.5173 62.0948 35.5372 62.062 35.5503C62.0292 35.5634 61.994 35.5693 61.9588 35.5676H50.6728C50.3878 35.5676 50.3118 35.5108 50.3118 35.2268V33.9204L50.5778 33.8446L51.3948 33.6364C52.2688 33.4091 52.6868 32.7843 52.7628 31.9133C52.8198 31.4021 52.8388 30.8909 52.8388 30.3797V9.13559C52.8008 9.09772 52.7628 9.05986 52.7248 9.05986C51.8318 9.02199 50.9578 9.05985 50.0648 9.15453C49.3618 9.28706 48.7348 9.66575 48.2978 10.2527C47.9558 10.745 47.6898 11.2941 47.5188 11.8621L46.9488 13.7366C46.9488 13.8313 46.9108 13.9259 46.8728 14.0206H44.1938C43.8138 14.0206 43.7568 13.9827 43.7568 13.604V6.67415C43.7568 6.33334 43.8138 6.29547 44.1748 6.29547H68.1527C68.7227 6.29547 68.7417 6.21974 68.7417 6.90136V13.6798C68.7417 13.9827 68.6847 14.0206 68.3997 14.0395H65.6258Z" fill="black"/>
<path d="M134.366 31.0256C132.295 33.0705 130.091 34.7367 127.203 35.2479C124.931 35.6481 122.594 35.4524 120.42 34.6799C119.21 34.2114 118.118 33.4835 117.222 32.5477C116.326 31.6119 115.647 30.4911 115.234 29.2647C114.767 27.9847 114.479 26.6467 114.379 25.2885C114.284 24.1146 114.284 22.9028 114.36 21.6911C114.514 19.4189 115.261 17.2262 116.526 15.3292C117.897 13.3574 119.911 11.9191 122.225 11.2584C123.766 10.8042 125.371 10.6059 126.975 10.6714C129.141 10.6903 131.307 11.0122 133.416 11.5802L133.91 11.7317L133.929 12.0915V17.5256C133.929 17.6013 133.91 17.6581 133.853 17.7149C133.806 17.7546 133.745 17.7749 133.682 17.7717H129.236L128.951 17.7528L128.742 16.7114C128.601 15.9963 128.351 15.3068 128.001 14.6665C127.861 14.3891 127.66 14.1466 127.414 13.9566C127.167 13.7666 126.881 13.6339 126.576 13.5683C126.059 13.4529 125.519 13.4781 125.015 13.6413C124.51 13.8045 124.059 14.0997 123.707 14.4961C123.251 14.9884 122.909 15.5564 122.7 16.2002C122.296 17.3106 122.041 18.4692 121.94 19.6462C121.75 21.3124 121.731 22.9975 121.845 24.6637C121.902 25.7998 122.111 26.9358 122.472 28.034C122.612 28.4261 122.783 28.806 122.985 29.17C123.33 29.846 123.859 30.412 124.51 30.8036C125.162 31.1953 125.911 31.3968 126.671 31.3853C127.83 31.4421 128.989 31.1203 129.939 30.4765C130.585 30.041 131.174 29.5298 131.801 29.0564L132.086 28.8103C132.276 28.6399 132.39 28.621 132.542 28.8103L134.366 31.0445V31.0256Z" fill="black"/>
<path d="M89.9824 11.5792V17.941C89.9824 18.3576 89.9064 18.4712 89.4314 18.4712H85.4415L85.2895 18.0736C85.0995 17.5623 84.8715 17.089 84.6055 16.6156C84.4749 16.3802 84.2986 16.1731 84.0869 16.0063C83.8752 15.8394 83.6322 15.7163 83.3723 15.6441C83.1123 15.5718 82.8405 15.5518 82.5727 15.5854C82.3049 15.6189 82.0464 15.7052 81.8125 15.8393C81.1557 16.1344 80.5944 16.6061 80.1916 17.2014C79.7889 17.7968 79.5606 18.4922 79.5325 19.2096C79.4945 19.7776 79.4755 20.3646 79.4755 20.9705V28.8092C79.4755 29.6802 79.5515 30.5512 79.6085 31.4221L79.7035 31.8955C79.7728 32.294 79.957 32.6637 80.2337 32.9596C80.5104 33.2555 80.8675 33.4647 81.2615 33.5617L82.0215 33.751V35.3415C82.0195 35.3779 82.0101 35.4134 81.9938 35.446C81.9774 35.4786 81.9545 35.5075 81.9265 35.5308C81.9021 35.5562 81.8725 35.5762 81.8397 35.5892C81.8069 35.6023 81.7717 35.6082 81.7365 35.6066H70.4505C70.0705 35.6066 70.0135 35.5687 70.0135 35.1521V33.751L70.5265 33.5806C71.5525 33.2966 72.0845 32.5582 72.1795 31.5168C72.269 30.6358 72.3197 29.7514 72.3315 28.866V18.3197C72.3315 17.4109 72.2365 16.521 72.1985 15.6121C72.1985 15.4796 72.1605 15.366 72.1225 15.2334C72.056 14.9155 71.907 14.6205 71.6903 14.378C71.4736 14.1354 71.1967 13.9538 70.8875 13.8513C70.5075 13.7187 70.1275 13.624 69.7285 13.5104V11.617L69.9755 11.5792L78.9055 11.3898H79.0955C79.4375 11.3898 79.5135 11.4845 79.4755 11.8253L79.2095 14.7601L79.1905 15.082L79.4945 14.779C80.1405 14.0217 80.9005 13.34 81.6985 12.772C83.3515 11.636 85.3085 11.0679 87.3035 11.2194C88.1204 11.2573 88.9374 11.4088 89.7544 11.5034L89.9824 11.5602V11.5792Z" fill="black"/>
</svg>
