<svg width="190" height="42" viewBox="0 0 190 42" fill="none" xmlns="http://www.w3.org/2000/svg">
<g clip-path="url(#clip0_129_1331)">
<path d="M48.4165 15.8691H67.0899V19.3454H59.7374V38.9417H55.7074V19.3454H48.3857L48.4165 15.8691ZM66.29 22.2372H69.7355V25.4673H69.797C69.9201 25.0059 70.1354 24.5752 70.4431 24.1445C70.7507 23.7138 71.1199 23.3139 71.5813 22.9755C72.012 22.6063 72.5042 22.3294 73.0579 22.1141C73.5809 21.8988 74.1347 21.7757 74.6884 21.7757C75.1191 21.7757 75.4267 21.8065 75.5805 21.8065C75.7344 21.8372 75.9189 21.868 76.0728 21.868V25.4058C75.8266 25.3443 75.5498 25.3135 75.2729 25.2827C74.996 25.252 74.7499 25.2212 74.4731 25.2212C73.8578 25.2212 73.2733 25.3442 72.7195 25.5904C72.1658 25.8365 71.7044 26.2056 71.2737 26.6671C70.8737 27.1593 70.5353 27.7438 70.2892 28.4514C70.0431 29.1589 69.9201 29.9895 69.9201 30.9124V38.8494H66.2285L66.29 22.2372ZM92.9926 38.9417H89.3625V36.6036H89.301C88.8395 37.465 88.1627 38.1111 87.2706 38.634C86.3785 39.157 85.4556 39.4031 84.5327 39.4031C82.3485 39.4031 80.7488 38.8801 79.7644 37.7726C78.7799 36.6959 78.2877 35.0347 78.2877 32.8505V22.2372H81.9793V32.4814C81.9793 33.958 82.2562 35.0039 82.8407 35.5884C83.3944 36.2037 84.1943 36.5114 85.2095 36.5114C85.9785 36.5114 86.6246 36.3883 87.1476 36.1422C87.6705 35.8961 88.1012 35.5885 88.4089 35.1885C88.7472 34.7886 88.9626 34.2964 89.1164 33.7426C89.2702 33.1889 89.3318 32.5736 89.3318 31.9276V22.2372H93.0234V38.9417H92.9926ZM99.2683 33.5888C99.3914 34.6655 99.7913 35.4039 100.499 35.8653C101.206 36.296 102.068 36.5114 103.052 36.5114C103.391 36.5114 103.791 36.4806 104.221 36.4191C104.652 36.3575 105.083 36.2652 105.452 36.1114C105.852 35.9576 106.159 35.7423 106.405 35.4346C106.652 35.127 106.775 34.7578 106.744 34.2964C106.713 33.8349 106.559 33.435 106.221 33.1274C105.882 32.8197 105.483 32.6044 104.99 32.3891C104.498 32.2045 103.914 32.0507 103.268 31.9276C102.622 31.8046 101.975 31.6507 101.299 31.4969C100.622 31.3431 99.9451 31.1585 99.2991 30.9432C98.653 30.7278 98.0993 30.451 97.5763 30.051C97.0841 29.6819 96.6534 29.2204 96.3766 28.6359C96.0689 28.0514 95.9151 27.3746 95.9151 26.5133C95.9151 25.5904 96.1304 24.852 96.5919 24.2368C97.0226 23.6215 97.6071 23.1293 98.2839 22.7601C98.9607 22.391 99.7298 22.1141 100.56 21.9603C101.391 21.8065 102.191 21.7449 102.929 21.7449C103.791 21.7449 104.621 21.8372 105.39 22.0218C106.159 22.2064 106.898 22.4833 107.513 22.9139C108.159 23.3139 108.682 23.8676 109.082 24.5136C109.513 25.1597 109.759 25.9595 109.882 26.8824H106.036C105.852 25.9903 105.452 25.4058 104.836 25.0982C104.19 24.7905 103.483 24.6367 102.652 24.6367C102.406 24.6367 102.068 24.6675 101.729 24.6982C101.36 24.7597 101.053 24.8213 100.714 24.9443C100.407 25.0674 100.13 25.252 99.9143 25.4673C99.699 25.6826 99.5759 25.9903 99.5759 26.3594C99.5759 26.8209 99.7298 27.1593 100.037 27.4362C100.345 27.713 100.745 27.9284 101.268 28.1437C101.76 28.3283 102.345 28.4821 102.991 28.6052C103.637 28.7282 104.313 28.882 104.99 29.0359C105.667 29.1897 106.313 29.3742 106.959 29.5896C107.605 29.8049 108.19 30.0818 108.682 30.4817C109.174 30.8509 109.605 31.3123 109.912 31.8661C110.22 32.4198 110.374 33.1274 110.374 33.9272C110.374 34.9117 110.159 35.7423 109.697 36.4498C109.236 37.1266 108.651 37.7111 107.944 38.1418C107.236 38.5725 106.405 38.8801 105.544 39.0955C104.652 39.2801 103.791 39.4031 102.929 39.4031C101.883 39.4031 100.899 39.2801 100.007 39.0339C99.1145 38.7878 98.3146 38.4187 97.6686 37.9572C97.0226 37.465 96.4996 36.8805 96.1304 36.1422C95.7613 35.4346 95.5459 34.5733 95.5152 33.5581H99.2375V33.5888H99.2683ZM111.42 22.2372H114.219V17.192H117.911V22.2064H121.233V24.9443H117.911V33.8657C117.911 34.2656 117.942 34.5733 117.972 34.8809C118.003 35.1578 118.095 35.4039 118.188 35.5884C118.311 35.773 118.495 35.9269 118.711 36.0191C118.957 36.1114 119.264 36.173 119.695 36.173C119.941 36.173 120.218 36.173 120.464 36.1422C120.71 36.1114 120.987 36.0807 121.233 36.0191V38.8801C120.833 38.9417 120.433 38.9724 120.034 39.0032C119.634 39.0647 119.264 39.0647 118.834 39.0647C117.849 39.0647 117.08 38.9724 116.496 38.7878C115.911 38.6033 115.45 38.3264 115.111 37.988C114.773 37.6188 114.558 37.1881 114.435 36.6652C114.312 36.1422 114.25 35.4962 114.219 34.8194V24.9751H111.42V22.1756V22.2372ZM123.817 22.2372H127.294V24.5136H127.355C127.878 23.5292 128.586 22.8524 129.509 22.4217C130.432 21.991 131.416 21.7757 132.523 21.7757C133.846 21.7757 134.985 21.9911 135.969 22.4833C136.953 22.9447 137.753 23.56 138.399 24.3906C139.045 25.1904 139.538 26.1441 139.845 27.2208C140.153 28.2975 140.337 29.4665 140.337 30.6663C140.337 31.8046 140.184 32.8813 139.907 33.9272C139.599 34.9732 139.168 35.9268 138.584 36.7267C137.999 37.5265 137.261 38.1726 136.338 38.6648C135.415 39.157 134.369 39.4031 133.139 39.4031C132.616 39.4031 132.062 39.3416 131.539 39.2493C131.016 39.157 130.493 39.0032 130.001 38.7878C129.509 38.5725 129.047 38.2956 128.647 37.9572C128.217 37.6188 127.878 37.2189 127.601 36.7882H127.54V45.1251H123.848V22.2372H123.817ZM136.707 30.6048C136.707 29.8665 136.615 29.1281 136.4 28.4206C136.215 27.713 135.907 27.0978 135.508 26.544C135.108 25.9903 134.615 25.5596 134.062 25.2212C133.477 24.8828 132.8 24.729 132.062 24.729C130.524 24.729 129.355 25.252 128.555 26.3287C127.786 27.4054 127.386 28.8513 127.386 30.6356C127.386 31.4969 127.478 32.266 127.694 32.9736C127.909 33.6811 128.186 34.2964 128.617 34.8194C129.016 35.3423 129.509 35.7423 130.093 36.0499C130.678 36.3575 131.324 36.5114 132.093 36.5114C132.954 36.5114 133.631 36.3268 134.215 35.9884C134.8 35.65 135.261 35.1885 135.661 34.6655C136.031 34.1118 136.307 33.4965 136.461 32.789C136.615 32.0507 136.707 31.3431 136.707 30.6048ZM143.198 15.8691H146.89V19.3454H143.198V15.8691ZM143.198 22.2372H146.89V38.9417H143.198V22.2372ZM150.182 15.8691H153.873V38.9417H150.182V15.8691ZM165.133 39.4031C163.81 39.4031 162.61 39.1878 161.564 38.7263C160.518 38.2649 159.657 37.6804 158.918 36.9113C158.211 36.1422 157.657 35.1885 157.288 34.1118C156.919 33.0351 156.703 31.8353 156.703 30.574C156.703 29.3127 156.888 28.1437 157.288 27.067C157.657 25.9903 158.211 25.0674 158.918 24.2675C159.626 23.4985 160.518 22.8832 161.564 22.4525C162.61 22.0218 163.81 21.7757 165.133 21.7757C166.455 21.7757 167.655 21.991 168.701 22.4525C169.747 22.8832 170.608 23.4985 171.347 24.2675C172.054 25.0366 172.608 25.9903 172.977 27.067C173.346 28.1437 173.562 29.3127 173.562 30.574C173.562 31.8661 173.377 33.0351 172.977 34.1118C172.577 35.1885 172.054 36.1114 171.347 36.9113C170.639 37.6804 169.747 38.2956 168.701 38.7263C167.655 39.157 166.486 39.4031 165.133 39.4031ZM165.133 36.4806C165.932 36.4806 166.671 36.296 167.255 35.9576C167.871 35.6192 168.332 35.1578 168.732 34.604C169.132 34.0503 169.409 33.4043 169.593 32.7275C169.778 32.0199 169.87 31.3123 169.87 30.574C169.87 29.8665 169.778 29.1589 169.593 28.4514C169.409 27.7438 169.132 27.1285 168.732 26.5748C168.332 26.021 167.84 25.5904 167.255 25.252C166.64 24.9136 165.932 24.729 165.133 24.729C164.333 24.729 163.594 24.9136 163.01 25.252C162.395 25.5904 161.933 26.0518 161.533 26.5748C161.133 27.1285 160.857 27.7438 160.672 28.4514C160.487 29.1589 160.395 29.8665 160.395 30.574C160.395 31.3123 160.487 32.0199 160.672 32.7275C160.857 33.435 161.133 34.0503 161.533 34.604C161.933 35.1578 162.425 35.6192 163.01 35.9576C163.625 36.3268 164.333 36.4806 165.133 36.4806ZM174.669 22.2372H177.469V17.192H181.16V22.2064H184.483V24.9443H181.16V33.8657C181.16 34.2656 181.191 34.5733 181.222 34.8809C181.253 35.1578 181.345 35.4039 181.437 35.5884C181.56 35.773 181.745 35.9269 181.96 36.0191C182.206 36.1114 182.514 36.173 182.945 36.173C183.191 36.173 183.468 36.173 183.714 36.1422C183.96 36.1114 184.237 36.0807 184.483 36.0191V38.8801C184.083 38.9417 183.683 38.9724 183.283 39.0032C182.883 39.0647 182.514 39.0647 182.083 39.0647C181.099 39.0647 180.33 38.9724 179.745 38.7878C179.161 38.6033 178.699 38.3264 178.361 37.988C178.022 37.6188 177.807 37.1881 177.684 36.6652C177.561 36.1422 177.499 35.4962 177.469 34.8194V24.9751H174.669V22.1756V22.2372Z" fill="black"/>
<path d="M44.1093 15.87H27.2202L22.0212 -0.188477L16.7914 15.87L-0.0976562 15.8392L13.5613 25.7758L8.33151 41.8342L21.9905 31.8977L35.6494 41.8342L30.4504 25.7758L44.1093 15.87Z" fill="#00B67A"/>
<path d="M31.6187 29.4055L30.4497 25.7754L22.0205 31.8973L31.6187 29.4055Z" fill="#005128"/>
</g>
<defs>
<clipPath id="clip0_129_1331">
<rect width="190" height="41.6292" fill="white"/>
</clipPath>
</defs>
</svg>
