<svg width="393" height="475" viewBox="0 0 393 475" fill="none" xmlns="http://www.w3.org/2000/svg">
<g filter="url(#filter0_dd_471_5855)">
<circle cx="165" cy="168" r="125" fill="white"/>
</g>
<g clip-path="url(#clip0_471_5855)">
<path d="M118.453 139.355V149.049L108.881 153.088V143.394L118.453 139.355Z" fill="#2BD8BF"/>
<path d="M118.453 139.355V149.049L108.881 153.088V143.394L118.453 139.355Z" fill="#8E3385"/>
<path d="M158.096 179.583L166.95 183.298C163.52 191.618 155.464 197.515 145.972 197.515C133.448 197.515 123.238 187.176 123.238 174.494C123.238 161.812 133.448 151.472 145.972 151.472C155.464 151.472 163.52 157.369 166.95 165.689L158.096 169.405C156.102 164.558 151.396 161.165 145.972 161.165C138.713 161.165 132.81 167.143 132.81 174.494C132.81 181.844 138.713 187.822 145.972 187.822C151.475 187.822 156.181 184.429 158.096 179.583ZM171.736 195.9H181.307V139.355L171.736 143.394V195.9ZM186.093 153.088L195.665 149.049V139.355L186.093 143.394V153.088ZM186.093 157.934V195.9H195.665V153.895L186.093 157.934ZM108.881 157.934V174.494C108.881 181.844 102.978 187.822 95.7194 187.822C88.4608 187.822 82.5582 181.844 82.5582 174.494V153.088L72.9863 157.126V174.494C72.9863 187.176 83.1963 197.515 95.7194 197.515C108.243 197.515 118.453 187.176 118.453 174.494V153.895L108.881 157.934ZM257.882 195.9H244.323L239.296 190.811C235.149 195.011 229.486 197.515 223.184 197.515C210.661 197.515 200.451 187.176 200.451 174.494C200.451 161.812 210.661 151.472 223.184 151.472C235.707 151.472 245.918 161.812 245.918 174.494C245.918 177.24 245.438 179.906 244.481 182.41L257.882 195.9ZM223.184 174.494H236.346C236.346 167.143 230.443 161.165 223.184 161.165C215.926 161.165 210.023 167.143 210.023 174.494C210.023 181.844 215.926 187.822 223.184 187.822C226.774 187.822 230.124 186.287 232.517 183.945L223.184 174.494Z" fill="#1C0B24"/>
<path fill-rule="evenodd" clip-rule="evenodd" d="M195.648 149.06L186.076 153.099V143.406L195.648 139.367V149.06Z" fill="#DF8943"/>
</g>
<path d="M277.744 413.335C277.744 413.335 320.934 437.785 352.364 465.245L392.234 382.415L306.974 348.145L277.744 413.335Z" fill="#FBE1CA"/>
<path d="M153.203 357.146L83.9631 331.566C81.752 330.71 79.337 330.529 77.0231 331.046C74.0731 331.736 71.5831 333.606 76.6631 338.556L103.293 359.476L146.953 367.286L153.203 357.146Z" fill="white"/>
<path d="M147.324 368.144L154.324 356.794L84.2342 330.894C81.8867 329.983 79.321 329.792 76.8642 330.344C74.7342 330.844 73.4742 331.764 73.1042 333.074C72.6542 334.704 73.6542 336.684 76.1042 339.074L102.934 360.164H103.124L147.324 368.144ZM152.084 357.564L146.584 366.484L103.584 358.794L77.0942 337.994C75.1742 336.104 74.2342 334.484 74.5142 333.474C74.7942 332.464 76.0942 332.054 77.1642 331.804C79.3351 331.322 81.6001 331.492 83.6742 332.294L152.084 357.564Z" fill="#24071D"/>
<path d="M143.565 385.307C145.595 387.583 148.394 389.029 151.425 389.367C153.746 389.663 156.091 389.733 158.425 389.576L203.095 384.147C230.935 382.147 250.975 392.097 263.435 401.487C273.765 409.257 278.875 416.666 278.875 416.666L303.195 355.067C293.285 342.827 279.735 335.737 269.425 331.817C264.519 329.896 259.448 328.426 254.275 327.427C233.275 322.197 178.375 326.187 178.375 326.187C164.835 326.067 158.735 330.046 156.175 332.726C155.58 333.357 155.197 334.158 155.081 335.017C154.964 335.876 155.12 336.75 155.525 337.517C160.285 346.657 171.145 347.037 172.585 347.037C166.675 347.117 145.415 354.307 145.415 354.307C131.045 360.307 102.155 355.506 91.2053 353.356C89.1361 352.911 86.9883 352.992 84.9584 353.591C82.9284 354.19 81.0811 355.289 79.5853 356.787C75.9653 360.537 77.5853 364.127 77.5853 364.127L141.685 383.267L142.145 383.397L142.655 384.127C142.936 384.537 143.24 384.931 143.565 385.307Z" fill="white"/>
<path d="M279.055 418.254L304.055 354.944L303.785 354.604C293.595 342.034 279.615 334.894 269.695 331.124C264.742 329.19 259.624 327.707 254.405 326.694C233.565 321.504 178.865 325.404 178.315 325.444C164.315 325.314 158.105 329.634 155.635 332.214C154.932 332.959 154.48 333.905 154.342 334.92C154.204 335.935 154.387 336.968 154.865 337.874C157.865 343.694 163.275 346.104 167.335 347.094C158.975 348.944 145.865 353.364 145.175 353.604C131.025 359.504 102.825 354.884 91.3547 352.604C89.1614 352.127 86.8834 352.212 84.7317 352.85C82.5799 353.488 80.6239 354.659 79.0447 356.254C75.1147 360.314 76.8047 364.254 76.8847 364.414L77.0247 364.734L141.665 384.034L142.025 384.544C142.327 384.981 142.662 385.395 143.025 385.784C145.175 388.198 148.142 389.732 151.355 390.094C153.726 390.389 156.12 390.46 158.505 390.304L203.205 384.884C231.155 382.884 251.155 393.144 263.005 402.074C268.79 406.312 273.933 411.364 278.275 417.074L279.055 418.254ZM302.335 355.204L278.665 415.144C274.382 409.768 269.413 404.978 263.885 400.894C251.885 391.814 231.495 381.404 203.045 383.414L158.305 388.834C156.036 388.979 153.76 388.909 151.505 388.624C148.658 388.304 146.03 386.943 144.125 384.804C143.809 384.465 143.521 384.1 143.265 383.714L142.595 382.774L141.885 382.564L78.1547 363.564C77.9047 362.694 77.4747 360.104 80.1547 357.354C81.5659 355.958 83.3013 354.934 85.2053 354.374C87.1093 353.814 89.1226 353.735 91.0647 354.144C102.675 356.434 131.225 361.094 145.705 355.054C145.865 354.994 166.875 347.914 172.595 347.844V346.344C171.405 346.344 160.805 346.064 156.205 337.234C155.871 336.605 155.742 335.888 155.837 335.183C155.932 334.478 156.246 333.821 156.735 333.304C159.035 330.894 164.885 326.844 178.375 326.994C178.985 326.994 233.445 323.074 254.105 328.214C259.247 329.207 264.287 330.667 269.165 332.574C278.825 336.194 292.385 343.144 302.335 355.204Z" fill="#24071D"/>
<path d="M171.908 348.162L211.746 358.43L211.371 359.885L171.533 349.617L171.908 348.162Z" fill="#24071D"/>
<path d="M162.769 378.877L163.043 380.352L142.062 384.248L141.788 382.773L162.769 378.877Z" fill="#24071D"/>
<path d="M260.444 411.598L292.795 336.228C294.496 332.264 299.088 330.43 303.052 332.131L318.003 338.548C321.966 340.25 323.8 344.842 322.099 348.806L289.749 424.176C288.047 428.14 283.455 429.974 279.491 428.273L264.54 421.855C260.577 420.154 258.743 415.562 260.444 411.598Z" fill="#DF8943"/>
<path d="M282.595 429.634C283.684 429.634 284.763 429.427 285.775 429.024C286.819 428.61 287.77 427.993 288.573 427.208C289.376 426.424 290.016 425.488 290.455 424.454L322.805 349.065C323.697 346.981 323.727 344.629 322.887 342.523C322.047 340.418 320.406 338.732 318.325 337.834L303.325 331.414C302.293 330.97 301.184 330.734 300.06 330.719C298.937 330.705 297.822 330.912 296.778 331.329C295.735 331.746 294.784 332.365 293.981 333.15C293.177 333.935 292.536 334.871 292.095 335.905L259.745 411.285C258.853 413.371 258.825 415.726 259.667 417.833C260.508 419.94 262.151 421.627 264.235 422.524L279.235 428.944C280.297 429.398 281.44 429.632 282.595 429.634ZM289.085 423.864C288.346 425.584 286.954 426.94 285.216 427.634C283.478 428.327 281.535 428.303 279.815 427.565L264.815 421.144C263.096 420.405 261.74 419.014 261.046 417.275C260.352 415.537 260.377 413.594 261.115 411.875L293.465 336.495C293.825 335.639 294.351 334.864 295.013 334.213C295.675 333.563 296.459 333.051 297.321 332.707C298.182 332.362 299.104 332.193 300.032 332.208C300.96 332.223 301.875 332.422 302.725 332.794L317.725 339.215C318.58 339.574 319.356 340.1 320.006 340.762C320.656 341.424 321.168 342.209 321.513 343.07C321.857 343.932 322.027 344.853 322.012 345.781C321.997 346.709 321.797 347.624 321.425 348.474L289.085 423.864Z" fill="#24071D"/>
<path d="M276.004 418.704C272.867 418.704 270.324 416.161 270.324 413.024C270.324 409.887 272.867 407.344 276.004 407.344C279.141 407.344 281.684 409.887 281.684 413.024C281.684 416.161 279.141 418.704 276.004 418.704Z" fill="white"/>
<path d="M275.994 419.456C277.316 419.455 278.606 419.048 279.688 418.289C280.77 417.531 281.593 416.458 282.044 415.216C282.624 413.614 282.544 411.847 281.822 410.304C281.1 408.761 279.795 407.568 278.194 406.986C276.593 406.406 274.827 406.485 273.284 407.206C271.741 407.93 270.548 409.237 269.967 410.84C269.386 412.443 269.464 414.21 270.184 415.756C270.907 417.299 272.213 418.493 273.814 419.076C274.514 419.328 275.251 419.456 275.994 419.456ZM275.994 408.106C276.715 408.105 277.427 408.263 278.08 408.567C278.733 408.871 279.311 409.314 279.774 409.866C280.237 410.418 280.574 411.065 280.76 411.76C280.946 412.456 280.978 413.184 280.853 413.894C280.727 414.603 280.448 415.277 280.034 415.866C279.621 416.456 279.083 416.948 278.459 417.308C277.834 417.667 277.139 417.886 276.421 417.947C275.704 418.009 274.981 417.913 274.304 417.666C273.217 417.268 272.304 416.5 271.726 415.496C271.148 414.493 270.942 413.318 271.143 412.177C271.345 411.037 271.941 410.004 272.828 409.259C273.716 408.515 274.836 408.106 275.994 408.106Z" fill="#24071D"/>
<path opacity="0.26" d="M151.425 389.363C153.746 389.659 156.09 389.729 158.425 389.573L203.095 384.143C230.935 382.143 250.975 392.093 263.435 401.483L265.375 397.603C257.255 389.603 245.545 385.123 234.745 382.603C222.135 379.768 209.117 379.226 196.315 381.003C183.745 382.703 164.765 385.243 164.095 385.283C159.96 385.638 155.8 385.585 151.675 385.123C147.045 384.433 146.875 383.123 146.875 383.123L141.665 383.253L142.125 383.383L142.635 384.113C142.923 384.52 143.233 384.91 143.565 385.283C145.591 387.567 148.391 389.02 151.425 389.363Z" fill="#680000"/>
<path opacity="0.26" d="M167.884 348.394C168.124 348.484 196.014 356.654 205.734 359.494C206.707 359.781 207.744 359.769 208.71 359.461C209.676 359.152 210.528 358.561 211.154 357.764L171.864 347.004L166.964 348.064L167.884 348.394Z" fill="#680000"/>
<path opacity="0.26" d="M95.8646 353.985L94.2746 352.055C94.2746 352.055 133.035 357.135 141.655 352.875L144.475 354.305L134.145 357.235C134.145 357.235 96.6246 357.065 95.8646 353.985Z" fill="#680000"/>
<path opacity="0.26" d="M77.5441 361.816C77.9441 361.966 133.244 378.236 151.494 381.386L142.124 383.386L114.314 375.266L77.5641 364.146L77.5441 361.816Z" fill="#680000"/>
<defs>
<filter id="filter0_dd_471_5855" x="5" y="0" width="321" height="354" filterUnits="userSpaceOnUse" color-interpolation-filters="sRGB">
<feFlood flood-opacity="0" result="BackgroundImageFix"/>
<feColorMatrix in="SourceAlpha" type="matrix" values="0 0 0 0 0 0 0 0 0 0 0 0 0 0 0 0 0 0 127 0" result="hardAlpha"/>
<feOffset dx="1" dy="26"/>
<feGaussianBlur stdDeviation="17.5"/>
<feComposite in2="hardAlpha" operator="out"/>
<feColorMatrix type="matrix" values="0 0 0 0 0.258333 0 0 0 0 0.258333 0 0 0 0 0.258333 0 0 0 0.08 0"/>
<feBlend mode="normal" in2="BackgroundImageFix" result="effect1_dropShadow_471_5855"/>
<feColorMatrix in="SourceAlpha" type="matrix" values="0 0 0 0 0 0 0 0 0 0 0 0 0 0 0 0 0 0 127 0" result="hardAlpha"/>
<feOffset dy="-8"/>
<feGaussianBlur stdDeviation="17.5"/>
<feComposite in2="hardAlpha" operator="out"/>
<feColorMatrix type="matrix" values="0 0 0 0 0 0 0 0 0 0 0 0 0 0 0 0 0 0 0.03 0"/>
<feBlend mode="normal" in2="effect1_dropShadow_471_5855" result="effect2_dropShadow_471_5855"/>
<feBlend mode="normal" in="SourceGraphic" in2="effect2_dropShadow_471_5855" result="shape"/>
</filter>
<clipPath id="clip0_471_5855">
<rect width="184.896" height="58.1597" fill="white" transform="translate(72.9863 139.355)"/>
</clipPath>
</defs>
</svg>
