<svg width="182" height="160" viewBox="0 0 182 160" fill="none" xmlns="http://www.w3.org/2000/svg">
<path d="M115.347 160H67.495C67.0497 160.003 66.6087 159.91 66.2014 159.728C65.794 159.546 65.4296 159.279 65.1321 158.945C64.8346 158.61 64.6109 158.215 64.4757 157.787C64.3404 157.358 64.2969 156.905 64.3478 156.459L68.4392 120.591H114.344L118.436 156.459C118.486 156.9 118.444 157.348 118.312 157.773C118.181 158.197 117.962 158.589 117.671 158.923C117.38 159.256 117.023 159.525 116.622 159.71C116.222 159.896 115.787 159.995 115.347 160Z" fill="#8E3385"/>
<path d="M114.984 160H67.0351C66.5427 160 66.0558 159.895 65.6065 159.691C65.1572 159.488 64.7555 159.191 64.4279 158.819C64.1003 158.448 63.8541 158.01 63.7056 157.536C63.5571 157.061 63.5095 156.561 63.5661 156.066L67.6793 119.803H114.299L118.435 156.066C118.49 156.56 118.441 157.061 118.292 157.534C118.143 158.008 117.897 158.445 117.57 158.816C117.242 159.187 116.841 159.485 116.393 159.689C115.944 159.893 115.458 159.999 114.966 160H114.984ZM68.301 120.486L64.2464 156.144C64.1978 156.544 64.234 156.949 64.3525 157.334C64.471 157.719 64.6691 158.074 64.9337 158.375C65.1983 158.677 65.5233 158.918 65.8872 159.082C66.251 159.247 66.6454 159.332 67.0441 159.331H114.984C115.382 159.33 115.776 159.245 116.139 159.079C116.502 158.914 116.826 158.673 117.091 158.372C117.355 158.071 117.553 157.717 117.672 157.333C117.791 156.949 117.829 156.543 117.781 156.144L113.727 120.486H68.301Z" fill="#24071D"/>
<path opacity="0.26" d="M114.638 160H110.73C111.156 160.003 111.578 159.91 111.967 159.728C112.357 159.546 112.705 159.279 112.99 158.944C113.274 158.61 113.488 158.215 113.617 157.787C113.747 157.358 113.788 156.905 113.74 156.459L109.827 120.591H113.74L117.652 156.459C117.701 156.906 117.659 157.359 117.53 157.788C117.4 158.216 117.186 158.611 116.901 158.946C116.616 159.281 116.267 159.548 115.877 159.73C115.487 159.911 115.065 160.003 114.638 160Z" fill="#680000"/>
<path d="M178.077 8.66992H3.13871C1.40525 8.66992 0 10.096 0 11.8552V125.288C0 127.047 1.40525 128.473 3.13871 128.473H178.077C179.81 128.473 181.216 127.047 181.216 125.288V11.8552C181.216 10.096 179.81 8.66992 178.077 8.66992Z" fill="#8E3385"/>
<path d="M178.523 128.473H3.47722C2.55537 128.472 1.67161 128.102 1.01976 127.445C0.367916 126.787 0.00118719 125.896 0 124.966V12.1765C0 11.2465 0.366348 10.3546 1.01845 9.69698C1.67056 9.03936 2.555 8.66992 3.47722 8.66992H178.523C179.445 8.66992 180.329 9.03936 180.982 9.69698C181.634 10.3546 182 11.2465 182 12.1765V124.966C181.999 125.896 181.632 126.787 180.98 127.445C180.328 128.102 179.445 128.472 178.523 128.473ZM3.47722 9.34862C2.7335 9.34862 2.02024 9.64655 1.49434 10.1769C0.968453 10.7072 0.673011 11.4265 0.673011 12.1765V124.966C0.676569 125.714 0.973583 126.43 1.49909 126.957C2.0246 127.485 2.73582 127.781 3.47722 127.781H178.523C179.267 127.781 179.98 127.483 180.506 126.952C181.032 126.422 181.327 125.703 181.327 124.953V12.1765C181.327 11.4265 181.032 10.7072 180.506 10.1769C179.98 9.64655 179.267 9.34862 178.523 9.34862H3.47722Z" fill="#8E3385"/>
<path d="M172.63 14.1873H8.58537C6.87652 14.1873 5.49121 15.5911 5.49121 17.3229V111.938C5.49121 113.67 6.87652 115.074 8.58537 115.074H172.63C174.339 115.074 175.724 113.67 175.724 111.938V17.3229C175.724 15.5911 174.339 14.1873 172.63 14.1873Z" fill="white"/>
<path d="M173.08 115.862H8.91963C8.01072 115.861 7.13938 115.494 6.49669 114.843C5.85399 114.191 5.4924 113.308 5.49121 112.386V17.6632C5.4924 16.7417 5.85399 15.8583 6.49669 15.2067C7.13938 14.5551 8.01072 14.1885 8.91963 14.1873H173.08C173.989 14.1885 174.86 14.5551 175.503 15.2067C176.146 15.8583 176.507 16.7417 176.508 17.6632V112.386C176.507 113.308 176.146 114.191 175.503 114.843C174.86 115.494 173.989 115.861 173.08 115.862ZM8.91963 14.8606C8.55662 14.8606 8.19717 14.9331 7.86179 15.0739C7.52641 15.2148 7.22168 15.4212 6.965 15.6814C6.70831 15.9417 6.50469 16.2506 6.36578 16.5907C6.22686 16.9307 6.15536 17.2951 6.15536 17.6632V112.386C6.15536 113.13 6.44659 113.842 6.965 114.368C7.4834 114.894 8.1865 115.189 8.91963 115.189H173.08C173.443 115.189 173.803 115.116 174.138 114.975C174.473 114.835 174.778 114.628 175.035 114.368C175.291 114.108 175.495 113.799 175.634 113.459C175.773 113.119 175.844 112.754 175.844 112.386V17.6632C175.844 17.2951 175.773 16.9307 175.634 16.5907C175.495 16.2506 175.291 15.9417 175.035 15.6814C174.778 15.4212 174.473 15.2148 174.138 15.0739C173.803 14.9331 173.443 14.8606 173.08 14.8606H8.91963Z" fill="#24071D"/>
<path d="M51.8602 71.7241H19.5274C18.7076 71.7241 18.043 72.3937 18.043 73.2196V104.908C18.043 105.734 18.7076 106.404 19.5274 106.404H51.8602C52.6801 106.404 53.3447 105.734 53.3447 104.908V73.2196C53.3447 72.3937 52.6801 71.7241 51.8602 71.7241Z" fill="#FBE1CA"/>
<path d="M94.2225 71.7241H61.8897C61.0699 71.7241 60.4053 72.3937 60.4053 73.2196V104.908C60.4053 105.734 61.0699 106.404 61.8897 106.404H94.2225C95.0424 106.404 95.707 105.734 95.707 104.908V73.2196C95.707 72.3937 95.0424 71.7241 94.2225 71.7241Z" fill="#FBE1CA"/>
<path d="M158.047 68.5714H121.995C121.472 68.5714 120.972 68.3647 120.602 67.9968C120.233 67.6289 120.025 67.1299 120.025 66.6096V32.7144C120.024 32.4542 120.074 32.1961 120.173 31.9553C120.272 31.7146 120.419 31.4959 120.604 31.3121C120.789 31.1282 121.009 30.9829 121.25 30.8845C121.492 30.7861 121.752 30.7367 122.013 30.7391H158.065C158.587 30.7391 159.088 30.9458 159.457 31.3137C159.826 31.6816 160.034 32.1806 160.034 32.701V66.5961C160.036 66.8564 159.986 67.1144 159.886 67.3552C159.787 67.596 159.641 67.8146 159.456 67.9985C159.271 68.1823 159.051 68.3277 158.809 68.426C158.567 68.5244 158.308 68.5738 158.047 68.5714ZM121.995 31.426C121.652 31.4272 121.324 31.5633 121.082 31.8047C120.839 32.046 120.703 32.3731 120.701 32.7144V66.6096C120.703 66.9509 120.839 67.278 121.082 67.5193C121.324 67.7607 121.652 67.8968 121.995 67.898H158.047C158.389 67.8968 158.718 67.7607 158.96 67.5193C159.202 67.278 159.339 66.9509 159.34 66.6096V32.7144C159.339 32.3731 159.202 32.046 158.96 31.8047C158.718 31.5633 158.389 31.4272 158.047 31.426H121.995Z" fill="#FBE1CA"/>
<path d="M85.6036 0H22.6555C20.9748 0 19.6123 1.3808 19.6123 3.0841V71.7927C19.6123 73.496 20.9748 74.8768 22.6555 74.8768H85.6036C87.2843 74.8768 88.6468 73.496 88.6468 71.7927V3.0841C88.6468 1.3808 87.2843 0 85.6036 0Z" fill="#DF8943"/>
<path d="M86.071 75.665H22.9725C22.0817 75.6638 21.2277 75.3046 20.5978 74.6662C19.9679 74.0278 19.6135 73.1623 19.6123 72.2594V3.40103C19.6135 2.49861 19.968 1.63355 20.5981 0.995865C21.2281 0.358178 22.0821 -8.06454e-07 22.9725 0H86.071C86.9611 0.00120114 87.8144 0.359765 88.4442 0.997192C89.074 1.63462 89.4289 2.49898 89.4313 3.40103V72.2776C89.4253 73.1773 89.0688 74.0382 88.4395 74.6727C87.8101 75.3072 86.9588 75.6638 86.071 75.665ZM22.9725 0.628306C22.2465 0.628305 21.5502 0.920285 21.0364 1.44014C20.5227 1.96 20.2334 2.66524 20.2322 3.40103V72.2776C20.2334 73.0134 20.5227 73.7187 21.0364 74.2385C21.5502 74.7584 22.2465 75.0504 22.9725 75.0504H86.071C86.7966 75.0504 87.4925 74.7583 88.0055 74.2383C88.5186 73.7183 88.8068 73.013 88.8068 72.2776V3.40103C88.8068 2.66566 88.5186 1.9604 88.0055 1.44042C87.4925 0.920429 86.7966 0.628306 86.071 0.628306H22.9725Z" fill="#24071D"/>
<path opacity="0.26" d="M88.6468 2.88303V71.7843C88.6468 72.6045 88.3261 73.3911 87.7554 73.9711C87.1846 74.551 86.4105 74.8768 85.6034 74.8768H22.6467C21.8614 74.8786 21.1061 74.5704 20.54 74.0173C19.974 73.4641 19.6413 72.7093 19.6123 71.9118C19.9546 72.0497 20.3198 72.1192 20.688 72.1168H83.6447C84.0443 72.1168 84.4401 72.0368 84.8093 71.8814C85.1786 71.726 85.5141 71.4982 85.7967 71.211C86.0793 70.9238 86.3035 70.5829 86.4564 70.2077C86.6094 69.8325 86.6881 69.4304 86.6881 69.0242V0.122975C86.6925 0.0821081 86.6925 0.0408668 86.6881 0C87.2646 0.220739 87.7611 0.615073 88.1111 1.13027C88.4611 1.64547 88.648 2.25698 88.6468 2.88303Z" fill="#680000"/>
<path d="M31.1847 44.926H34.7115C35.4922 44.926 36.2409 45.2392 36.7929 45.7968C37.3449 46.3543 37.655 47.1105 37.655 47.8989V68.5713H28.2412V47.8943C28.2424 47.1067 28.5531 46.3517 29.105 45.7951C29.6568 45.2386 30.4049 44.926 31.1847 44.926Z" fill="white"/>
<path d="M38.421 68.5713H28.2412V48.1304C28.2424 47.2809 28.5914 46.4666 29.2116 45.8659C29.8318 45.2652 30.6726 44.9272 31.5496 44.926H35.1311C36.0081 44.9272 36.8489 45.2652 37.4691 45.8659C38.0893 46.4666 38.4383 47.2809 38.4395 48.1304L38.421 68.5713ZM28.8659 67.9618H37.7778V48.1304C37.7778 47.4458 37.497 46.7892 36.9972 46.3051C36.4973 45.8209 35.8194 45.549 35.1125 45.549H31.5311C30.8243 45.549 30.1463 45.8209 29.6465 46.3051C29.1467 46.7892 28.8659 47.4458 28.8659 48.1304V67.9618Z" fill="#24071D"/>
<path d="M45.3059 32.3152H48.8326C49.2191 32.3152 49.6019 32.3917 49.959 32.5404C50.3161 32.6891 50.6406 32.907 50.914 33.1817C51.1873 33.4564 51.4041 33.7825 51.552 34.1414C51.7 34.5004 51.7761 34.8851 51.7761 35.2736V68.5713H42.3624V35.2919C42.36 34.9018 42.4343 34.5152 42.5812 34.1541C42.728 33.7931 42.9445 33.4648 43.218 33.1881C43.4916 32.9115 43.8169 32.6919 44.1752 32.5421C44.5335 32.3923 44.9178 32.3152 45.3059 32.3152Z" fill="#FDAF4E"/>
<path d="M52.5606 68.5713H42.3623V35.5351C42.3623 34.6811 42.7115 33.8621 43.3331 33.2583C43.9547 32.6544 44.7977 32.3152 45.6767 32.3152H49.2601C50.1367 32.3188 50.9762 32.6596 51.5947 33.263C52.2133 33.8665 52.5606 34.6834 52.5606 35.5351V68.5713ZM43.0067 67.9589H51.9394V35.5351C51.9382 34.8467 51.6558 34.1869 51.1544 33.7006C50.6529 33.2143 49.9733 32.9411 49.2647 32.9411H45.6814C44.9728 32.9411 44.2932 33.2143 43.7917 33.7006C43.2902 34.1869 43.0079 34.8467 43.0067 35.5351V67.9589Z" fill="#24071D"/>
<path d="M59.4259 25.2217H62.9527C63.7334 25.2217 64.4821 25.531 65.0341 26.0817C65.5861 26.6324 65.8962 27.3793 65.8962 28.158V68.5714H56.4824V28.1535C56.4836 27.3755 56.7943 26.6298 57.3462 26.0801C57.8981 25.5304 58.6461 25.2217 59.4259 25.2217Z" fill="white"/>
<path d="M66.6807 69.3596H56.4824V28.4987C56.4849 27.6296 56.8352 26.7967 57.4568 26.1826C58.0783 25.5684 58.9205 25.2229 59.7989 25.2217H63.3642C64.2426 25.2229 65.0848 25.5684 65.7064 26.1826C66.3279 26.7967 66.6783 27.6296 66.6807 28.4987V69.3596ZM57.1549 68.6851H65.999V28.4987C65.9978 27.8081 65.7196 27.1462 65.2256 26.6582C64.7317 26.1703 64.0622 25.8962 63.3642 25.8962H59.7989C59.1009 25.8962 58.4315 26.1703 57.9375 26.6582C57.4435 27.1462 57.1654 27.8081 57.1642 28.4987L57.1549 68.6851Z" fill="#24071D"/>
<path d="M73.547 15.7634H77.0738C77.8545 15.7634 78.6032 16.0717 79.1552 16.6204C79.7072 17.1692 80.0173 17.9134 80.0173 18.6894V68.5713H70.6035V18.6894C70.6035 17.9134 70.9136 17.1692 71.4657 16.6204C72.0177 16.0717 72.7664 15.7634 73.547 15.7634Z" fill="#DF554B"/>
<path d="M80.7879 68.5714H70.6035V18.2237C70.6035 17.7971 70.6891 17.3747 70.8555 16.9806C71.0218 16.5865 71.2656 16.2284 71.573 15.9268C71.8803 15.6251 72.2452 15.3859 72.6468 15.2226C73.0484 15.0594 73.4788 14.9753 73.9134 14.9753H77.4919C77.9265 14.9753 78.3569 15.0594 78.7585 15.2226C79.1601 15.3859 79.525 15.6251 79.8323 15.9268C80.1397 16.2284 80.3835 16.5865 80.5498 16.9806C80.7162 17.3747 80.8018 17.7971 80.8018 18.2237L80.7879 68.5714ZM71.2285 67.9535H80.1491V18.2237C80.1478 17.5289 79.866 16.8628 79.3654 16.3714C78.8647 15.8801 78.186 15.6035 77.478 15.6023H73.8996C73.1915 15.6035 72.5128 15.8801 72.0122 16.3714C71.5115 16.8628 71.2297 17.5289 71.2285 18.2237V67.9535Z" fill="#24071D"/>
<path d="M63.5429 12.6108H25.8877V13.399H63.5429V12.6108Z" fill="#24071D"/>
<path d="M55.698 19.7043H25.8877V20.4925H55.698V19.7043Z" fill="#24071D"/>
<path d="M148.045 61.4775C147.543 61.4799 147.053 61.3248 146.638 61.0326C146.223 60.7404 145.904 60.3249 145.723 59.8411L144.832 57.3336H135.215L134.324 59.8411C134.139 60.3301 133.815 60.749 133.393 61.0415C132.972 61.334 132.474 61.4862 131.967 61.4775C131.293 61.4714 130.649 61.1897 130.175 60.6939C129.702 60.1981 129.438 59.5286 129.44 58.8317C129.434 58.5155 129.491 58.2015 129.609 57.9098L136.178 40.4539C136.467 39.6894 136.97 39.0322 137.624 38.5671C138.278 38.102 139.052 37.8504 139.845 37.845C140.705 37.7765 141.563 37.9923 142.296 38.4612C143.028 38.9302 143.598 39.628 143.923 40.4539L150.451 57.8729C150.555 58.1689 150.612 58.4801 150.62 58.7948C150.623 59.1462 150.558 59.4947 150.43 59.82C150.301 60.1454 150.112 60.4413 149.872 60.6906C149.633 60.94 149.348 61.1379 149.035 61.2729C148.721 61.408 148.384 61.4775 148.045 61.4775ZM140.023 42.9799L136.521 52.9777H143.526L140.023 42.9799Z" fill="#FBE1CA"/>
<path d="M124.733 26.7981H116.888V34.6799H124.733V26.7981Z" fill="#FBE1CA"/>
<path d="M124.733 64.6306H116.888V72.5124H124.733V64.6306Z" fill="#FBE1CA"/>
<path d="M163.957 26.7981H156.112V34.6799H163.957V26.7981Z" fill="#FBE1CA"/>
<path d="M163.957 64.6306H156.112V72.5124H163.957V64.6306Z" fill="#FBE1CA"/>
<path d="M168.664 87.4878H116.888V93.005H168.664V87.4878Z" fill="#FBE1CA"/>
<path d="M168.664 78.8176H116.888V84.3349H168.664V78.8176Z" fill="#FBE1CA"/>
<path d="M151.405 96.9458H116.888V102.463H151.405V96.9458Z" fill="#FBE1CA"/>
<path d="M171.887 87.4878H139.554C138.734 87.4878 138.069 88.1574 138.069 88.9833V120.672C138.069 121.498 138.734 122.168 139.554 122.168H171.887C172.706 122.168 173.371 121.498 173.371 120.672V88.9833C173.371 88.1574 172.706 87.4878 171.887 87.4878Z" fill="#DF554B"/>
<path d="M171.545 122.956H139.109C138.625 122.956 138.161 122.762 137.819 122.417C137.476 122.073 137.284 121.605 137.284 121.118V89.3261C137.284 88.8385 137.476 88.371 137.819 88.0262C138.161 87.6815 138.625 87.4878 139.109 87.4878H171.545C172.029 87.4878 172.494 87.6815 172.836 88.0262C173.178 88.371 173.37 88.8385 173.37 89.3261V121.118C173.37 121.605 173.178 122.073 172.836 122.417C172.494 122.762 172.029 122.956 171.545 122.956ZM139.109 88.1636C138.803 88.1636 138.509 88.2861 138.293 88.5041C138.077 88.7221 137.955 89.0178 137.955 89.3261V121.118C137.955 121.426 138.077 121.721 138.293 121.939C138.509 122.157 138.803 122.28 139.109 122.28H171.545C171.852 122.28 172.145 122.157 172.361 121.939C172.578 121.721 172.699 121.426 172.699 121.118V89.3261C172.699 89.0178 172.578 88.7221 172.361 88.5041C172.145 88.2861 171.852 88.1636 171.545 88.1636H139.109Z" fill="#24071D"/>
<path opacity="0.26" d="M172.586 88.9836V120.672C172.586 121.069 172.429 121.449 172.151 121.73C171.873 122.01 171.495 122.168 171.101 122.168H138.764C138.371 122.166 137.995 122.008 137.717 121.728C137.44 121.448 137.284 121.068 137.284 120.672V119.89H169.153C169.547 119.89 169.924 119.733 170.203 119.452C170.481 119.172 170.638 118.791 170.638 118.395V87.4879H171.083C171.28 87.4855 171.475 87.5225 171.657 87.5966C171.839 87.6707 172.005 87.7804 172.145 87.9196C172.285 88.0587 172.395 88.2244 172.471 88.407C172.547 88.5897 172.586 88.7857 172.586 88.9836Z" fill="#680000"/>
<path d="M165.1 104.439L148.808 94.7039C148.674 94.624 148.523 94.5817 148.369 94.5813C148.214 94.5809 148.063 94.6223 147.928 94.7014C147.794 94.7805 147.683 94.8946 147.604 95.0323C147.526 95.17 147.484 95.3265 147.482 95.4862V114.962C147.485 115.121 147.527 115.277 147.606 115.414C147.685 115.551 147.796 115.665 147.93 115.743C148.064 115.822 148.216 115.863 148.37 115.862C148.524 115.861 148.675 115.819 148.808 115.739L165.1 106.004C165.23 105.922 165.337 105.808 165.412 105.671C165.486 105.534 165.525 105.379 165.525 105.222C165.525 105.064 165.486 104.91 165.412 104.773C165.337 104.636 165.23 104.521 165.1 104.439Z" fill="white"/>
<path d="M148.693 116.65C148.372 116.649 148.065 116.517 147.838 116.283C147.612 116.048 147.484 115.731 147.482 115.399V95.8205C147.484 95.6019 147.542 95.3877 147.649 95.1992C147.756 95.0106 147.909 94.8544 148.093 94.746C148.276 94.6375 148.484 94.5808 148.696 94.5813C148.907 94.5818 149.115 94.6396 149.298 94.7489L165.705 104.541C165.889 104.65 166.042 104.808 166.148 104.998C166.254 105.189 166.31 105.404 166.31 105.624C166.31 105.843 166.254 106.059 166.148 106.249C166.042 106.439 165.889 106.597 165.705 106.707L149.298 116.48C149.115 116.592 148.906 116.651 148.693 116.65ZM148.693 95.2548C148.597 95.2558 148.504 95.2827 148.421 95.333C148.338 95.382 148.269 95.453 148.222 95.5387C148.174 95.6244 148.149 95.7217 148.15 95.8205V115.399C148.15 115.498 148.176 115.594 148.224 115.679C148.272 115.764 148.34 115.834 148.423 115.883C148.505 115.932 148.599 115.958 148.694 115.957C148.789 115.957 148.882 115.931 148.964 115.882L165.371 106.095C165.454 106.045 165.522 105.974 165.569 105.888C165.616 105.803 165.641 105.706 165.641 105.608C165.641 105.509 165.616 105.412 165.569 105.327C165.522 105.241 165.454 105.17 165.371 105.12L148.964 95.333C148.882 95.2827 148.788 95.2558 148.693 95.2548Z" fill="#24071D"/>
<path d="M51.7228 99.3103H17.3113C16.4156 99.3103 15.6895 100.051 15.6895 100.965V137.064C15.6895 137.978 16.4156 138.719 17.3113 138.719H51.7228C52.6185 138.719 53.3446 137.978 53.3446 137.064V100.965C53.3446 100.051 52.6185 99.3103 51.7228 99.3103Z" fill="#DF8943"/>
<path d="M52.1661 139.507H17.6569C17.1355 139.506 16.6357 139.294 16.267 138.918C15.8983 138.542 15.6906 138.033 15.6895 137.501V101.317C15.6906 100.785 15.8983 100.275 16.267 99.8993C16.6357 99.5233 17.1355 99.3115 17.6569 99.3103H52.1661C52.6871 99.3115 53.1864 99.5234 53.5544 99.8996C53.9224 100.276 54.1291 100.785 54.1291 101.317V137.487C54.1308 137.751 54.0814 138.013 53.9836 138.258C53.8858 138.503 53.7416 138.725 53.5592 138.913C53.3768 139.101 53.1598 139.25 52.9207 139.352C52.6817 139.454 52.4252 139.507 52.1661 139.507ZM17.6569 99.9959C17.3134 99.9959 16.984 100.135 16.7411 100.383C16.4982 100.63 16.3617 100.966 16.3617 101.317V137.487C16.3629 137.837 16.4997 138.172 16.7424 138.42C16.985 138.667 17.3138 138.807 17.6569 138.808H52.1661C52.5088 138.807 52.8371 138.667 53.079 138.42C53.321 138.172 53.4568 137.837 53.4568 137.487V101.317C53.4574 101.143 53.4245 100.972 53.3599 100.812C53.2952 100.651 53.2003 100.506 53.0804 100.383C52.9604 100.26 52.8179 100.163 52.6611 100.097C52.5042 100.03 52.336 99.9959 52.1661 99.9959H17.6569Z" fill="#24071D"/>
<path d="M34.3503 110.345H34.1242C32.1937 110.345 30.3062 110.918 28.6984 111.991C27.0905 113.065 25.8338 114.591 25.0857 116.379C24.3375 118.167 24.1313 120.137 24.4928 122.042C24.8543 123.947 25.7675 125.702 27.1179 127.088C28.4683 128.474 30.1958 129.429 32.084 129.833C33.9722 130.237 35.937 130.072 37.7324 129.359C39.5277 128.646 41.0735 127.416 42.1763 125.825C43.279 124.233 43.8896 122.349 43.9314 120.41H34.3503V110.345Z" fill="white"/>
<path d="M33.8412 130.835C32.498 130.864 31.1627 130.62 29.9135 130.118C28.6643 129.616 27.5263 128.866 26.5664 127.912C25.6064 126.958 24.8437 125.819 24.3231 124.562C23.8024 123.305 23.5342 121.955 23.5342 120.591C23.5342 119.227 23.8024 117.877 24.3231 116.62C24.8437 115.363 25.6064 114.224 26.5664 113.27C27.5263 112.316 28.6643 111.566 29.9135 111.064C31.1627 110.562 32.498 110.318 33.8412 110.347H34.0886L34.4035 110.37V120.465H43.9307V120.812C43.8618 123.486 42.77 126.028 40.8866 127.899C39.0033 129.77 36.4763 130.823 33.8412 130.835ZM33.7288 111.032C31.8941 111.053 30.1053 111.617 28.5823 112.656C27.0593 113.695 25.8682 115.162 25.1555 116.879C24.4427 118.595 24.2393 120.485 24.5702 122.317C24.9011 124.149 25.7519 125.843 27.0182 127.191C28.2844 128.539 29.9109 129.482 31.6978 129.905C33.4848 130.327 35.3545 130.211 37.0772 129.57C38.7999 128.929 40.3007 127.791 41.3951 126.296C42.4896 124.801 43.1301 123.014 43.238 121.155H33.7288V111.032Z" fill="#24071D"/>
<path d="M36.0859 107.98V118.227H45.4997C45.4997 118.148 45.4997 118.079 45.4997 118C45.5016 115.383 44.5174 112.868 42.758 110.996C40.9986 109.123 38.6036 108.041 36.0859 107.98Z" fill="#DF554B"/>
<path d="M46.2572 118.227H36.0859V107.192H36.4278C39.058 107.269 41.5562 108.402 43.3952 110.352C45.2342 112.301 46.2701 114.914 46.2842 117.639C46.2842 117.728 46.2842 117.807 46.2842 117.891L46.2572 118.227ZM36.7607 117.509H45.6094C45.5723 115.047 44.6408 112.691 43.0008 110.909C41.3607 109.127 39.1326 108.051 36.7607 107.896V117.509Z" fill="#24071D"/>
<path d="M90.6076 126.108C92.9905 126.108 94.9223 124.168 94.9223 121.773C94.9223 119.379 92.9905 117.438 90.6076 117.438C88.2247 117.438 86.293 119.379 86.293 121.773C86.293 124.168 88.2247 126.108 90.6076 126.108Z" fill="#E3803A"/>
<path opacity="0.26" d="M53.3453 100.825V137.091C53.3441 137.306 53.3011 137.519 53.2186 137.718C53.136 137.916 53.0157 138.096 52.8645 138.248C52.7132 138.399 52.534 138.518 52.3372 138.599C52.1403 138.68 51.9296 138.721 51.7172 138.719H18.0938C17.6776 138.721 17.2768 138.559 16.9752 138.269C16.6735 137.978 16.4942 137.58 16.4746 137.159C16.6581 137.23 16.8534 137.266 17.05 137.263H50.6734C51.1009 137.265 51.5119 137.096 51.8163 136.791C52.1206 136.487 52.2935 136.072 52.2971 135.639V99.3736C52.2991 99.3526 52.2991 99.3314 52.2971 99.3103C52.6035 99.424 52.8683 99.6302 53.0557 99.9011C53.2431 100.172 53.3442 100.495 53.3453 100.825Z" fill="#680000"/>
<path opacity="0.4" d="M141.207 104.828C140.999 104.828 140.8 104.758 140.653 104.633C140.505 104.509 140.423 104.34 140.423 104.165V91.3033C140.423 91.1275 140.505 90.9589 140.653 90.8346C140.8 90.7102 140.999 90.6404 141.207 90.6404C141.415 90.6404 141.615 90.7102 141.762 90.8346C141.909 90.9589 141.992 91.1275 141.992 91.3033V104.165C141.992 104.34 141.909 104.509 141.762 104.633C141.615 104.758 141.415 104.828 141.207 104.828Z" fill="#FBE1CA"/>
<path opacity="0.4" d="M141.207 112.709C140.999 112.709 140.8 112.637 140.653 112.509C140.505 112.381 140.423 112.207 140.423 112.025V107.876C140.423 107.695 140.505 107.521 140.653 107.392C140.8 107.264 140.999 107.192 141.207 107.192C141.415 107.192 141.615 107.264 141.762 107.392C141.909 107.521 141.992 107.695 141.992 107.876V112.025C141.992 112.207 141.909 112.381 141.762 112.509C141.615 112.637 141.415 112.709 141.207 112.709Z" fill="#FBE1CA"/>
<path d="M23.5345 31.5271C23.3264 31.5271 23.1269 31.4553 22.9798 31.3276C22.8327 31.1998 22.75 31.0266 22.75 30.8459V6.19834C22.75 6.01769 22.8327 5.84444 22.9798 5.71671C23.1269 5.58897 23.3264 5.51721 23.5345 5.51721C23.7425 5.51721 23.9421 5.58897 24.0892 5.71671C24.2363 5.84444 24.319 6.01769 24.319 6.19834V30.8459C24.319 31.0266 24.2363 31.1998 24.0892 31.3276C23.9421 31.4553 23.7425 31.5271 23.5345 31.5271Z" fill="#FBE1CA"/>
<path d="M23.5345 47.2906C23.3264 47.2906 23.1269 47.2159 22.9798 47.0829C22.8327 46.9498 22.75 46.7694 22.75 46.5813V38.5419C22.75 38.3537 22.8327 38.1733 22.9798 38.0403C23.1269 37.9073 23.3264 37.8325 23.5345 37.8325C23.7425 37.8325 23.9421 37.9073 24.0892 38.0403C24.2363 38.1733 24.319 38.3537 24.319 38.5419V46.5813C24.319 46.7694 24.2363 46.9498 24.0892 47.0829C23.9421 47.2159 23.7425 47.2906 23.5345 47.2906Z" fill="#FBE1CA"/>
<path d="M19.6116 121.379C19.4036 121.379 19.204 121.31 19.0569 121.186C18.9098 121.062 18.8271 120.894 18.8271 120.719V111.005C18.8271 110.83 18.9098 110.662 19.0569 110.538C19.204 110.414 19.4036 110.345 19.6116 110.345C19.8197 110.345 20.0192 110.414 20.1663 110.538C20.3135 110.662 20.3961 110.83 20.3961 111.005V120.719C20.3961 120.894 20.3135 121.062 20.1663 121.186C20.0192 121.31 19.8197 121.379 19.6116 121.379Z" fill="#FBE1CA"/>
<path d="M19.6116 108.768C19.4036 108.768 19.204 108.693 19.0569 108.559C18.9098 108.424 18.8271 108.242 18.8271 108.053V104.755C18.8271 104.565 18.9098 104.383 19.0569 104.249C19.204 104.115 19.4036 104.039 19.6116 104.039C19.8197 104.039 20.0192 104.115 20.1663 104.249C20.3135 104.383 20.3961 104.565 20.3961 104.755V108.053C20.3961 108.242 20.3135 108.424 20.1663 108.559C20.0192 108.693 19.8197 108.768 19.6116 108.768Z" fill="#FBE1CA"/>
<path opacity="0.4" d="M67.3389 152.118H67.2643C67.0908 152.097 66.9324 152.005 66.8237 151.861C66.7151 151.718 66.6651 151.535 66.6849 151.352L68.4976 134.608C68.5174 134.425 68.6058 134.257 68.7432 134.142C68.8807 134.027 69.056 133.974 69.2306 133.995C69.4052 134.015 69.5648 134.108 69.6743 134.253C69.7838 134.397 69.8342 134.582 69.8144 134.765L67.9929 151.528C67.9696 151.692 67.8907 151.843 67.7706 151.951C67.6505 152.06 67.4972 152.119 67.3389 152.118Z" fill="#FBE1CA"/>
</svg>
