<svg width="214" height="160" viewBox="0 0 214 160" fill="none" xmlns="http://www.w3.org/2000/svg">
<path d="M194.229 52.6014H190.591C190.501 52.6014 190.414 52.5656 190.35 52.5019C190.286 52.4382 190.25 52.3517 190.25 52.2616C190.25 52.1715 190.286 52.0851 190.35 52.0214C190.414 51.9576 190.501 51.9218 190.591 51.9218H194.229C194.32 51.9218 194.407 51.9576 194.471 52.0214C194.535 52.0851 194.571 52.1715 194.571 52.2616C194.571 52.3517 194.535 52.4382 194.471 52.5019C194.407 52.5656 194.32 52.6014 194.229 52.6014ZM186.953 52.6014H183.315C183.224 52.6014 183.138 52.5656 183.074 52.5019C183.01 52.4382 182.974 52.3517 182.974 52.2616C182.974 52.1715 183.01 52.0851 183.074 52.0214C183.138 51.9576 183.224 51.9218 183.315 51.9218H186.953C187.043 51.9218 187.13 51.9576 187.194 52.0214C187.258 52.0851 187.294 52.1715 187.294 52.2616C187.294 52.3517 187.258 52.4382 187.194 52.5019C187.13 52.5656 187.043 52.6014 186.953 52.6014ZM179.677 52.6014H176.038C175.948 52.6014 175.861 52.5656 175.797 52.5019C175.733 52.4382 175.697 52.3517 175.697 52.2616C175.697 52.1715 175.733 52.0851 175.797 52.0214C175.861 51.9576 175.948 51.9218 176.038 51.9218H179.677C179.767 51.9218 179.854 51.9576 179.918 52.0214C179.982 52.0851 180.018 52.1715 180.018 52.2616C180.018 52.3517 179.982 52.4382 179.918 52.5019C179.854 52.5656 179.767 52.6014 179.677 52.6014ZM172.4 52.6014H168.762C168.672 52.6014 168.585 52.5656 168.521 52.5019C168.457 52.4382 168.421 52.3517 168.421 52.2616C168.421 52.1715 168.457 52.0851 168.521 52.0214C168.585 51.9576 168.672 51.9218 168.762 51.9218H172.4C172.491 51.9218 172.577 51.9576 172.641 52.0214C172.705 52.0851 172.741 52.1715 172.741 52.2616C172.741 52.3517 172.705 52.4382 172.641 52.5019C172.577 52.5656 172.491 52.6014 172.4 52.6014ZM196.958 51.6953C196.868 51.6953 196.781 51.6595 196.717 51.5958C196.653 51.5321 196.617 51.4456 196.617 51.3555V47.7312C196.617 47.6411 196.653 47.5546 196.717 47.4909C196.781 47.4272 196.868 47.3914 196.958 47.3914C197.049 47.3914 197.135 47.4272 197.199 47.4909C197.263 47.5546 197.299 47.6411 197.299 47.7312V51.3555C197.299 51.4445 197.265 51.5301 197.203 51.5943C197.141 51.6585 197.056 51.6963 196.967 51.6998L196.958 51.6953ZM196.958 44.4466C196.868 44.4466 196.781 44.4108 196.717 44.3471C196.653 44.2834 196.617 44.1969 196.617 44.1068V40.4825C196.617 40.3924 196.653 40.3059 196.717 40.2422C196.781 40.1785 196.868 40.1427 196.958 40.1427C197.049 40.1427 197.135 40.1785 197.199 40.2422C197.263 40.3059 197.299 40.3924 197.299 40.4825V44.1068C197.299 44.1958 197.265 44.2814 197.203 44.3456C197.141 44.4098 197.056 44.4476 196.967 44.4511L196.958 44.4466ZM196.958 37.1979C196.868 37.1979 196.781 37.1621 196.717 37.0984C196.653 37.0347 196.617 36.9482 196.617 36.8581V35.8071C196.617 35.717 196.653 35.6305 196.717 35.5668C196.781 35.5031 196.868 35.4673 196.958 35.4673C197.049 35.4673 197.135 35.5031 197.199 35.5668C197.263 35.6305 197.299 35.717 197.299 35.8071V36.8853C197.293 36.9695 197.255 37.0484 197.194 37.1069C197.133 37.1654 197.052 37.1994 196.967 37.2024L196.958 37.1979Z" fill="#24071D"/>
<path d="M28.0594 50.9119H0.5V80.328H28.0594V50.9119Z" fill="#FBE1CA"/>
<path d="M192.243 159.977H188.604C188.514 159.977 188.427 159.941 188.363 159.878C188.299 159.814 188.263 159.728 188.263 159.637C188.263 159.547 188.299 159.461 188.363 159.397C188.427 159.334 188.514 159.298 188.604 159.298H192.243C192.333 159.298 192.42 159.334 192.484 159.397C192.548 159.461 192.584 159.547 192.584 159.637C192.584 159.728 192.548 159.814 192.484 159.878C192.42 159.941 192.333 159.977 192.243 159.977ZM184.966 159.977H181.328C181.238 159.977 181.151 159.941 181.087 159.878C181.023 159.814 180.987 159.728 180.987 159.637C180.987 159.547 181.023 159.461 181.087 159.397C181.151 159.334 181.238 159.298 181.328 159.298H184.966C185.057 159.298 185.143 159.334 185.207 159.397C185.271 159.461 185.307 159.547 185.307 159.637C185.307 159.728 185.271 159.814 185.207 159.878C185.143 159.941 185.057 159.977 184.966 159.977ZM177.69 159.977H174.052C173.961 159.977 173.874 159.941 173.81 159.878C173.746 159.814 173.711 159.728 173.711 159.637C173.711 159.547 173.746 159.461 173.81 159.397C173.874 159.334 173.961 159.298 174.052 159.298H177.69C177.78 159.298 177.867 159.334 177.931 159.397C177.995 159.461 178.031 159.547 178.031 159.637C178.031 159.728 177.995 159.814 177.931 159.878C177.867 159.941 177.78 159.977 177.69 159.977ZM170.413 159.977H166.775C166.685 159.977 166.598 159.941 166.534 159.878C166.47 159.814 166.434 159.728 166.434 159.637C166.434 159.547 166.47 159.461 166.534 159.397C166.598 159.334 166.685 159.298 166.775 159.298H170.413C170.504 159.298 170.591 159.334 170.655 159.397C170.719 159.461 170.754 159.547 170.754 159.637C170.754 159.728 170.719 159.814 170.655 159.878C170.591 159.941 170.504 159.977 170.413 159.977ZM163.137 159.977H159.499C159.408 159.977 159.322 159.941 159.258 159.878C159.194 159.814 159.158 159.728 159.158 159.637C159.158 159.547 159.194 159.461 159.258 159.397C159.322 159.334 159.408 159.298 159.499 159.298H163.137C163.227 159.298 163.314 159.334 163.378 159.397C163.442 159.461 163.478 159.547 163.478 159.637C163.478 159.728 163.442 159.814 163.378 159.878C163.314 159.941 163.227 159.977 163.137 159.977ZM155.861 159.977H152.222C152.132 159.977 152.045 159.941 151.981 159.878C151.917 159.814 151.881 159.728 151.881 159.637C151.881 159.547 151.917 159.461 151.981 159.397C152.045 159.334 152.132 159.298 152.222 159.298H155.861C155.951 159.298 156.038 159.334 156.102 159.397C156.166 159.461 156.202 159.547 156.202 159.637C156.202 159.728 156.166 159.814 156.102 159.878C156.038 159.941 155.951 159.977 155.861 159.977ZM148.584 159.977H144.946C144.856 159.977 144.769 159.941 144.705 159.878C144.641 159.814 144.605 159.728 144.605 159.637C144.605 159.547 144.641 159.461 144.705 159.397C144.769 159.334 144.856 159.298 144.946 159.298H148.584C148.675 159.298 148.761 159.334 148.825 159.397C148.889 159.461 148.925 159.547 148.925 159.637C148.925 159.728 148.889 159.814 148.825 159.878C148.761 159.941 148.675 159.977 148.584 159.977ZM141.308 159.977H137.67C137.579 159.977 137.492 159.941 137.428 159.878C137.364 159.814 137.328 159.728 137.328 159.637C137.328 159.547 137.364 159.461 137.428 159.397C137.492 159.334 137.579 159.298 137.67 159.298H141.308C141.398 159.298 141.485 159.334 141.549 159.397C141.613 159.461 141.649 159.547 141.649 159.637C141.649 159.728 141.613 159.814 141.549 159.878C141.485 159.941 141.398 159.977 141.308 159.977ZM134.031 159.977H130.393C130.303 159.977 130.216 159.941 130.152 159.878C130.088 159.814 130.052 159.728 130.052 159.637C130.052 159.547 130.088 159.461 130.152 159.397C130.216 159.334 130.303 159.298 130.393 159.298H134.031C134.122 159.298 134.209 159.334 134.273 159.397C134.336 159.461 134.372 159.547 134.372 159.637C134.372 159.728 134.336 159.814 134.273 159.878C134.209 159.941 134.122 159.977 134.031 159.977ZM126.755 159.977H123.117C123.026 159.977 122.94 159.941 122.876 159.878C122.812 159.814 122.776 159.728 122.776 159.637C122.776 159.547 122.812 159.461 122.876 159.397C122.94 159.334 123.026 159.298 123.117 159.298H126.755C126.845 159.298 126.932 159.334 126.996 159.397C127.06 159.461 127.096 159.547 127.096 159.637C127.096 159.728 127.06 159.814 126.996 159.878C126.932 159.941 126.845 159.977 126.755 159.977ZM119.479 159.977H115.84C115.75 159.977 115.663 159.941 115.599 159.878C115.535 159.814 115.499 159.728 115.499 159.637C115.499 159.547 115.535 159.461 115.599 159.397C115.663 159.334 115.75 159.298 115.84 159.298H119.479C119.569 159.298 119.656 159.334 119.72 159.397C119.784 159.461 119.82 159.547 119.82 159.637C119.82 159.728 119.784 159.814 119.72 159.878C119.656 159.941 119.569 159.977 119.479 159.977ZM112.202 159.977H111.747C111.661 159.976 111.578 159.943 111.515 159.885C111.452 159.826 111.413 159.746 111.406 159.66V156.489C111.406 156.399 111.442 156.312 111.506 156.249C111.57 156.185 111.657 156.149 111.747 156.149C111.838 156.149 111.925 156.185 111.989 156.249C112.052 156.312 112.088 156.399 112.088 156.489V159.32H112.207C112.297 159.32 112.384 159.356 112.448 159.42C112.512 159.484 112.548 159.57 112.548 159.66C112.548 159.75 112.512 159.837 112.448 159.9C112.384 159.964 112.297 160 112.207 160L112.202 159.977ZM193.548 157.653C193.457 157.653 193.371 157.617 193.307 157.554C193.243 157.49 193.207 157.403 193.207 157.313V153.689C193.207 153.599 193.243 153.512 193.307 153.449C193.371 153.385 193.457 153.349 193.548 153.349C193.638 153.349 193.725 153.385 193.789 153.449C193.853 153.512 193.889 153.599 193.889 153.689V157.313C193.888 157.403 193.851 157.489 193.788 157.552C193.724 157.616 193.638 157.652 193.548 157.653ZM111.743 153.182C111.657 153.18 111.575 153.146 111.513 153.088C111.451 153.029 111.413 152.949 111.406 152.864V149.24C111.406 149.15 111.442 149.064 111.506 149C111.57 148.936 111.657 148.9 111.747 148.9C111.838 148.9 111.925 148.936 111.989 149C112.052 149.064 112.088 149.15 112.088 149.24V152.864C112.083 152.951 112.043 153.033 111.979 153.092C111.915 153.151 111.83 153.183 111.743 153.182ZM193.548 150.404C193.457 150.404 193.371 150.369 193.307 150.305C193.243 150.241 193.207 150.155 193.207 150.065V146.44C193.207 146.35 193.243 146.264 193.307 146.2C193.371 146.136 193.457 146.101 193.548 146.101C193.638 146.101 193.725 146.136 193.789 146.2C193.853 146.264 193.889 146.35 193.889 146.44V150.065C193.888 150.154 193.851 150.24 193.788 150.304C193.724 150.367 193.638 150.403 193.548 150.404ZM193.548 143.156C193.457 143.156 193.371 143.12 193.307 143.056C193.243 142.993 193.207 142.906 193.207 142.816V139.192C193.207 139.102 193.243 139.015 193.307 138.951C193.371 138.888 193.457 138.852 193.548 138.852C193.638 138.852 193.725 138.888 193.789 138.951C193.853 139.015 193.889 139.102 193.889 139.192V142.816C193.888 142.906 193.851 142.991 193.788 143.055C193.724 143.118 193.638 143.155 193.548 143.156ZM193.548 135.907C193.457 135.907 193.371 135.871 193.307 135.808C193.243 135.744 193.207 135.657 193.207 135.567V131.943C193.207 131.853 193.243 131.766 193.307 131.703C193.371 131.639 193.457 131.603 193.548 131.603C193.638 131.603 193.725 131.639 193.789 131.703C193.853 131.766 193.889 131.853 193.889 131.943V135.567C193.888 135.657 193.851 135.743 193.788 135.806C193.724 135.87 193.638 135.906 193.548 135.907ZM193.548 128.658C193.457 128.658 193.371 128.623 193.307 128.559C193.243 128.495 193.207 128.409 193.207 128.319V124.694C193.207 124.604 193.243 124.518 193.307 124.454C193.371 124.39 193.457 124.354 193.548 124.354C193.638 124.354 193.725 124.39 193.789 124.454C193.853 124.518 193.889 124.604 193.889 124.694V128.319C193.888 128.408 193.851 128.494 193.788 128.558C193.724 128.621 193.638 128.657 193.548 128.658ZM193.548 121.41C193.457 121.41 193.371 121.374 193.307 121.31C193.243 121.246 193.207 121.16 193.207 121.07V117.446C193.207 117.355 193.243 117.269 193.307 117.205C193.371 117.142 193.457 117.106 193.548 117.106C193.638 117.106 193.725 117.142 193.789 117.205C193.853 117.269 193.889 117.355 193.889 117.446V121.07C193.888 121.16 193.851 121.245 193.788 121.309C193.724 121.372 193.638 121.408 193.548 121.41ZM193.548 114.161C193.457 114.161 193.371 114.125 193.307 114.061C193.243 113.998 193.207 113.911 193.207 113.821V111.601C193.207 111.511 193.243 111.425 193.307 111.361C193.371 111.297 193.457 111.261 193.548 111.261C193.638 111.261 193.725 111.297 193.789 111.361C193.853 111.425 193.889 111.511 193.889 111.601V113.821C193.888 113.911 193.851 113.997 193.788 114.06C193.724 114.124 193.638 114.16 193.548 114.161Z" fill="#24071D"/>
<path d="M76.7853 104.208H17.2188V154.573H31.003" fill="white"/>
<path d="M31.0013 154.912H16.876V103.868H76.7836V104.547H17.5581V154.233H31.0013V154.912Z" fill="#24071D"/>
<path d="M175.594 99.8814L154.647 145.05L153.797 146.862C153.471 147.56 152.952 148.15 152.301 148.564C151.651 148.979 150.894 149.199 150.122 149.2H36.5509C36.2079 149.199 35.8706 149.112 35.57 148.947C35.2695 148.782 35.0154 148.544 34.8311 148.256C34.6468 147.968 34.5382 147.638 34.5153 147.297C34.4924 146.956 34.5559 146.615 34.7 146.305L35.2048 145.217L56.5793 99.3015L169.323 96.8641L173.543 96.7735C173.605 96.7689 173.667 96.7689 173.729 96.7735C174.277 96.802 174.792 97.0407 175.167 97.4395C175.48 97.754 175.689 98.1568 175.766 98.5935C175.842 99.0301 175.782 99.4797 175.594 99.8814Z" fill="white"/>
<path d="M150.121 149.557H36.5495C36.149 149.557 35.7551 149.457 35.404 149.265C35.0529 149.073 34.7559 148.796 34.5407 148.46C34.3254 148.123 34.1987 147.738 34.1722 147.34C34.1457 146.942 34.2204 146.544 34.3893 146.182L34.8941 145.095L56.3777 98.984H56.5915L173.555 96.4606C173.637 96.4532 173.719 96.4532 173.801 96.4606C174.424 96.4995 175.008 96.7752 175.433 97.2308C175.783 97.5959 176.014 98.0579 176.095 98.556C176.176 99.0541 176.104 99.5649 175.888 100.022L154.104 147.025C153.75 147.78 153.188 148.42 152.482 148.868C151.777 149.317 150.958 149.556 150.121 149.557ZM56.8325 99.6545L35.0033 146.468C34.8824 146.726 34.8289 147.01 34.8477 147.294C34.8664 147.579 34.9568 147.854 35.1105 148.094C35.2642 148.334 35.4762 148.532 35.7269 148.669C35.9776 148.806 36.259 148.878 36.5449 148.878H150.121C150.827 148.876 151.519 148.674 152.115 148.296C152.711 147.917 153.187 147.377 153.486 146.739L154.336 144.927L175.283 99.7588C175.441 99.4239 175.492 99.0492 175.429 98.6847C175.366 98.3203 175.193 97.9837 174.933 97.7201C174.616 97.3771 174.177 97.1693 173.71 97.1402C173.633 97.1402 173.587 97.1402 173.542 97.1402L56.8325 99.6545Z" fill="#24071D"/>
<path d="M35.518 59.0576H11.1602V86.3943H35.518V59.0576Z" fill="white"/>
<path d="M35.8629 86.7202H10.8184V58.7175H35.8629V86.7202ZM11.5005 86.0406H35.1807V59.3971H11.5005V86.0406Z" fill="#24071D"/>
<path d="M35.2609 58.8251L10.9102 86.1667L11.4204 86.6178L35.7712 59.2761L35.2609 58.8251Z" fill="#24071D"/>
<path d="M11.4222 58.823L10.9121 59.2742L35.2724 86.6074L35.7826 86.1562L11.4222 58.823Z" fill="#24071D"/>
<path d="M213.176 64.2947H189.664V87.7986H213.176V64.2947Z" fill="#FBE1CA"/>
<path d="M212.85 63.9685L189.34 87.4791L189.984 88.1186L213.494 64.6079L212.85 63.9685Z" fill="white"/>
<path d="M189.986 63.9771L189.342 64.6167L212.856 88.1233L213.5 87.4837L189.986 63.9771Z" fill="white"/>
<path d="M174.056 18.2608V95.3734C174.058 95.6681 174.015 95.9613 173.929 96.2432C173.739 96.9053 173.339 97.488 172.787 97.9032C172.236 98.3184 171.564 98.5435 170.873 98.5447H57.6336C56.7893 98.5447 55.9796 98.2105 55.3826 97.6158C54.7856 97.0211 54.4502 96.2144 54.4502 95.3734V18.2608C54.4502 17.4197 54.7856 16.6131 55.3826 16.0183C55.9796 15.4236 56.7893 15.0895 57.6336 15.0895H170.873C171.27 15.0883 171.664 15.1636 172.032 15.3115C172.628 15.5436 173.14 15.9492 173.501 16.4752C173.862 17.0013 174.055 17.6236 174.056 18.2608Z" fill="#8E3385"/>
<path d="M170.873 98.8846H57.6339C56.6991 98.8846 55.8027 98.5147 55.1417 97.8562C54.4807 97.1978 54.1094 96.3047 54.1094 95.3735V18.261C54.1106 17.3301 54.4823 16.4378 55.143 15.7796C55.8037 15.1214 56.6995 14.7511 57.6339 14.7499H170.873C171.314 14.7498 171.751 14.8344 172.16 14.9991C172.821 15.2532 173.388 15.7011 173.788 16.2835C174.187 16.866 174.4 17.5555 174.398 18.261V95.3735C174.399 95.7037 174.35 96.0322 174.252 96.3476C174.04 97.0778 173.597 97.7199 172.987 98.1774C172.378 98.6349 171.636 98.8831 170.873 98.8846ZM57.6339 15.4294C56.8804 15.4306 56.1582 15.7293 55.6254 16.2601C55.0926 16.7909 54.7927 17.5104 54.7915 18.261V95.3735C54.7915 96.1245 55.091 96.8447 55.624 97.3757C56.1571 97.9067 56.88 98.2051 57.6339 98.2051H170.873C171.49 98.2035 172.089 98.0025 172.581 97.6324C173.073 97.2623 173.431 96.7431 173.602 96.1528C173.677 95.8999 173.716 95.6374 173.715 95.3735V18.261C173.717 17.69 173.543 17.1323 173.218 16.662C172.893 16.1918 172.432 15.8314 171.896 15.6288C171.567 15.4971 171.215 15.4295 170.859 15.4294H57.6339Z" fill="#24071D"/>
<path d="M61.4129 18.4241H167.103C167.947 18.4241 168.757 18.7582 169.354 19.3529C169.951 19.9477 170.286 20.7543 170.286 21.5954V90.5803H58.2295V21.5954C58.2295 20.7543 58.5649 19.9477 59.1619 19.3529C59.7589 18.7582 60.5686 18.4241 61.4129 18.4241Z" fill="white"/>
<path d="M170.628 90.92H57.8887V21.6043C57.8899 20.6735 58.2616 19.7812 58.9223 19.123C59.583 18.4648 60.4788 18.0945 61.4132 18.0933H167.103C168.038 18.0933 168.934 18.4632 169.595 19.1216C170.256 19.7801 170.628 20.6732 170.628 21.6043V90.92ZM58.5708 90.2404H169.945V21.5953C169.945 20.8443 169.646 20.1241 169.113 19.5931C168.58 19.0621 167.857 18.7638 167.103 18.7638H61.4132C60.6597 18.765 59.9374 19.0637 59.4047 19.5944C58.8719 20.1252 58.572 20.8447 58.5708 21.5953V90.2404Z" fill="#24071D"/>
<path d="M172.442 96.2797H173.833L173.747 96.7916L151.854 143.804C151.528 144.502 151.01 145.092 150.359 145.506C149.708 145.921 148.952 146.141 148.179 146.142H37.7326C36.8039 146.143 35.9037 145.823 35.1858 145.236C34.4878 144.665 34.0012 143.879 33.8034 143.001C33.6056 142.124 33.708 141.205 34.0944 140.393L54.6548 96.2344L172.442 96.2797Z" fill="#8E3385"/>
<path d="M148.179 146.468H37.7326C36.7263 146.476 35.7485 146.135 34.9676 145.503C34.2068 144.887 33.6738 144.037 33.453 143.086C33.2323 142.135 33.3363 141.137 33.7488 140.252L54.4184 95.8899L174.215 95.9533L174.038 96.9455L152.163 143.935C151.809 144.691 151.246 145.33 150.541 145.778C149.835 146.227 149.016 146.466 148.179 146.468ZM54.8731 96.5695L34.4082 140.537C34.0596 141.286 33.9718 142.128 34.1589 142.932C34.3459 143.735 34.797 144.454 35.4406 144.973C36.0988 145.507 36.9242 145.796 37.7736 145.788H148.179C148.886 145.787 149.578 145.585 150.174 145.206C150.77 144.827 151.245 144.288 151.545 143.65L173.415 96.6873V96.6148H172.428L54.8731 96.5695Z" fill="#24071D"/>
<path d="M148.853 123.276H56.2107C54.4234 123.276 53.2637 121.233 54.0732 119.507L62.573 101.385C62.7558 100.969 63.0548 100.613 63.4345 100.361C63.8143 100.109 64.2587 99.9708 64.715 99.9629H157.339C159.131 99.9629 160.291 102.006 159.481 103.732L150.981 121.854C150.799 122.268 150.502 122.622 150.125 122.874C149.748 123.126 149.307 123.265 148.853 123.276Z" fill="#E3803A"/>
<path d="M72.789 98.8055L57.2793 127.585L57.8803 127.906L73.3901 99.127L72.789 98.8055Z" fill="#FDAF4E"/>
<path d="M85.6904 98.8031L70.1807 127.582L70.7817 127.904L86.2915 99.1246L85.6904 98.8031Z" fill="#FDAF4E"/>
<path d="M98.585 98.8047L83.0752 127.584L83.6762 127.905L99.186 99.1262L98.585 98.8047Z" fill="#FDAF4E"/>
<path d="M111.484 98.8063L95.9746 127.585L96.5756 127.907L112.085 99.1277L111.484 98.8063Z" fill="#FDAF4E"/>
<path d="M124.382 98.8035L108.872 127.583L109.473 127.904L124.983 99.125L124.382 98.8035Z" fill="#FDAF4E"/>
<path d="M137.282 98.8049L121.772 127.584L122.373 127.906L137.883 99.1264L137.282 98.8049Z" fill="#FDAF4E"/>
<path d="M150.176 98.8019L134.666 127.581L135.267 127.902L150.777 99.1233L150.176 98.8019Z" fill="#FDAF4E"/>
<path d="M110.519 142.966H78.7852C78.3894 142.966 77.9998 142.867 77.6522 142.679C77.3045 142.49 77.0099 142.218 76.7954 141.887C76.5809 141.555 76.4533 141.175 76.4243 140.782C76.3953 140.389 76.4659 139.995 76.6296 139.636L81.9186 127.997C82.1066 127.585 82.4099 127.235 82.7922 126.99C83.1745 126.745 83.6196 126.615 84.0742 126.615H115.808C116.204 126.615 116.594 126.713 116.942 126.902C117.289 127.09 117.584 127.363 117.798 127.694C118.013 128.026 118.14 128.405 118.169 128.799C118.198 129.192 118.128 129.586 117.964 129.945L112.675 141.579C112.488 141.993 112.185 142.344 111.803 142.59C111.42 142.836 110.975 142.966 110.519 142.966Z" fill="#DF8943"/>
<path d="M163.972 104.648L53.9258 104.782L53.9266 105.461L163.973 105.327L163.972 104.648Z" fill="#FDAF4E"/>
<path d="M161.535 111.07L55.54 111.199L55.5409 111.879L161.535 111.75L161.535 111.07Z" fill="#FDAF4E"/>
<path d="M157.617 117.486L47.5703 117.62L47.5711 118.3L157.618 118.166L157.617 117.486Z" fill="#FDAF4E"/>
<path d="M164.346 25.1969H64.9502V85.275H164.346V25.1969Z" fill="#FBE1CA"/>
<path d="M77.3623 27.4031H67.5527V31.3989H77.3623V27.4031Z" fill="#E3803A"/>
<path d="M135.486 40.2559H90.5358C89.4131 40.2559 88.5029 41.1625 88.5029 42.281C88.5029 43.3994 89.4131 44.3061 90.5358 44.3061H135.486C136.609 44.3061 137.519 43.3994 137.519 42.281C137.519 41.1625 136.609 40.2559 135.486 40.2559Z" fill="#DF8943"/>
<path d="M129.702 46.9204H96.3219C95.1992 46.9204 94.2891 47.8271 94.2891 48.9455C94.2891 50.0639 95.1992 50.9706 96.3219 50.9706H129.702C130.825 50.9706 131.735 50.0639 131.735 48.9455C131.735 47.8271 130.825 46.9204 129.702 46.9204Z" fill="#DF8943"/>
<path d="M118.133 53.5798H107.891C106.769 53.5798 105.858 54.4865 105.858 55.6049C105.858 56.7234 106.769 57.63 107.891 57.63H118.133C119.256 57.63 120.166 56.7234 120.166 55.6049C120.166 54.4865 119.256 53.5798 118.133 53.5798Z" fill="#E0554B"/>
<path d="M202.871 109.051H183.257C181.499 109.051 180.073 110.471 180.073 112.222V128.065C180.073 129.817 181.499 131.236 183.257 131.236H202.871C204.629 131.236 206.055 129.817 206.055 128.065V112.222C206.055 110.471 204.629 109.051 202.871 109.051Z" fill="#E0554B"/>
<path d="M202.871 131.572H183.261C182.326 131.572 181.43 131.202 180.769 130.543C180.108 129.885 179.736 128.992 179.736 128.06V112.204C179.736 111.273 180.108 110.38 180.769 109.721C181.43 109.063 182.326 108.693 183.261 108.693H202.875C203.81 108.694 204.705 109.064 205.366 109.723C206.027 110.381 206.399 111.273 206.4 112.204V128.06C206.399 128.992 206.026 129.885 205.365 130.543C204.703 131.202 203.806 131.572 202.871 131.572ZM183.261 109.372C182.507 109.372 181.784 109.671 181.251 110.202C180.718 110.733 180.418 111.453 180.418 112.204V128.06C180.418 128.811 180.718 129.532 181.251 130.063C181.784 130.594 182.507 130.892 183.261 130.892H202.875C203.629 130.891 204.351 130.592 204.884 130.061C205.417 129.531 205.716 128.811 205.718 128.06V112.204C205.716 111.453 205.417 110.734 204.884 110.203C204.351 109.672 203.629 109.374 202.875 109.372H183.261Z" fill="#24071D"/>
<path d="M181.183 123.748L183.625 121.768C184.112 121.373 184.713 121.146 185.34 121.12C185.967 121.094 186.586 121.27 187.104 121.623L188.218 122.375C188.784 122.76 189.468 122.935 190.151 122.867C190.833 122.799 191.469 122.493 191.947 122.003L196.04 117.817C196.544 117.3 197.222 116.989 197.943 116.943C198.664 116.897 199.377 117.12 199.942 117.568L204.945 121.541C205.288 121.812 205.566 122.156 205.757 122.548C205.948 122.94 206.048 123.37 206.05 123.806V128.337C206.05 128.718 205.974 129.095 205.828 129.447C205.681 129.8 205.467 130.119 205.196 130.389C204.925 130.658 204.604 130.871 204.25 131.017C203.896 131.162 203.517 131.237 203.135 131.236H183.006C182.622 131.237 182.241 131.162 181.887 131.015C181.532 130.868 181.21 130.652 180.939 130.38C180.668 130.109 180.454 129.786 180.31 129.431C180.165 129.077 180.092 128.697 180.096 128.314V125.981C180.101 125.552 180.201 125.129 180.389 124.743C180.576 124.357 180.848 124.017 181.183 123.748Z" fill="white"/>
<path d="M203.14 131.572H183.007C182.578 131.572 182.153 131.488 181.756 131.324C181.36 131.16 181 130.92 180.698 130.616C180.396 130.313 180.157 129.953 179.995 129.557C179.833 129.161 179.751 128.737 179.755 128.31V125.977C179.759 125.499 179.868 125.028 180.076 124.597C180.283 124.166 180.584 123.787 180.956 123.485L183.398 121.505C183.943 121.068 184.615 120.816 185.315 120.787C186.015 120.757 186.705 120.952 187.286 121.342L188.396 122.099C188.896 122.439 189.501 122.592 190.104 122.531C190.706 122.469 191.268 122.198 191.688 121.763L195.781 117.582C196.342 117.003 197.099 116.653 197.905 116.601C198.711 116.55 199.507 116.799 200.138 117.301L205.141 121.274C205.525 121.577 205.836 121.962 206.049 122.402C206.263 122.841 206.373 123.323 206.373 123.811V128.342C206.369 129.196 206.028 130.014 205.423 130.619C204.817 131.223 203.997 131.566 203.14 131.572ZM185.467 121.46C184.875 121.46 184.3 121.661 183.839 122.031L181.401 124.01C181.108 124.25 180.87 124.55 180.706 124.89C180.542 125.231 180.455 125.603 180.451 125.981V128.314C180.448 128.652 180.513 128.987 180.641 129.3C180.769 129.612 180.958 129.896 181.197 130.136C181.436 130.376 181.72 130.566 182.033 130.696C182.346 130.825 182.681 130.892 183.02 130.892H203.153C203.835 130.892 204.489 130.623 204.972 130.143C205.454 129.663 205.726 129.012 205.727 128.333V123.802C205.728 123.417 205.641 123.036 205.473 122.689C205.304 122.342 205.058 122.038 204.754 121.8L199.729 117.826C199.231 117.429 198.602 117.231 197.965 117.271C197.328 117.311 196.73 117.587 196.286 118.044L192.193 122.23C191.66 122.779 190.949 123.122 190.187 123.198C189.424 123.274 188.659 123.079 188.027 122.647L186.9 121.904C186.478 121.616 185.978 121.461 185.467 121.46Z" fill="#24071D"/>
<path d="M185.099 117.894C186.626 117.894 187.864 116.661 187.864 115.14C187.864 113.618 186.626 112.385 185.099 112.385C183.572 112.385 182.334 113.618 182.334 115.14C182.334 116.661 183.572 117.894 185.099 117.894Z" fill="white"/>
<path d="M185.08 118.234C184.465 118.234 183.865 118.052 183.354 117.712C182.843 117.372 182.445 116.889 182.21 116.324C181.975 115.758 181.913 115.136 182.033 114.536C182.153 113.936 182.449 113.384 182.883 112.952C183.318 112.519 183.871 112.224 184.474 112.105C185.076 111.985 185.701 112.047 186.268 112.281C186.836 112.515 187.321 112.912 187.662 113.421C188.004 113.929 188.186 114.528 188.186 115.14C188.186 115.96 187.859 116.747 187.276 117.328C186.694 117.908 185.904 118.234 185.08 118.234ZM185.08 112.725C184.6 112.725 184.132 112.867 183.733 113.132C183.334 113.397 183.024 113.774 182.84 114.216C182.657 114.657 182.609 115.142 182.702 115.611C182.796 116.079 183.027 116.509 183.366 116.847C183.705 117.185 184.137 117.415 184.607 117.508C185.077 117.601 185.564 117.553 186.007 117.371C186.45 117.188 186.829 116.878 187.095 116.481C187.362 116.084 187.504 115.617 187.504 115.14C187.504 114.499 187.248 113.885 186.794 113.432C186.339 112.979 185.723 112.725 185.08 112.725Z" fill="#24071D"/>
<path d="M149.42 63.4294H78.4344C76.6762 63.4294 75.251 64.8493 75.251 66.6007V76.3729C75.251 78.1244 76.6762 79.5442 78.4344 79.5442H149.42C151.179 79.5442 152.604 78.1244 152.604 76.3729V66.6007C152.604 64.8493 151.179 63.4294 149.42 63.4294Z" fill="#DF8943"/>
<path d="M58.6517 35.6395L53.5582 30.7331H18.4495C18.0374 30.7331 17.6294 30.6522 17.2486 30.4951C16.8679 30.338 16.522 30.1078 16.2306 29.8175C15.9392 29.5272 15.7081 29.1826 15.5504 28.8034C15.3927 28.4241 15.3115 28.0176 15.3115 27.6071V6.47261C15.3115 5.69599 15.6209 4.95112 16.1717 4.40154C16.7225 3.85196 17.4698 3.54261 18.2494 3.54141H55.6956C56.0832 3.53962 56.4672 3.61412 56.8258 3.76062C57.1844 3.90713 57.5104 4.12275 57.785 4.39512C58.0597 4.66748 58.2777 4.99122 58.4264 5.34774C58.5751 5.70426 58.6517 6.08653 58.6517 6.47261V35.6395Z" fill="#E0554B"/>
<path d="M58.6516 35.9795C58.5627 35.9787 58.4777 35.9429 58.4152 35.8798L53.4126 31.073H18.4495C17.5311 31.0659 16.6527 30.6977 16.0054 30.0486C15.3581 29.3996 14.9943 28.5222 14.9932 27.6072V6.47276C14.9944 5.60639 15.3401 4.77579 15.9546 4.16275C16.5691 3.54971 17.4024 3.20418 18.2721 3.20178H55.6956C56.5653 3.20418 57.3986 3.54971 58.0131 4.16275C58.6276 4.77579 58.9733 5.60639 58.9745 6.47276V35.6397C58.9744 35.7065 58.9545 35.7718 58.9173 35.8274C58.88 35.883 58.8272 35.9265 58.7653 35.9523C58.7294 35.9681 58.6909 35.9773 58.6516 35.9795ZM18.2494 3.88135C17.5602 3.88255 16.8997 4.1561 16.4129 4.64195C15.926 5.12781 15.6526 5.78626 15.6526 6.47276V27.6072C15.6538 28.3458 15.9488 29.0538 16.4731 29.5761C16.9974 30.0983 17.7081 30.3923 18.4495 30.3935H53.54C53.5837 30.393 53.6272 30.4012 53.6677 30.4175C53.7083 30.4338 53.7453 30.458 53.7764 30.4886L58.2924 34.8378V6.47276C58.2924 5.78626 58.0189 5.12781 57.5321 4.64195C57.0452 4.1561 56.3847 3.88255 55.6956 3.88135H18.2494Z" fill="#24071D"/>
<path d="M60.9258 3.63665C60.8673 3.6366 60.8098 3.62157 60.7589 3.59301C60.7079 3.56445 60.6652 3.52331 60.6347 3.47355C60.1514 2.62569 59.451 1.92069 58.6049 1.43044C57.7589 0.940178 56.7974 0.682196 55.8187 0.682799C55.7739 0.686369 55.7288 0.681116 55.6861 0.667338C55.6433 0.653561 55.6037 0.63153 55.5695 0.602502C55.5353 0.573475 55.5072 0.538017 55.4867 0.498159C55.4663 0.458301 55.4539 0.414822 55.4503 0.370201C55.4467 0.32558 55.452 0.280693 55.4658 0.238103C55.4797 0.195512 55.5018 0.156052 55.5309 0.121976C55.5898 0.0531568 55.6736 0.0104426 55.7641 0.00323335C55.9005 0.00323335 59.1431 -0.223287 61.2214 3.11565C61.2642 3.19133 61.2762 3.28045 61.2551 3.36471C61.2339 3.44896 61.1812 3.52195 61.1077 3.56869C61.0545 3.60755 60.9916 3.63107 60.9258 3.63665Z" fill="#24071D"/>
<path d="M31.5432 23.693C31.4269 23.6953 31.3116 23.6705 31.2067 23.6205L23.6801 19.7289C23.4262 19.5784 23.2184 19.3617 23.0789 19.1023C22.9395 18.8428 22.8738 18.5504 22.8888 18.2565C22.8831 17.974 22.9535 17.6951 23.0927 17.4489C23.2319 17.2027 23.4347 16.9982 23.6801 16.8566L31.2067 12.9423C31.3116 12.8923 31.4269 12.8675 31.5432 12.8698C31.7968 12.8928 32.0309 13.0148 32.1945 13.2092C32.3581 13.4036 32.4379 13.6545 32.4164 13.9072C32.4241 14.0964 32.3798 14.2841 32.2885 14.4501C32.1972 14.6162 32.0621 14.7542 31.8979 14.8496L24.908 18.3108L31.8979 21.7404C32.0639 21.8338 32.2003 21.9715 32.2919 22.138C32.3835 22.3044 32.4266 22.4931 32.4164 22.6827C32.4328 22.9315 32.3504 23.1767 32.1871 23.3657C32.0238 23.5546 31.7926 23.6722 31.5432 23.693Z" fill="white"/>
<path d="M39.4008 10.9852L35.0031 26.28C34.9559 26.4853 34.8403 26.6687 34.6752 26.8003C34.51 26.9319 34.305 27.004 34.0936 27.0048C33.8381 26.9897 33.5991 26.8744 33.4287 26.6843C33.2583 26.4941 33.1703 26.2446 33.184 25.99C33.1853 25.8739 33.2068 25.759 33.2477 25.6502L37.6499 10.3555C37.6979 10.1505 37.8137 9.96757 37.9786 9.83609C38.1436 9.70461 38.3482 9.63224 38.5595 9.63062C38.6882 9.63864 38.814 9.67208 38.9297 9.72898C39.0453 9.78588 39.1484 9.86511 39.2331 9.96206C39.3177 10.059 39.3821 10.1718 39.4226 10.2937C39.4631 10.4157 39.4789 10.5445 39.469 10.6726C39.4554 10.7786 39.4326 10.8832 39.4008 10.9852Z" fill="white"/>
<path d="M48.97 19.7286L41.4435 23.6202C41.3393 23.6679 41.2261 23.6926 41.1115 23.6927C40.8609 23.6719 40.6285 23.5539 40.4644 23.3641C40.3002 23.1743 40.2174 22.9279 40.2338 22.6779C40.2234 22.4878 40.267 22.2986 40.3595 22.1319C40.4519 21.9653 40.5896 21.8279 40.7568 21.7356L47.7376 18.3105L40.7522 14.8538C40.582 14.7635 40.441 14.6271 40.3452 14.4604C40.2495 14.2937 40.203 14.1034 40.211 13.9115C40.1992 13.7832 40.2137 13.6539 40.2535 13.5314C40.2933 13.4089 40.3577 13.2957 40.4427 13.1987C40.5278 13.1017 40.6317 13.0229 40.7482 12.9671C40.8647 12.9113 40.9914 12.8796 41.1206 12.874C41.2352 12.8741 41.3484 12.8988 41.4526 12.9465L48.9791 16.8608C49.2254 17.0018 49.4291 17.2061 49.5691 17.4524C49.7091 17.6986 49.7802 17.9778 49.775 18.2607C49.7878 18.5552 49.7196 18.8476 49.5778 19.1064C49.4359 19.3651 49.2257 19.5802 48.97 19.7286Z" fill="white"/>
<path d="M27.6953 121.238L23.1157 131.467C22.9628 131.807 22.7231 132.101 22.4207 132.319C22.1183 132.538 21.7636 132.674 21.3921 132.713L10.2137 133.873C9.84144 133.913 9.46522 133.854 9.12332 133.702C8.78142 133.55 8.48604 133.31 8.26725 133.008L1.66391 123.947C1.4454 123.644 1.31029 123.289 1.27199 122.918C1.2337 122.547 1.29355 122.172 1.44562 121.831L6.02975 111.606C6.18191 111.266 6.42132 110.972 6.72389 110.753C7.02647 110.534 7.38153 110.399 7.75335 110.36L18.9317 109.2C19.304 109.16 19.6802 109.22 20.0221 109.371C20.364 109.523 20.6594 109.763 20.8782 110.066L27.477 119.127C27.6968 119.428 27.8327 119.782 27.8711 120.153C27.9094 120.524 27.8488 120.898 27.6953 121.238Z" fill="white"/>
<path d="M20.1557 109.069L14.4801 121.405L0.941406 122.946L6.5306 110.483L20.1557 109.069Z" fill="#E0554B"/>
<path d="M0.940539 123.29C0.887267 123.289 0.834921 123.276 0.787587 123.252C0.740253 123.227 0.699213 123.192 0.667674 123.15C0.632024 123.101 0.609877 123.044 0.603487 122.985C0.597096 122.925 0.606689 122.865 0.631291 122.81L6.21594 110.347C6.23967 110.291 6.27802 110.244 6.32689 110.209C6.37576 110.173 6.43331 110.152 6.49335 110.147L20.1366 108.729C20.1968 108.722 20.2577 108.732 20.3129 108.756C20.3681 108.781 20.4156 108.82 20.4504 108.87C20.4867 108.918 20.5089 108.975 20.5145 109.035C20.5201 109.095 20.509 109.155 20.4823 109.209L14.7885 121.55C14.7641 121.604 14.726 121.65 14.6782 121.684C14.6303 121.718 14.5742 121.739 14.5156 121.745L0.981469 123.286L0.940539 123.29ZM6.76167 110.8L1.49991 122.543L14.2336 121.093L19.5818 109.468L6.76167 110.8Z" fill="#24071D"/>
<path d="M9.99157 134.226C9.6003 134.226 9.21468 134.133 8.86615 133.956C8.51762 133.779 8.21605 133.522 7.98601 133.207L1.38722 124.146C1.1323 123.796 0.974177 123.385 0.928683 122.955C0.88319 122.525 0.95192 122.091 1.12799 121.695L5.71668 111.465C5.89375 111.071 6.17183 110.73 6.52304 110.476C6.87426 110.222 7.28625 110.065 7.71769 110.02L18.8961 108.856C19.3304 108.809 19.7694 108.878 20.1686 109.055C20.5678 109.231 20.9132 109.51 21.17 109.862L27.7688 118.923C28.0221 119.273 28.1789 119.684 28.2236 120.114C28.2682 120.544 28.1992 120.978 28.0234 121.374L23.4302 131.603C23.2531 131.998 22.975 132.339 22.6238 132.593C22.2726 132.846 21.8606 133.003 21.4292 133.048L10.2508 134.213L9.99157 134.226ZM19.1462 109.522H18.9643L7.78136 110.686C7.47157 110.723 7.17675 110.839 6.92623 111.025C6.67571 111.21 6.47821 111.457 6.35337 111.742L1.75558 121.967C1.63094 122.253 1.58261 122.567 1.61528 122.877C1.64795 123.187 1.7605 123.484 1.94204 123.738L8.54539 132.799C8.72949 133.053 8.97723 133.253 9.26377 133.382C9.55032 133.51 9.8656 133.56 10.178 133.529L21.361 132.373C21.6738 132.342 21.9727 132.228 22.2274 132.044C22.4822 131.86 22.6837 131.613 22.8117 131.327L27.3913 121.102C27.5159 120.815 27.5643 120.502 27.5316 120.192C27.4989 119.881 27.3864 119.585 27.2048 119.33L20.6015 110.278C20.438 110.046 20.2209 109.856 19.9685 109.724C19.7161 109.593 19.4357 109.523 19.1508 109.522H19.1462Z" fill="#24071D"/>
<path d="M22.3385 132.786L14.9347 122.61C14.6774 122.257 14.519 121.843 14.4759 121.409C14.4327 120.975 14.5063 120.537 14.6892 120.141L19.8463 108.919L20.4648 109.2L15.3077 120.422C15.1784 120.71 15.1267 121.026 15.1578 121.34C15.1889 121.654 15.3017 121.954 15.485 122.211L22.8933 132.387L22.3385 132.786Z" fill="#24071D"/>
<path d="M14.4301 121.078L0.892578 122.615L0.969801 123.29L14.5073 121.754L14.4301 121.078Z" fill="#24071D"/>
<path d="M210.092 24.7258L206.577 35.3632C206.555 35.4367 206.526 35.508 206.49 35.5762C206.372 35.8445 206.197 36.0841 205.976 36.2784C205.695 36.5275 205.353 36.6993 204.985 36.7767L193.979 39.0419C193.613 39.1175 193.233 39.0957 192.878 38.9788C192.523 38.8619 192.205 38.654 191.956 38.376L184.461 30.0445C184.213 29.7651 184.042 29.4263 183.965 29.0614C183.887 28.6969 183.909 28.318 184.029 27.965L187.54 17.3321C187.658 16.9781 187.867 16.6611 188.147 16.4124C188.426 16.1637 188.765 15.9919 189.131 15.9141L200.137 13.6488C200.505 13.5719 200.886 13.5938 201.242 13.7123C201.499 13.7939 201.738 13.9265 201.942 14.1019C202.021 14.1654 202.094 14.2351 202.161 14.3103L209.637 22.6463C209.89 22.9225 210.065 23.2601 210.145 23.6252C210.225 23.9903 210.206 24.3699 210.092 24.7258Z" fill="white"/>
<path d="M210.093 24.7257L206.578 35.3631C206.556 35.4367 206.527 35.5079 206.491 35.5761C206.019 35.6244 205.543 35.528 205.127 35.2997C204.875 35.1618 204.648 34.9809 204.459 34.7651L197.919 27.3715C197.794 27.2336 197.685 27.0815 197.596 26.9184C197.442 26.6309 197.351 26.3145 197.328 25.9897C197.306 25.6838 197.341 25.3765 197.432 25.0836L200.434 15.6875C200.529 15.3865 200.683 15.1077 200.889 14.8674C201.17 14.5351 201.536 14.2846 201.948 14.1426C202.026 14.2061 202.099 14.2758 202.167 14.351L209.638 22.6462C209.891 22.9224 210.066 23.26 210.146 23.6251C210.226 23.9902 210.208 24.3698 210.093 24.7257Z" fill="#FDAF4E"/>
<path d="M193.548 39.4453C193.199 39.4457 192.854 39.3728 192.535 39.2315C192.216 39.0903 191.931 38.8837 191.697 38.6253L184.207 30.2712C183.918 29.949 183.719 29.5569 183.63 29.1341C183.539 28.7091 183.566 28.2676 183.707 27.8565L187.213 17.2281C187.352 16.8181 187.594 16.451 187.918 16.1627C188.242 15.8744 188.635 15.6748 189.06 15.5835L200.065 13.3183C200.493 13.2285 200.937 13.2536 201.352 13.3908C201.651 13.4874 201.927 13.6413 202.166 13.8438C202.255 13.9179 202.339 13.9981 202.416 14.084L209.907 22.4381C210.195 22.7607 210.393 23.1531 210.482 23.576C210.571 23.999 210.546 24.4377 210.411 24.8483L206.91 35.4722C206.881 35.5642 206.845 35.6537 206.8 35.7395C206.666 36.0434 206.465 36.3141 206.214 36.5323C205.888 36.8233 205.491 37.0234 205.063 37.1122L194.058 39.3774C193.89 39.4166 193.72 39.4394 193.548 39.4453ZM200.575 13.9299C200.451 13.9285 200.327 13.9407 200.206 13.9662L189.201 16.2314C188.893 16.298 188.609 16.4427 188.374 16.6515C188.14 16.8604 187.964 17.1261 187.864 17.4229L184.353 28.0558C184.256 28.348 184.237 28.6603 184.298 28.9619C184.364 29.2693 184.508 29.5547 184.716 29.791L192.207 38.1361C192.417 38.3672 192.684 38.5404 192.981 38.6388C193.278 38.7372 193.596 38.7576 193.903 38.6978L204.909 36.4326C205.22 36.3674 205.508 36.2222 205.745 36.0113C205.928 35.8505 206.073 35.6528 206.173 35.4314C206.203 35.3735 206.227 35.3128 206.246 35.2502L209.761 24.6082C209.859 24.3112 209.877 23.9937 209.813 23.6876C209.749 23.3815 209.606 23.0975 209.397 22.8639L201.907 14.5189C201.85 14.458 201.789 14.4006 201.725 14.3467C201.553 14.201 201.353 14.0902 201.138 14.0205C200.957 13.959 200.766 13.9283 200.575 13.9299Z" fill="#24071D"/>
<path d="M205.926 36.7496L197.772 27.4713C197.563 27.234 197.295 27.0562 196.995 26.9559C196.694 26.8557 196.373 26.8365 196.062 26.9004L183.715 29.4647L183.574 28.7987L195.926 26.2345C196.355 26.1464 196.8 26.173 197.215 26.3114C197.63 26.4499 198.001 26.6953 198.291 27.0228L206.454 36.3011L205.926 36.7496Z" fill="#24071D"/>
<path d="M201.023 13.2882L196.89 26.2217L197.54 26.4278L201.673 13.4943L201.023 13.2882Z" fill="#24071D"/>
<path d="M32.4074 157.953C34.1555 157.953 35.5727 156.541 35.5727 154.799C35.5727 153.058 34.1555 151.646 32.4074 151.646C30.6593 151.646 29.2422 153.058 29.2422 154.799C29.2422 156.541 30.6593 157.953 32.4074 157.953Z" fill="#E3803A"/>
<path d="M32.4083 158.301C31.7145 158.302 31.0359 158.098 30.4586 157.715C29.8813 157.331 29.4312 156.786 29.1652 156.147C28.8993 155.509 28.8295 154.806 28.9646 154.128C29.0998 153.45 29.4338 152.827 29.9244 152.339C30.4151 151.85 31.0403 151.517 31.7209 151.382C32.4014 151.248 33.1068 151.317 33.7477 151.582C34.3886 151.847 34.9361 152.296 35.3211 152.871C35.706 153.446 35.911 154.122 35.9101 154.813C35.9089 155.738 35.5396 156.624 34.8831 157.278C34.2267 157.932 33.3367 158.3 32.4083 158.301ZM32.4083 152C31.8496 151.999 31.3031 152.163 30.8381 152.471C30.373 152.78 30.0104 153.219 29.7959 153.733C29.5815 154.247 29.5249 154.813 29.6333 155.359C29.7418 155.905 30.0104 156.407 30.4052 156.801C30.8 157.195 31.3032 157.463 31.8511 157.572C32.3991 157.681 32.9672 157.625 33.4835 157.413C33.9998 157.2 34.4411 156.839 34.7517 156.376C35.0622 155.914 35.2279 155.37 35.2279 154.813C35.2291 154.443 35.1572 154.076 35.0161 153.734C34.8751 153.392 34.6677 153.08 34.4059 152.818C34.144 152.555 33.8329 152.347 33.4901 152.204C33.1474 152.061 32.7798 151.987 32.4083 151.986V152Z" fill="#24071D"/>
<path opacity="0.26" d="M173.979 96.3021L173.747 96.8005L151.854 143.804C151.529 144.501 151.01 145.092 150.359 145.506C149.708 145.92 148.952 146.141 148.18 146.141H145.451C146.72 145.906 149.321 145.018 149.876 143.817L171.769 96.8367L172.037 96.2568L173.979 96.3021Z" fill="#680000"/>
<path opacity="0.26" d="M174.056 18.2611V95.3736C174.072 95.6778 174.046 95.9827 173.979 96.2797L172.032 96.2208V15.3118C172.628 15.5439 173.14 15.9494 173.501 16.4755C173.862 17.0016 174.055 17.6238 174.056 18.2611Z" fill="#680000"/>
<path opacity="0.26" d="M175.593 99.8814L154.646 145.05L153.796 146.862C153.47 147.56 152.952 148.15 152.301 148.564C151.65 148.979 150.894 149.199 150.121 149.2H147.756L147.697 148.991H147.793C148.872 148.798 149.89 148.349 150.759 147.683C151.629 147.017 152.325 146.153 152.791 145.163L175.207 97.4802C175.505 97.7959 175.701 98.1935 175.77 98.6216C175.839 99.0497 175.777 99.4886 175.593 99.8814Z" fill="#680000"/>
<path d="M159.071 123.503C159.014 123.503 158.958 123.488 158.908 123.461C158.858 123.434 158.816 123.394 158.785 123.347C158.755 123.299 158.736 123.244 158.732 123.188C158.728 123.131 158.738 123.074 158.762 123.023L165.615 108.145C165.634 108.104 165.66 108.066 165.693 108.035C165.726 108.004 165.765 107.98 165.807 107.965C165.85 107.949 165.895 107.942 165.94 107.944C165.985 107.946 166.029 107.958 166.07 107.977C166.111 107.996 166.148 108.022 166.179 108.055C166.21 108.088 166.234 108.127 166.249 108.169C166.265 108.211 166.272 108.256 166.27 108.301C166.268 108.345 166.258 108.39 166.239 108.43L159.385 123.304C159.358 123.364 159.314 123.414 159.258 123.45C159.202 123.485 159.137 123.504 159.071 123.503Z" fill="#FBE1CA"/>
<path d="M148.642 144.968C148.577 144.97 148.513 144.952 148.457 144.918C148.402 144.883 148.358 144.833 148.33 144.774C148.303 144.715 148.293 144.649 148.302 144.585C148.312 144.52 148.34 144.46 148.383 144.411C148.383 144.411 150.016 142.454 153.013 136.048C153.031 136.007 153.058 135.97 153.091 135.94C153.124 135.909 153.163 135.886 153.206 135.87C153.248 135.855 153.293 135.849 153.338 135.851C153.383 135.854 153.427 135.865 153.468 135.885C153.509 135.903 153.547 135.929 153.578 135.962C153.608 135.995 153.632 136.034 153.648 136.076C153.663 136.119 153.67 136.164 153.667 136.209C153.664 136.254 153.652 136.298 153.631 136.338C150.584 142.857 148.97 144.778 148.902 144.855C148.869 144.891 148.829 144.92 148.784 144.939C148.74 144.959 148.691 144.969 148.642 144.968Z" fill="#FBE1CA"/>
<path d="M205.544 32.7402C205.51 32.7463 205.474 32.7463 205.44 32.7402C205.397 32.7264 205.357 32.7042 205.323 32.675C205.289 32.6459 205.261 32.6103 205.241 32.5703C205.22 32.5303 205.208 32.4867 205.205 32.442C205.202 32.3972 205.207 32.3523 205.222 32.3098L207.727 24.7304C207.756 24.6451 207.818 24.5748 207.899 24.5349C207.98 24.4949 208.074 24.4887 208.159 24.5174C208.202 24.5308 208.242 24.5525 208.276 24.5812C208.31 24.6099 208.338 24.6452 208.358 24.6848C208.379 24.7244 208.391 24.7677 208.394 24.8121C208.397 24.8565 208.392 24.9011 208.378 24.9433L205.872 32.5227C205.846 32.5879 205.801 32.6436 205.742 32.6824C205.684 32.7213 205.615 32.7414 205.544 32.7402Z" fill="#FBE1CA"/>
<path d="M4.42909 120.916C4.3843 120.918 4.33948 120.912 4.29718 120.897C4.25489 120.882 4.21595 120.859 4.18258 120.829C4.14922 120.799 4.12209 120.763 4.10275 120.723C4.0834 120.683 4.07221 120.639 4.06982 120.594C4.06743 120.55 4.07389 120.505 4.08882 120.463C4.10376 120.421 4.12688 120.382 4.15686 120.349C4.18684 120.316 4.2231 120.289 4.26357 120.269C4.30404 120.25 4.34792 120.239 4.39271 120.237L11.9238 119.416C12.0137 119.406 12.1039 119.432 12.1747 119.488C12.2455 119.544 12.291 119.626 12.3013 119.715C12.3102 119.805 12.2833 119.895 12.2263 119.966C12.1692 120.036 12.0867 120.081 11.9966 120.092L4.46548 120.912L4.42909 120.916Z" fill="#FBE1CA"/>
</svg>
