<svg width="170" height="39" viewBox="0 0 170 39" fill="none" xmlns="http://www.w3.org/2000/svg">
<path d="M122.537 37.9195H169.303V23.9403L110.55 23.5688L122.537 37.9195Z" fill="#8E3385"/>
<path d="M49.6695 32.5168C44.7396 32.5168 40.7215 28.4987 40.7215 23.5688C40.7215 18.639 44.7396 14.6208 49.6695 14.6208C53.4175 14.6208 56.6253 16.8831 57.9084 20.1584L63.9526 17.6597C61.6227 12.0883 56.1188 8.1377 49.6695 8.1377C41.1604 8.1377 34.2046 15.0598 34.2046 23.5688C34.2046 32.0779 41.1604 38.9999 49.6695 38.9999C56.1188 38.9999 61.6227 35.0493 63.9526 29.4779L57.9084 26.9792C56.5915 30.2207 53.4175 32.5168 49.6695 32.5168Z" fill="white"/>
<path d="M24.4129 12.4598V23.5689C24.4129 28.4987 20.3947 32.5169 15.4649 32.5169C10.535 32.5169 6.51686 28.4987 6.51686 23.5689V9.21826L0 11.9196V23.5689C0 32.0779 6.95582 39 15.4649 39C23.974 39 30.9298 32.0779 30.9298 23.5689V9.75852L24.4129 12.4598Z" fill="white"/>
<path d="M67.1943 2.70129V37.9194H73.7112V0L67.1943 2.70129Z" fill="white"/>
<path d="M76.9868 2.70129V9.21815L83.5037 6.51686V0L76.9868 2.70129Z" fill="#DF8943"/>
<path d="M76.9868 12.4596V37.9193H83.5037V9.7583L76.9868 12.4596Z" fill="white"/>
<path d="M24.4126 2.70129V9.21815L30.9295 6.51686V0L24.4126 2.70129Z" fill="#8E3385"/>
<path d="M24.4126 12.4596V23.5686H30.9295V9.7583L24.4126 12.4596Z" fill="white"/>
<path d="M125.847 37.9194L116.797 28.8701C117.405 27.2156 117.776 25.4935 117.776 23.6026V23.5688C117.776 15.0598 110.821 8.1377 102.312 8.1377C93.8025 8.1377 86.8467 15.0598 86.8467 23.5688C86.8467 32.0779 93.8025 38.9999 102.312 38.9999C106.6 38.9999 110.449 37.2779 113.286 34.509L116.696 37.9194H125.847ZM108.592 29.9169C106.971 31.5376 104.743 32.5168 102.244 32.5168C97.3142 32.5168 93.296 28.4987 93.296 23.5688C93.296 18.639 97.3142 14.6208 102.244 14.6208C107.174 14.6208 111.192 18.639 111.192 23.5688H102.244L108.592 29.9169Z" fill="white"/>
<path d="M137.666 33.8001C136.079 33.8001 134.796 32.5169 134.796 30.9299C134.796 29.3429 136.079 28.0598 137.666 28.0598C138.848 28.0598 139.861 28.8027 140.299 29.8156L142.224 29.0053C141.481 27.2157 139.725 25.9663 137.666 25.9663C134.931 25.9663 132.736 28.1949 132.736 30.8962C132.736 33.5975 134.964 35.826 137.666 35.826C139.725 35.826 141.481 34.5767 142.224 32.7871L140.299 31.9767C139.894 33.0572 138.848 33.8001 137.666 33.8001Z" fill="white"/>
<path d="M129.46 34.6779C129.46 34.3402 129.596 34.0701 129.832 33.8338C130.068 33.5974 130.372 33.4961 130.71 33.4961C131.047 33.4961 131.351 33.5974 131.588 33.8338C131.824 34.0701 131.959 34.3402 131.959 34.6779C131.959 35.0156 131.824 35.2857 131.588 35.5221C131.351 35.7584 131.047 35.8597 130.71 35.8597C130.372 35.8597 130.068 35.7584 129.832 35.5221C129.596 35.2857 129.46 35.0156 129.46 34.6779Z" fill="white"/>
<path d="M154.042 35.7248H156.001V29.6469L158.939 33.9352H159.006L161.876 29.5794V35.7248H163.97V25.9326H161.235L159.006 29.7144L156.778 25.9326H154.042V35.7248Z" fill="white"/>
<path d="M147.828 25.9326C145.059 25.9326 142.831 28.1612 142.831 30.93C142.831 33.6988 145.059 35.9274 147.828 35.9274C150.597 35.9274 152.825 33.6988 152.825 30.93C152.859 28.1612 150.597 25.9326 147.828 25.9326ZM147.929 33.8339C146.342 33.8339 145.025 32.5508 145.025 30.9638C145.025 29.3768 146.308 28.0599 147.929 28.0599C149.55 28.0599 150.833 29.343 150.833 30.9638C150.833 32.517 149.516 33.8339 147.929 33.8339Z" fill="white"/>
</svg>
