<?xml version="1.0" encoding="utf-8"?><svg viewBox="0 0 49 48" xmlns="http://www.w3.org/2000/svg" xmlns:xlink="http://www.w3.org/1999/xlink"><style>:root>svg{display:none}:root>svg:target{display:block}</style><svg viewBox="0 0 16 15" id="arrow" xmlns="http://www.w3.org/2000/svg"><path d="M7.584 14.796l1.647-1.634-4.325-4.325h10.135v-2.4H4.906l4.325-4.32L7.584.478l-7.16 7.16 7.16 7.159z"/></svg><svg viewBox="0 0 12 10" id="check" xmlns="http://www.w3.org/2000/svg"><path d="M1 4.818L4.125 8 11 1"/></svg><svg viewBox="0 0 49 48" id="fb" xmlns="http://www.w3.org/2000/svg"><g clip-path="url(#ca)"><path d="M24.744 0a24 24 0 100 48 24 24 0 000-48zm6.082 21.726l-.398 3.345a.632.632 0 01-.631.562h-3.474v9.915a.448.448 0 01-.442.452h-3.537a.448.448 0 01-.442-.455l.019-9.912h-2.63a.631.631 0 01-.632-.632V21.66a.631.631 0 01.632-.632h2.611v-3.24c0-3.748 2.233-5.788 5.495-5.788h2.675a.631.631 0 01.631.632v2.813a.631.631 0 01-.631.632h-1.64c-1.774.028-2.109.878-2.109 2.147v2.795h3.89a.633.633 0 01.613.707z"/></g><defs><clipPath id="ca"><path transform="translate(.744)" d="M0 0h48v48H0z"/></clipPath></defs></svg><svg viewBox="0 0 49 48" id="in" xmlns="http://www.w3.org/2000/svg"><g clip-path="url(#da)"><path d="M24.744 0a24 24 0 100 48 24 24 0 000-48zm-6.107 35.188a.812.812 0 01-.812.812h-3.448a.81.81 0 01-.812-.812v-14.46a.812.812 0 01.812-.811h3.448a.812.812 0 01.812.811v14.46zM16.11 18.556a3.277 3.277 0 111.245-.25c-.397.164-.823.25-1.254.25h.01zm20.565 16.699a.745.745 0 01-.746.745h-3.71a.745.745 0 01-.745-.745v-6.783c0-1.014.293-4.422-2.647-4.422-2.28 0-2.744 2.344-2.842 3.395v7.825a.745.745 0 01-.739.73h-3.58a.743.743 0 01-.746-.745v-14.59a.743.743 0 01.745-.748h3.581a.751.751 0 01.761.748v1.263c.847-1.263 2.103-2.251 4.778-2.251 5.93 0 5.896 5.539 5.896 8.58l-.006 6.998z"/></g><defs><clipPath id="da"><path transform="translate(.744)" d="M0 0h48v48H0z"/></clipPath></defs></svg><svg viewBox="0 0 49 48" id="inst" xmlns="http://www.w3.org/2000/svg"><path d="M24.744 27.792a3.793 3.793 0 100-7.585 3.793 3.793 0 000 7.585z"/><path d="M29.595 14.416h-9.7a4.737 4.737 0 00-4.738 4.737v9.698a4.737 4.737 0 004.737 4.737h9.701a4.737 4.737 0 004.737-4.737V19.15a4.737 4.737 0 00-4.737-4.734zm-4.85 15.793A6.209 6.209 0 1130.95 24a6.215 6.215 0 01-6.205 6.209zm6.243-10.883a1.534 1.534 0 11-.007-3.068 1.534 1.534 0 01.007 3.069z"/><path d="M24.744 0a24 24 0 100 48 24 24 0 000-48zm12 28.85a7.156 7.156 0 01-7.15 7.15h-9.7a7.159 7.159 0 01-7.15-7.15v-9.7a7.159 7.159 0 017.15-7.15h9.7a7.16 7.16 0 017.15 7.15v9.7z"/></svg><svg viewBox="0 0 48 48" id="mail" xmlns="http://www.w3.org/2000/svg"><path fill-rule="evenodd" clip-rule="evenodd" d="M24 48c13.255 0 24-10.745 24-24S37.255 0 24 0 0 10.745 0 24s10.745 24 24 24zm.057-25.256L33.781 16H14.334l9.723 6.744zm.595 1.945a1.043 1.043 0 01-.594.184 1.04 1.04 0 01-.595-.184L13 17.433v13.461c0 .525.45.95 1.005.95H34.11c.555 0 1.005-.425 1.005-.95V17.433l-10.463 7.256z"/></svg><svg viewBox="0 0 48 48" id="tg" xmlns="http://www.w3.org/2000/svg"><path d="M24 48c13.258 0 24-10.742 24-24S37.258 0 24 0 0 10.742 0 24s10.742 24 24 24zM10.982 23.48l23.14-8.922c1.074-.388 2.012.262 1.664 1.886l.002-.002-3.94 18.562c-.292 1.316-1.074 1.636-2.168 1.016l-6-4.422-2.894 2.788c-.32.32-.59.59-1.21.59l.426-6.106 11.12-10.046c.484-.426-.108-.666-.746-.242l-13.742 8.652-5.924-1.848c-1.286-.408-1.314-1.286.272-1.906z"/></svg><svg viewBox="0 0 49 48" id="twitter" xmlns="http://www.w3.org/2000/svg"><path d="M24.744 0a24 24 0 100 48 24 24 0 000-48zm11.953 16.737a10.13 10.13 0 01-2.056 2.258.88.88 0 00-.316.685v.079a14.392 14.392 0 01-.928 5.008 14.668 14.668 0 01-2.732 4.58 13.493 13.493 0 01-5.92 3.912 14.81 14.81 0 01-4.656.723 14.21 14.21 0 01-7.136-1.923.41.41 0 01-.196-.455.395.395 0 01.385-.297h.6a9.572 9.572 0 005.35-1.623 5.195 5.195 0 01-4.106-3.527.27.27 0 01.175-.344.271.271 0 01.141-.007c.287.054.58.082.872.082h.11a5.185 5.185 0 01-3.022-4.771.27.27 0 01.401-.237c.37.207.768.361 1.181.458a5.185 5.185 0 01-.837-6.288.272.272 0 01.446-.034 13.58 13.58 0 009.319 4.98h.025a.196.196 0 00.19-.212 5.492 5.492 0 01.12-1.894 5.023 5.023 0 013.378-3.613 5.555 5.555 0 011.64-.253 5.166 5.166 0 013.422 1.292.67.67 0 00.446.17.674.674 0 00.157-.022 9.567 9.567 0 002.527-1.042.269.269 0 01.395.316 5.124 5.124 0 01-1.361 2.17 9.274 9.274 0 001.654-.56.272.272 0 01.332.389z"/></svg></svg>